<COLLADA xmlns="http://www.collada.org/2005/11/COLLADASchema" version="1.4.1">
  <asset>
    <contributor/>
    <created>2026-02-17T18:01:32.393703</created>
    <modified>2026-02-17T18:01:32.393708</modified>
    <unit name="meter" meter="1.0"/>
    <up_axis>Z_UP</up_axis>
  </asset>
  <library_effects>
    <effect id="effect_link_1_s_stl003" name="effect_link_1_s_stl003">
      <profile_COMMON>
        <technique sid="common">
          <phong>
            <emission>
              <color>0.0 0.0 0.0 1.0</color>
            </emission>
            <ambient>
              <color>0.0 0.0 0.0 1.0</color>
            </ambient>
            <diffuse>
              <color>0.6784313917160034 0.7098039388656616 0.7411764860153198 1.0</color>
            </diffuse>
            <specular>
              <color>1 1 1 1.0</color>
            </specular>
            <shininess>
              <float>0.0</float>
            </shininess>
            <reflective>
              <color>0.0 0.0 0.0 1.0</color>
            </reflective>
            <reflectivity>
              <float>0.0</float>
            </reflectivity>
            <transparent>
              <color>0.0 0.0 0.0 1.0</color>
            </transparent>
            <transparency>
              <float>1.0</float>
            </transparency>
          </phong>
        </technique>
        <extra>
          <technique profile="GOOGLEEARTH">
            <double_sided>0</double_sided>
          </technique>
        </extra>
      </profile_COMMON>
    </effect>
  </library_effects>
  <library_geometries>
    <geometry id="geometry0" name="link_1_s_stl003">
      <mesh>
        <source id="cubeverts-array0">
          <float_array count="498" id="cubeverts-array0-array">-0.0575 -3.72529e-09 -0.06624999 -0.05707432 -0.003695879 -0.06346007 -0.05702078 0.004935477 -0.06346007 -0.05575714 -0.01404957 -0.06624999 -0.05575714 0.01404957 -0.06624999 -0.05532471 -0.01465964 -0.06346007 -0.05532471 0.01465964 -0.06346007 -0.05158542 -0.02474485 -0.06346007 -0.05158542 0.02474484 -0.06346007 -0.05063425 -0.02724745 -0.06624999 -0.05063425 0.02724745 -0.06624999 -0.04709509 -0.03252354 -0.06346007 -0.04709509 0.03252353 -0.06346007 -0.04244184 -0.03879356 -0.06624999 -0.04244184 0.03879355 -0.06624999 -0.04091298 0.03950008 -0.06315138 -0.03737498 -0.04331757 -0.0639904 -0.03169995 0.04720245 -0.06288696 -0.03167658 0.04798796 -0.06624999 -0.03167657 -0.04798796 -0.06624999 -0.03050001 0 -0.09974999 -0.02866063 -0.01043161 -0.09974999 -0.02866063 0.01043161 -0.09974999 -0.02473795 0.05169293 -0.06290819 -0.02336436 -0.01960503 -0.09974999 -0.02336436 0.01960502 -0.09974999 -0.02202545 -0.043 0.009852822 -0.02202545 0.038 0.009852822 -0.02155266 -0.04446481 0.007931995 -0.02040542 0.04045675 0.007717307 -0.01987635 0.038 0.01683965 -0.01987634 -0.043 0.01683965 -0.0191055 0.0394648 0.01652862 -0.01910549 -0.04446481 0.01652862 -0.01899105 0.05427329 -0.06624999 -0.01899104 -0.05427329 -0.06624999 -0.01804492 0.038 0.02078955 -0.01804492 -0.043 0.02078955 -0.0155894 0.038 0.02488285 -0.01558939 -0.043 0.02488285 -0.01525 0.02641377 -0.09974999 -0.01525 -0.02641378 -0.09974999 -0.01393051 0.04058351 0.02376723 -0.01139289 0.05610565 -0.05947725 -0.01127725 -0.043 0.03025819 -0.01127725 0.038 0.03025819 -0.01052904 -0.0615 -0.004633096 -0.01052904 -0.0615 0.00613309 -0.009703498 0.038 0.03184183 -0.009703495 -0.043 0.03184183 -0.008325536 0.04048882 0.0303929 -0.006846784 -0.0615 -0.01475 -0.006846782 -0.0615 0.01624999 -0.005296273 0.03003664 -0.09974999 -0.005296271 -0.03003664 -0.09974999 -0.005154263 0.05726852 -0.06624999 -0.00515426 -0.05726852 -0.06624999 -0.002483092 0.038 0.03740392 -0.002483088 -0.043 0.03740392 -0.002218224 0.038 0.03756507 -0.00221822 -0.043 0.03756507 -0.002203258 0.03916876 0.0369477 -0.002048468 -0.04446481 0.03669537 -0.001437368 0.04 0.03569909 -1.862645e-09 0.0575 -0.06624999 -1.862645e-09 0.0575 -0.05627878 1.862645e-09 -0.0575 -0.06624999 7.358752e-05 -0.0615 -0.02299739 7.359125e-05 -0.0615 0.02449737 0.00331079 -0.062 -0.007287105 0.003310792 -0.062 0.008787098 0.004696203 0.05718605 -0.05440724 0.005154258 0.05726852 -0.06524998 0.005154263 -0.05726852 -0.06524998 0.005296267 0.03003664 -0.09974999 0.005296269 -0.03003664 -0.09974999 0.005747428 -0.043 0.04131924 0.005759751 0.03895836 0.04132489 0.005924822 -0.04416876 0.0408143 0.006410334 0.04 0.03943229 0.008179876 0.04 0.04000919 0.008468494 0.038 0.04217491 0.008468498 -0.043 0.04217491 0.00939738 -0.0615 -0.02838048 0.009397382 -0.0615 0.02988047 0.01461828 -0.043 0.04341187 0.0146194 0.03844933 0.04341201 0.01486859 0.04 0.0414276 0.01525 0.02641377 -0.09974999 0.01525 -0.02641378 -0.09974999 0.01587811 -0.062 -0.01730921 0.01587811 -0.062 0.01880919 0.01736116 -0.04431678 0.04290098 0.01899104 0.05427329 -0.06524998 0.01899105 -0.05427329 -0.06524998 0.02 0.038 0.04374999 0.02 0.04 0.04174998 0.02000001 -0.0615 -0.03025001 0.02000001 -0.0615 0.03174999 0.02000001 -0.04300049 0.04374999 0.02000003 0.03800013 0.04374999 0.02000009 -0.043 0.04374999 0.02231381 0.03974602 0.04204433 0.02249261 0.038 0.04367768 0.02261229 -0.043 0.04367057 0.02336435 -0.01960502 -0.09974999 0.02336435 0.01960502 -0.09974999 0.02866063 -0.01043161 -0.09974999 0.02866063 0.01043161 -0.09974999 0.0305 0 -0.09974999 0.03060263 -0.0615 -0.02838048 0.03060263 -0.0615 0.02988047 0.03086039 0.04 0.04028531 0.03102273 0.03869653 0.04231314 0.03154188 -0.043 0.04217202 0.0315493 -0.062 -0.01373236 0.0315493 -0.062 0.01523235 0.03166275 0.04800102 -0.06520842 0.03167658 -0.04798796 -0.06524998 0.0383346 0.038 0.03964526 0.03836234 -0.0438041 0.03963498 0.03852364 -0.062 0.0007499965 0.03873811 0.03947033 0.03851616 0.0391118 0.038 0.03926932 0.03992642 -0.0615 -0.02299739 0.03992643 -0.0615 0.02449737 0.03995972 -0.043 0.03883685 0.04244184 -0.03879356 -0.06524998 0.04244184 0.03879355 -0.06524998 0.04364457 0.05350001 0.01558331 0.04642709 0.038 0.03467063 0.04684679 -0.06149999 -0.01475 0.04684679 -0.06149999 0.01624999 0.04710867 0.05350001 0.01558331 0.04749257 -0.04299999 0.03381296 0.04884072 0.05350001 0.01258331 0.04886135 0.038 0.03262511 0.04886135 -0.04299999 0.03262511 0.05052905 -0.06149999 -0.0046331 0.05052905 -0.06149999 0.00613309 0.0506325 0.02725057 -0.06522801 0.05063425 -0.02724744 -0.06524998 0.05265647 0.03908621 0.02872419 0.05385881 -0.04422351 0.02725671 0.05575715 -0.01404957 -0.06524998 0.05575715 0.01404957 -0.06524998 0.05686876 0.03947033 0.02119736 0.05688914 0.038 0.02284504 0.05688915 -0.04299999 0.02284504 0.0575 3.72529e-09 -0.06524998 0.05760403 0.038 0.02160514 0.05862129 -0.04299999 0.01965493 0.05979345 -0.04299999 -0.01554364 0.06044699 0.038 -0.01384593 0.060447 -0.04299999 -0.01384593 0.06101437 0.038 0.01366594 0.061095 0.038 -0.01190708 0.06127421 0.03932217 -0.007521168 0.06172291 0.038 0.01115189 0.06172333 -0.04299999 0.01115024 0.0623231 -0.04299999 -0.006849726 0.06276535 0.03910966 0.005240994 0.06279582 0.038 -0.003435445 0.0629441 -0.04299999 -0.001441916 0.0629441 0.038 -0.001441916 0.06297618 -0.04299999 0.002181152</float_array>
          <technique_common>
            <accessor count="166" source="#cubeverts-array0-array" stride="3">
              <param type="float" name="X"/>
              <param type="float" name="Y"/>
              <param type="float" name="Z"/>
            </accessor>
          </technique_common>
        </source>
        <source id="cubenormals-array0">
          <float_array count="984" id="cubenormals-array0-array">-0.6381196 0.4527703 -0.6227378 0.6779722 0.3914276 -0.6222042 0.783774 -0.09722725 -0.6133882 0.9242638 -0.290355 -0.2478512 0.9779333 -0.1213127 -0.170087 0.7721277 -0.1361469 -0.6207115 -0.7749898 0.09613778 -0.6246185 0.06746364 0.9976671 0.01043863 -0.8141085 0.5776411 -0.05965022 -0.9322125 0.3618483 0.00676336 -0.9353825 0.3468114 0.06914792 -0.8560724 0.4941773 0.151423 -0.8384344 0.4839956 0.2505516 -0.9912843 0.1229692 -0.0472656 -0.9786637 0.1706969 0.1143669 0.7383187 0.287632 -0.6100437 0.7721277 0.1361469 -0.6207115 0.783774 0.09722728 -0.6133882 0.9996482 0.00158013 0.02647484 -0.2645161 -0.7267522 -0.6339263 -0.1657239 -0.7655789 -0.6216305 0.1535536 0.7759358 -0.6118373 0 0.7733429 -0.633988 0.1675841 0.7741723 -0.6103874 0.4383653 0.8845623 -0.1593283 0.2110309 0.9748795 -0.0712465 0.5058131 0.6028048 -0.6170733 0.2676061 0.7352413 -0.6227418 0.3528869 0.7088813 -0.6107029 0.6458939 0.4571486 -0.6114215 0.5102797 0.6001604 -0.6159725 0.3514746 -0.7093728 -0.6109467 0.6032981 -0.7063712 -0.3702312 0.2676058 -0.7352414 -0.6227418 0.511581 -0.5989842 -0.616038 0.5055895 -0.6025375 -0.6175175 0.7385899 -0.2866919 -0.6101581 0.8956199 -0.3476449 -0.2775031 0.6778054 -0.3913315 -0.6224464 0.6453084 -0.4578707 -0.6114994 -0.7632697 0.1345852 -0.6319067 -0.6699868 0.3868172 -0.6336325 -0.7303977 0.2835117 -0.621402 -0.7749898 -0.09613781 -0.6246185 -0.6381196 -0.4527703 -0.6227378 -0.3470366 0.9238103 0.1616787 -0.3414994 0.9306614 0.1313295 -0.2645163 0.7267521 -0.6339262 -0.1919069 0.9658218 0.1742413 -0.4259281 0.8891962 0.167079 -0.4683371 0.8676678 0.1667721 -0.7406663 0.640278 0.2036113 -0.8109522 0.5348061 0.2373584 -0.7070954 0.6800353 0.1938248 -0.6535828 0.7353337 0.1792035 -0.5252355 0.8348004 0.1650334 -0.642538 0.7523146 0.1454912 -0.4428307 0.8937557 -0.07142664 -0.3475658 0.7014846 -0.6221876 -0.4998474 0.595695 -0.6287289 -0.5057988 0.5922137 -0.6272562 0.9999608 0 -0.00885447 0.9925322 -0.04346769 -0.1139754 0.9029756 0.3509494 -0.2479306 0.9798225 0.1215471 -0.1586642 0.9963644 -0.0002727588 -0.08519354 0.9972451 0 -0.07417629 0.9575592 0.2147608 -0.1922453 0.852349 0.5191165 -0.06339873 -0.1916169 0.965579 0.1758983 -0.1657239 0.7655789 -0.6216305 -0.034831 0.7755665 -0.6303042 -0.2114911 0.9770052 -0.02706161 0.7709226 -0.5530588 -0.3159184 0.7758401 -0.5557601 -0.2986683 0.7736313 -0.5489206 -0.3165137 0.8034156 -0.5087895 -0.3092839 0.1675841 -0.7741722 -0.6103875 -0 -0.7733429 -0.6339879 -0.03482981 -0.7755665 -0.6303043 0.1535525 -0.7759359 -0.6118374 0.07626414 -0.9832588 -0.1654872 -0.04466513 -0.9945726 -0.09396888 -0.9872993 0.0061241 0.1587532 -0.9923258 -0.1230984 -0.01166383 -0.8141084 -0.577641 -0.05965099 -0.7632697 -0.1345852 -0.6319067 -0.7303977 -0.2835117 -0.621402 -0.6699868 -0.3868171 -0.6336325 -0.2084288 0.2496312 0.9456436 -0.1971769 1.013846e-06 0.980368 0.1964889 0.8028456 0.5628775 0.1096254 0.8401016 0.5312359 -0.09717752 0.790112 0.6052104 -0.1622011 0.9748595 0.1527735 -0.1341675 0.989873 0.0463734 0 0.9984545 0.05557603 0.04508627 0.9986439 0.0260306 0.06080453 0.9980392 0.01484724 0.06263804 0.9979838 0.01023718 -0.634606 0.7531153 0.1734721 -0.6347884 0.753399 0.1715621 -0.6276667 0.7590327 0.1729274 0.9903811 -0.002612435 0.1383421 0.007902597 -0.9993692 -0.03462351 -0.6820465 -0.7277138 0.07242345 -0.7644268 -0.6294199 0.1395785 -0.1116752 -0.5529729 0.8256813 0.1447197 -0.5526584 0.8207465 0.1579478 0.0001466289 0.9874474 0.1655032 -0.0006517567 0.986209 0.1382043 -0.5501666 0.8235388 0.3428122 0.0005558188 0.9394038 0.3780124 0.4963788 0.7814824 0.336862 0.5135673 0.7891595 0.7862263 0.5573815 -0.2667846 0.7954773 0.5445465 -0.265866 0.8698361 0.4613982 -0.1746336 0.5925288 0.783724 -0.1862426 0.6988536 0.7118508 -0.06980127 0.7660924 0.6378707 -0.07888944 0.6340275 0.7432144 -0.2136388 0.695345 0.6798365 -0.2330615 0.6969507 0.6782333 -0.2329364 0.6754111 0.6259069 0.3899493 0.6666018 0.625798 0.4049923 -0.1453987 0.9409774 0.3056481 -0.1546158 0.945133 0.2877802 -0.199329 0.8858287 0.4190171 -0.3879664 -0.4145281 0.8231941 -0.3815057 -0.5042052 0.7747454 -0.4263052 1.703175e-06 0.9045793 -0.4263196 -1.882269e-08 0.9045727 -0.5314826 -0.4914321 0.6899426 -0.4520711 -0.4935363 0.7430031 0.03093232 -0.9991845 -0.02595483 0.02045417 -0.9991629 -0.03542765 0.4159388 -0.8394791 -0.3496708 0.4167534 -0.8390642 -0.3496971 0.2041517 -0.9431003 -0.2624572 0.1075815 -0.9765782 -0.1863365 0.03165143 -0.9993827 -0.01524253 -0.9322125 -0.3618483 0.00676336 -0.8560725 -0.4941772 0.1514228 -0.8449879 -0.4877785 0.2192432 -0.1971898 -9.286659e-09 0.9803653 -0.2727707 -0.4161502 0.8674187 -0.2999801 -2.069647e-05 0.9539454 -0.2994105 -1.451511e-08 0.9541243 -0.06159769 0.01306618 0.9980155 0.4309845 0.6928927 0.5780588 0.4232458 0.6958681 0.5801986 0.5750048 0.4484696 0.6842839 0.4625882 0.4945013 0.7358537 0.6433274 0.0003559001 0.7655912 -0.1137618 0.9302118 0.3489471 -0.08226573 0.9180089 0.3879329 -0.1431186 0.8870182 0.4389942 -0.1043759 0.864204 0.4921961 0 0.888695 0.4584988 -0.02755181 0.8982844 0.43855 -0.03846577 0.7897121 0.6122705 -0.6177179 0.6106266 0.4955399 -0.5733985 0.6532844 0.4944023 -0.5530502 0.626164 0.5495945 -0.6742222 0.6305009 0.3845687 -0.6785407 0.6114687 0.4070486 -0.007212074 -0.9991372 -0.04090161 0.006446161 -0.9993108 -0.03655791 -0.01775048 -0.9947617 -0.1006677 0.02155166 -0.9922684 -0.1222253 -0.5222828 -0.5385248 0.6612198 0.2347189 -0.5461764 0.8041133 0.435445 3.444754e-05 0.9002153 0.3486374 3.588692e-07 0.9372576 0.006446146 -0.9993108 0.03655793 -0.02178544 -0.9993894 0.0273181 -0.06270297 -8.668354e-07 0.9980322 -0.06268995 -2.729835e-09 0.998033 -0.05572011 -0.4599054 0.8862179 0.00153405 -0.5442005 0.8389539 0.02560114 -0.5440227 0.8386798 0.755821 0.6102046 0.237455 0.7424613 0.6034431 0.2908739 0.7421725 0.5045906 0.441099 0.8242766 3.881933e-08 0.5661873 0.8116786 0.001425571 0.5841026 -0.2609822 0.8697137 0.4189108 -0.5553898 0.4144072 0.7209777 -0.5032669 0.6256503 0.5960571 -0.2206212 0.8688906 0.4431201 -0.4725924 0.4163466 0.7767316 -0.426991 0.4266226 0.7972904 0.03577914 -0.9992748 -0.01302256 0.830918 -0.5563462 -0.007357627 0.8341023 -0.5432302 -0.09578241 0.8110173 -0.543095 -0.2174828 0.779189 -0.5589584 -0.2836021 0.6215448 -0.5845346 0.5215376 0.5489469 -0.5440419 0.6345673 0.4102644 -0.5716056 0.7105985 0.4848549 -0.5433816 0.6853117 -0.8129653 -0.5471277 0.1993458 -0.8209174 -0.5331636 0.2045267 -0.8088 -0.5463568 0.2175702 -0.9353825 -0.3468114 0.06914792 -0.9806319 -0.1564905 0.1177785 0.08146618 0.8510633 0.5187047 0.03405766 0.8733653 0.4858735 0.08489567 0.8412431 0.53395 0.06016661 0.685194 0.7258714 0.02118301 0.6841552 0.7290287 0.01220993 0.6904386 0.7232879 -0.004667365 0.7386625 0.6740593 -0.7093188 -2.504911e-08 0.7048879 -0.7093194 0 0.7048872 -0.7800269 0 0.6257459 -0.5934439 -0.5477542 0.5897369 -0.9084698 0.00563513 0.4179127 -0.919364 0.1603539 0.3592444 -0.8948522 0.331784 0.2985948 -0.8530347 0.4510927 0.2623874 -0.8320167 0.492191 0.2559224 -0.7892783 0.493065 0.36596 -0.9072242 -4.326764e-08 0.4206473 -0.6246688 -0.7800177 0.03689513 -0.5384206 -0.8426762 -0 -0.4435337 -0.8951731 -0.04407823 -0.6480324 -0.7587489 -0.06598558 -0.3475662 -0.7014845 -0.6221874 -0.4998473 -0.5956951 -0.6287289 -0.5057984 -0.5922142 -0.6272562 -0.2107677 -0.9736636 -0.08692738 -0.2270286 -0.9703763 -0.08263163 -0.03880559 -0.9991469 0.01412409 -0.03042744 -0.9992108 0.02553167 -0.6363552 -0.556716 0.5339657 0.5322139 0.001051121 0.8466092 0.4469988 -9.679871e-05 0.8945345 0.5548521 -0.001510517 0.8319477 0.5347901 -0.2664776 0.8018661 -0.007212056 -0.9991372 0.04090163 -0.01947343 -0.9992412 0.03372895 -0.1827668 -0.5505138 0.814574 -0.3678444 -0.5477612 0.7514307 -0.4130022 -0.5636644 0.7153401 -0.1441742 -0.5573663 0.8176531 -0.1644692 -0.5516652 0.817689 0.02899688 2.116691e-08 0.9995794 0.03039024 -4.289185e-05 0.9995381 0.03038985 -0.005063368 0.9995253 0.9848022 1.509447e-06 0.1736794 0.8466442 0.4756663 0.2386109 0.9625049 -5.971625e-07 0.2712641 0.9394561 -0.002419778 0.3426608 0.7837227 -0.5514199 0.285858 0.7995906 -0.4149254 0.4341564 0.7469848 -0.5454013 0.3801988 0.7986132 0.4945033 0.3430502 0.7520716 0.4963479 0.4336209 0.9188148 0.002036526 0.3946837 0.8663184 4.079929e-08 0.4994921 0.8788106 -0.0004518923 0.4771707 0.7317771 -0.001443962 0.6815425 0.5528536 -0.5371187 0.6370687 0.7167608 3.375587e-08 0.6973191 0.6554228 3.085814e-08 0.7552621 0.03577914 -0.9992748 0.01302256 0.04161244 -0.9991339 0 0.7837861 -0.5516316 0.2852753 0.8353857 -0.5371348 0.1166915 0.8296874 -0.5582283 0 0.03165144 -0.9993827 0.01524253 0.03093233 -0.9991844 0.02595484 0.00790259 -0.9993692 0.03462353 0.02045418 -0.9991629 0.03542767 -0.9230062 -0.1472947 0.3554768 -0.9073713 -1.021756e-07 0.4203299 -0.9072245 -8.545153e-08 0.4206466 -0.8972871 -0.3445283 0.2760001 -0.9002295 -0.3337777 0.279606 -0.7800273 -3.67354e-08 0.6257457 -0.6508328 -0.5512018 0.5221045 -0.7205383 -0.5422094 0.4322424 -0.05250673 -0.9944708 -0.0909443 -0.1010214 -0.9912665 -0.08476695 -0.01947342 -0.9992412 -0.03372895 -0.0388056 -0.9991469 -0.01412408 -0.02178544 -0.9993894 -0.02731808 -0.03042746 -0.9992108 -0.02553165 -0.03610434 -0.999348 4.284104e-09 -0.03610434 -0.999348 0 -0.804593 -0.5466399 0.2319805 -0.8320174 -0.4921891 0.2559235 -0.7764038 -0.5633305 0.2825879 -0.7497944 -0.5456808 0.3742205 -0.7892795 -0.4930631 0.3659599 -0 0 -1 0 0 -1 -0 0 -1 0 0 -1 0 0 -1 0 0 -1 0 0 -1 -0 0 -1 0 0 -1 0 0 -1 0 0 -1 0 0 -1 0 0 -1 0 0 -1 0 0 -1 0 0 -1 -0.04486512 0.9989931 0 0.04486514 0.998993 0 -0.6102571 -2.58357e-08 0.7922034 -0.610257 -2.155505e-08 0.7922035 -0.5197862 -2.299248e-08 0.8542964 -0.5197858 -2.447933e-08 0.8542966 0 0 1 -0 0 1 -0.8575352 -4.038565e-08 0.5144253 -0.8575352 -4.038565e-08 0.5144253 0 -1 -0 -0 -1 0 0 -1 0 0 -1 -0 -0 -1 0</float_array>
          <technique_common>
            <accessor count="328" source="#cubenormals-array0-array" stride="3">
              <param type="float" name="X"/>
              <param type="float" name="Y"/>
              <param type="float" name="Z"/>
            </accessor>
          </technique_common>
        </source>
        <vertices id="cubeverts-array0-vertices">
          <input semantic="POSITION" source="#cubeverts-array0"/>
        </vertices>
        <triangles count="328" material="ref_link_1_s_stl003">
          <input offset="0" semantic="VERTEX" source="#cubeverts-array0-vertices"/>
          <input offset="1" semantic="NORMAL" source="#cubenormals-array0"/>
          <p>25 0 10 0 14 0 108 1 106 1 140 1 149 2 144 2 109 2 154 3 144 3 160 3 144 4 149 4 160 4 107 5 109 5 144 5 0 6 4 6 20 6 71 7 135 7 72 7 10 8 12 8 14 8 10 9 4 9 8 9 6 10 8 10 4 10 10 11 8 11 12 11 8 12 27 12 12 12 0 13 2 13 4 13 6 14 4 14 2 14 108 15 140 15 145 15 108 16 145 16 109 16 145 17 149 17 109 17 165 18 164 18 161 18 54 19 35 19 41 19 56 20 35 20 54 20 74 21 64 21 72 21 53 22 64 22 74 22 72 23 93 23 74 23 93 24 135 24 117 24 135 25 93 25 72 25 117 26 106 26 88 26 88 27 74 27 93 27 117 28 88 28 93 28 128 29 140 29 106 29 117 30 128 30 106 30 89 31 118 31 94 31 127 32 131 32 118 32 75 33 89 33 94 33 105 34 127 34 118 34 89 35 105 35 118 35 144 36 141 36 107 36 154 37 141 37 144 37 107 38 141 38 105 38 141 39 127 39 105 39 4 40 22 40 20 40 25 41 22 41 10 41 10 42 22 42 4 42 0 43 20 43 3 43 13 44 9 44 24 44 42 45 43 45 23 45 23 46 43 46 34 46 53 47 40 47 34 47 42 48 129 48 43 48 32 49 42 49 23 49 29 50 32 50 23 50 14 51 12 51 32 51 27 52 32 52 12 52 14 53 32 53 15 53 15 54 32 54 29 54 23 55 18 55 29 55 15 56 18 56 14 56 18 57 23 57 34 57 18 58 34 58 40 58 25 59 18 59 40 59 14 60 18 60 25 60 165 61 163 61 164 61 149 62 163 62 160 62 140 63 156 63 145 63 149 64 145 64 162 64 149 65 162 65 163 65 164 66 163 66 162 66 145 67 156 67 162 67 164 68 162 68 161 68 42 69 50 69 129 69 55 70 53 70 34 70 53 71 55 71 64 71 43 72 55 72 34 72 127 73 152 73 131 73 131 74 152 74 154 74 127 75 141 75 152 75 154 76 152 76 141 76 94 77 73 77 75 77 75 78 66 78 54 78 66 79 56 79 54 79 73 80 66 80 75 80 110 81 66 81 73 81 56 82 66 82 83 82 0 83 1 83 2 83 3 84 1 84 0 84 13 85 11 85 9 85 20 86 21 86 3 86 21 87 9 87 3 87 9 88 21 88 24 88 77 89 81 89 86 89 85 90 86 90 81 90 113 91 122 91 133 91 133 92 112 92 113 92 77 93 86 93 87 93 129 94 65 94 43 94 43 95 65 95 55 95 133 96 65 96 129 96 135 97 65 97 133 97 65 98 135 98 71 98 72 99 65 99 71 99 17 100 15 100 29 100 15 101 17 101 18 101 29 102 18 102 17 102 159 103 165 103 161 103 115 104 90 104 110 104 13 105 16 105 47 105 13 106 47 106 11 106 98 107 92 107 85 107 98 108 111 108 114 108 103 109 104 109 113 109 113 110 104 110 114 110 104 111 98 111 114 111 119 112 113 112 114 112 123 113 122 113 119 113 113 114 119 114 122 114 140 115 128 115 153 115 140 116 153 116 156 116 156 117 157 117 162 117 135 118 157 118 117 118 157 119 135 119 161 119 157 120 161 120 162 120 117 121 157 121 128 121 128 122 157 122 153 122 157 123 156 123 153 123 135 124 133 124 146 124 142 125 146 125 133 125 63 126 79 126 129 126 50 127 63 127 129 127 63 128 77 128 79 128 60 129 78 129 76 129 60 130 62 130 78 130 77 131 59 131 76 131 59 132 60 132 76 132 49 133 62 133 58 133 60 134 58 134 62 134 115 135 124 135 131 135 115 136 110 136 124 136 94 137 118 137 124 137 131 138 124 138 118 138 94 139 124 139 73 139 110 140 73 140 124 140 121 141 115 141 131 141 9 142 7 142 3 142 11 143 7 143 9 143 11 144 26 144 7 144 82 145 85 145 81 145 76 146 78 146 82 146 77 147 76 147 82 147 77 148 82 148 81 148 100 149 86 149 95 149 133 150 130 150 142 150 122 151 130 151 133 151 142 152 130 152 136 152 123 153 130 153 122 153 136 154 130 154 134 154 79 155 80 155 129 155 129 156 80 156 87 156 77 157 80 157 79 157 77 158 87 158 80 158 133 159 129 159 96 159 87 160 96 160 129 160 86 161 96 161 87 161 38 162 45 162 42 162 42 163 45 163 50 163 48 164 50 164 45 164 36 165 42 165 32 165 42 166 36 166 38 166 83 167 97 167 90 167 97 168 110 168 90 168 83 169 66 169 97 169 110 170 97 170 66 170 49 171 68 171 62 171 120 172 114 172 111 172 123 173 119 173 120 173 114 174 120 174 119 174 98 175 91 175 111 175 70 176 91 176 68 176 85 177 99 177 86 177 86 178 99 178 95 178 99 179 85 179 92 179 98 180 99 180 92 180 99 181 98 181 104 181 135 182 155 182 161 182 135 183 146 183 155 183 142 184 147 184 146 184 147 185 143 185 148 185 142 186 143 186 147 186 50 187 61 187 63 187 61 188 48 188 57 188 48 189 61 189 50 189 61 190 77 190 63 190 61 191 57 191 59 191 77 192 61 192 59 192 131 193 138 193 121 193 165 194 138 194 163 194 138 195 160 195 163 195 138 196 154 196 160 196 154 197 138 197 131 197 132 198 143 198 125 198 134 199 125 199 143 199 111 200 125 200 120 200 134 201 120 201 125 201 47 202 28 202 11 202 11 203 28 203 26 203 26 204 28 204 47 204 3 205 7 205 5 205 3 206 5 206 1 206 133 207 102 207 112 207 133 208 96 208 102 208 102 209 113 209 112 209 102 210 103 210 113 210 103 211 102 211 100 211 102 212 86 212 100 212 86 213 102 213 96 213 44 214 49 214 48 214 45 215 44 215 48 215 38 216 44 216 45 216 49 217 44 217 68 217 1 218 30 218 2 218 6 219 2 219 30 219 6 220 30 220 8 220 30 221 27 221 8 221 27 222 30 222 32 222 32 223 30 223 36 223 30 224 37 224 36 224 16 225 19 225 47 225 47 226 19 226 46 226 46 227 19 227 35 227 13 228 19 228 16 228 41 229 35 229 19 229 41 230 19 230 24 230 19 231 13 231 24 231 56 232 51 232 35 232 35 233 51 233 46 233 70 234 52 234 47 234 68 235 52 235 70 235 68 236 44 236 52 236 123 237 126 237 130 237 126 238 123 238 120 238 130 239 126 239 134 239 134 240 126 240 120 240 98 241 84 241 91 241 91 242 84 242 68 242 78 243 84 243 82 243 62 244 84 244 78 244 62 245 68 245 84 245 85 246 84 246 98 246 84 247 85 247 82 247 100 248 101 248 103 248 103 249 101 249 104 249 104 250 101 250 99 250 161 251 158 251 159 251 155 252 158 252 161 252 159 253 158 253 155 253 151 254 159 254 155 254 159 255 151 255 132 255 143 256 151 256 148 256 132 257 151 257 143 257 146 258 150 258 155 258 150 259 146 259 147 259 155 260 150 260 151 260 148 261 150 261 147 261 148 262 151 262 150 262 142 263 137 263 143 263 134 264 143 264 137 264 137 265 142 265 136 265 134 266 137 266 136 266 139 267 132 267 121 267 138 268 139 268 121 268 132 269 139 269 159 269 139 270 165 270 159 270 165 271 139 271 138 271 132 272 116 272 121 272 132 273 125 273 116 273 116 274 111 274 91 274 111 275 116 275 125 275 31 276 1 276 5 276 1 277 31 277 30 277 30 278 31 278 37 278 31 279 7 279 26 279 7 280 31 280 5 280 38 281 39 281 44 281 44 282 39 282 52 282 52 283 39 283 37 283 83 284 67 284 56 284 56 285 67 285 51 285 83 286 90 286 67 286 69 287 46 287 51 287 90 288 69 288 67 288 69 289 51 289 67 289 69 290 70 290 47 290 69 291 47 291 46 291 47 292 33 292 26 292 26 293 33 293 31 293 33 294 47 294 52 294 37 295 33 295 52 295 37 296 31 296 33 296 106 297 21 297 88 297 20 298 22 298 21 298 74 299 21 299 53 299 53 300 21 300 40 300 21 301 108 301 109 301 54 302 21 302 75 302 21 303 107 303 105 303 108 304 21 304 106 304 41 305 21 305 54 305 21 306 109 306 107 306 21 307 74 307 88 307 21 308 89 308 75 308 89 309 21 309 105 309 25 310 21 310 22 310 21 311 41 311 24 311 21 312 25 312 40 312 65 313 64 313 55 313 65 314 72 314 64 314 48 315 58 315 57 315 49 316 58 316 48 316 58 317 60 317 59 317 57 318 58 318 59 318 95 319 99 319 101 319 95 320 101 320 100 320 36 321 37 321 39 321 39 322 38 322 36 322 91 323 69 323 116 323 115 324 69 324 90 324 69 325 115 325 121 325 70 326 69 326 91 326 121 327 116 327 69 327</p>
        </triangles>
      </mesh>
    </geometry>
  </library_geometries>
  <library_materials>
    <material id="mat_link_1_s_stl003" name="link_1_s_stl003">
      <instance_effect url="#effect_link_1_s_stl003"/>
    </material>
  </library_materials>
  <library_visual_scenes>
    <visual_scene id="myscene">
      <node id="node0" name="node0">
        <instance_geometry url="#geometry0">
          <bind_material>
            <technique_common>
              <instance_material symbol="ref_link_1_s_stl003" target="#mat_link_1_s_stl003"/>
            </technique_common>
          </bind_material>
        </instance_geometry>
      </node>
    </visual_scene>
  </library_visual_scenes>
  <scene>
    <instance_visual_scene url="#myscene"/>
  </scene>
</COLLADA>
