<COLLADA xmlns="http://www.collada.org/2005/11/COLLADASchema" version="1.4.1">
  <asset>
    <contributor/>
    <created>2026-02-17T18:01:32.450420</created>
    <modified>2026-02-17T18:01:32.450425</modified>
    <unit name="meter" meter="1.0"/>
    <up_axis>Z_UP</up_axis>
  </asset>
  <library_effects>
    <effect id="effect_link_2_l_stl003" name="effect_link_2_l_stl003">
      <profile_COMMON>
        <technique sid="common">
          <phong>
            <emission>
              <color>0.0 0.0 0.0 1.0</color>
            </emission>
            <ambient>
              <color>0.0 0.0 0.0 1.0</color>
            </ambient>
            <diffuse>
              <color>0.6784313917160034 0.7098039388656616 0.7411764860153198 1.0</color>
            </diffuse>
            <specular>
              <color>1 1 1 1.0</color>
            </specular>
            <shininess>
              <float>0.0</float>
            </shininess>
            <reflective>
              <color>0.0 0.0 0.0 1.0</color>
            </reflective>
            <reflectivity>
              <float>0.0</float>
            </reflectivity>
            <transparent>
              <color>0.0 0.0 0.0 1.0</color>
            </transparent>
            <transparency>
              <float>1.0</float>
            </transparency>
          </phong>
        </technique>
        <extra>
          <technique profile="GOOGLEEARTH">
            <double_sided>0</double_sided>
          </technique>
        </extra>
      </profile_COMMON>
    </effect>
  </library_effects>
  <library_geometries>
    <geometry id="geometry0" name="link_2_l_stl003">
      <mesh>
        <source id="cubeverts-array0">
          <float_array count="804" id="cubeverts-array0-array">-0.06400003 0.0415 0.09957439 -0.06400002 0.0415 0.05356283 -0.06400001 -0.06855733 0.09957439 -0.064 -0.06883344 0.05356283 -0.06353867 -0.06855733 0.1060015 -0.06350003 0.05235732 0.09950426 -0.06350002 0.05235732 0.05349271 -0.06345269 -0.07018391 0.09957439 -0.06338314 0.0415 0.107 -0.06338312 -0.02200001 0.107 -0.06320681 0.0415 0.04515092 -0.06320678 -0.06855733 0.04515092 -0.06313332 -0.02427087 0.1083324 -0.06313109 -0.07066884 0.05356283 -0.06303869 0.05235732 0.1059314 -0.06295271 0.05398391 0.09950426 -0.06295271 0.05398391 0.05349271 -0.06286047 0.0415 0.04349999 -0.06286045 -0.047 0.04349999 -0.06278079 -0.02500001 0.1099784 -0.06243797 0.05317062 0.04513196 -0.06231803 -0.07018391 0.1090327 -0.06216721 -0.07132096 0.05356283 -0.06216721 -0.07132096 0.09957439 -0.06216409 -0.06855733 0.1122969 -0.0620377 -0.07075243 0.04537338 -0.06181805 0.05398391 0.1089626 -0.06166721 0.05512095 0.05349271 -0.06166721 0.05512095 0.09950426 -0.06166411 0.05235732 0.1122267 -0.06106536 -0.07132096 0.1087592 -0.06090631 0.05512095 0.04542341 -0.06085511 -0.06855733 0.03703557 -0.06085511 -0.047 0.03703557 -0.06064516 -0.06969898 0.03711847 -0.06056537 0.05512095 0.1086891 -0.06035511 0.05235732 0.03696545 -0.06014517 0.05349899 0.03704835 -0.06004691 -0.07066884 0.0373547 -0.05990449 -0.06855733 0.1183313 -0.05990449 -0.02500001 0.1183313 -0.05969931 -0.06969898 0.1182373 -0.05954692 0.05446883 0.03728458 -0.0594045 0.05235732 0.1182612 -0.05919932 0.05349899 0.1181671 -0.05915039 -0.07132096 0.03770871 -0.05911465 -0.07066884 0.1179692 -0.0586504 0.05512095 0.03763858 -0.05861466 0.05446883 0.117899 -0.05823849 -0.07132096 0.1175674 -0.0577385 0.05512095 0.1174973 -0.05291158 -0.07408208 0.05036508 -0.05283308 -0.07407932 0.1032236 -0.05271307 0.05788209 0.09950426 -0.05241159 0.05788208 0.05029496 -0.05192556 0.05788209 0.1068026 -0.05093182 -0.02539842 0.1378986 -0.05082207 -0.07408208 0.0409973 -0.05032209 0.05788208 0.04092717 -0.05009932 -0.07408208 0.1138351 -0.04959929 0.05788209 0.113765 -0.04365431 -0.075 0.1024474 -0.04350002 0.0588 0.09950426 -0.04345738 -0.075 0.05009962 -0.04328443 0.0588 0.05118118 -0.04180364 0.0588 0.1082144 -0.04175285 0.0588 0.0443109 -0.04172472 -0.075 0.1099949 -0.03999488 -0.06855733 -0.01579271 -0.03999488 -0.047 -0.01579271 -0.03978493 -0.06969898 -0.01570981 -0.03949489 0.05235732 -0.01586283 -0.03928494 0.05349899 -0.01577993 -0.03918669 -0.07066884 -0.01547358 -0.0386867 0.05446883 -0.01554371 -0.03829016 -0.07132096 -0.01511957 -0.03779018 0.05512095 -0.0151897 -0.03581821 -0.06855733 -0.02379192 -0.03536231 -0.07018391 -0.02348909 -0.03509027 0.05317062 -0.02371062 -0.03379153 0.05512095 -0.02284795 -0.03377936 -0.06855733 -0.02660742 -0.03377936 -0.047 -0.02660742 -0.03327937 0.04180001 -0.02667755 -0.03181461 -0.06855733 0.1795887 -0.03181461 -0.047 0.1795887 -0.03160943 -0.06969898 0.1794946 -0.03153709 -0.07132096 -0.02610537 -0.03142173 0.05235732 -0.02874549 -0.03131462 0.05235732 0.1795186 -0.03110944 0.05349899 0.1794245 -0.03102476 -0.07066884 0.1792265 -0.03052478 0.05446883 0.1791564 -0.0301486 -0.07132096 0.1788248 -0.03006408 -0.06855733 -0.03074331 -0.02996179 -0.07408209 -0.01183097 -0.02964862 0.05512095 0.1787546 -0.02948722 0.05787657 -0.01191112 -0.02873205 0.05455244 -0.02996258 -0.02771606 -0.06855733 0.1863733 -0.02721608 0.05235732 0.1863032 -0.02677366 -0.07075243 0.1856466 -0.02627368 0.05455244 0.1855765 -0.02618737 -0.07018391 -0.03311507 -0.02536769 -0.06855733 0.1891139 -0.02536769 -0.047 0.1891139 -0.0248677 0.04180001 0.1890438 -0.02472135 -0.047 -0.03518315 -0.02467756 -0.07408209 -0.02042728 -0.02422136 0.04180001 -0.03525327 -0.02417735 0.05788215 -0.02049721 -0.02385363 -0.06855733 -0.03576194 -0.02277349 0.05317062 -0.03589017 -0.02240216 0.05276397 0.1911488 -0.022196 -0.06855733 0.1920617 -0.02203435 -0.07407655 0.1751039 -0.02150934 0.05788211 0.1750223 -0.0213926 -0.075 -0.008447265 -0.02015334 0.0588 -0.009934495 -0.01857172 -0.07018391 0.1937551 -0.01813333 -0.07132095 -0.03670504 -0.01787878 -0.07132095 0.1926822 -0.01763334 0.05512095 -0.03677517 -0.01737879 0.05512095 0.1926121 -0.01618124 -0.047 0.1960349 -0.01585938 -0.06855732 0.1961985 -0.01568125 0.04180001 0.1959648 -0.01560781 -0.07408209 0.182872 -0.01510779 0.05788211 0.1828018 -0.01507697 0.05317062 0.195965 -0.0147058 -0.07018391 -0.03982423 -0.01423923 -0.06855732 -0.04056796 -0.01418921 -0.07408208 -0.02872146 -0.01373925 0.05235732 -0.04063808 -0.0136891 0.05788215 -0.02879131 -0.01363483 -0.075 0.1712523 -0.01358308 -0.047 -0.04079827 -0.01313485 0.0588 0.1711822 -0.01308309 0.04180001 -0.04086839 -0.0108225 -0.075 -0.01878503 -0.00991511 -0.075 0.1752778 -0.009888219 0.05398391 -0.04099043 -0.00953968 0.0588 -0.02013989 -0.009411874 0.0588 0.1752117 -0.008082131 -0.06855732 0.199054 -0.007807324 -0.07075243 0.1978961 -0.007307342 0.05455244 0.197826 -0.006164748 0.05235732 0.1992591 -0.006148875 -0.06855732 -0.04255809 -0.005648891 0.05235732 -0.04262821 -0.005386806 0.05512095 -0.04081424 -0.005247334 -0.047 0.1996044 -0.005247331 -0.06855732 0.1996044 -0.004747346 0.04180001 0.1995343 -0.001619339 -0.07018391 -0.04218725 -0.001570305 -0.07132095 -0.04090981 -0.001301812 -0.06855732 -0.04298028 -0.001236225 -0.07408209 0.189004 -0.001228752 -0.07408208 -0.03201165 -0.0008018261 0.04180001 -0.0430504 -0.0007362381 0.05788211 0.1889338 -0.0002122262 -0.06855732 0.1999993 0.000287758 0.05235732 0.1999292 0.0009363776 0.05788215 -0.03179242 0.001283299 0.05235732 -0.04301237 0.002099369 -0.075 0.1794269 0.002868442 -0.06855732 -0.04290421 0.003331916 0.05398391 -0.04242823 0.00353294 -0.07132095 0.1977639 0.003669869 -0.07018391 0.1990338 0.004032924 0.05512095 0.1976938 0.004169853 0.05398391 0.1989636 0.006253252 -0.047 0.1994368 0.006258765 0.0588 0.1776249 0.006753238 0.04180001 0.1993667 0.006960909 -0.06855732 0.1992932 0.007460892 0.05235732 0.1992231 0.007502175 0.05512095 -0.04040679 0.007958321 -0.075 -0.02098821 0.009491139 0.0588 -0.01983112 0.01007926 -0.07408209 0.1868204 0.01142422 -0.06855732 -0.04145317 0.01158899 0.04180001 -0.04161568 0.01172066 0.05788211 0.1858369 0.01201697 0.05317062 -0.04121388 0.01207365 -0.075 0.1717986 0.01301713 -0.075 0.1591685 0.01351393 0.0588 0.1608898 0.01526631 -0.07132095 -0.03798708 0.01574301 -0.07018391 -0.03917326 0.01611728 -0.06855732 0.1960493 0.01631814 -0.07408208 -0.02720721 0.01661727 0.05235732 0.1959791 0.01672208 -0.07132095 0.1934751 0.01707853 -0.047 0.1955503 0.01722206 0.05512095 0.193405 0.01757852 0.04180001 0.1954802 0.01822164 -0.07018391 0.1939782 0.01838611 0.05788215 -0.02664687 0.01872162 0.05398391 0.1939081 0.0190777 -0.07408209 0.1796207 0.01932011 -0.075 -0.01199182 0.02037625 0.05398391 -0.0375823 0.02089558 -0.075 0.006244046 0.02133961 -0.06855732 -0.03730532 0.02183959 0.05235732 -0.03737544 0.02186618 -0.06855731 0.1923289 0.02236617 0.05235732 0.1922588 0.02252633 0.05788211 0.1745507 0.02254669 -0.04699999 -0.03661483 0.02290993 0.0588 -0.001498611 0.02304668 0.04180001 -0.03668496 0.02335806 0.05512095 -0.03403461 0.02369051 -0.07408208 0.1690598 0.02447288 0.05788211 0.163192 0.02535688 0.05512095 0.1868185 0.02594119 -0.07075243 0.1866285 0.02605944 -0.04699999 0.1883646 0.02644175 -0.07132095 -0.03155268 0.02655943 0.04180001 0.1882944 0.02675713 -0.06855731 0.1875362 0.02717719 -0.07408208 -0.01696044 0.02725712 0.05235732 0.1874661 0.02761896 -0.06855731 -0.03295744 0.02767692 0.05788215 -0.0170304 0.02794317 0.05317062 -0.03281782 0.02958305 0.05398391 0.1829837 0.03036254 -0.07018391 -0.02933433 0.03119074 -0.07132095 0.1756346 0.03169073 0.05512095 0.1755645 0.03173315 -0.07408208 -0.004388967 0.03193073 -0.06855731 0.1793145 0.03210711 -0.04699999 -0.02860303 0.03223285 0.05788215 -0.004459048 0.03239962 -0.07018391 0.1760468 0.03243072 0.05235732 0.1792444 0.0326071 0.04180001 -0.02867315 0.0327261 0.04180001 0.1785855 0.03299806 -0.06855731 -0.02753532 0.03319542 0.05512095 0.1608108 0.03372786 0.05317062 -0.02690314 0.03380756 -0.07075243 0.1645996 0.03419331 -0.06855731 0.172471 0.03455442 0.05398391 0.168403 0.0346933 0.05235732 0.1724009 0.03473152 -0.07132095 -0.02167486 0.03491259 -0.04699999 0.167472 0.03495506 -0.06855731 0.1660287 0.03523151 0.05512095 -0.02174499 0.03541257 0.04180001 0.1674019 0.03545506 0.05235732 0.1659586 0.03817442 -0.07018391 -0.01857265 0.03881618 -0.06855731 -0.01849821 0.03931616 0.05235732 -0.01856833 0.03946575 0.04180001 -0.01825444 0.04019217 0.05398391 -0.01445477 0.04046207 0.05512095 -0.009958002 0.04055389 -0.07132095 -0.00560895 0.04133146 0.05512095 0.002908075 0.04174123 -0.06855731 -0.0103281 0.04182023 -0.07018391 -0.005784094 0.0425455 -0.06855731 -0.006235428 0.04264335 0.05235732 -0.008351885 0.04293309 0.05235732 0.006854369 0.04297756 -0.06855731 -0.001389234 0.04304509 0.04180001 0.006168047 0.04304549 0.04180001 -0.006305549 0.04320403 0.05317062 -0.001450515</float_array>
          <technique_common>
            <accessor count="268" source="#cubeverts-array0-array" stride="3">
              <param type="float" name="X"/>
              <param type="float" name="Y"/>
              <param type="float" name="Z"/>
            </accessor>
          </technique_common>
        </source>
        <source id="cubenormals-array0">
          <float_array count="1596" id="cubenormals-array0-array">-1 -2.07966e-07 -1.645668e-07 0.2544354 0.6315922 0.7323618 0.2499558 0.6479878 0.7194678 0.8463686 -0.003190816 0.5325881 0.846368 -0.003190894 0.5325889 0.9998346 -0.001851051 0.018096 -0.9974337 -2.074323e-07 0.07159565 -0.9965667 0.0006572072 0.0827909 0.3056622 0.9520097 0.01574945 -0.9455986 0.3181764 0.06787494 -0.9963619 0.04634625 0.07151872 -0.9957799 0.03973308 0.08272554 0.8908988 -0.003420432 0.4541889 0.9494303 0.00697296 0.3139001 0.9494435 -0.004769151 0.3139018 0.9547902 -0.003775808 0.2972564 0.3094651 0.9503869 0.03156158 0.7879706 0.5578823 0.2605184 0.3339411 -0.0008341636 0.9425936 0.333941 -0.0008341537 0.9425936 0.2648312 0.6091595 0.7475219 0.5101946 0.3437472 0.7883776 0.699862 0.009788631 0.714211 0.7826079 -0.002875089 0.6225083 0.6837866 -0.002404369 0.7296782 0.746335 -0.471615 0.4696417 0.6118332 -0.485604 0.6243789 0.09226625 -0.3361607 0.9372742 0.09796694 -0.003415426 0.9951838 0.9812227 -0.004568048 -0.1928242 0.9995991 -0.001873946 -0.02825339 0.9960389 -0.004569077 -0.08880063 0.9994054 0.008429141 0.03343011 -0.2740789 -0.9555983 -0.1082252 -0.5211949 -0.8282515 -0.2058035 -0.09011775 -0.9950734 0.04132398 -0.07187316 -0.9952003 0.06641269 -0.8398911 -0.1927594 0.5073724 -0.2352566 -0.9520214 0.1957287 -0.2299357 -0.9493896 0.2139835 -0.7292233 -0.4758616 0.4917205 -0.4437157 -0.7430931 0.5009282 -0.02945905 -0.7430894 0.6685435 -0.2740931 -0.7430938 0.6104791 -0.04999755 -0.5953444 0.8019135 -0.3172049 -0.5883492 0.7437918 -0.3034849 -0.4740062 0.8265682 -0.6648198 0.004333088 0.7469912 -0.516564 -0.3272195 0.7912579 -0.5436281 -0.595348 0.5916327 -0.06452457 -0.5649195 0.8226193 -0.1675726 -0.4762978 0.8631685 0.2027875 -0.0002705883 0.9792227 0.1902688 -0.0002958174 0.9817321 0.09226815 0.3361635 0.937273 0.09796724 0.006972383 0.9951652 0.08593488 0.0002223774 0.9963007 0.08715542 0.0002961846 0.9961947 -0.2678537 0.9555983 0.1228258 0.2080895 0.7397246 0.6399269 0.09164582 0.9550763 0.2818337 -0.9364988 0 0.3506708 -0.8559434 0 0.5170695 -0.9089707 0.006252921 0.4168131 -0.976979 -0.00247762 0.2133214 -0.9455062 0.00394332 0.3255804 -0.7730255 0.003564415 0.6343649 -0.7502347 0.004746244 0.6611545 -0.8505163 0.003821954 0.5259348 -0.8559338 0.004672148 0.5170643 0.2807238 0.9597006 0.01299396 -0.09913511 0.9950165 0.01069691 -0.2809649 0.9551156 0.09387639 -0.2346532 0.952709 0.1930895 -0.2678533 0.9555984 0.1228256 -0.09280023 0.9955207 0.01807358 -0.09464365 0.9950088 0.03162247 -0.2945237 0.9551156 0.03177981 0.988327 0.1450933 0.04645221 0.9988688 0.00754468 0.04694768 -0.8797737 0.4635291 0.1055417 -0.975664 0.05192022 0.2130354 -0.9364792 0.006370752 0.3506652 -0.9262083 0.3181798 0.2022368 -0.9455052 0.004185875 0.3255801 -0.9529337 0.004945362 0.3031385 0.2832158 0.9578273 0.04853535 0.06857786 0.9954829 0.06565753 0.06132278 0.9977639 0.02658523 0.08057636 0.9966527 0.01380856 0.8196583 0.2492612 0.5157803 0.7401004 0.6007153 0.302312 0.4490871 -0.001338778 0.893487 0.5432763 0.009788861 0.839497 0.5610397 -0.001839916 0.8277869 0.6998866 -0.004794043 0.7142378 0.7181948 -0.003494282 0.6958333 0.6960323 -0.003351986 0.7180026 0.510197 -0.3437441 0.7883775 0.5363874 -0.5847087 0.6086085 0.2648312 -0.6091601 0.7475215 0.2544352 -0.6315933 0.7323611 0.7201228 -0.004602543 -0.6938315 0.8739849 -0.484145 0.04188045 0.8532172 -0.5117053 0.1008866 -0.2740781 -0.9555985 -0.108225 -0.3687931 -0.9268586 -0.07017609 -0.9455979 -0.3181783 0.06787526 -0.9477819 -0.3189133 0.001913589 -0.07951858 -0.994707 0.06507557 -0.09037258 -0.9950436 0.04148629 -0.234754 -0.9525943 0.193532 -0.2681126 -0.9555105 0.1229444 -0.2678711 -0.9555984 0.1227882 -0.4752154 -0.8257149 0.3039165 -0.7004462 -0.548482 0.4566648 -0.5093596 -0.8282501 0.2335695 -0.5093599 -0.8282499 0.2335696 -0.5606446 0.003810669 0.8280477 -0.5466579 -0.001807042 0.8373541 -0.3430358 0.002673293 0.9393185 -0.3446643 0.001978181 0.9387239 -0.5768734 0.005165905 0.8168172 -0.660876 0.004524014 0.7504815 -0.5502723 0.02922793 0.8344735 -0.7102429 0.02464106 0.7035253 -0.4676768 0.5858608 0.6618501 -0.7593491 0 0.6506835 -0.6807861 0 0.7324824 -0.6677577 -0.4761173 0.5721992 -0.5522329 -0.5848112 0.5941673 -0.1905785 -2.489445e-08 0.981672 -0.08078537 0.001241854 0.9967307 -0.07819775 -1.037817e-08 0.9969379 -0.07442694 0.0008860129 0.9972261 -0.9188024 -0.1934828 0.3440444 -0.7575381 -0.5526915 0.347373 -0.757539 -0.5526902 0.3473735 -0.9089884 6.831311e-07 0.4168216 -0.9089236 0.006153239 0.4169172 -0.9080203 0.004864988 0.4188981 -0.8917273 0.1939549 0.4089061 -0.9188032 0.1934756 0.3440463 -0.8508407 0.4531504 0.2659414 -0.9780051 -0.002026082 0.2085714 -0.977775 0.0005334535 0.209656 -0.3451604 0.01832553 0.9383648 -0.3307268 0.00364408 0.9437196 -0.1032912 0.01205608 0.9945781 -0.201851 0.00153992 0.979415 -0.1778039 0.001778115 0.9840643 0.08246892 0.9965822 0.004771758 0.0994235 0.9950346 0.00460223 0.08790374 0.9956194 -0.03185681 0.05674222 0.9975246 -0.04153343 0.02372953 0.9951515 0.09544932 0.06635807 0.961432 0.2669177 -0.01138006 0.9972008 0.07389912 -0.03889193 0.9950774 0.09115104 -0.1052884 0.9633389 0.2467646 -0.09011713 0.9950735 0.04132355 -0.08849964 0.9952609 0.04029332 -0.0718792 0.9951999 0.06641115 -0.0791594 0.9947315 0.06513804 -0.6625302 0.7490352 0 -0.2946726 0.9555983 0 -0.09914076 0.9950733 -0.0004423044 -1 -2.074456e-07 -1.658147e-07 -0.9989413 0.04600313 -1.656392e-07 -0.9989413 0.04600313 -1.656392e-07 -0.4885758 -0.8253368 -0.2830422 -0.8249261 0.004198447 -0.5652249 -0.8442052 0.005406342 -0.5359929 -0.7291052 0.5492134 -0.4083751 -0.62852 -0.004416819 -0.7777809 0.4698142 0.8814639 0.04791519 0.5445758 0.8382421 0.02805964 0.7743772 0.5950097 0.2151825 0.9303384 0.3498131 0.1100056 0.7594014 0.6496498 0.03556105 0.9004381 0.4327752 0.04378164 0.9885736 -0.004000478 0.150686 0.9930097 0.01205569 0.1174161 0.9988426 -0.004736484 0.04786351 0.9988741 -0.003849321 0.04728488 0.9988784 0.002444834 0.04728509 -0.284966 0.9541646 0.09145613 -0.2971517 0.9541646 0.03564736 -0.6604475 0.7466805 0.07922956 -0.6604505 0.7466777 0.07923069 0.269707 0.9509034 0.1517924 0.4650226 0.8457294 0.2617171 0.1783306 0.959003 0.2202531 0.1832349 0.9672894 0.175432 0.4080845 0.7612048 0.5040181 0.6340519 0.5607355 0.5324978 0.5364119 0.5959197 0.5976135 0.5872 0.5441586 0.5992392 0.5432976 -0.004794083 0.8395265 0.4977069 -0.00211737 0.8673427 0.550661 -0.002441289 0.8347254 0.3727258 -0.2592345 -0.8909954 0.1672096 -0.00170147 -0.98592 0.7099065 -0.005541995 -0.7042741 0.7074764 -0.004541517 -0.7067225 -0.09760662 -0.9949121 0.02495399 -0.09768876 -0.9949053 0.02490696 -0.09721681 -0.9950269 -0.02168445 -0.09664648 -0.9953187 -0.0003635725 -0.09978832 -0.9950086 0.0002003329 -0.2908539 -0.9545655 -0.06487568 -0.3036717 -0.9510229 -0.05778442 -0.2858692 -0.9582686 -0 -0.2835669 -0.9589524 0.0004713822 0.09674454 -0.9498026 0.2975157 0.2080861 -0.7397302 0.6399213 0.2499566 -0.6479849 0.7194701 0.4140101 -0.7645741 0.493986 0.05285826 -0.960301 0.2739121 -0.04366204 -0.9457726 0.3218815 0.01972041 -0.9945692 0.1021914 -0.1052885 -0.9633389 0.2467642 -0.09473595 -0.9532527 0.2869397 -0.02942453 -0.9959289 0.08520517 -0.03888239 -0.9950798 0.09112846 0.0518248 -0.9963546 0.06776258 -0.08468171 -0.9958968 -0.0319143 -0.09221176 -0.9950734 -0.03641148 -0.0588795 -0.9964481 -0.06020283 -0.0857573 -0.9949205 -0.05271582 -0.2545874 -0.9543028 -0.1564973 -0.5591294 -0.8264322 -0.06621412 -0.903829 -0.42789 -0.00180778 -0.5603591 -0.8282498 0 -0.6625336 -0.749025 0.003263276 -0.8994093 -0.4257979 -0.09878808 -0.8723751 -0.4759244 -0.1116138 -0.8797745 -0.4635277 0.1055411 -0.926209 -0.3181785 0.2022358 -0.8508402 -0.4531513 0.2659413 -0.795246 -0.5499495 0.2552242 -0.4805033 0.6811168 0.552446 -0.2299353 0.9493897 0.2139835 -0.2352567 0.9520217 0.1957268 -0.6438891 0.4750092 0.5998109 -0.7952421 0.5499554 0.2552234 -0.5361686 0.8263854 0.1720763 -0.6373218 0.7473373 0.187904 -0.8917269 0.1939563 0.408906 -0.8398915 0.1927554 0.5073733 -0.7292235 0.4758599 0.4917219 -0.9880788 -3.561469e-07 0.153949 -0.983075 -0.0006444567 0.1832029 -0.9828769 -3.541583e-07 0.1842635 -0.2788174 0.7345159 0.6186658 -0.2812254 0.4176668 0.8639831 -0.09473635 0.9532534 0.2869376 -0.04366158 0.9457732 0.3218797 -0.02945883 0.7430835 0.6685498 -0.04999607 0.5953462 0.8019122 -0.08875023 0.5117048 0.8545652 0.3056086 0.9519333 -0.02065072 0.6682737 0.7425436 -0.04515689 0.2596182 0.9611171 -0.09408709 0.2731521 0.9543035 -0.1212132 0.4420776 0.788763 -0.427107 -0.6612433 0.7475757 -0.0623529 -0.6625324 0.7490332 -1.098577e-07 -0.2763821 0.9590685 -0.0616475 -0.2945589 0.9552295 -0.02777586 -0.2864255 0.9581009 -0.001755119 -0.1000072 0.9949865 -0.0006130153 -0.9945661 0.04519594 -0.09378449 -0.9786968 -2.035487e-07 -0.2053105 -0.9955835 -2.032835e-07 -0.09388042 -0.9955835 -2.071647e-07 -0.09388047 -0.743921 0 -0.6682675 -0.8099371 0 -0.5865167 -0.6498563 -0.4867247 -0.5837688 -0.7677094 -0.3186781 -0.5559375 -0.6606193 0.4979752 -0.5617854 -0.8059414 0.02596437 -0.5914258 -0.736325 0.002911941 -0.6766218 -0.7532885 0.003722082 -0.6576796 -0.8722705 0.005542785 -0.4889925 -0.8640872 0.1926708 -0.4650067 -0.2841746 0.9552296 -0.08234876 -0.2388652 -0.003103752 -0.9710478 -0.613534 0.3629053 -0.7013386 -0.2292989 0.0003836771 -0.9733559 0.9930645 -0.005904561 0.1174225 0.9928606 -0.005496243 0.119154 0.9937482 -0.005507276 0.1115085 0.4347975 -0.8866351 -0.1575729 0.8037996 -0.2934486 -0.5174884 0.8869447 -0.3354034 -0.3175431 0.7686301 -0.6387885 0.03401508 0.670039 -0.7417579 0.02903504 0.9018773 -0.4244433 -0.08040576 0.8807822 -0.4407536 -0.1730862 0.7807422 -0.5838674 -0.2225768 0.6426426 -0.7439393 -0.1832069 0.3188586 -0.9476705 0.01580353 0.3236183 -0.9457729 0.02801618 0.08017189 -0.9967631 0.005988939 0.6655181 -0.3480969 -0.660238 0.6749493 -0.5517226 -0.4899444 0.6173179 -0.646619 -0.4481099 0.115077 -0.7398012 -0.6629113 0.1254393 -0.6797853 -0.7226043 0.1245392 -0.6672791 -0.7343218 0.05169214 -0.953235 -0.2977766 0.06951585 -0.9647324 -0.2538873 0.1150769 -0.7398027 -0.6629097 0.7933468 -0.5953444 0.127145 0.6587241 -0.7430857 0.1179246 0.8941994 -0.3361637 0.2956372 0.7008876 -0.593313 0.3958994 0.5890765 -0.7421633 0.3196601 -0.02151152 -0.9961712 -0.08473643 -0.0573679 -0.9957138 -0.07254514 -0.07436635 -0.953235 -0.2929379 -0.5211972 -0.82825 -0.2058043 -0.5443717 -0.8264326 -0.1437663 -0.6604544 -0.7466744 0.07923052 -0.6604547 -0.7466739 0.07923065 -0.2959593 -0.9545404 0.03550436 -0.5361695 -0.8263849 0.1720765 -0.6373251 -0.7473344 0.1879045 -0.282412 -0.9550018 0.09063642 -0.2740645 -0.9591345 0.07035425 -0.4752141 0.8257165 0.3039139 -0.7004403 0.5484942 0.456659 -0.5093578 0.8282514 0.2335687 -0.5093591 0.8282504 0.2335692 -0.7575349 0.5526968 0.3473716 -0.7575333 0.5526996 0.3473708 0.5345209 0.8111873 -0.2371975 -0.9440216 0.3176457 -0.0890189 -0.9906974 0.06507126 -0.1195174 -0.7739064 0.6239638 -0.1083427 -0.9648822 0.07032306 -0.2530947 -0.9766898 0.06400972 -0.2048895 0.00125587 0.9969991 -0.07740293 -0.01972367 0.9951743 -0.09612059 -0.09795094 0.9949514 -0.02184813 -0.09794327 0.9949524 -0.0218343 -0.274097 0.9555982 -0.1081797 -0.0908029 0.9952123 -0.03615603 -0.0921952 0.9950733 -0.0364575 0.05909252 0.9966186 -0.05709138 0.02852876 0.9949 -0.09674751 0.2173559 0.9532357 -0.2099953 0.2173558 0.9532358 -0.2099952 0.1724523 0.8866355 -0.4291126 0.1126992 0.9532357 -0.2804292 0.07445184 0.9647328 -0.2524832 0.1637506 0.6762763 -0.7182174 0.2057158 0.7408172 -0.63943 -0.881852 0.004104901 -0.4715084 -0.7751415 0.5526946 -0.306079 -0.5398483 0.8270978 -0.1564385 -0.7610015 0.6241059 -0.1771118 -0.3771647 0.7433543 -0.5524231 -0.6385767 0.03826164 -0.7686064 -0.6463443 0.003036687 -0.7630399 -0.6666106 0.004830941 -0.7453905 -0.5159875 0.00222884 -0.8565933 -0.2250899 0.3346977 -0.9150475 -0.4645183 0.009549687 -0.8855121 -0.3172584 0.5903578 -0.7421758 -0.3434928 0.5648035 -0.7503397 -0.3585845 0.0009413942 -0.9334968 -0.4471262 0.001330149 -0.8944699 -0.4589877 0.002565562 -0.8884389 -0.05086381 0.3936718 -0.9178428 0.1351892 0.0008860214 -0.9908194 0.1630676 0.02871142 -0.9861971 0.1513495 0.1596971 -0.9754949 0.7143937 0.03834755 -0.6986923 0.6630328 -0.0009073052 -0.7485898 0.4478064 0.7795233 -0.4379643 0.4436089 0.6752566 -0.5892706 0.2745295 -0.9445938 0.1799335 0.2556433 -0.9603012 0.1116607 0.2272417 -0.946927 0.2273556 0.177005 -0.9590248 0.2212251 0.05449302 -0.9961887 0.06810669 0.08768197 -0.9954121 0.03829752 0.4750302 -0.551068 -0.6860542 0.5260195 -0.5526502 -0.6464374 0.4043612 -0.6312019 -0.6618733 0.3334351 -0.7439369 -0.579119 0.4479437 -0.811187 -0.3759282 0.1491128 -0.9543026 -0.2589824 -0.07856988 -0.4244443 -0.9020387 0.01636993 -0.4407543 -0.8974785 0.08180566 -0.9966394 0.004214511 -0.008872529 -0.9970962 -0.07563312 0.02935753 -0.9938018 -0.1072202 0.05637868 -0.9958674 -0.0712022 -0.07436664 -0.953235 -0.2929382 -0.8551064 -0.4761932 -0.2050198 -0.809433 -0.5496349 -0.2066873 -0.7751426 -0.5526928 -0.3060794 0.8140768 0.5653783 -0.1327641 0.8209267 0.5399588 -0.1858061 0.9962698 0.02176299 -0.08350297 0.977303 -0.003829632 -0.2118115 0.9414695 -0.004797047 -0.3370641 0.9528409 -0.002149188 -0.3034628 0.7095883 0.5653132 -0.4206013 0.703702 0.5966383 -0.3857801 0.8307912 0.004750158 -0.556564 0.9177344 0.2616012 -0.2988786 0.950838 0.004265932 -0.3096594 0.8344018 -0.002726569 -0.5511498 0.8408105 -0.003790695 -0.5413162 0.846889 -0.003810286 -0.531756 -0.274343 0.9555107 -0.1083294 -0.5211957 0.8282511 -0.2058038 -0.521195 0.8282515 -0.2058035 -0.08714072 0.9947721 -0.05324359 -0.06091554 0.9961304 -0.06335246 -0.06053664 0.9952262 -0.07655127 -0.1960773 0.9507399 -0.2400986 -0.1874672 0.9532357 -0.2370606 -0.946014 0.1928821 -0.2604879 -0.8092769 0.5496674 -0.2072115 -0.7751424 0.5526932 -0.3060793 0.009442225 0.9543035 -0.29869 -0.05296542 0.96466 -0.2581196 -0.09360175 0.9543034 -0.2838021 -0.1831654 0.8111874 -0.5553607 0.0162966 0.8567238 -0.5155179 -0.08155693 0.5522936 -0.8296506 -0.1072482 0.552651 -0.8264833 -0.2310691 0.0005327486 -0.9729372 -0.3163608 0.001032172 -0.9486384 -0.2388616 0.006337442 -0.971033 -0.05532597 0.01452375 -0.9983628 -0.08724296 -0.000216966 -0.996187 -0.08677401 -0.0002398709 -0.996228 0.02134666 -0.0006144179 -0.9997719 0.01823687 -0.0007179248 -0.9998335 0.5227745 0.3728115 -0.766628 0.3839433 -0.001932941 -0.9233546 0.3859178 -0.002130815 -0.9225307 0.3652794 0.0191393 -0.9307011 0.3708156 0.2188171 -0.9025601 0.3004587 -0.953693 0.01393192 0.08838698 -0.9960778 0.004098368 0.0778412 -0.9969431 -0.006725 -0.1187458 -0.7439358 -0.6576162 -0.1137954 -0.8866344 -0.4482521 -0.2236218 -0.3515226 -0.9090793 -0.1442623 -0.5838694 -0.7989274 -0.4304845 -0.2702854 -0.8611788 -0.587666 -0.5838695 -0.5601295 -0.5906386 -0.3419445 -0.7309034 -0.4169855 -0.5629364 -0.7136005 -0.3848538 -0.6466197 -0.6586126 -0.1874682 -0.953235 -0.2370626 -0.1874682 -0.953235 -0.2370628 -0.2868627 -0.8866347 -0.3627516 -0.5521732 -0.6466168 -0.5262999 -0.4393993 -0.8567221 -0.2701029 -0.2545874 -0.9543028 -0.1564973 -0.9424015 -0.1931351 -0.2730902 -0.2627856 0.9550483 -0.1372096 -0.2395349 0.9596163 -0.1475112 -0.216366 0.9489086 -0.2296916 -0.49861 0.8268073 -0.2603418 -0.61304 0.6230836 -0.4857456 -0.6738534 0.6238422 -0.3959072 0.4800078 -0.002493626 -0.8772606 0.6208692 -0.000754485 -0.7839139 0.5968878 0.01578127 -0.8021694 0.2841462 -0.953235 -0.1029761 0.284146 -0.953235 -0.1029759 0.2289112 -0.9543028 -0.1921093 0.180841 -0.9646596 -0.1916464 0.06958955 -0.994846 -0.07374708 0.09456339 -0.9949288 -0.03427023 -0.9786962 -2.531139e-07 -0.2053137 -0.9551001 -2.470114e-07 -0.2962832 -0.9604687 -0.005884605 -0.2783257 -0.9361715 0.004462994 -0.3515153 -0.9550989 0 -0.2962871 -0.9301044 0.004421344 -0.3672689 -0.9301043 0.004421287 -0.3672689 -0.7751433 -0.5526917 -0.3060797 -0.91245 -0.19396 -0.3602977 -0.7399929 -0.5505672 -0.3863759 -0.8326361 -0.3178147 -0.4535538 0.5692571 -0.005541832 -0.8221409 0.545959 -0.003735603 -0.8378036 0.5739676 -0.003878354 -0.8188688 -0.9124504 -0.1939575 -0.360298 -0.8864408 0 -0.4628419 -0.8697873 -0.1929275 -0.4541465 -0.9089884 0 0.4168214 -0.9089884 0 0.4168214 -0.891726 -0.1939614 0.4089057 -0.8917262 -0.1939599 0.4089057 -0.9477844 0.3189118 -1.571566e-07 -0.9477844 0.3189118 -1.570029e-07 -0 1 0 0 1 0 -0 1 0 0 1 0 -0 1 0 0 1 0 0 1 0 -0 1 -0 0 1 0 0 1 0 0 -1 0 0 -1 -0 0 -1 -0 0 -1 0 0 -1 -0 0 -1 0 0 -1 -0 -0 -1 0 0 -1 0 -0 -1 0 0 -1 0 -0.9124505 0.1939576 -0.3602979 -0.9124498 0.1939611 -0.3602977 -0.9301134 0 -0.3672725 -0.9301134 0 -0.3672725</float_array>
          <technique_common>
            <accessor count="532" source="#cubenormals-array0-array" stride="3">
              <param type="float" name="X"/>
              <param type="float" name="Y"/>
              <param type="float" name="Z"/>
            </accessor>
          </technique_common>
        </source>
        <vertices id="cubeverts-array0-vertices">
          <input semantic="POSITION" source="#cubeverts-array0"/>
        </vertices>
        <triangles count="532" material="ref_link_2_l_stl003">
          <input offset="0" semantic="VERTEX" source="#cubeverts-array0-vertices"/>
          <input offset="1" semantic="NORMAL" source="#cubenormals-array0"/>
          <p>0 0 3 0 2 0 199 1 171 1 176 1 195 2 171 2 199 2 222 3 231 3 235 3 231 4 222 4 220 4 267 5 265 5 264 5 0 6 2 6 4 6 0 7 4 7 8 7 258 8 214 8 239 8 15 9 5 9 14 9 14 10 5 10 0 10 0 11 8 11 14 11 231 12 237 12 235 12 244 13 235 13 237 13 231 14 242 14 237 14 237 15 242 15 244 15 229 16 239 16 214 16 229 17 235 17 244 17 190 18 192 18 175 18 176 19 175 19 192 19 199 20 176 20 192 20 207 21 199 21 192 21 222 22 207 22 219 22 220 23 222 23 219 23 207 24 206 24 219 24 231 25 220 25 216 25 220 26 206 26 216 26 161 27 169 27 175 27 161 28 175 28 172 28 266 29 261 29 259 29 267 30 264 30 266 30 264 31 261 31 266 31 265 32 267 32 263 32 57 33 45 33 75 33 73 34 75 34 45 34 67 35 135 35 59 35 135 36 140 36 127 36 86 37 99 37 84 37 127 38 101 38 93 38 127 39 121 39 101 39 99 40 86 40 101 40 101 41 121 41 119 41 168 42 169 42 145 42 119 43 121 43 145 43 169 44 161 44 145 44 125 45 119 45 145 45 144 46 125 46 145 46 105 47 114 47 106 47 119 48 125 48 114 48 114 49 101 49 119 49 152 50 145 50 161 50 144 51 145 51 152 51 175 52 176 52 174 52 174 53 172 53 175 53 162 54 176 54 171 54 174 55 176 55 162 55 161 56 172 56 162 56 172 57 174 57 162 57 96 58 60 58 50 58 171 59 195 59 170 59 195 60 183 60 170 60 24 61 39 61 40 61 84 62 99 62 85 62 43 63 40 63 89 63 24 64 19 64 4 64 24 65 40 65 19 65 100 66 99 66 105 66 105 67 106 67 100 67 100 68 85 68 99 68 100 69 89 69 85 69 233 70 214 70 258 70 62 71 53 71 55 71 50 72 60 72 55 72 128 73 116 73 96 73 60 74 96 74 116 74 62 75 55 75 65 75 60 76 65 76 55 76 53 77 28 77 55 77 263 78 267 78 250 78 265 79 263 79 250 79 15 80 14 80 26 80 14 81 8 81 29 81 29 82 40 82 43 82 26 83 14 83 29 83 29 84 19 84 40 84 8 85 19 85 29 85 208 86 229 86 214 86 173 87 183 87 208 87 187 88 173 88 208 88 208 89 214 89 187 89 222 90 235 90 226 90 235 91 229 91 226 91 196 92 192 92 190 92 207 93 192 93 196 93 206 94 207 94 196 94 206 95 220 95 217 95 220 96 219 96 217 96 206 97 217 97 219 97 190 98 197 98 206 98 206 99 197 99 216 99 190 100 175 100 197 100 175 101 169 101 197 101 232 102 236 102 238 102 264 103 247 103 241 103 241 104 247 104 242 104 57 105 75 105 95 105 45 106 22 106 25 106 4 107 2 107 7 107 2 108 3 108 7 108 115 109 135 109 127 109 59 110 135 110 115 110 127 111 93 111 115 111 93 112 49 112 115 112 49 113 59 113 115 113 93 114 101 114 91 114 91 115 101 115 86 115 49 116 93 116 91 116 46 117 49 117 91 117 126 118 114 118 124 118 124 119 114 119 125 119 144 120 126 120 124 120 124 121 125 121 144 121 113 122 114 122 126 122 106 123 114 123 113 123 126 124 129 124 113 124 113 125 100 125 106 125 129 126 123 126 113 126 105 127 99 127 104 127 105 128 104 128 114 128 99 129 101 129 104 129 101 130 114 130 104 130 144 131 152 131 151 131 153 132 151 132 162 132 151 133 152 133 161 133 161 134 162 134 151 134 41 135 39 135 24 135 46 136 91 136 41 136 41 137 91 137 86 137 40 138 85 138 56 138 40 139 56 139 89 139 85 140 89 140 56 140 43 141 89 141 44 141 44 142 29 142 43 142 26 143 29 143 44 143 4 144 19 144 12 144 19 145 8 145 12 145 126 146 147 146 129 146 126 147 144 147 147 147 153 148 162 148 147 148 144 149 151 149 147 149 153 150 147 150 151 150 187 151 214 151 210 151 214 152 233 152 210 152 233 153 224 153 210 153 210 154 224 154 179 154 183 155 173 155 160 155 160 156 170 156 183 156 160 157 173 157 143 157 143 158 128 158 160 158 128 159 123 159 160 159 60 160 116 160 137 160 60 161 137 161 65 161 128 162 143 162 137 162 128 163 137 163 116 163 15 164 28 164 27 164 27 165 28 165 53 165 53 166 62 166 64 166 3 167 0 167 1 167 0 168 5 168 1 168 5 169 6 169 1 169 78 170 75 170 73 170 83 171 82 171 77 171 83 172 77 172 79 172 74 173 79 173 72 173 94 174 107 174 111 174 239 175 229 175 243 175 258 176 239 176 243 176 244 177 243 177 229 177 244 178 250 178 243 178 267 179 258 179 243 179 250 180 267 180 243 180 244 181 242 181 249 181 244 182 249 182 250 182 247 183 264 183 249 183 264 184 265 184 249 184 265 185 250 185 249 185 50 186 55 186 35 186 55 187 28 187 35 187 35 188 28 188 15 188 15 189 26 189 35 189 229 190 208 190 215 190 215 191 226 191 229 191 215 192 183 192 195 192 183 193 215 193 208 193 215 194 195 194 199 194 222 195 226 195 215 195 199 196 207 196 215 196 215 197 207 197 222 197 190 198 206 198 194 198 190 199 194 199 196 199 206 200 196 200 194 200 204 201 189 201 181 201 166 202 182 202 181 202 232 203 238 203 223 203 232 204 223 204 236 204 67 205 59 205 61 205 59 206 52 206 61 206 57 207 63 207 51 207 63 208 61 208 51 208 52 209 51 209 61 209 51 210 45 210 57 210 51 211 22 211 45 211 23 212 22 212 51 212 52 213 23 213 51 213 168 214 180 214 193 214 168 215 193 215 169 215 169 216 193 216 197 216 216 217 197 217 193 217 157 218 180 218 168 218 168 219 145 219 157 219 165 220 180 220 157 220 121 221 127 221 157 221 157 222 145 222 121 222 140 223 165 223 157 223 127 224 140 224 157 224 180 225 165 225 185 225 63 226 57 226 117 226 57 227 95 227 117 227 139 228 117 228 108 228 117 229 95 229 108 229 95 230 75 230 108 230 13 231 25 231 22 231 3 232 13 232 7 232 22 233 23 233 13 233 23 234 7 234 13 234 3 235 11 235 13 235 25 236 13 236 11 236 4 237 7 237 21 237 24 238 4 238 21 238 21 239 41 239 24 239 46 240 41 240 21 240 113 241 123 241 102 241 128 242 102 242 123 242 128 243 96 243 102 243 100 244 113 244 102 244 26 245 44 245 48 245 50 246 35 246 48 246 35 247 26 247 48 247 89 248 90 248 44 248 89 249 100 249 90 249 100 250 102 250 90 250 8 251 4 251 9 251 4 252 12 252 9 252 12 253 8 253 9 253 123 254 129 254 146 254 129 255 147 255 146 255 123 256 146 256 160 256 170 257 160 257 146 257 171 258 170 258 146 258 146 259 162 259 171 259 146 260 147 260 162 260 256 261 233 261 258 261 256 262 258 262 267 262 233 263 256 263 224 263 248 264 224 264 256 264 212 265 248 265 240 265 16 266 27 266 31 266 15 267 27 267 16 267 58 268 31 268 54 268 31 269 27 269 54 269 53 270 54 270 27 270 53 271 64 271 54 271 1 272 6 272 10 272 17 273 11 273 10 273 3 274 1 274 10 274 3 275 10 275 11 275 81 276 82 276 94 276 77 277 82 277 81 277 94 278 78 278 81 278 78 279 77 279 81 279 79 280 98 280 88 280 83 281 79 281 88 281 94 282 82 282 88 282 82 283 83 283 88 283 79 284 77 284 71 284 72 285 79 285 71 285 31 286 58 286 47 286 131 287 136 287 148 287 112 288 88 288 98 288 148 289 136 289 149 289 242 290 247 290 246 290 242 291 246 291 249 291 247 292 249 292 246 292 245 293 251 293 257 293 238 294 252 294 251 294 259 295 251 295 252 295 264 296 241 296 260 296 241 297 257 297 260 297 260 298 261 298 264 298 259 299 261 299 260 299 260 300 251 300 259 300 257 301 251 301 260 301 213 302 257 302 241 302 241 303 228 303 213 303 185 304 186 304 213 304 238 305 227 305 223 305 238 306 251 306 227 306 227 307 251 307 245 307 189 308 155 308 154 308 181 309 189 309 154 309 166 310 181 310 154 310 158 311 155 311 188 311 191 312 158 312 188 312 188 313 155 313 189 313 234 314 241 314 242 314 234 315 228 315 241 315 242 316 231 316 234 316 231 317 216 317 234 317 216 318 228 318 234 318 132 319 158 319 139 319 139 320 108 320 132 320 132 321 155 321 158 321 73 322 45 322 38 322 45 323 25 323 38 323 30 324 7 324 23 324 7 325 30 325 21 325 23 326 52 326 30 326 49 327 46 327 30 327 46 328 21 328 30 328 30 329 59 329 49 329 30 330 52 330 59 330 92 331 102 331 96 331 92 332 90 332 102 332 92 333 96 333 50 333 50 334 48 334 92 334 44 335 92 335 48 335 44 336 90 336 92 336 248 337 256 337 255 337 6 338 16 338 20 338 6 339 20 339 10 339 20 340 16 340 31 340 20 341 36 341 17 341 17 342 10 342 20 342 179 343 163 343 142 343 163 344 134 344 142 344 58 345 54 345 66 345 54 346 64 346 66 346 97 347 47 347 58 347 97 348 66 348 118 348 58 349 66 349 97 349 179 350 224 350 198 350 163 351 179 351 198 351 198 352 248 352 212 352 198 353 224 353 248 353 212 354 202 354 177 354 177 355 198 355 212 355 163 356 198 356 177 356 177 357 184 357 167 357 202 358 184 358 177 358 69 359 71 359 77 359 42 360 74 360 72 360 31 361 47 361 42 361 42 362 20 362 31 362 98 363 122 363 112 363 88 364 112 364 109 364 109 365 107 365 94 365 94 366 88 366 109 366 109 367 111 367 107 367 141 368 149 368 133 368 112 369 133 369 109 369 141 370 133 370 122 370 112 371 122 371 133 371 136 372 131 372 133 372 131 373 111 373 133 373 111 374 109 374 133 374 149 375 167 375 164 375 182 376 166 376 164 376 184 377 182 377 164 377 167 378 184 378 164 378 225 379 240 379 236 379 236 380 223 380 225 380 212 381 240 381 225 381 225 382 202 382 212 382 228 383 216 383 200 383 200 384 213 384 228 384 216 385 193 385 200 385 200 386 193 386 180 386 180 387 185 387 200 387 185 388 213 388 200 388 204 389 223 389 218 389 223 390 227 390 218 390 189 391 204 391 218 391 189 392 218 392 188 392 218 393 227 393 245 393 191 394 188 394 218 394 154 395 148 395 156 395 166 396 154 396 156 396 203 397 213 397 186 397 139 398 158 398 178 398 158 399 191 399 178 399 191 400 201 400 178 400 155 401 132 401 120 401 25 402 11 402 34 402 34 403 38 403 25 403 73 404 38 404 34 404 262 405 256 405 267 405 255 406 256 406 262 406 267 407 266 407 262 407 262 408 266 408 259 408 259 409 252 409 254 409 259 410 254 410 262 410 253 411 240 411 248 411 248 412 255 412 253 412 236 413 240 413 253 413 255 414 262 414 253 414 262 415 254 415 253 415 238 416 236 416 253 416 252 417 238 417 253 417 252 418 253 418 254 418 47 419 97 419 76 419 74 420 42 420 76 420 47 421 76 421 42 421 118 422 110 422 97 422 118 423 142 423 110 423 142 424 134 424 110 424 110 425 122 425 98 425 134 426 122 426 110 426 36 427 20 427 37 427 20 428 42 428 37 428 37 429 42 429 72 429 163 430 177 430 150 430 134 431 163 431 150 431 134 432 150 432 122 432 141 433 122 433 150 433 150 434 177 434 167 434 167 435 149 435 150 435 150 436 149 436 141 436 149 437 136 437 138 437 136 438 133 438 138 438 138 439 133 439 149 439 149 440 164 440 159 440 148 441 149 441 159 441 148 442 159 442 156 442 164 443 166 443 159 443 166 444 156 444 159 444 202 445 225 445 205 445 182 446 205 446 181 446 204 447 181 447 205 447 182 448 184 448 205 448 184 449 202 449 205 449 257 450 213 450 230 450 213 451 203 451 230 451 203 452 201 452 230 452 130 453 154 453 155 453 155 454 120 454 130 454 130 455 131 455 148 455 148 456 154 456 130 456 111 457 131 457 130 457 103 458 78 458 94 458 94 459 111 459 103 459 111 460 130 460 103 460 130 461 120 461 103 461 132 462 108 462 87 462 120 463 132 463 87 463 120 464 87 464 103 464 78 465 103 465 87 465 75 466 78 466 87 466 87 467 108 467 75 467 34 468 11 468 32 468 97 469 80 469 76 469 97 470 110 470 80 470 80 471 110 471 98 471 74 472 76 472 80 472 98 473 79 473 80 473 79 474 74 474 80 474 204 475 205 475 211 475 211 476 225 476 223 476 225 477 211 477 205 477 245 478 257 478 221 478 257 479 230 479 221 479 245 480 221 480 218 480 191 481 218 481 221 481 201 482 191 482 221 482 201 483 221 483 230 483 18 484 11 484 17 484 17 485 32 485 18 485 11 486 18 486 32 486 17 487 36 487 33 487 17 488 33 488 32 488 36 489 71 489 33 489 71 490 69 490 33 490 73 491 34 491 70 491 34 492 32 492 70 492 70 493 78 493 73 493 77 494 78 494 70 494 223 495 204 495 209 495 204 496 211 496 209 496 223 497 209 497 211 497 32 498 68 498 70 498 68 499 69 499 77 499 77 500 70 500 68 500 40 501 39 501 85 501 84 502 85 502 39 502 84 503 39 503 41 503 41 504 86 504 84 504 5 505 16 505 6 505 5 506 15 506 16 506 143 507 173 507 66 507 66 508 210 508 179 508 65 509 137 509 66 509 66 510 173 510 187 510 62 511 65 511 66 511 187 512 210 512 66 512 143 513 66 513 137 513 64 514 62 514 66 514 66 515 142 515 118 515 179 516 142 516 66 516 63 517 117 517 178 517 165 518 140 518 178 518 140 519 135 519 178 519 63 520 178 520 61 520 135 521 67 521 178 521 178 522 185 522 165 522 67 523 61 523 178 523 186 524 185 524 178 524 117 525 139 525 178 525 201 526 203 526 178 526 178 527 203 527 186 527 37 528 71 528 36 528 72 529 71 529 37 529 32 530 33 530 68 530 68 531 33 531 69 531</p>
        </triangles>
      </mesh>
    </geometry>
  </library_geometries>
  <library_materials>
    <material id="mat_link_2_l_stl003" name="link_2_l_stl003">
      <instance_effect url="#effect_link_2_l_stl003"/>
    </material>
  </library_materials>
  <library_visual_scenes>
    <visual_scene id="myscene">
      <node id="node0" name="node0">
        <instance_geometry url="#geometry0">
          <bind_material>
            <technique_common>
              <instance_material symbol="ref_link_2_l_stl003" target="#mat_link_2_l_stl003"/>
            </technique_common>
          </bind_material>
        </instance_geometry>
      </node>
    </visual_scene>
  </library_visual_scenes>
  <scene>
    <instance_visual_scene url="#myscene"/>
  </scene>
</COLLADA>
