<COLLADA xmlns="http://www.collada.org/2005/11/COLLADASchema" version="1.4.1">
  <asset>
    <contributor/>
    <created>2026-02-17T18:01:15.016326</created>
    <modified>2026-02-17T18:01:15.016331</modified>
    <unit name="meter" meter="1.0"/>
    <up_axis>Z_UP</up_axis>
  </asset>
  <library_effects>
    <effect id="effect_link_3_u_stl001" name="effect_link_3_u_stl001">
      <profile_COMMON>
        <technique sid="common">
          <phong>
            <emission>
              <color>0.0 0.0 0.0 1.0</color>
            </emission>
            <ambient>
              <color>0.0 0.0 0.0 1.0</color>
            </ambient>
            <diffuse>
              <color>0.6784313917160034 0.7098039388656616 0.7411764860153198 1.0</color>
            </diffuse>
            <specular>
              <color>1 1 1 1.0</color>
            </specular>
            <shininess>
              <float>0.0</float>
            </shininess>
            <reflective>
              <color>0.0 0.0 0.0 1.0</color>
            </reflective>
            <reflectivity>
              <float>0.0</float>
            </reflectivity>
            <transparent>
              <color>0.0 0.0 0.0 1.0</color>
            </transparent>
            <transparency>
              <float>1.0</float>
            </transparency>
          </phong>
        </technique>
        <extra>
          <technique profile="GOOGLEEARTH">
            <double_sided>0</double_sided>
          </technique>
        </extra>
      </profile_COMMON>
    </effect>
  </library_effects>
  <library_geometries>
    <geometry id="geometry0" name="link_3_u_stl001">
      <mesh>
        <source id="cubeverts-array0">
          <float_array count="384" id="cubeverts-array0-array">-0.07283099 -0.02 0.009513618 -0.07283099 0.028 0.009513618 -0.07278363 -0.02 3.181473e-09 -0.07278363 0.028 3.181473e-09 -0.07240739 -0.02 0.0153836 -0.07240739 0.028 0.0153836 -0.07204198 0.02984269 0.003558073 -0.07179742 -0.02158072 -0.009685875 -0.07178867 0.028 -0.009756949 -0.0717243 -0.02171358 0.02070836 -0.07169425 0.028 0.02087432 -0.07099497 0.02975315 -0.009636442 -0.07077487 0.03083051 3.093668e-09 -0.06983371 0.031 0.009385832 -0.06981351 0.028 -0.0194843 -0.0698077 -0.02147779 -0.01950919 -0.06977934 -0.023 3.050152e-09 -0.06968068 0.02997517 0.025502 -0.06967536 -0.02 0.03052733 -0.06967536 0.028 0.03052733 -0.06882267 0.031 -0.009306619 -0.06862653 -0.02 -0.02182038 -0.06862653 0.028 -0.02182038 -0.06851768 0.028 0.03323918 -0.06810252 -0.02 0.03381742 -0.06792519 0.02985471 -0.02070243 -0.06754932 0.031 0.025562 -0.06689996 0.028 0.035155 -0.06655711 -0.02 -0.02342781 -0.06655711 0.028 -0.02342781 -0.06631426 -0.02206453 0.03329285 -0.06611256 -0.02 0.03591433 -0.06521323 0.031 -0.02022729 -0.06459755 0.02987575 0.03528386 -0.064 -0.02245557 -0.02261973 -0.064 -0.02 -0.02399999 -0.064 0.028 -0.02399999 -0.064 0.02915463 -0.0237689 -0.064 0.03045557 -0.02261973 -0.0635808 -0.02 0.03730973 -0.0635808 0.028 0.03730973 -0.06102074 0.031 0.03484785 -0.06 -0.02281457 0.03603835 -0.06 -0.02157984 0.03746795 -0.06 -0.02 0.038 -0.06 0.028 0.038 -0.06 0.02903835 0.03781458 -0.06 0.03046795 0.03657984 -0.035 0.04 1.529898e-09 -0.035 -0.045 1.529898e-09 -0.03456909 0.04 -0.005475205 -0.03456909 -0.045 -0.005475205 -0.03456909 -0.045 0.005475208 -0.03456392 0.04 0.005507786 -0.03175 -0.04525 1.387837e-09 -0.03118523 0.04 -0.01588966 -0.03118523 -0.045 -0.01588966 -0.03118523 -0.045 0.01588967 -0.03114018 0.04 0.01597778 -0.02686536 -0.0455 -0.01551072 -0.02686536 -0.0455 0.01551072 -0.02474874 0.04 -0.02474874 -0.02474874 -0.045 0.02474874 -0.02474111 -0.04492845 -0.02474274 -0.02463184 0.04 0.02486509 -0.02206087 -0.01393698 0.03800004 -0.01819111 -0.005117516 0.03799987 -0.01626524 -0.0206796 0.03788577 -0.01588967 0.04 -0.03118523 -0.01588967 -0.045 -0.03118523 -0.01588966 -0.045 0.03118523 -0.01568358 0.04 0.03128938 -0.01060996 -0.0455 -0.02915062 -0.01060996 -0.0455 0.02915062 -0.01 0.028 0.038 -0.007077733 -0.008194088 0.03788353 -0.00574393 -0.0180169 -0.03452546 -0.005475208 0.04 -0.03456909 -0.005475204 -0.045 -0.03456909 -0.005475204 -0.045 0.03456909 -0.005181784 0.04 0.03461429 -0.002406826 -0.02357556 -0.03484813 -0.002185783 -0.01216658 -0.03486317 -0.001623516 0.028 0.03731734 -0.0002416371 -0.02 0.03709679 0.0006763489 -0.01786896 -0.03489888 0.005475206 0.04 -0.03456909 0.00547521 -0.045 -0.03456909 0.00547521 -0.045 0.03456909 0.005833297 0.04 0.03451047 0.01060996 -0.0455 -0.02915062 0.01060996 -0.0455 0.02915062 0.01588967 -0.045 -0.03118523 0.01588967 -0.045 0.03118523 0.01596441 0.03998025 -0.03115438 0.01627056 0.04 0.03098821 0.02474874 0.04 -0.02474874 0.02474874 -0.045 -0.02474874 0.02474874 -0.045 0.02474874 0.02509614 0.04 0.02439639 0.02686536 -0.0455 -0.01551072 0.02686536 -0.0455 0.01551072 0.03118523 0.04 -0.01588966 0.03118523 -0.045 0.01588966 0.03118523 -0.045 -0.01588966 0.03143581 0.04 0.01538799 0.03175 -0.04525 -1.387837e-09 0.03348878 0.04 -0.005847722 0.0345691 -0.045 -0.005475204 0.0345691 -0.045 0.005475205 0.0348308 0.04 0.002427659 0.03496944 0.03321052 0.008565946 0.03497847 -0.03194866 -0.00839283 0.03499121 -0.03357492 0.007645727 0.035 -0.02954334 -0.01876676 0.035 -0.02785512 0.0176944 0.035 -0.02173235 0.02743546 0.035 -0.02173223 -0.02743556 0.035 -0.01150578 0.03305476 0.035 -0.01150555 -0.03305483 0.035 -3.271373e-07 0.035 0.035 4.070348e-09 -0.035 0.035 0.01150516 0.03305497 0.035 0.01150556 -0.03305483 0.035 0.02173184 0.02743587 0.035 0.02173224 -0.02743556 0.035 0.02954302 0.01876726 0.035 0.02954334 -0.01876675</float_array>
          <technique_common>
            <accessor count="128" source="#cubeverts-array0-array" stride="3">
              <param type="float" name="X"/>
              <param type="float" name="Y"/>
              <param type="float" name="Z"/>
            </accessor>
          </technique_common>
        </source>
        <source id="cubenormals-array0">
          <float_array count="756" id="cubenormals-array0-array">0 0.01077208 -0.9999419 -0.838963 -0.5441884 -0.0003608405 0.9994544 -0.03257366 -0.005477975 -0.9245604 0.3810076 -0.0046029 -0.9948408 3.000785e-05 -0.1014481 -0.9800968 -0.0001117472 -0.1985202 -0.5197137 -0.8466817 -0.1141393 0.06792747 0.002273886 0.9976876 0.5347643 0.4069217 -0.7405686 0.2068758 0.1630914 -0.964678 0.2992451 0.261297 -0.9177017 -0.4919721 -0.5973344 -0.633368 -0.9826533 -0.171359 0.07091314 -0.5680781 -0.8229716 -0.00223116 -0.978911 -9.020349e-05 0.204287 0 -0.1359623 0.9907141 -0.1777335 8.313121e-05 -0.9840787 -0.1602702 -7.192733e-09 -0.9870732 0.9994713 -0.03225835 -0.004065104 0.9997535 -0.02199582 -0.003024744 0.9993181 -0.03692119 0 0.07424264 -0.9972134 0.007307548 0.08833571 -0.9960908 0 -0.9047059 0.415928 -0.09225662 -0.8690794 0.489363 -0.07228388 -0.2123633 0.1917775 -0.9581875 -0.2507241 0.5845451 -0.7716506 -0.2559542 0.6399859 -0.7245037 -0.8904508 0 -0.4550795 -0.8599793 -0.5103109 -0.004281384 -0.9948563 0 -0.101296 -0.501994 -0.8493515 -0.1631076 -0.2933484 -0.3143821 -0.9028348 -0.04290236 -0.9903155 -0.1320401 0.9999653 0.008331399 7.239677e-08 0.9996352 0.02623333 0.00643703 0.9998164 0.01910988 -0.001446221 0.8945467 0.3806259 0.2343287 0.8394797 0.403681 0.3637519 0.8373131 0.4061626 -0.3659764 7.62939e-08 9.786471e-07 1 -1.005478e-06 0 1 0.08120534 0.02374948 0.9964144 0.0799062 0.1796843 0.9804736 0.1606076 0.1290843 0.978541 0.3079991 0.2686425 0.9126707 0.2074395 0.1630612 0.964562 0.536608 0.4063486 0.739549 -0.2173075 -0.09814449 -0.9711566 -0.1777971 -0 -0.9840672 -0.1777912 -0.0001793584 -0.9840682 -0.7575029 0.6482036 0.07759847 -0.8089027 0.5784797 0.1050603 -0.8325571 0.5506713 0.06008146 -0.9918718 0 0.1272414 -0.9916709 0.0001695106 0.1287982 -0.08638237 -0.317972 0.9441567 -0.2369485 -0.6419074 0.7292534 -0.2949821 -0.7231249 0.6245607 -0.3283671 -0.7719476 0.5443086 -0.6735889 -0.6652722 0.3220107 -0.6517518 -0.7123569 0.260321 -0.005412078 0.005296023 -0.9999713 -0.004920193 0.003792531 -0.9999807 0.07424264 -0.9972134 -0.007307551 0.05111393 -0.9986928 0 0.9999986 -0.001672664 7.744717e-05 0.9985572 -0.04546298 0.02857589 0.9988961 -0.04119426 0.02257444 -0.5286381 -0.8478271 -0.04160495 -0.5345436 -0.8450492 -0.0124532 -0.5345836 -0.8451124 0.002290094 -0.5185457 -0.8540754 0.04081043 -0.04290236 -0.9903155 0.13204 0.65349 -0.364516 0.6633844 0.549357 -0.3556431 0.7561249 0.2330883 -0.1621136 0.9588477 0.3011935 -0.2235884 0.9269793 0.7447487 -0.3906014 0.5410914 0.9085968 -0.2954596 0.295221 0.1078393 -0.9910762 0.07834981 0.1117578 -0.9930718 0.03631233 -0.2143121 0.1916942 -0.9577702 -0.5006599 0.5778334 -0.6445528 -0.4134202 0.6427549 -0.6449417 -0.3705149 0.6149195 -0.6961271 -0.9800012 -1.505767e-05 -0.1989913 -0.8915162 0.0001230987 -0.4529887 -0.8912152 0.4159178 -0.1809631 -0.7495286 0.6303542 -0.2021395 -0.7610353 0.520861 -0.38669 -0.5777988 0.8141683 0.05725928 -0.1117578 -0.9930718 -0.03631229 -0.4385778 -0.658111 -0.6119962 -0.4278391 -0.692185 -0.5812347 -0.4162031 -0.6444907 -0.6414101 0.544118 0.4161963 0.7285028 0.7198441 0.4745421 0.5065908 0.9344402 0.3222698 -0.1515377 0.89957 0.3849562 -0.206355 0.5368647 0.4097404 -0.7374884 0.711726 0.475452 -0.5170991 0.00521489 0.9999341 -0.0102348 0.009079742 0.2681516 0.963334 -0.1797135 -0.3139688 0.9322696 0.009796148 -0.002426845 0.9999491 0.0001221291 -3.412311e-05 1 0.009338975 -0.004078235 0.9999481 0.01073441 -0.007719631 0.9999126 0.0004952609 -0.134689 0.9908878 0.002380164 -0.01490009 0.9998861 -0.3471017 -0.8070195 0.4777447 -0.0560117 -0.9961962 0.06675216 -0.06154074 -0.9945039 0.08470359 -0.0145403 -0.001036528 -0.9998937 0 -0.01302351 -0.9999152 -0.09056842 -4.064601e-09 -0.9958903 -0.0840852 0.0003153935 -0.9964585 0.002342953 -0.01015871 -0.9999457 0.003367774 -0.01178464 -0.9999249 0.0560117 -0.9961962 -0.06675217 0.9863941 -0.1221317 -0.1100479 0.04290238 -0.9903155 -0.13204 0.06154075 -0.9945039 -0.08470361 0.04290236 -0.9903155 0.13204 0.05601171 -0.9961962 0.06675215 0.06154076 -0.994504 0.08470357 -0.7153167 0.6960902 -0.06148556 -0.5433103 0.8386099 0.03933709 -0.2482782 0.9686604 0.007404361 -0.4339255 0.8988624 0.06127882 -0.2021201 0.9689964 0.1421037 -0.3094934 0.8811537 -0.357466 -0.06405772 -0.9950219 -0.076341 -0.0643886 -0.9949176 -0.07741529 -0.1071071 -0.9905239 -0.08596804 -0.464501 -0.8157327 -0.3447011 -0.4279519 -0.6929203 -0.5802746 -0.07669631 -0.9970363 -0.006036134 -0.07424269 -0.9972134 -0.007307553 -0.05111394 -0.9986928 0 -0.07424267 -0.9972134 0.007307551 -0.07669631 -0.9970363 0.006036133 -0.08620101 0.6512112 0.753985 6.839958e-08 0.1757984 0.9844262 0.002053285 0.270777 0.9626399 -0.3401641 -0.7116694 0.6146666 -0.3402349 -0.709343 0.6173108 -0.3455381 -0.7241248 0.596864 -0.5655279 -0.6262175 0.5366841 -0.7253623 -0.001009243 0.6883666 -0.9022044 -0.002607572 0.4313008 -0.7640436 0.001163756 0.6451636 0.0527307 -0.08851177 0.9946784 0.1025981 -0.0768126 0.9917527 0.0507166 -0.03714103 0.9980222 0.07302944 -0.02415537 0.9970372 -0.1117578 -0.9930719 0.03631228 -0.1078393 -0.9910762 0.07834982 -0.4128672 -0.8599775 0.2999656 -0.4780973 -0.8644602 0.1553431 -0.4738433 -0.8620868 0.179663 0.908597 -0.2954592 -0.2952209 0.7447485 -0.3906017 -0.5410915 0.1117578 -0.9930718 -0.03631229 0.1078393 -0.9910762 -0.07834982 0.233079 -0.1621063 -0.9588512 0.3011936 -0.2235891 -0.9269791 0.6534833 -0.3645148 -0.6633916 0.5493569 -0.3556425 -0.7561253 -0.2451874 0.9660828 -0.08103786 -0.486086 0.8696566 -0.08612622 -0.4795455 0.86856 -0.1250581 -0.3679945 0.9218388 -0.1216274 -0.199553 0.9689287 0.1461364 -0.2213417 0.9725066 0.0723798 -0.2452018 0.9692777 0.01941394 -0.2435544 0.9692771 0.03439468 -0.2398977 0.9129202 -0.3301907 -0.2399204 0.9131742 -0.3294713 -0.2319103 0.9580333 -0.1684926 -0.2285146 0.8846454 0.4064277 -0.5697449 0.6662859 0.4810964 -0.2729182 0.9427077 0.1918795 -0.4269145 0.8743607 0.2307324 -0.5302593 0.7989724 0.2836691 -0.1864406 0.172716 0.9671655 -0.4646944 0.5212157 0.7158166 -0.4826962 0 0.8757879 -0.5445002 0.004336596 0.8387495 -0.2840398 0.6267224 0.7256311 -0.2850383 0.6277836 0.724321 -0.9788212 0 0.2047168 -0.9197023 0 0.3926164 -0.8690611 0.4601042 0.1817608 -0.6514877 0.7058433 0.2781169 -0.2449769 0.966256 -0.07959775 -0.2482377 0.9685022 -0.01953673 -0.2503143 0.9675359 -0.0348871 -0.1710766 0.956008 0.2382891 -0.138722 0.8881306 0.4381555 -0.152667 0.9158685 0.3713188 -0.9999875 0 -0.004978412 -0.9999875 0 -0.004978412 -0.9974062 0 0.07197778 -0.9974062 0 0.07197778 -0.2183617 -0 -0.9758679 -0.2183617 -0 -0.9758679 -0.6134375 -0 -0.7897432 -0.6134375 0 -0.7897432 -0 -0.9957694 -0.09188735 0 -0.9957694 -0.09188735 0 -0.9957694 0.09188735 0 -0.9957694 0.09188735 -0 -1 0 0 -1 0 0 -1 0 -0 -1 0 0 -1 0 0 -1 0 1 0 0 1 0 0 1 0 0 1 0 0 1 0 0 1 0 0 1 0 0 1 0 -0 1 0 0 1 0 0 1 0 0 1 0 0 -0.1892852 0 0.9819222 -0.1892852 0 0.9819222 0 1 0 0 1 0 0 1 0 0 1 0 -0 1 0 0 1 -0 0 1 0 0 1 0 0 1 0 0 1 0 0 1 0 0 1 0 0 1 -0 0 1 0 0 1 0 0 1 0 0 1 -0 0 1 0</float_array>
          <technique_common>
            <accessor count="252" source="#cubenormals-array0-array" stride="3">
              <param type="float" name="X"/>
              <param type="float" name="Y"/>
              <param type="float" name="Z"/>
            </accessor>
          </technique_common>
        </source>
        <vertices id="cubeverts-array0-vertices">
          <input semantic="POSITION" source="#cubeverts-array0"/>
        </vertices>
        <triangles count="252" material="ref_link_3_u_stl001">
          <input offset="0" semantic="VERTEX" source="#cubeverts-array0-vertices"/>
          <input offset="1" semantic="NORMAL" source="#cubenormals-array0"/>
          <p>121 0 77 0 86 0 0 1 7 1 9 1 108 2 114 2 112 2 1 3 6 3 3 3 8 4 7 4 3 4 15 5 7 5 8 5 51 6 7 6 15 6 74 7 75 7 120 7 94 8 125 8 123 8 121 9 86 9 123 9 94 10 123 10 86 10 28 11 15 11 21 11 0 12 9 12 4 12 9 13 7 13 16 13 9 14 18 14 10 14 88 15 44 15 79 15 77 16 76 16 36 16 77 17 78 17 76 17 112 18 113 18 108 18 112 19 114 19 113 19 108 20 113 20 109 20 101 21 106 21 109 21 106 22 108 22 109 22 8 23 3 23 11 23 11 24 3 24 6 24 77 25 36 25 37 25 68 26 77 26 37 26 38 27 68 27 37 27 21 28 15 28 22 28 0 29 2 29 7 29 7 30 2 30 3 30 51 31 15 31 56 31 78 32 69 32 28 32 78 33 72 33 69 33 126 34 127 34 111 34 110 35 126 35 111 35 127 36 110 36 111 36 126 37 110 37 105 37 124 38 126 38 105 38 127 39 125 39 102 39 74 40 45 40 65 40 65 41 45 41 44 41 74 42 120 42 83 42 83 43 89 43 74 43 120 44 89 44 83 44 95 45 89 45 122 45 122 46 89 46 120 46 95 47 122 47 124 47 78 48 28 48 35 48 36 49 76 49 35 49 78 50 35 50 76 50 17 51 6 51 5 51 10 52 17 52 5 52 5 53 6 53 1 53 5 54 4 54 9 54 9 55 10 55 5 55 79 56 44 56 43 56 70 57 79 57 43 57 42 58 70 58 43 58 70 59 42 59 30 59 24 60 18 60 30 60 30 61 18 61 9 61 77 62 121 62 82 62 121 63 85 63 82 63 108 64 106 64 100 64 100 65 106 65 101 65 115 66 113 66 114 66 116 67 109 67 115 67 109 68 113 68 115 68 7 69 51 69 49 69 16 70 7 70 49 70 9 71 16 71 49 71 9 72 49 72 52 72 70 73 73 73 79 73 118 74 98 74 116 74 93 75 98 75 118 75 88 76 118 76 120 76 88 77 93 77 118 77 116 78 98 78 103 78 116 79 103 79 109 79 98 80 101 80 103 80 101 81 109 81 103 81 36 82 29 82 37 82 29 83 22 83 25 83 29 84 25 84 38 84 38 85 37 85 29 85 14 86 15 86 8 86 14 87 22 87 15 87 8 88 11 88 14 88 11 89 25 89 14 89 25 90 22 90 14 90 13 91 6 91 17 91 51 92 56 92 59 92 15 93 28 93 34 93 69 94 15 94 34 94 28 95 69 95 34 95 95 96 124 96 99 96 124 97 105 97 99 97 107 98 110 98 127 98 127 99 102 99 107 99 96 100 125 100 94 100 102 101 125 101 96 101 94 102 86 102 96 102 74 103 89 103 80 103 39 104 43 104 44 104 75 105 74 105 66 105 74 106 65 106 66 106 65 107 75 107 66 107 75 108 65 108 67 108 44 109 88 109 67 109 67 110 65 110 44 110 70 111 30 111 62 111 60 112 73 112 62 112 62 113 73 113 70 113 85 114 81 114 82 114 81 115 87 115 78 115 78 116 77 116 81 116 77 117 82 117 81 117 121 118 81 118 85 118 121 119 87 119 81 119 97 120 100 120 90 120 114 121 108 121 117 121 92 122 90 122 87 122 97 123 90 123 92 123 91 124 93 124 88 124 101 125 98 125 91 125 98 126 93 126 91 126 12 127 11 127 6 127 6 128 13 128 12 128 48 129 12 129 13 129 26 130 13 130 17 130 58 131 26 131 41 131 38 132 25 132 32 132 72 133 59 133 63 133 72 134 63 134 69 134 59 135 56 135 63 135 56 136 15 136 63 136 15 137 69 137 63 137 54 138 49 138 51 138 51 139 59 139 54 139 59 140 60 140 54 140 54 141 60 141 52 141 52 142 49 142 54 142 80 143 47 143 46 143 45 144 74 144 46 144 74 145 80 145 46 145 42 146 43 146 31 146 43 147 39 147 31 147 30 148 42 148 31 148 24 149 30 149 31 149 24 150 31 150 27 150 18 151 24 151 23 151 24 152 27 152 23 152 67 153 88 153 84 153 88 154 120 154 84 154 75 155 67 155 84 155 120 156 75 156 84 156 52 157 60 157 57 157 60 158 62 158 57 158 57 159 62 159 30 159 9 160 52 160 57 160 57 161 30 161 9 161 104 162 117 162 108 162 97 163 117 163 104 163 108 164 100 164 104 164 100 165 97 165 104 165 119 166 87 166 121 166 119 167 92 167 87 167 119 168 117 168 97 168 97 169 92 169 119 169 55 170 32 170 20 170 11 171 12 171 20 171 25 172 11 172 20 172 20 173 32 173 25 173 58 174 41 174 64 174 53 175 26 175 58 175 48 176 13 176 53 176 13 177 26 177 53 177 38 178 61 178 68 178 38 179 32 179 61 179 61 180 32 180 55 180 47 181 41 181 33 181 33 182 23 182 27 182 41 183 26 183 33 183 33 184 26 184 17 184 17 185 23 185 33 185 45 186 46 186 40 186 40 187 33 187 27 187 40 188 31 188 39 188 27 189 31 189 40 189 47 190 40 190 46 190 47 191 33 191 40 191 19 192 10 192 18 192 18 193 23 193 19 193 17 194 10 194 19 194 23 195 17 195 19 195 55 196 20 196 50 196 50 197 12 197 48 197 20 198 12 198 50 198 71 199 64 199 41 199 47 200 80 200 71 200 71 201 41 201 47 201 1 202 3 202 2 202 0 203 1 203 2 203 5 204 1 204 0 204 0 205 4 205 5 205 29 206 35 206 28 206 36 207 35 207 29 207 29 208 28 208 21 208 21 209 22 209 29 209 90 210 72 210 78 210 78 211 87 211 90 211 79 212 73 212 91 212 88 213 79 213 91 213 91 214 73 214 60 214 60 215 59 215 91 215 91 216 100 216 101 216 100 217 91 217 90 217 91 218 59 218 72 218 72 219 90 219 91 219 119 220 115 220 114 220 124 221 122 221 119 221 119 222 127 222 126 222 120 223 118 223 119 223 119 224 125 224 127 224 125 225 119 225 123 225 126 226 124 226 119 226 121 227 123 227 119 227 119 228 122 228 120 228 116 229 115 229 119 229 119 230 118 230 116 230 114 231 117 231 119 231 40 232 39 232 44 232 44 233 45 233 40 233 71 234 105 234 110 234 86 235 77 235 71 235 77 236 68 236 71 236 71 237 99 237 105 237 71 238 89 238 95 238 55 239 50 239 71 239 71 240 61 240 55 240 107 241 102 241 71 241 102 242 96 242 71 242 71 243 53 243 58 243 95 244 99 244 71 244 110 245 107 245 71 245 86 246 71 246 96 246 71 247 80 247 89 247 58 248 64 248 71 248 48 249 53 249 71 249 68 250 61 250 71 250 71 251 50 251 48 251</p>
        </triangles>
      </mesh>
    </geometry>
  </library_geometries>
  <library_materials>
    <material id="mat_link_3_u_stl001" name="link_3_u_stl001">
      <instance_effect url="#effect_link_3_u_stl001"/>
    </material>
  </library_materials>
  <library_visual_scenes>
    <visual_scene id="myscene">
      <node id="node0" name="node0">
        <instance_geometry url="#geometry0">
          <bind_material>
            <technique_common>
              <instance_material symbol="ref_link_3_u_stl001" target="#mat_link_3_u_stl001"/>
            </technique_common>
          </bind_material>
        </instance_geometry>
      </node>
    </visual_scene>
  </library_visual_scenes>
  <scene>
    <instance_visual_scene url="#myscene"/>
  </scene>
</COLLADA>
