<COLLADA xmlns="http://www.collada.org/2005/11/COLLADASchema" version="1.4.1">
  <asset>
    <contributor/>
    <created>2026-02-17T18:01:14.886669</created>
    <modified>2026-02-17T18:01:14.886674</modified>
    <unit name="meter" meter="1.0"/>
    <up_axis>Z_UP</up_axis>
  </asset>
  <library_effects>
    <effect id="effect_base_link_stl001" name="effect_base_link_stl001">
      <profile_COMMON>
        <technique sid="common">
          <phong>
            <emission>
              <color>0.0 0.0 0.0 1.0</color>
            </emission>
            <ambient>
              <color>0.0 0.0 0.0 1.0</color>
            </ambient>
            <diffuse>
              <color>0.6784313917160034 0.7098039388656616 0.7411764860153198 1.0</color>
            </diffuse>
            <specular>
              <color>1 1 1 1.0</color>
            </specular>
            <shininess>
              <float>0.0</float>
            </shininess>
            <reflective>
              <color>0.0 0.0 0.0 1.0</color>
            </reflective>
            <reflectivity>
              <float>0.0</float>
            </reflectivity>
            <transparent>
              <color>0.0 0.0 0.0 1.0</color>
            </transparent>
            <transparency>
              <float>1.0</float>
            </transparency>
          </phong>
        </technique>
        <extra>
          <technique profile="GOOGLEEARTH">
            <double_sided>0</double_sided>
          </technique>
        </extra>
      </profile_COMMON>
    </effect>
  </library_effects>
  <library_geometries>
    <geometry id="geometry0" name="base_link_stl001">
      <mesh>
        <source id="cubeverts-array0">
          <float_array count="405" id="cubeverts-array0-array">-0.1670618 -0.007455282 -0.0160412 -0.1670618 0.01745528 -0.0519588 -0.1670594 -0.01253198 -0.04423349 -0.1670591 0.02254546 -0.02037653 -0.1670268 -0.007088078 -0.05180961 -0.1670268 0.01708807 -0.0161904 -0.1669735 -0.0191985 -0.034 -0.1669735 0.0291985 -0.034 -0.1668523 -0.01164406 -0.01984254 -0.1668523 0.02164406 -0.04815747 -0.1667605 -0.0175705 -0.03979298 -0.1667583 -0.01756299 -0.02815641 -0.1667583 0.02756299 -0.0398436 -0.16645 -0.01939038 -0.04034896 -0.16645 -0.01822395 -0.02648462 -0.16645 -0.01318003 -0.04830183 -0.16645 -0.01074637 -0.01612543 -0.16645 0.01785 -0.05285001 -0.16645 0.02074636 -0.01612543 -0.16645 0.02074637 -0.05187458 -0.16645 0.02822395 -0.04151539 -0.16645 0.02949437 -0.0278135 -0.1520667 0.004378115 0.02086053 -0.1455 -0.04950001 0.01 -0.1455 -0.04950001 0.022 -0.1455 -0.0487583 0.0261534 -0.1455 -0.0485 -0.06500001 -0.1455 -0.04598529 0.03048528 -0.1455 -0.04165341 0.03325829 -0.1455 -0.0375 0.034 -0.1455 -0.03442187 -0.066 -0.1455 0.006453907 -0.066 -0.1455 0.0375 0.034 -0.1455 0.0416534 0.03325829 -0.1455 0.04598528 0.03048528 -0.1455 0.048 -0.0655 -0.1455 0.0485 -0.04854063 -0.1455 0.04875829 0.0261534 -0.1455 0.0495 0.01 -0.1455 0.0495 0.022 -0.1445 -0.04849638 -0.06597705 -0.1445 0.04849573 -0.06600023 -0.1390054 0.04354633 -0.06641412 -0.1387265 -0.04080237 -0.06645422 -0.1367041 -0.0427363 -0.06640578 -0.0945 -0.0485 -0.066 -0.04964825 -0.04096287 -0.0664994 -0.04964825 0.04403713 -0.06649939 -0.035 0.062 -3.958121e-09 -0.032375 0.062 0.006000001 -0.02975 -0.06200001 0.01 -0.02968668 -0.06199955 0.005999986 -0.02859563 -0.062 -3.958121e-09 -0.02675 -0.06200001 0.015 -0.02675 -0.06145789 0.01660563 -0.02675 0.06179445 0.01608994 -0.02675 0.062 0.015 -0.009732732 -0.05655573 0.03100018 -0.006569328 -0.0485 -0.066 -0.004755215 0.05581557 0.03318844 -0.00475408 -0.05580236 0.03319622 -0.004527085 0.05313786 0.034 0.0004563658 0.05749819 0.031 0.002944599 -0.05377442 0.034 0.004197228 -0.05720355 0.03100024 0.01083208 -0.05519432 0.03319622 0.01083463 0.05520738 0.03318844 0.01211792 0.05619843 0.031 0.01993991 -0.04366234 0.034 0.02130891 0.05340581 0.031 0.02549195 -0.04986647 0.03319622 0.02549799 0.04987827 0.03318844 0.02670012 0.0467703 0.034 0.02675 -0.06200001 0.015 0.02675 -0.06145789 0.01660563 0.02675 0.06179445 0.01608994 0.02675 0.062 0.015 0.026875 0.062 -3.958121e-09 0.02975 0.062 0.006000001 0.02975 0.062 0.01 0.03143331 -0.03627598 0.034 0.03442682 -0.04232354 0.03390995 0.03625191 -0.04318931 -0.06638387 0.03642895 0.04180466 -0.06637371 0.03845672 0.04273393 0.031 0.0385 -0.06200001 -3.958121e-09 0.03868125 0.04392389 -0.06631699 0.03885938 -0.04220324 -0.06637121 0.03888967 -0.04163226 0.03257253 0.039375 -0.06188887 0.006000001 0.039375 0.06188886 0.006000001 0.03983939 0.06173358 -3.958121e-09 0.04071439 -0.06017802 0.01 0.04187281 0.03721099 0.03318844 0.0435 0.04849992 -0.06599999 0.0435 -0.04849689 -0.06600011 0.04364071 -0.05919363 -3.958121e-09 0.04364071 0.05919362 0.01 0.04420845 -0.05881427 0.01 0.04420845 0.05881427 -3.958121e-09 0.0445 -0.0485 -0.06500001 0.0445 -0.0475 -0.066 0.0445 0.0475 -0.066 0.0445 0.0485 -0.065 0.04532997 -0.03330077 0.03319622 0.04541961 -0.05256308 0.01548447 0.0455 -0.05500001 0.01 0.0455 -0.05428751 -3.958121e-09 0.0455 0.05256307 0.015 0.0455 0.055 -3.958121e-09 0.0455 0.055 0.01 0.04633961 0.03404248 0.031 0.04740335 0.02555934 0.034 0.04901245 -0.03006709 0.03100022 0.05000851 -0.01852769 0.034 0.05071483 0.02435673 0.03318844 0.05251609 -0.01945672 0.03319622 0.05268502 0.0229341 0.031 0.05296259 -0.02233883 0.03100017 0.05434223 0.01456591 0.03318844 0.05485807 0.002069845 0.03379905 0.05553947 0.01488682 0.031 0.055785 -0.01346516 0.03100011 0.05608469 -0.004272414 0.03319622 0.05662304 0.002153586 0.0327398 0.0570014 -0.007555843 0.01 0.0570014 0.007555838 0.01 0.05700303 -0.00754355 0.01 0.05700303 -0.00754355 -3.958121e-09 0.05700303 0.007543544 0.01 0.05700303 0.007543544 -3.958121e-09 0.05733389 0.004367568 0.031 0.05743155 -0.002804836 0.03100002 0.0575 -4.240005e-09 0.031 0.0575 -3.322066e-09 0.01</float_array>
          <technique_common>
            <accessor count="135" source="#cubeverts-array0-array" stride="3">
              <param type="float" name="X"/>
              <param type="float" name="Y"/>
              <param type="float" name="Z"/>
            </accessor>
          </technique_common>
        </source>
        <source id="cubenormals-array0">
          <float_array count="798" id="cubenormals-array0-array">-0.8945095 0 0.4470489 -0.9230916 0.03094275 0.3833331 -0.01949712 0.1757635 0.9842393 -0.9264864 0.06615718 0.3704676 0.9863599 0.1163923 -0.1163919 -0.9999509 0.009801608 -0.001494234 -0.8234863 -0.004620472 -0.5673174 -0.5873951 -0.04305052 -0.8081544 -0.5688277 -0.02114371 -0.8221849 0.934368 -0.3541006 -0.03961467 0.9806461 0.1957892 -8.05811e-05 -0.07331481 -0.006834939 -0.9972854 0.9912963 0.1316499 6.277554e-09 0.5773157 0.5773686 -0.5773664 -1.23251e-06 0.1112337 -0.9937943 -0.5316328 -0 -0.8469749 -0.06690814 0 -0.9977591 -0.9214315 0.2924666 0.2557875 -0.9680253 0.1490519 0.2017688 -0.9296571 0.1986319 0.310295 -0.9314452 0.140909 0.3354913 -0.9138763 0.3312808 0.2346978 -0.9831392 0.1666718 0.07521905 -0.7248536 0.6883166 0.02841572 -0.9915643 0.1106605 -0.06748688 -0.9724925 0.2125465 -0.09530051 -0.8459762 0.1701845 -0.505333 -0.1033935 0.9936114 0.04523462 -2.161502e-05 0.9797096 -0.200422 -0.9077071 0.3533983 0.2262245 -0.8052447 0.5837085 0.1042374 0.01992924 -0.9996795 0.01561124 0.4784748 -0.8764673 -0.05354226 0.5357699 -0.8443626 0.001613441 -0.05374928 -0.5383573 0.8410008 -0.9325115 -0.3041586 0.1947042 -0.06896479 -0.8402125 0.5378539 -0.06725103 -0.8870386 0.456771 -0.04239665 -0.9116142 0.4088545 0.03049215 -0.7816141 0.6230164 -0.09285811 -0.9801731 0.1750375 0 -0.9578858 0.2871494 -0.8158984 -0.5781953 -0 -0.879447 -0.4685839 0.08367893 -0.9013675 -0.4169903 0.1168572 -0.9299724 -0.06462812 0.3619041 -0.9233789 -0.02459069 0.3831015 -0.9268302 0.003601396 0.3754635 -0.9999526 0.001481559 0.009629531 -1 0.0001000521 6.93909e-05 0.4361187 -0.6635582 0.6078577 0.3266006 -0.7629833 0.5578426 0.2300424 -0.9220441 0.3113121 0.2821194 -0.7762684 0.5637516 0.1195443 -0.885496 0.4490056 0.02543937 -0.9471476 0.3197879 0.5761937 -0.5779266 -0.5779288 0.9341168 -0.3540053 -0.04589111 0.1809694 -0.9661321 -0.1839534 0.4746594 -0.8694783 -0.1367693 0.9863598 -0.1163918 -0.1163924 0.970394 -0.2388003 -0.03619153 0.9248973 0.3280699 0.1921853 0.2032979 0.05615733 0.9775051 0.8206861 0.291105 0.4916626 0.9987674 0 -0.04963545 0.9997024 -0.02439603 -1.264547e-09 0.9982152 -0.05953433 -0.004698036 0.8825006 -0.1363035 0.4501266 0.03369884 0.03370929 -0.9988634 0.00209577 0.02452753 -0.999697 0.002146044 0.06685915 -0.9977601 -0.001400257 0.08179056 -0.9966486 -0.0009568093 0.0004721542 -0.9999994 -0.07355319 0.001744095 -0.9972898 -0.06510898 0.0002590258 -0.9978781 -0.02055665 -0.04651206 -0.9987062 0.03390463 -0.03389583 -0.9988501 0.02453434 0.0006800225 -0.9996988 0.06566776 0 -0.9978415 0.05394379 0.0007401199 -0.9985437 0.9857121 0.1681469 0.009921867 0.9912871 0.1316487 0.004292358 0.8586354 0.1464696 0.4912147 0.9946176 0.103614 4.940699e-09 0.9992776 0.03800532 1.948176e-09 0.9982028 0.05975392 -0.004531764 -0.4516038 0.01073692 -0.892154 -0.52761 0.01022268 -0.8494251 -0.7180043 0.22215 -0.6596356 -0.8205236 0.4634806 -0.3345547 -0.7577407 0.6383213 -0.1355537 -0.4545054 0.8903571 -0.02624971 -0.6764249 0.7361918 -0.02170458 -0.9713904 0.1843946 -0.149664 -0.9634898 0.2170954 -0.1567063 -0.9914502 0.1113343 -0.06805188 -0.9785333 0.1729547 -0.1120676 -0.6869987 0.7266585 0 -0.6731568 0.739392 -0.0126304 -0.2820025 0.9592737 -0.01638646 -0.1136998 0.9934075 -0.014623 -0.1124053 0.9936625 0 0.03141633 0.1540692 0.9875605 0.1050672 0.2890987 0.9515161 0.136367 0.1331028 0.981676 0.2607593 0.3370799 0.9046445 -0.04320651 -0.9290323 0.3674672 -0.01854177 -0.9472913 0.3198366 -0.0666841 -0.9178022 0.3913979 -0.07538931 -0.9447578 0.3189813 -0.1009602 -0.9930446 0.06057619 -0.1073671 -0.9942194 0 -0.1073669 -0.9942178 -0.001812293 -0.001135502 -0.9999993 -0.0001314601 -5.685463e-08 -1 -3.880326e-07 -0.8104891 -0.5857018 -0.007809416 -0.1077483 -0.9940898 -0.01325464 -0.07188161 -0.9944171 -0.07725171 -0.1043221 -0.994364 -0.01889559 -0.6923108 -0.1340368 -0.7090416 -0.8569567 -0.3157101 -0.4073724 -0.9999465 -0.01019828 0.001753638 -0.9999846 -0.001455575 -0.005347891 -1 -9.478901e-05 -6.57407e-05 -0.9363013 -0.2847616 0.2055499 -0.9409995 -0.1824481 0.2850133 -0.9410005 -0.1822134 0.2851603 -0.9724926 -0.2125463 0.09530047 -0.9915643 -0.1106606 0.0674869 0.6254244 -0.5265631 0.575826 0.5140869 -0.6198034 0.5929236 0.7183123 -0.4690901 0.5137917 0.3167534 -0.3119083 0.8957568 0.3195466 -0.457056 0.8300541 0.3504242 -0.8978246 0.2666717 0.3134042 -0.8029754 0.5069599 0.2334368 -0.9198457 0.3152635 0.2710826 0.1004334 0.9573022 0.797551 0.2954848 0.5259289 0.3036801 0.2088915 0.9295928 0.7923004 0.4273113 0.4355057 0.5113739 0.0629888 0.8570467 0.5138892 0.01786631 0.8576705 0.8441595 0.1363776 0.5184553 0.9089868 0.03457131 0.4153889 0.8818088 -0.02151551 0.4711159 0.8625591 -0.0364184 0.5046439 0.2371475 -0.0463683 0.9703664 0.1473299 -0.1001961 0.9839993 0.03310408 0.001956169 0.99945 0.009657291 -0.01010724 0.9999022 0.9708895 -0.2389223 -0.01702315 0.9714896 -0.2369759 -0.007096012 0.9469259 -0.3206388 -0.02284543 0.9357984 -0.3168709 0.154513 0.9881802 -0.15263 0.01428941 0.9794025 -0.2019177 -8.830848e-05 -0.0004630681 -0.07360194 -0.9972876 -0.0001628436 -0.9797468 -0.2002402 -5.570133e-08 -0.9797149 -0.2003963 -0.0005531987 -0.02561724 -0.9996717 -0.0005072083 8.975757e-08 -0.9999999 0.1833979 0.9657653 -0.1834736 0.5509733 0.8245897 -0.1283754 0.1393857 0.9730855 0.1835105 0.2512353 0.8015193 0.5426303 0.2588319 0.7121914 0.6525254 -0 0.9609045 0.2768801 -0.06792852 0.918852 0.3887118 0.5526918 0.5792654 0.5991523 0.4238774 0.5479403 0.7211723 -0.8763446 -0.3796447 -0.2964627 -0.8308302 -0.5541142 -0.05175649 -0.9769939 -0.1680886 -0.1312596 -0.9820418 -0.1511843 -0.1128597 -0.9634896 -0.2170961 0.1567068 -0.9713903 -0.1843948 0.1496645 -0.9785333 -0.1729547 0.1120675 -0.9914503 -0.1113339 0.06805149 0.8108806 -0.4144616 0.4131516 0.9446682 -0.3004662 0.1316137 0.9376615 -0.3123008 0.1525097 0.06683168 -0.1838913 0.980672 0.06441095 -0.1693537 0.9834483 0.01645427 -0.4217769 0.9065503 -0.01926955 -0.1757643 0.9842436 -0.02739461 -0.2767201 0.96056 0.6433551 0.5169723 0.5646536 0.7536573 0.4489115 0.4800825 0.6243246 0.4294524 0.6525254 0.9959362 -0.09006209 -5.010841e-09 0.9912497 -0.1316591 0.009482099 0.9912943 -0.131665 -6.278273e-09 6.03651e-05 -0.9797068 -0.2004359 0 -0.9797149 -0.2003963 -1.028687e-05 -0.05221354 -0.9986359 2.198405e-06 -0.07211258 -0.9973965 0.02120962 -0.04325582 -0.998839 -5.873627e-05 -0.07065627 -0.9975007 0 -0.07209495 -0.9973978 0.001344868 8.975751e-08 -0.9999991 0.001463094 0.0001165179 -0.9999989 0.004815653 0.0001095336 -0.9999884 0.9711376 0.2353953 -0.03848006 0.9461445 0.3203742 -0.04659344 0.9718096 0.2355582 -0.009918247 0.2598048 0.9062229 0.3335589 0.5217343 0.8529115 0.01830816 0.5555704 0.8314695 -1.996416e-07 0.5267813 0.6009904 0.6010924 0.4576232 0.6414485 0.6157312 0.3173349 0.7723035 0.5503145 0.3374958 0.7520317 0.5661669 0.02053991 0.9994943 -0.0242773 0 0.9797147 -0.2003974 0.02014958 0.9805002 -0.1954825 -0.100803 0.9929097 0.06300194 -0.09285811 0.9801731 0.1750375 -0.09178267 0.9785304 0.1845378 0.1682768 0.8571309 0.4868363 0.0997952 0.8953757 0.4339853 0.09847697 0.8835484 0.4578695 -0.06901428 0.8402097 0.537852 -0.06829796 0.8628714 0.5007877 -0.05375377 0.5383572 0.8410006 -0.02847503 0.2877085 0.9572946 0.01134915 0.2909155 0.9566814 0.02953942 0.7571912 0.6525249 -0.9901893 -0.1207378 -0.0703384 -0.9864654 -0.144787 -0.07696004 -0.9858344 -0.1399521 -0.09243362 0.2572935 -0.1335552 0.9570596 0.6897072 -0.3580112 0.6293902 0.7026716 -0.3591518 0.614217 0.2822025 -0.06632284 0.9570596 0.7509757 -0.1764933 0.6363062 0.8202002 -0.2608745 0.5091328 0.007258643 -0.01129466 0.9999098 0.007357547 -0.01236579 0.9998965 0.9366983 0.3147445 0.1534023 0.9700789 0.24279 0 0.8968472 0.3976271 0.1937982 0.9471732 0.3207226 0 0.9135696 0.4050412 0.03650142 0.01538039 0.9998391 0.009228239 0.01154619 0.999918 -0.005532546 0.01154637 0.9999333 0 0.9825252 0 -0.1861294 0.9825252 0 -0.1861294 0 -1 -0 0 -1 0 0 0.9826783 0.1853196 0 0.9826783 0.1853196 0 0 1 -0 0 1 0 0 1 0 0 1 0 0 1 0 0 1 0 0 1 0 1 0 -0 1 0 0 1 0 0 1 0 0 1 -0</float_array>
          <technique_common>
            <accessor count="266" source="#cubenormals-array0-array" stride="3">
              <param type="float" name="X"/>
              <param type="float" name="Y"/>
              <param type="float" name="Z"/>
            </accessor>
          </technique_common>
        </source>
        <vertices id="cubeverts-array0-vertices">
          <input semantic="POSITION" source="#cubeverts-array0"/>
        </vertices>
        <triangles count="266" material="ref_base_link_stl001">
          <input offset="0" semantic="VERTEX" source="#cubeverts-array0-vertices"/>
          <input offset="1" semantic="NORMAL" source="#cubenormals-array0"/>
          <p>29 0 32 0 22 0 5 1 22 1 32 1 61 2 33 2 32 2 5 3 32 3 33 3 102 4 103 4 130 4 1 5 3 5 7 5 4 6 1 6 17 6 40 7 4 7 30 7 30 8 4 8 17 8 107 9 98 9 96 9 130 10 121 10 126 10 40 11 30 11 43 11 126 12 129 12 130 12 102 13 94 13 103 13 41 14 94 14 47 14 31 15 30 15 17 15 30 16 31 16 43 16 34 17 3 17 18 17 5 18 18 18 3 18 34 19 18 19 33 19 33 20 18 20 5 20 34 21 21 21 3 21 21 22 7 22 3 22 7 23 21 23 39 23 1 24 7 24 12 24 20 25 12 25 7 25 1 26 19 26 17 26 49 27 48 27 39 27 41 28 48 28 94 28 34 29 37 29 21 29 21 30 37 30 39 30 85 31 89 31 73 31 85 32 96 32 89 32 98 33 89 33 96 33 27 34 60 34 28 34 27 35 14 35 25 35 27 36 25 36 60 36 57 37 60 37 25 37 57 38 64 38 60 38 65 39 60 39 64 39 24 40 53 40 25 40 73 41 64 41 53 41 24 42 6 42 23 42 6 43 24 43 25 43 14 44 6 44 25 44 29 45 0 45 28 45 22 46 0 46 29 46 5 47 0 47 22 47 3 48 0 48 5 48 1 49 0 49 3 49 98 50 88 50 70 50 70 51 74 51 98 51 74 52 73 52 89 52 65 53 74 53 70 53 65 54 64 54 74 54 73 55 74 55 64 55 101 56 100 56 95 56 96 57 100 57 107 57 95 58 100 58 85 58 85 59 100 59 96 59 128 60 100 60 101 60 107 61 100 61 128 61 108 62 117 62 121 62 119 63 112 63 120 63 119 64 121 64 117 64 130 65 134 65 128 65 132 66 134 66 133 66 132 67 128 67 134 67 132 68 123 68 122 68 102 69 86 69 94 69 47 70 86 70 83 70 86 71 47 71 94 71 47 72 42 72 41 72 42 73 47 73 43 73 41 74 42 74 31 74 42 75 43 75 31 75 43 76 44 76 40 76 87 77 101 77 95 77 86 78 87 78 83 78 101 79 87 79 102 79 102 80 87 80 86 80 126 81 121 81 131 81 126 82 131 82 129 82 121 83 119 83 131 83 129 84 131 84 130 84 131 85 133 85 134 85 130 86 131 86 134 86 41 87 31 87 35 87 17 88 35 88 31 88 35 89 17 89 19 89 20 90 35 90 19 90 7 91 35 91 20 91 41 92 35 92 36 92 35 93 7 93 36 93 1 94 9 94 19 94 19 95 9 95 20 95 1 96 12 96 9 96 20 97 9 97 12 97 7 98 39 98 38 98 7 99 38 99 36 99 36 100 38 100 41 100 41 101 38 101 48 101 39 102 48 102 38 102 72 103 66 103 61 103 71 104 66 104 72 104 112 105 93 105 72 105 72 106 93 106 71 106 57 107 54 107 64 107 64 108 54 108 53 108 25 109 54 109 57 109 25 110 53 110 54 110 24 111 50 111 53 111 23 112 50 112 24 112 51 113 50 113 23 113 52 114 50 114 51 114 85 115 50 115 52 115 23 116 6 116 26 116 51 117 23 117 26 117 26 118 40 118 52 118 51 119 26 119 52 119 40 120 26 120 4 120 4 121 26 121 15 121 6 122 0 122 2 122 2 123 1 123 4 123 1 124 2 124 0 124 27 125 16 125 14 125 27 126 28 126 16 126 28 127 0 127 16 127 14 128 11 128 6 128 6 129 11 129 0 129 105 130 104 130 88 130 98 131 105 131 88 131 104 132 105 132 113 132 104 133 81 133 88 133 88 134 81 134 70 134 98 135 92 135 89 135 98 136 74 136 92 136 89 137 92 137 74 137 112 138 119 138 115 138 117 139 115 139 119 139 112 140 115 140 93 140 108 141 115 141 117 141 120 142 124 142 119 142 123 143 124 143 120 143 119 144 124 144 131 144 124 145 133 145 131 145 133 146 124 146 132 146 132 147 124 147 123 147 120 148 114 148 123 148 104 149 114 149 81 149 112 150 114 150 120 150 81 151 114 151 80 151 106 152 107 152 128 152 106 153 128 153 122 153 107 154 106 154 98 154 98 155 106 155 105 155 125 156 132 156 122 156 128 157 125 157 122 157 40 158 44 158 45 158 40 159 45 159 52 159 52 160 45 160 85 160 43 161 46 161 44 161 47 162 46 162 43 162 91 163 103 163 94 163 103 164 91 164 99 164 75 165 90 165 76 165 75 166 66 166 69 166 71 167 69 167 66 167 55 168 62 168 75 168 37 169 62 169 55 169 108 170 84 170 93 170 84 171 71 171 93 171 13 172 15 172 26 172 6 173 13 173 26 173 15 174 13 174 4 174 4 175 13 175 2 175 8 176 14 176 16 176 0 177 8 177 16 177 14 178 8 178 11 178 0 179 11 179 8 179 105 180 118 180 113 180 122 181 118 181 106 181 105 182 106 182 118 182 70 183 63 183 65 183 70 184 81 184 63 184 65 185 63 185 60 185 63 186 29 186 28 186 60 187 63 187 28 187 111 188 108 188 93 188 108 189 111 189 115 189 93 190 115 190 111 190 132 191 127 191 128 191 127 192 132 192 125 192 128 193 127 193 125 193 85 194 58 194 95 194 85 195 45 195 58 195 82 196 44 196 46 196 82 197 95 197 58 197 95 198 82 198 87 198 44 199 82 199 45 199 45 200 82 200 58 200 47 201 82 201 46 201 82 202 47 202 83 202 83 203 87 203 82 203 130 204 103 204 109 204 103 205 99 205 109 205 130 206 109 206 121 206 75 207 97 207 90 207 90 208 97 208 91 208 91 209 97 209 99 209 108 210 97 210 84 210 97 211 71 211 84 211 75 212 69 212 97 212 71 213 97 213 69 213 90 214 91 214 77 214 77 215 94 215 48 215 94 216 77 216 91 216 56 217 49 217 39 217 37 218 56 218 39 218 37 219 55 219 56 219 75 220 67 220 66 220 62 221 67 221 75 221 66 222 67 222 62 222 34 223 59 223 37 223 37 224 59 224 62 224 59 225 34 225 33 225 61 226 59 226 33 226 66 227 59 227 61 227 66 228 62 228 59 228 10 229 6 229 2 229 6 230 10 230 13 230 13 231 10 231 2 231 104 232 116 232 114 232 116 233 104 233 113 233 113 234 118 234 116 234 116 235 123 235 114 235 123 236 116 236 122 236 122 237 116 237 118 237 80 238 68 238 81 238 81 239 68 239 63 239 110 240 108 240 121 240 110 241 121 241 109 241 108 242 110 242 97 242 99 243 110 243 109 243 99 244 97 244 110 244 90 245 79 245 76 245 90 246 77 246 78 246 90 247 78 247 79 247 102 248 130 248 128 248 102 249 128 249 101 249 53 250 50 250 73 250 50 251 85 251 73 251 75 252 56 252 55 252 75 253 76 253 56 253 61 254 32 254 68 254 29 255 68 255 32 255 68 256 112 256 72 256 68 257 80 257 114 257 61 258 68 258 72 258 112 259 68 259 114 259 68 260 29 260 63 260 76 261 78 261 56 261 49 262 78 262 48 262 48 263 78 263 77 263 78 264 49 264 56 264 78 265 76 265 79 265</p>
        </triangles>
      </mesh>
    </geometry>
  </library_geometries>
  <library_materials>
    <material id="mat_base_link_stl001" name="base_link_stl001">
      <instance_effect url="#effect_base_link_stl001"/>
    </material>
  </library_materials>
  <library_visual_scenes>
    <visual_scene id="myscene">
      <node id="node0" name="node0">
        <instance_geometry url="#geometry0">
          <bind_material>
            <technique_common>
              <instance_material symbol="ref_base_link_stl001" target="#mat_base_link_stl001"/>
            </technique_common>
          </bind_material>
        </instance_geometry>
      </node>
    </visual_scene>
  </library_visual_scenes>
  <scene>
    <instance_visual_scene url="#myscene"/>
  </scene>
</COLLADA>
