<COLLADA xmlns="http://www.collada.org/2005/11/COLLADASchema" version="1.4.1">
  <asset>
    <contributor/>
    <created>2026-02-17T18:01:14.999415</created>
    <modified>2026-02-17T18:01:14.999421</modified>
    <unit name="meter" meter="1.0"/>
    <up_axis>Z_UP</up_axis>
  </asset>
  <library_effects>
    <effect id="effect_link_3_u_stl" name="effect_link_3_u_stl">
      <profile_COMMON>
        <technique sid="common">
          <phong>
            <emission>
              <color>0.0 0.0 0.0 1.0</color>
            </emission>
            <ambient>
              <color>0.0 0.0 0.0 1.0</color>
            </ambient>
            <diffuse>
              <color>0.6784313917160034 0.7098039388656616 0.7411764860153198 1.0</color>
            </diffuse>
            <specular>
              <color>1 1 1 1.0</color>
            </specular>
            <shininess>
              <float>0.0</float>
            </shininess>
            <reflective>
              <color>0.0 0.0 0.0 1.0</color>
            </reflective>
            <reflectivity>
              <float>0.0</float>
            </reflectivity>
            <transparent>
              <color>0.0 0.0 0.0 1.0</color>
            </transparent>
            <transparency>
              <float>1.0</float>
            </transparency>
          </phong>
        </technique>
        <extra>
          <technique profile="GOOGLEEARTH">
            <double_sided>0</double_sided>
          </technique>
        </extra>
      </profile_COMMON>
    </effect>
  </library_effects>
  <library_geometries>
    <geometry id="geometry0" name="link_3_u_stl">
      <mesh>
        <source id="cubeverts-array0">
          <float_array count="2004" id="cubeverts-array0-array">-0.07283099 -0.02 0.009513618 -0.07283099 0.028 0.009513618 -0.07278363 -0.02 3.181473e-09 -0.07278363 0.028 3.181473e-09 -0.07240739 -0.02 0.0153836 -0.07240739 0.028 0.0153836 -0.07204198 0.02984269 0.003558073 -0.07179742 -0.02158072 -0.009685875 -0.07178867 0.028 -0.009756949 -0.0717243 -0.02171358 0.02070836 -0.07169425 0.028 0.02087432 -0.07145275 0.02880111 3.123299e-09 -0.07108705 -0.02132874 3.107313e-09 -0.07099497 0.02975315 -0.009636442 -0.0708328 -0.02 0.009428428 -0.0708328 0.028 0.009428428 -0.07078081 -0.021 3.093927e-09 -0.07078081 -0.02 3.093927e-09 -0.07078081 0.028 3.093927e-09 -0.07077487 0.03083051 3.093668e-09 -0.07042299 -0.02 0.01512866 -0.07042299 0.028 0.01512866 -0.07012515 0.02881686 3.065267e-09 -0.06986293 -0.0207324 0.01495386 -0.06986293 0.0287324 0.01495386 -0.06983371 0.031 0.009385832 -0.06981351 0.028 -0.0194843 -0.0698077 -0.02147779 -0.01950919 -0.06980338 0.028 -0.009509058 -0.06977934 -0.023 3.050152e-09 -0.06977934 -0.021 3.050152e-09 -0.06977934 0.031 3.050152e-09 -0.06971881 -0.02 0.02056191 -0.06971881 0.028 0.02056191 -0.06968068 0.02997517 0.025502 -0.06967536 -0.02 0.03052733 -0.06967536 0.028 0.03052733 -0.06928239 -0.023 0.01489577 -0.06928239 -0.021 0.01489577 -0.06882267 0.031 -0.009306619 -0.06862653 -0.02 -0.02182038 -0.06862653 0.028 -0.02182038 -0.06858841 0.02889609 -0.007206788 -0.06851768 0.028 0.03323918 -0.06810252 -0.02 0.03381742 -0.06802757 0.029 0.02233245 -0.068 0.02699999 -0.004999997 -0.068 0.02787499 0.002875003 -0.06792519 0.02985471 -0.02070243 -0.06787568 -0.021 -0.01898953 -0.06787568 0.028 -0.01898953 -0.06774029 -0.02 0.03002186 -0.06774029 0.028 0.03002186 -0.06754932 0.031 0.025562 -0.06713966 0.028 -0.02047841 -0.06708435 -0.021 -0.02054692 -0.06689996 0.028 0.035155 -0.06684789 0.02865839 -0.01987417 -0.06655711 -0.02 -0.02342781 -0.06655711 0.028 -0.02342781 -0.06631426 -0.02206453 0.03329285 -0.06620522 -0.02 0.03304852 -0.06620522 0.028 0.03304852 -0.06619978 -0.02075315 0.03135143 -0.06611256 -0.02 0.03591433 -0.0659747 0.02866225 0.03187808 -0.06593237 -0.023 -0.01751219 -0.06570475 -0.021 -0.02161854 -0.06562469 0.028 -0.02165519 -0.06521323 0.031 -0.02022729 -0.06517334 0.029 -0.02026056 -0.06459755 0.02987575 0.03528386 -0.064 -0.02245557 -0.02261973 -0.064 -0.02115464 -0.0237689 -0.064 -0.021 -0.022 -0.064 -0.02 -0.02399999 -0.064 0.028 -0.02399999 -0.064 0.028 -0.022 -0.064 0.02858438 -0.0217324 -0.064 0.02915463 -0.0237689 -0.064 0.03045557 -0.02261973 -0.0635808 -0.02 0.03730973 -0.0635808 0.028 0.03730973 -0.06331636 0.028 0.03527971 -0.06323656 -0.02 0.03531606 -0.06238193 -0.023 0.03370903 -0.061416 0.029 0.03470078 -0.06102074 0.031 0.03484785 -0.061 0.027 -0.004999997 -0.061 0.027 0.004000002 -0.061 0.0285 0.003500002 -0.061 0.029 -0.004999997 -0.061 0.029 2.666395e-09 -0.06002662 0.02846147 0.03599996 -0.06 -0.02281457 0.03603835 -0.06 -0.02157984 0.03746795 -0.06 -0.021 0.035 -0.06 -0.02058438 0.0357324 -0.06 -0.02 0.036 -0.06 -0.02 0.038 -0.06 0.027 -0.003999997 -0.06 0.027 0.005000003 -0.06 0.028 0.038 -0.06 0.0285 -0.003499997 -0.06 0.029 2.622683e-09 -0.06 0.029 0.005000003 -0.06 0.02903835 0.03781458 -0.06 0.03046795 0.03657984 -0.047 0.027 -0.003999998 -0.047 0.027 0.005000002 -0.047 0.0285 -0.003499998 -0.047 0.029 2.054435e-09 -0.047 0.029 0.005000002 -0.046 0.027 -0.004999998 -0.046 0.029 -0.004999998 -0.046 0.029 2.010724e-09 -0.04425 0.02775 0.003750001 -0.039 0.027 -0.004999998 -0.039 0.027 0.004000001 -0.03853368 0.02903863 -0.002499998 -0.038 -0.023 1.661033e-09 -0.038 -0.021 1.661033e-09 -0.038 0.031 1.661033e-09 -0.03753794 -0.023 0.005907865 -0.03713471 0.02915452 1.62321e-09 -0.03647807 0.029 0.009837829 -0.03647807 0.031 0.009837829 -0.03642017 0.03153205 1.591976e-09 -0.03571799 -0.02402483 -0.003300186 -0.03534158 -0.023 -0.0124531 -0.03518542 0.03296164 1.538004e-09 -0.03507122 0.03100391 -0.004694717 -0.035 -0.026 1.529898e-09 -0.035 0.034 1.529898e-09 -0.035 0.04 1.529898e-09 -0.035 -0.045 1.529898e-09 -0.03486074 -0.0237283 0.001317492 -0.03479513 -0.0238028 0.009383955 -0.03466601 0.03348082 0.005455868 -0.03457442 -0.026 0.005441454 -0.03456909 0.04 -0.005475205 -0.03456909 -0.045 -0.005475205 -0.03456909 -0.045 0.005475208 -0.03456392 0.04 0.005507786 -0.03446447 0.03046446 1.50649e-09 -0.0344001 -0.026 -0.006452375 -0.03395046 0.02988675 0.009156155 -0.03392196 0.029 -0.01595175 -0.03366721 0.02988675 -0.01014798 -0.03344291 0.03263623 0.01188747 -0.03333448 0.031 -0.01790077 -0.03330905 0.03226941 1.455985e-09 -0.033 -0.026 1.442476e-09 -0.033 -0.021 1.442476e-09 -0.033 0.034 1.442476e-09 -0.033 0.04 1.442476e-09 -0.033 -0.045 1.442476e-09 -0.0328099 0.03290139 -0.01387583 -0.03277578 -0.021 0.01698295 -0.03262201 -0.026 0.01268086 -0.03251995 -0.021 -0.005608285 -0.03251995 0.04 -0.005608285 -0.03251995 -0.045 -0.005608285 -0.03250711 -0.026 0.00565705 -0.03241547 -0.045 0.006183585 -0.03240847 0.04 0.006220242 -0.0323866 -0.02232509 0.01245185 -0.032 -0.0365 1.398764e-09 -0.03180287 0.0331347 0.008719597 -0.03175 -0.04525 1.387837e-09 -0.03156112 0.0331347 -0.009513159 -0.03153848 -0.02500736 -0.01597013 -0.03118523 0.04 -0.01588966 -0.03118523 -0.045 -0.01588966 -0.03118523 -0.045 0.01588967 -0.03114018 0.04 0.01597778 -0.0307579 -0.026 0.01195624 -0.03032446 0.03081729 -0.0219394 -0.03025 -0.039 1.322269e-09 -0.03025 -0.0365 1.322269e-09 -0.03017883 -0.026 0.01761398 -0.03007016 -0.045 -0.01094464 -0.03007016 -0.045 0.01094465 -0.03007016 -0.0365 -0.01094464 -0.03007016 -0.0365 0.01094465 -0.02962801 -0.02259675 -0.02237857 -0.02898897 0.02933973 -0.02065879 -0.02873868 0.03252113 -0.0204395 -0.02866382 0.04 -0.01635193 -0.02866381 -0.021 -0.01635193 -0.02866381 -0.045 -0.01635193 -0.0284257 -0.039 -0.01034611 -0.0284257 -0.039 0.01034611 -0.0284257 -0.0365 -0.01034611 -0.0284257 -0.0365 0.01034611 -0.02840633 -0.023 0.02357441 -0.02840449 -0.045 0.01679837 -0.02835052 0.04 0.0168893 -0.02817497 -0.02551982 -0.02067264 -0.02795496 -0.026 0.0175158 -0.02773217 -0.0238028 0.02301492 -0.02766673 0.02958174 -0.02350143 -0.02754996 0.028 -0.024 -0.02754996 0.028 -0.022 -0.02754996 -0.021 -0.022 -0.02754996 -0.02 -0.024 -0.02747002 0.029 0.02538142 -0.02747002 0.031 0.02538142 -0.02745824 -0.02158436 0.02272417 -0.02725519 0.03290139 0.02261908 -0.02705896 0.02988675 0.02245622 -0.02690367 -0.02139149 -0.02375432 -0.02686536 -0.0455 -0.01551072 -0.02686536 -0.0455 0.01551072 -0.02620155 0.03156857 -0.02023843 -0.02569062 0.028 -0.02435857 -0.02569062 -0.02 -0.02435857 -0.02547189 0.0331347 0.02088346 -0.02501043 -0.03925 -0.004974884 -0.025 -0.0455 1.092785e-09 -0.025 -0.0415 1.092785e-09 -0.02495429 -0.021 -0.02249904 -0.02493948 0.028 -0.02250497 -0.02474874 0.04 -0.02474874 -0.02474874 -0.045 0.02474874 -0.02474111 -0.04492845 -0.02474274 -0.02463184 0.04 0.02486509 -0.02451342 -0.045 -0.0205692 -0.02451342 -0.045 0.02056921 -0.02451342 -0.0365 -0.0205692 -0.02451342 -0.0365 0.02056921 -0.02438399 -0.026 0.02510818 -0.02410622 0.028 -0.025375 -0.02410621 -0.02 -0.025375 -0.024 -0.0445 1.049073e-09 -0.024 -0.0415 1.049073e-09 -0.02317284 -0.039 -0.01944432 -0.02317284 -0.039 0.01944433 -0.02317284 -0.0365 -0.01944432 -0.02317284 -0.0365 0.01944433 -0.02309699 -0.0455 -0.009567084 -0.02309699 -0.0455 0.009567086 -0.02309699 -0.0415 -0.009567084 -0.02309699 -0.0415 0.009567086 -0.02287342 -0.01741659 0.036 -0.02272872 0.028 -0.023925 -0.02272872 -0.021 -0.023925 -0.02255618 -0.02556487 0.02416789 -0.02230493 -0.02061711 0.03575997 -0.02217311 -0.0445 -0.009184402 -0.02217311 -0.0445 0.009184403 -0.02217311 -0.0415 -0.009184402 -0.02217311 -0.0415 0.009184403 -0.02206087 -0.01393698 0.03800004 -0.02204462 -0.02099038 0.03440673 -0.02188432 -0.00848073 0.03599997 -0.02156405 -0.039875 -0.004429689 -0.02137814 0.04 -0.02513912 -0.02137813 -0.045 -0.02513912 -0.02120282 -0.03925 0.01416727 -0.02105048 -0.0445 -0.004474416 -0.02103499 -0.045 0.02542694 -0.0209005 0.04 0.0255376 -0.02057061 -0.0415 -0.004372417 -0.02048556 -0.01490326 0.03375259 -0.02035407 -0.0436125 0.004857782 -0.02019919 -0.04264999 -0.002167904 -0.01964123 -0.0415 0.008744838 -0.01862959 -0.02223167 0.03027713 -0.01858651 -0.0455 -0.008275247 -0.01858651 -0.0455 0.008275249 -0.01819111 -0.005117516 0.03799987 -0.01806854 -0.039875 0.01256951 -0.01767767 -0.0455 -0.01767767 -0.01767767 -0.0455 0.01767767 -0.01767767 -0.0415 -0.01767767 -0.01767767 -0.0415 0.01767767 -0.01765239 -0.0436125 -0.01092584 -0.01742066 -0.026 0.02802714 -0.01708455 -0.0254507 0.03081188 -0.01697056 -0.0445 -0.01697056 -0.01697056 -0.0445 0.01697056 -0.01697056 -0.0415 -0.01697056 -0.01697056 -0.0415 0.01697056 -0.01693438 -0.0395625 -0.0173322 -0.01670546 -0.01034649 0.0353558 -0.01661853 -0.0436125 0.01271655 -0.01648906 0.03276881 0.03152451 -0.01626524 -0.0206796 0.03788577 -0.016 -0.045 -0.02771281 -0.016 -0.0365 -0.02771281 -0.016 -0.045 0.02771281 -0.016 -0.0365 0.02771281 -0.01593541 -0.009305629 0.03283668 -0.01588967 0.04 -0.03118523 -0.01588967 -0.045 -0.03118523 -0.01588966 -0.045 0.03118523 -0.01568358 0.04 0.03128938 -0.01562152 0.03335103 0.02900372 -0.01550902 -0.003332151 0.03600033 -0.01546337 -0.01729067 0.03589585 -0.015125 -0.039 -0.02619727 -0.015125 -0.0365 -0.02619727 -0.015125 -0.039 0.02619727 -0.015125 -0.0365 0.02619727 -0.01494639 -0.01261936 0.02675 -0.01479865 0.029 0.035 -0.0144625 0.02997696 0.03178241 -0.01405667 -0.01423082 0.03480156 -0.01402593 -0.0118464 0.03472215 -0.01343931 -0.01677669 0.03259225 -0.01293342 -0.01308525 0.02865625 -0.01239932 0.0309414 0.03541515 -0.01222457 -0.02296237 0.03537435 -0.01153462 0.04 -0.03091848 -0.01153461 -0.045 -0.03091848 -0.01117835 -0.045 0.03104906 -0.01108463 -0.04363125 -0.01766253 -0.0109498 0.04 0.0311304 -0.01087159 -0.02544831 0.03121353 -0.010772 -0.009553238 0.03283668 -0.01060996 -0.0455 -0.02915062 -0.01060996 -0.0455 0.02915062 -0.01051509 -0.0415 -0.01821266 -0.01051508 -0.0415 0.01821266 -0.01000949 -0.0436125 0.01837651 -0.01 0.028 0.036 -0.01 0.028 0.038 -0.01 0.02863383 0.03568546 -0.01 0.02976219 0.0373226 -0.009999998 -0.02232562 0.03689512 -0.009949769 -0.03925 -0.02402087 -0.009567085 -0.0455 -0.02309699 -0.009567085 -0.0415 -0.02309699 -0.009567083 -0.0455 0.02309699 -0.009567083 -0.0415 0.02309699 -0.009184402 -0.0445 -0.02217311 -0.009184402 -0.0415 -0.02217311 -0.009184401 -0.0445 0.02217311 -0.009184401 -0.0415 0.02217311 -0.009163677 -0.01101002 0.03592254 -0.007487798 -0.005038522 0.03593829 -0.007077733 -0.008194088 0.03788353 -0.006958709 -0.01842536 0.03729169 -0.006933844 -0.01779598 0.03450061 -0.006874239 -0.02196331 0.03351713 -0.006828946 -0.0251367 0.03436398 -0.006417304 -0.01018932 0.0351666 -0.006287095 -0.0455 -0.01934969 -0.006287093 -0.0455 0.01934969 -0.005999793 -0.01348192 -0.03245 -0.00574393 -0.0180169 -0.03452546 -0.005556742 -0.0365 -0.03151384 -0.005556742 -0.045 -0.03151384 -0.005556739 -0.0365 0.03151384 -0.005556739 -0.045 0.03151384 -0.005475208 0.04 -0.03456909 -0.005475204 -0.045 -0.03456909 -0.005475204 -0.045 0.03456909 -0.005252857 -0.0365 -0.02979043 -0.005252857 -0.039 -0.02979043 -0.005252854 -0.0365 0.02979043 -0.005252854 -0.039 0.02979043 -0.005181784 0.04 0.03461429 -0.004974882 -0.03925 0.02501043 -0.004187602 -0.01143528 0.03566548 -0.00410849 0.02869595 0.03524623 -0.003754237 -0.01109308 -0.03278576 -0.003574924 0.03199947 0.03507327 -0.003342607 -0.039875 -0.02173623 -0.003342605 -0.039875 0.02173623 -0.003286248 -0.02508545 0.03281736 -0.003268513 0.028 0.03555527 -0.002983244 0.03199407 0.0328906 -0.00270359 -0.0436125 -0.02075034 -0.002662854 -0.02647912 -0.03279502 -0.002532526 -0.02201783 0.03656241 -0.002406826 -0.02357556 -0.03484813 -0.002185783 -0.01216658 -0.03486317 -0.001623516 0.028 0.03731734 -0.001218123 -0.0436125 0.0208081 -0.0009607636 -0.01426081 -0.0325 -0.0005031687 -0.009674649 -0.03299561 -0.0003110155 0.04 -0.03299853 -0.0003110118 -0.045 -0.03299853 -0.0002416371 -0.02 0.03709679 -0.0002178183 -0.02456957 0.03499931 7.212378e-10 -0.0415 -0.025 7.649493e-10 -0.0415 -0.024 8.960834e-10 -0.0455 -0.025 8.960834e-10 -0.0445 -0.024 2.863096e-09 -0.0415 0.024 2.906807e-09 -0.0415 0.025 2.99423e-09 -0.0445 0.024 3.081653e-09 -0.0455 0.025 3.409488e-09 -0.045 0.033 8.841683e-06 -0.02453018 0.03299999 0.000110457 -0.01510272 -0.03453565 0.0003110133 0.04 0.03299853 0.0004175671 -0.01746324 -0.02675 0.0006763489 -0.01786896 -0.03489888 0.001082084 -0.02246833 -0.03252395 0.001130603 -0.02111988 -0.03457802 0.001824724 -0.01868973 -0.02671875 0.002373178 -0.02 0.03448142 0.002440901 -0.0174784 -0.0335 0.00251474 -0.01748424 -0.0345 0.002662498 -0.009626763 -0.03289242 0.002861999 -0.027875 -0.03287566 0.003110142 -0.01109233 -0.03486154 0.004788315 0.028 0.03381632 0.004974886 -0.03925 -0.02501043 0.005252857 -0.0365 -0.02979043 0.005252858 -0.039 -0.02979043 0.00525286 -0.0365 0.02979043 0.005252861 -0.039 0.02979043 0.00536636 0.028 0.03573096 0.005366362 -0.02 0.03573096 0.005475206 0.04 -0.03456909 0.00547521 -0.045 -0.03456909 0.00547521 -0.045 0.03456909 0.005537326 -0.01511147 -0.0345507 0.005556742 -0.0365 -0.03151384 0.005556743 -0.045 -0.03151384 0.005556745 -0.0365 0.03151384 0.005556746 -0.045 0.03151384 0.005639222 -0.0174158 -0.03251339 0.005820868 -0.02208152 0.03276204 0.005833297 0.04 0.03451047 0.005970072 -0.0436125 -0.02005603 0.006354019 -0.0225079 0.03454612 0.006427555 -0.0455 -0.01978197 0.006498682 -0.0415 -0.02000088 0.006498684 -0.0415 0.02000088 0.007431589 0.03074328 0.03424022 0.00743621 -0.043575 0.01952221 0.00785287 0.03038556 0.032121 0.009184404 -0.0445 -0.02217311 0.009184404 -0.0415 -0.02217311 0.009184406 -0.0445 0.02217311 0.009184406 -0.0415 0.02217311 0.009567087 -0.0455 -0.02309699 0.009567087 -0.0415 -0.02309699 0.009567089 -0.0455 0.02309699 0.009567089 -0.0415 0.02309699 0.009846239 0.028 0.03199428 0.009846241 -0.02 0.03199428 0.009861965 -0.039875 -0.02014226 0.01017274 -0.0455 0.01761969 0.01060996 -0.0455 -0.02915062 0.01060996 -0.0455 0.02915062 0.01062199 0.028 0.0338377 0.01062199 -0.02 0.0338377 0.0109498 0.04 -0.0311304 0.0109498 -0.045 -0.0311304 0.01117835 -0.045 0.03104906 0.01129088 -0.001715564 -0.03106119 0.01153461 0.04 0.03091848 0.0119291 0.004310573 -0.03302621 0.01197078 -0.001836874 0.03344867 0.01205651 0.003136814 0.0313933 0.01233274 -0.02129073 0.03062398 0.01318863 -0.043575 -0.01620105 0.0133379 -0.008444673 -0.03253485 0.01334579 -0.02132482 0.03235288 0.01342486 -0.039875 0.01737589 0.01404285 -0.007144664 0.03109786 0.01416728 -0.03925 0.02120282 0.014384 -0.0436125 0.01519825 0.01453642 0.0139587 0.02971254 0.015125 -0.039 -0.02619727 0.015125 -0.0365 -0.02619727 0.015125 -0.039 0.02619727 0.015125 -0.0365 0.02619727 0.01514091 0.02850876 0.02917284 0.01521746 0.00512693 0.03334195 0.01530571 -0.01392456 -0.03147595 0.01585411 0.01478713 -0.03120332 0.01588967 -0.045 -0.03118523 0.01588967 -0.045 0.03118523 0.01596441 0.03998025 -0.03115438 0.016 -0.045 -0.02771281 0.016 -0.0365 -0.02771281 0.016 -0.045 0.02771281 0.016 -0.0365 0.02771281 0.01627056 0.04 0.03098821 0.01638266 0.01398482 0.0310655 0.01644291 0.02740396 0.030842 0.01645983 -0.0455 -0.01195877 0.0164805 -0.01635509 -0.02855823 0.01677078 0.009446343 -0.03051354 0.01697057 -0.0445 -0.01697056 0.01697057 -0.0445 0.01697056 0.01697057 -0.0415 -0.01697056 0.01697057 -0.0415 0.01697056 0.01722063 -0.01554254 0.03054002 0.0174182 0.01838622 -0.02795135 0.01748322 -0.0395 -0.01748322 0.01767767 -0.0455 -0.01767767 0.01767767 -0.0455 0.01767767 0.01767767 -0.0415 -0.01767767 0.01767767 -0.0415 0.01767767 0.01828826 -0.0436125 -0.009824497 0.01874729 -0.02003826 0.02709584 0.0187586 0.01385597 0.02903059 0.01921202 -0.0415 0.008553741 0.01928145 -0.01440859 -0.02881169 0.01932212 -0.0436125 0.008033792 0.01932948 -0.0415 -0.007436217 0.01949613 0.0195091 -0.02904596 0.01950297 -0.02002166 -0.02904731 0.01952942 -0.039875 -0.01080566 0.01990088 -0.0455 0.00423006 0.02046825 0.01185217 -0.03226753 0.020803 0.02193672 0.02577073 0.02083852 -0.04363125 -0.0007683113 0.02085855 -0.02342465 -0.02557187 0.0209005 0.04 -0.0255376 0.0209005 -0.045 -0.0255376 0.021035 -0.045 0.02542694 0.02137813 0.04 0.02513912 0.02209144 -0.007985111 -0.03146141 0.02217311 -0.0445 -0.009184403 0.02217311 -0.0445 0.009184402 0.02217311 -0.0415 -0.009184403 0.02217311 -0.0415 0.009184402 0.02224009 -0.039875 -0.002235051 0.02268422 -0.0395625 0.00833589 0.02309699 -0.0455 -0.009567086 0.02309699 -0.0455 0.009567084 0.02309699 -0.0415 -0.009567086 0.02309699 -0.0415 0.009567084 0.02312823 0.02577037 -0.02346364 0.02317285 -0.039 -0.01944433 0.02317285 -0.039 0.01944432 0.02317285 -0.0365 -0.01944433 0.02317285 -0.0365 0.01944432 0.02334735 -0.01530341 0.03101562 0.02372542 -0.02587413 -0.02305327 0.0238197 -0.01522756 -0.03109817 0.02386589 -0.02547521 0.02557473 0.02393146 -0.02712167 0.0224989 0.024 -0.0445 -1.049073e-09 0.024 -0.0415 -1.049073e-09 0.02402087 -0.03925 -0.00994977 0.02451033 -0.02619889 -0.0249319 0.02451343 -0.045 -0.02056921 0.02451343 -0.045 0.0205692 0.02451343 -0.0365 -0.02056921 0.02451343 -0.0365 0.0205692 0.02467671 0.02603118 0.02485868 0.02474874 0.04 -0.02474874 0.02474874 -0.045 -0.02474874 0.02474874 -0.045 0.02474874 0.02482587 -0.0222623 -0.02704629 0.02494063 0.01678478 -0.03044028 0.025 -0.0455 -1.092785e-09 0.025 -0.0415 -1.092785e-09 0.02501064 -0.008091022 -0.03386889 0.02501064 1.093244e-09 -0.03482192 0.02501064 0.008091024 -0.03386889 0.02501065 -0.008091022 0.03386889 0.02501065 1.093257e-09 0.03482192 0.02506354 -0.01886423 0.02681291 0.02509614 0.04 0.02439639 0.02512979 1.098451e-09 -0.03282904 0.0251298 1.098461e-09 0.03282904 0.0251298 0.007627972 0.03193055 0.0252968 0.02093625 -0.02553022 0.02584466 0.01385062 -0.02975088 0.026 -0.03925 -1.136496e-09 0.02604808 0.01944933 0.02873881 0.02649996 0.009799206 0.03346106 0.02655954 -0.009238849 0.03154752 0.02655954 0.0128628 0.0302175 0.02686536 -0.0455 -0.01551072 0.02686536 -0.0455 0.01551072 0.02690764 -0.02479781 0.02462517 0.02698973 0.02402309 -0.02541495 0.02707631 0.03052079 0.01870358 0.0270882 0.02362491 0.02298746 0.02715372 -0.01820553 -0.02722123 0.02776865 0.03103918 -0.01787059 0.02788005 -0.0255363 -0.02112366 0.02798927 0.007667694 -0.03209682 0.02799851 -0.0318165 -0.01745501 0.02818655 -0.02668491 0.02013722 0.02835051 0.04 -0.0168893 0.02835052 -0.045 -0.0168893 0.02840449 -0.045 0.01679836 0.0284257 -0.039 -0.01034611 0.0284257 -0.039 0.01034611 0.0284257 -0.0365 -0.01034611 0.0284257 -0.0365 0.01034611 0.0284383 0.02640961 -0.0201296 0.02866381 0.04 0.01635193 0.02904826 -0.03112313 0.01922449 0.02979513 -0.03192335 -0.01824009 0.03007017 -0.045 -0.01094465 0.03007017 -0.045 0.01094464 0.03007017 -0.0365 -0.01094465 0.03007017 -0.0365 0.01094464 0.03025 -0.039 -1.322269e-09 0.03025 -0.0365 -1.322269e-09 0.03036814 -0.03208693 0.01437208 0.0304992 0.03103161 -0.01793429 0.03061144 -0.02966302 -0.01880393 0.03085303 -0.03457046 -0.01166128 0.03112082 0.03159022 0.01669097 0.03118523 0.04 -0.01588966 0.03118523 -0.045 0.01588966 0.03118523 -0.045 -0.01588966 0.03138504 0.02941611 0.01582292 0.03143581 0.04 0.01538799 0.03172108 0.03495285 0.009324113 0.03175 -0.04525 -1.387837e-09 0.03190561 -0.03563935 0.008158284 0.03191707 0.03505214 -0.008527551 0.032 -0.0365 -1.398764e-09 0.03240847 -0.045 -0.006220241 0.03241548 -0.045 0.006183582 0.0325451 -0.03289308 -0.009463696 0.03325998 0.04 0.002804141 0.03346286 -0.03541288 0.00999996 0.03348878 0.04 -0.005847722 0.0336128 -0.03039202 0.01747603 0.03364172 0.03132414 -0.01093361 0.03391541 -0.03635438 -7.211406e-10 0.034 -0.045 -1.486187e-09 0.034 -0.045 -1.994534e-10 0.03413213 0.03606581 0.0002388743 0.03415296 -0.03603442 0.0001912795 0.03417578 0.03599831 -1.396645e-09 0.03422308 0.03519787 -0.008631906 0.03437332 -0.03581076 -0.007694669 0.0345691 -0.045 -0.005475204 0.0345691 -0.045 0.005475205 0.0348308 0.04 0.002427659 0.03496944 0.03321052 0.008565946 0.03497847 -0.03194866 -0.00839283 0.03499121 -0.03357492 0.007645727 0.035 -0.02954334 -0.01876676 0.035 -0.02785515 -0.01769436 0.035 -0.02785512 0.0176944 0.035 -0.02173235 0.02743546 0.035 -0.02173223 -0.02743556 0.035 -0.0204904 -0.02586781 0.035 -0.02049039 0.02586781 0.035 -0.01150578 0.03305476 0.035 -0.01150555 -0.03305483 0.035 -0.01084813 0.03116597 0.035 -0.01084809 -0.03116599 0.035 -3.271373e-07 0.035 0.035 -7.821579e-08 0.033 0.035 2.308296e-09 -0.033 0.035 4.070348e-09 -0.035 0.035 0.01084798 0.03116603 0.035 0.0108481 -0.03116599 0.035 0.01150516 0.03305497 0.035 0.01150556 -0.03305483 0.035 0.02049027 0.02586791 0.035 0.0204904 -0.02586781 0.035 0.02173184 0.02743587 0.035 0.02173224 -0.02743556 0.035 0.02785504 0.01769453 0.035 0.02785516 -0.01769436 0.035 0.02954302 0.01876726 0.035 0.02954334 -0.01876675</float_array>
          <technique_common>
            <accessor count="668" source="#cubeverts-array0-array" stride="3">
              <param type="float" name="X"/>
              <param type="float" name="Y"/>
              <param type="float" name="Z"/>
            </accessor>
          </technique_common>
        </source>
        <source id="cubenormals-array0">
          <float_array count="4308" id="cubenormals-array0-array">-0.07656467 0.9939079 0.07927781 -0.4874438 0.8731471 -0.003580587 -0.4579937 0.771023 -0.4424539 -0.3465733 0.8554136 -0.3849086 -0.2259435 -0.4405001 -0.8688551 0.05311181 0.8612931 -0.505325 0.4742324 -0.4412633 -0.7618335 0.525483 0.6835981 -0.5065188 0.8851371 -0.4282582 -0.1820089 0.8525811 0.5190918 -0.06040736 0.8084876 0.5049199 0.3023302 0.309696 0.923829 0.2250073 0.271385 0.5358154 0.7995324 0.05311181 0.8612931 0.505325 -0.1136562 0.3171516 0.9415398 -0.3852756 0.8321172 0.3989282 -0.3762889 0.8430609 0.3842591 -0.765476 0.5961824 0.242101 -0.479555 0.8774927 -0.005792369 0 -1 0 0 -1 0 -0 -1 -0 0 -1 0 0 -1 0 0 -1 -0 0 -1 0 0 -1 0 0 -1 -0 0 -1 0 -0 -1 0 0 -1 0 0 -1 0 -0 -1 -0 0 -1 0 0 -1 0 0 -1 -0 0 -1 0 -0 -1 0 0 -1 -0 0 -1 0 0 -1 0 0 -1 0 -0 -1 0 -0.9807854 0 0.1950901 -0.9807854 0 0.1950901 -0.8314694 0 0.5555705 -0.8314694 0 0.5555705 -0.5555704 0 0.8314695 -0.5555704 0 0.8314695 -0.1950901 0 0.9807854 -0.1950901 -8.52766e-09 0.9807854 0.1950901 8.52766e-09 0.9807854 0.1950901 -0 0.9807854 0.5555704 0 0.8314694 0.5555704 -0 0.8314694 0.8314694 0 0.5555704 0.8314694 -0 0.5555704 0.9807854 0 0.1950901 0.9807854 -0 0.1950901 0.9807854 0 -0.1950901 0.9807854 0 -0.1950901 0.8314694 0 -0.5555705 0.8314694 0 -0.5555705 0.5555704 0 -0.8314695 0.5555704 0 -0.8314695 0.1950901 0 -0.9807854 0.1950901 8.527671e-09 -0.9807854 -0.1950901 -8.527671e-09 -0.9807854 -0.1950901 0 -0.9807854 -0.5555704 -0 -0.8314694 -0.5555704 0 -0.8314694 -0.8314694 -0 -0.5555704 -0.8314694 0 -0.5555704 -0.9807854 -0 -0.1950901 -0.9807854 0 -0.1950901 0 -1 0 0 -1 0 0 -1 -0 -0 -1 0 0 -1 0 0.03701128 -0.999305 0.004451074 0.03701065 -0.9992877 0.007361867 0.01698175 -0.9997978 -0.01076673 -0 -1 0 0 -1 0 0 -1 0 0 -1 0 0 -1 0 0 -1 0 0 -1 -0 -0 -1 0 0 -1 0 0 -1 0 -0.0370113 -0.999305 -0.004451076 -0.03701065 -0.9992877 -0.007361869 -0.01698175 -0.9997978 0.01076673 0 -1 0 0 -1 0 -0 -1 0 0 -1 0 0 -1 -0 0.2342056 -0.9704486 -0.05811454 0.6170434 -0.7016717 -0.3562501 0.1330534 -0.9783422 -0.1585669 0.1330536 -0.978342 -0.1585672 0.2436899 -0.7016698 -0.6695332 0 -0.978342 -0.2069948 -0 -0.978342 -0.2069948 -0.2436899 -0.7016698 -0.6695332 -0.1330535 -0.9783421 -0.158567 -0.1330535 -0.9783421 -0.158567 -0.6170438 -0.7016712 -0.3562504 -0.2342055 -0.9704485 -0.05811448 -0.2342055 -0.9704485 0.05811448 -0.6170434 -0.7016717 0.3562501 -0.1330534 -0.9783422 0.1585669 -0.1330536 -0.9783421 0.1585672 -0.2436898 -0.70167 0.669533 0 -0.978342 0.2069948 0 -0.978342 0.2069948 0.2436899 -0.7016698 0.6695332 0.1330535 -0.9783421 0.158567 0.1330535 -0.9783421 0.158567 0.6170438 -0.7016712 0.3562504 0.2342056 -0.9704486 0.05811454 0.9848078 0 -0.1736479 0.8660254 0 -0.5 0.8660254 0 -0.5 0.6427873 0 -0.7660447 0.6427873 0 -0.7660447 0.3420199 0 -0.9396927 0.3420198 4.038231e-08 -0.9396927 0 0 -1 -0 0 -1 -0.3420198 0 -0.9396927 -0.3420198 0 -0.9396927 -0.6427876 0 -0.7660444 -0.6427876 0 -0.7660444 -0.8660254 0 -0.5000001 -0.8660254 0 -0.5000001 -0.9884253 0 -0.1517081 -0.9844182 -0.02812644 -0.1735795 -0.9879346 -0.02822691 0.1522775 -0.9848078 0 0.1736482 -0.8660254 0 0.5 -0.8660254 0 0.5 -0.6427873 0 0.7660447 -0.6427873 0 0.7660447 -0.3420198 0 0.9396927 -0.3420198 0 0.9396927 0 0 1 -0 0 1 0.3420198 0 0.9396927 0.3420198 0 0.9396927 0.6427876 0 0.7660444 0.6427876 0 0.7660444 0.8660254 0 0.5000001 0.8660254 0 0.5000001 0.9884253 0 0.1517082 0.9844183 -0.02812579 0.1735792 0.9879346 -0.02822626 -0.1522777 0 1 0 -0 1 0 0 1 0 -0 1 0 0 1 0 -0 1 0 0 1 0 0 1 0 0 1 -0 0 1 0 0 1 -0 0 1 0 0 1 -0 0 1 0 0 1 -0 0 1 0 -0 1 0 0 1 0 -0 1 0 0 1 0 -0 1 0 0 1 0 -0 1 0 0 1 0 0 1 0 0 1 -0 0 1 0 0 1 -0 0 1 0 0 1 -0 0 1 0 0 1 -0 0 1 0 -0 1 -0 0 1 0 -0 1 0 -0.2001549 0.9777171 0.06330401 -0.1430891 0.9893005 0.02846217 -0.1563338 0.9823117 0.1030702 -0.1382009 0.9552902 0.2613833 -0.017447 0.9893461 0.1445327 0.0148327 0.9745435 0.2237075 0.05720986 0.9927059 0.1061218 0.1650906 0.9827763 0.08304062 0.1841071 0.9821768 -0.03785758 0.1780423 0.9833854 -0.03541482 0.1073446 0.9791527 -0.1724444 0.09428848 0.9854932 -0.1411127 -0.0556232 0.9752715 -0.2138964 -0.03088439 0.9873897 -0.1552663 -0.1589916 0.9788142 -0.1290133 -0.150682 0.9883173 -0.02288599 -0.9848077 0 0.1736482 -0.9848077 0 0.1736482 -0.8660253 0 0.5000001 -0.8660253 0 0.5000001 -0.6427875 0 0.7660446 -0.6427875 0 0.7660446 -0.3420201 0 0.9396927 -0.3420201 -6.523526e-08 0.9396927 0 0 1 0 -0 1 0.3420202 6.523526e-08 0.9396926 0.3420202 -0 0.9396926 0.6427878 0 0.7660443 0.6427878 -0 0.7660443 0.8660253 0 0.5000002 0.8660253 -0 0.5000002 0.9848077 0 0.1736482 0.9848077 -0 0.1736482 0.9848077 0 -0.1736482 0.9848077 0 -0.1736482 0.8660253 0 -0.5000001 0.8660253 0 -0.5000001 0.6427875 0 -0.7660446 0.6427875 0 -0.7660446 0.3420201 0 -0.9396927 0.3420201 6.523526e-08 -0.9396926 0 0 -1 0 0 -1 -0.3420202 -6.523526e-08 -0.9396926 -0.3420201 0 -0.9396926 -0.6427878 -0 -0.7660443 -0.6427878 0 -0.7660443 -0.8660253 -0 -0.5000002 -0.8660253 0 -0.5000002 -0.9848077 -0 -0.1736482 -0.9848077 0 -0.1736482 0.003033739 0.9989481 0.04575496 0.02236384 0.99786 0.06144413 0.01986452 0.9975317 0.06734952 0.06392661 0.9950424 0.07618473 0.08054823 0.9963728 0.0274446 0.03832746 0.9990202 0.02212838 0.05721164 0.9983111 0.01008796 0.04010044 0.9991639 -0.007976472 0.03814451 0.9992496 -0.006725909 0.04975097 0.9983485 -0.02872374 0.02530891 0.9989618 -0.03787747 0.02160561 0.9994349 -0.02574857 0.0186139 0.9985179 -0.05114128 0 0.9986351 -0.05222986 -0.007292373 0.9993011 -0.03666124 -0.01700907 0.9987626 -0.04673203 -0.03612294 0.9984197 -0.04304963 -0.03725727 0.9981084 -0.04890294 -0.0811392 0.9956013 -0.04684577 -0.09705614 0.9952781 -0.00129422 -0.05871885 0.9982209 -0.01035372 -0.05871799 0.9982063 0.01167973 -0.05577973 0.9983947 0.009835474 -0.05532376 0.9983576 0.01487955 -0.0730331 0.9964378 0.0421657 -0.0482281 0.992412 0.1131042 -0.02160561 0.9994349 0.02574857 -0.0186139 0.9985179 0.05114128 0 0.9986351 0.05222986 0 1 0 0 1 0 -0.1280634 0.9881666 -0.08441887 -0.3137907 0.9474384 0.06241678 -0.2219713 0.9693277 0.1055105 -0.2635032 0.9484547 0.1760673 -0.1616115 0.9686433 0.1887111 -0.1735813 0.9499381 0.2597828 -0.06660878 0.9682808 0.2408229 -0.05721832 0.9560229 0.2876563 0.03381139 0.9661557 0.255734 0.05853235 0.9539306 0.2942624 0.1514985 0.960091 0.2351032 0.1620369 0.9565225 0.2425052 0.2242438 0.9621983 0.1545607 0.2351683 0.9591687 0.1571345 0.2798747 0.9589255 0.04617295 0.2532328 0.9660931 0.05037108 0.281604 0.9564103 -0.07732052 0.2296277 0.9722062 -0.04567574 0.2486726 0.9491045 -0.1932938 0.2084359 0.9680691 -0.1392725 0.1641322 0.9343085 -0.3164304 0.1348861 0.9700792 -0.2018713 0.02801565 0.936336 -0.3499857 0.04533466 0.9726256 -0.227913 -0.1365852 0.9208818 -0.3651318 -0.04088634 0.9777923 -0.2055498 -0.3089983 0.9012496 -0.3037586 -0.1042169 0.9822482 -0.1559716 -0.5568455 0.8104748 -0.1818068 -0.9226494 0.3842839 0.03230673 -0.6958331 0.6633648 -0.2752515 0.9807853 0 -0.1950901 0.9807853 0 -0.1950901 0.8314695 0 -0.5555704 0.8314695 0 -0.5555704 0.5555703 0 -0.8314696 0.5555703 0 -0.8314696 0.1950901 0 -0.9807854 0.1950901 8.527667e-09 -0.9807854 -0.1950901 -8.527667e-09 -0.9807854 -0.1950901 0 -0.9807854 -0.5555704 -0 -0.8314695 -0.5555704 0 -0.8314695 -0.8314696 -0 -0.5555703 -0.8314696 0 -0.5555703 -0.9807853 -0 -0.1950901 -0.9807853 0 -0.1950901 -0.9807853 0 0.1950901 -0.9807853 0 0.1950901 -0.8314695 0 0.5555704 -0.8314695 0 0.5555704 -0.5555703 0 0.8314696 -0.5555703 0 0.8314696 -0.1950901 0 0.9807854 -0.1950901 -8.527664e-09 0.9807854 0.1950901 8.527664e-09 0.9807854 0.1950901 -0 0.9807854 0.5555704 0 0.8314695 0.5555704 -0 0.8314695 0.8314696 0 0.5555703 0.8314696 -0 0.5555703 0.9807853 0 0.1950901 0.9807853 -0 0.1950901 -0 1 0 0 1 0 -0 1 0 0 1 -0 0 1 0 0 1 -0 0 1 0 0 1 -0 0 1 0 0 1 -0 0 1 0 -0 1 -0 0 1 0 -0 1 0 0 1 0 -0 1 0 0 1 0 -0 1 0 0 1 0 -0 1 0 0 1 -0 0 1 0 0 1 -0 0 1 0 0 1 -0 0 1 0 0 1 -0 0 1 0 -0 1 0 0 1 0 -0 1 0 0 1 0 -0.9807854 0 0.1950901 -0.8314694 0 0.5555705 -0.8314694 0 0.5555705 -0.5555704 0 0.8314695 -0.5555704 0 0.8314695 -0.1950901 0 0.9807854 -0.1950901 0 0.9807854 0.1950901 0 0.9807854 0.1950901 0 0.9807854 0.5555704 0 0.8314694 0.5555704 0 0.8314694 0.8314694 0 0.5555704 0.8314694 0 0.5555704 0.9807854 0 0.1950901 0.9807854 0 0.1950901 0.9807854 0 -0.1950901 0.9807854 0 -0.1950901 0.8314694 0 -0.5555705 0.8314694 0 -0.5555705 0.5555704 0 -0.8314695 0.5555704 0 -0.8314695 0.1950901 0 -0.9807854 0.1950901 0 -0.9807854 -0.1950901 0 -0.9807854 -0.1950901 0 -0.9807854 -0.5555704 0 -0.8314694 -0.5555704 0 -0.8314694 -0.8314694 0 -0.5555704 -0.8314694 0 -0.5555704 -0.9807854 0 -0.1950901 -0.9807854 0 -0.1950901 -0.9807854 0 0.1950901 -0.6756332 0.7231154 0.1436103 -0.8162385 0.5295426 0.2309532 -0.7798497 0.04988756 0.6239758 -0.5054606 0.5695258 0.6481898 -0.4710825 0.01388116 0.8819799 0.03358645 0.1515756 0.9878749 -0.05956982 0.6653218 0.7441763 0.3453538 0.04010193 0.9376154 0.4621868 0.7231152 0.5133105 0.6081303 0.5295427 0.5914067 0.9556183 -0.07163587 0.2857655 0.8703266 0.492475 0 0.6056828 0.7864382 0.121092 0.9010502 0.06832112 -0.4282997 0.4612479 0.7244529 -0.5122678 0.4856086 0.665322 -0.5670369 -0.07211938 0.7238578 -0.6861695 0.2664689 0.02878192 -0.9634137 -0.1193818 0.6068855 -0.7857722 -0.5259725 0.0883171 -0.8459036 -0.5576752 0.7244528 -0.4051747 -0.6146898 0.6653228 -0.4236768 -0.9846756 0.04010311 -0.1697223 0 -1 0 0 -1 0 0 -1 0 -0 -1 0 0 -1 -0 0 -1 0 -0 -1 0 0 -1 -0 0 -1 0 0 -1 -0 0 -1 0 0 -1 -0 0 -1 0 -0 -1 0 0 -1 0 0 -1 0 -0 -1 0 0 -1 0 0 -1 0 0 -1 -0 0 -1 0 0 -1 0 0 -1 -0 0 -1 0 0.8071473 0.2522075 0.5337647 0.9137682 0.1913132 0.358367 -0.04404606 -0.9184958 -0.39297 -0.04988919 -0.9129593 -0.4049893 -0.7934456 0.2746052 0.5431722 -0.671428 0.6747654 -0.3063921 -0.1423584 0.1386255 0.9800597 -0.107319 -0.4727562 0.8746338 0.3633915 0.1366684 0.9215575 -0.6462024 -0.0515625 0.7614222 0.05319833 -0.9464423 0.3184604 0.05607456 -0.3494519 0.9352748 0.08631274 -0.09498154 0.9917301 -0.07091404 0.5174944 0.852743 0.3321371 -0.3139894 0.8894356 0.3236251 -0.2969797 0.8983707 0.1877623 -0.3581478 0.9145904 0.2094307 -0.4654995 0.8599122 -0.02541303 -0.2288591 0.9731278 0.4481485 0.3714255 0.8131457 0.5558872 -0.2438933 0.7946733 -0.1295259 -0.500256 0.8561349 7.629431e-08 -3.935218e-06 1 0.009796151 -0.002426845 0.9999491 0.002380164 -0.01490009 0.9998861 -1.005478e-06 0 1 1.381099e-05 1.340401e-05 1 -0.0528472 -0.5256729 0.8490437 -0.03387131 -0.5442138 0.8382625 0.1836912 -0.3869068 0.9036375 -0.1910735 -0.7617891 0.6190059 -0.00195286 -0.9966846 0.0813394 -0.002484113 -0.3191642 0.9476962 0.002467545 -0.9236866 0.3831409 -0.003799633 -0.7567949 0.6536413 0.002262368 -0.5093191 0.8605747 -0.8790443 -0.1407739 0.4554819 -0.8751248 -0.2151908 0.4334161 -0.8408955 -0.49139 0.226783 -0.2332143 -0.9722543 0.01823988 -0.2731122 -0.9619591 -0.006662863 -0.6136066 -0.7231133 0.3171656 -0.607389 -0.7294029 0.3147221 -0.4708452 -0.7352209 0.4876013 -0.6715279 -0.5286077 0.5192536 -0.5992044 -0.1671795 0.7829465 -0.9968296 0.01589452 0.0779619 -0.9936329 -0.1124466 0.0070428 -0.5586411 -0.3154154 0.7670941 0.0006750958 -0.9999972 0.002263209 6.001851e-08 -1 -2.00232e-09 5.878278e-08 -1 -4.597451e-09 5.241382e-08 -1 -2.709205e-08 2.725931e-08 -1 9.138483e-08 -0.6735889 -0.6652722 0.3220107 -0.5655278 -0.6262176 0.5366841 -0.3304277 -0.7289698 0.599517 -0.3439745 -0.7191815 0.6037047 -0.1797135 -0.3139688 0.9322696 -0.2513735 -0.910078 0.3294985 -0.3503916 -0.7088217 0.6122071 -0.5243209 -0.8509212 -0.03194845 -0.787288 -0.6160258 0.02626527 -0.7195421 -0.6935647 -0.03503159 -0.6165862 -0.7872815 -0.00306966 -0.6517518 -0.7123569 0.2603211 -0.2393237 -0.9669636 0.08778102 -0.2800971 -0.955381 0.0937703 -0.9826533 -0.171359 0.07091313 -0.9789141 0 0.2042719 -0.9788213 -9.169242e-05 0.2047168 -0.9918647 0.0001746403 0.1272966 -0.9916708 0 0.1287982 -0.9974062 0 0.07197778 -0.9974062 0 0.07197778 -0.9999875 -0 -0.004978412 -0.9999875 0 -0.004978412 -0.1892852 0 0.9819222 -0.1892852 0 0.9819222 -0.4826962 0 0.8757879 -0.5445002 0.004336596 0.8387495 -0.7253623 -0.001009244 0.6883666 -0.7640436 0.001163756 0.6451636 -0.9022044 -0.002607571 0.4313008 -0.9197023 0 0.3926164 -0.8690611 0.4601042 0.1817608 -0.8325571 0.5506713 0.06008146 -0.9875486 -0.05431547 -0.1476404 -0.5157156 0.856756 -0.002567477 -0.4339255 0.8988624 0.06127882 -0.1678313 0.9858153 -0.0009721562 -0.5433103 0.8386099 0.03933708 -0.5777988 0.8141682 0.05725927 -0.7575028 0.6482036 0.07759847 -0.8089027 0.5784797 0.1050603 -0.136691 0.6917437 0.7090883 -0.5697449 0.6662859 0.4810964 -0.6514877 0.7058433 0.2781169 -0.5302593 0.7989724 0.2836691 -0.4542242 0.1566167 0.8770128 -0.2851709 0.6265029 0.7253769 -0.2285146 0.8846454 0.4064277 -0.4646945 0.5212157 0.7158166 -0.4269145 0.8743607 0.2307324 -6.001851e-08 1 9.285025e-09 0.001157234 0.9999909 0.004101647 -0.2729182 0.9427077 0.1918795 -5.729182e-08 1 8.090733e-09 -5.71777e-08 1 -3.311997e-10 -1.219462e-07 1 -1.196675e-07 -7.861727e-08 1 -7.714822e-08 6.839958e-08 0.1757984 0.9844262 0.003989815 0.3588063 0.9334035 -0.002016175 0.653643 0.7568002 0.004286488 0.8529773 0.5219304 -0.002289059 0.955532 0.2948787 -0.4022027 0.7684709 0.49768 -0.6821526 0.6260153 0.3778528 -0.6189225 0.6987694 0.3586869 -0.7567623 0.653616 0.009848211 -0.9815221 0.1752755 0.07676498 -0.4869228 0.4732539 0.7341232 -0.318774 0.9465469 0.04931521 -0.496905 0.8666914 0.04394808 -0.943592 0.2537072 0.2127602 0.4653424 -0.03454291 0.8844565 0.4549211 -0.01471119 0.8904102 0.4508008 0.008740858 0.8925818 0.4585927 0.01274 0.8885552 0.08122779 0.003350949 0.99669 0.01547111 -0.05756288 0.9982219 0.1120474 -0.001340115 0.993702 0.2213241 0.001890887 0.9751984 0.2366319 1.175363e-08 0.9715993 0.3389157 1.683412e-08 0.9408168 0.3389157 1.34673e-08 0.9408168 0.2771288 1.101211e-08 0.9608328 -0.08450947 0.8647683 0.4950091 0.1978444 0.3517168 0.9149606 -0.07358081 0.8042324 0.5897424 0.06968736 0.5137831 0.8550852 0.1851299 0.5480219 0.8157198 0.1149641 0.4060978 0.9065692 0.328319 0.248103 0.9114009 0.4505366 0.4074114 0.7943757 -0.5629538 0.2744088 0.7796042 -0.08776968 -0.1165288 0.9893015 -0.1563439 -0.2619903 0.9523223 -0.05853563 -0.3555334 0.9328288 -0.1140037 0.06834047 0.991127 -0.03145104 0.4381351 0.8983587 -0.118506 0.2617483 0.9578331 -0.04158403 -0.5685781 0.8215776 0.3580279 -0.533252 0.7664583 0.3364706 -0.2312272 0.9128644 -0.07165154 0.1478769 0.9864069 0.8783692 -0.4047693 0.254223 0.3765159 -0.5245523 0.7635972 0.3263139 -0.787733 0.5224902 0.3014441 0.8975473 0.3217766 0.03373909 0.7424693 0.66903 0.004777832 0.4815462 0.8764077 -0.08297648 0.7192066 0.6898237 -0.04487775 0.4374021 0.8981456 0.01365099 0.1666715 0.985918 -0.01764337 0.1401636 0.9899711 -0.01770543 -0.1169619 0.9929786 0.0233664 -0.1666598 0.9857376 -0.06596855 -0.5740666 0.8161468 0.003578973 -0.4815652 0.8764029 -0.04644514 -0.3581889 0.9324932 0.06116838 -0.7574221 0.650054 0.589002 0.01081378 0.8080592 -0.07169321 0.4954073 0.8656973 0.4621736 0.5198349 0.7184477 0.9084014 0.03987167 0.4161937 -0.3272281 -0.001954416 0.9449433 -0.3089972 -0.01123925 0.9509966 0 -0.02105322 0.9997783 -0.09597584 0.003737046 0.9953767 0.4228578 0.0007426698 0.9061958 0.3089876 -0.01370075 0.9509674 0.3009526 -0.01078519 0.9535781 0.069323 -0.001690038 0.9975929 0.8089047 -0.01666671 0.5877035 0.7784762 0.008649285 0.6276145 0.5877681 -0.00764724 0.8089933 0.5898993 -0.008967973 0.8074269 0.9945332 -0.01476228 -0.1033723 0.9941921 -0.01652891 -0.1063429 0.8732636 -0.1218876 0.4717563 0.9504372 -0.03608095 0.3088158 -0.9969556 -2.001623e-07 0.07797175 -0.9969173 -0.0001406342 0.07845911 -0.9655039 0.0001913866 0.2603889 -0.9508716 -0.01972715 0.3089566 -0.8089724 -0.01049039 0.5877529 -0.8960959 0.00718836 0.4438023 -0.5876619 -0.0204717 0.8088476 -0.6155641 -0.003092037 0.7880807 -0.7910828 0.003614233 0.6116984 0 -1 0 0 -1 0 0 -1 0 0 -1 0 0 -1 0 0 -1 0 0 -1 0 0 -1 0 0 -1 0 0 -1 0 0 -1 -0 0 -1 0 0 -1 -0 -0 -1 0 0 -1 -0 -0 -1 0 0 -1 -0 -0 -1 0 0 -1 0 0 -1 0 0.9858949 -0.1007161 -0.1336698 0.7810405 0.4275015 0.4552122 0.9673565 0.003029463 0.2534013 0.7861107 -0.003148445 0.6180777 0.8163907 0.05843903 0.5745355 0.5888219 0.009067682 0.808212 0.5984084 -0.001111104 0.8011905 0.3196321 0.02753618 0.9471415 0.3508733 -0.006067656 0.9364033 -0.2648558 0.002124198 0.9642857 -0.3012095 0.0644863 0.9513751 0.00940841 0.05915444 0.9982045 0.07359921 -0.01640468 0.997153 -0.580781 0.09099679 0.808958 -0.8018513 0.1105368 0.5872105 -0.6374162 -0.00821722 0.7704759 -0.9606084 0.1853966 0.2070258 -0.8662212 -0.006642959 0.4996166 -0.9503992 0.01240801 0.3107851 -0.9967684 0.01498068 0.07891952 -0.9981314 0 0.06110264 -0 1 -0 0 1 0 -0 1 -0 0 1 0 -0 1 -0 0 1 0 0 1 -0 0 1 0 0 1 0 0 1 0 -0 1 0 0 1 0 0 1 0 0 1 0 0 1 0 0 1 0 0 1 0 0 1 0 0 1 0 -0.2014026 0.503281 -0.8403245 0.8341954 -0.4795801 0.2722515 0.825851 -0.4774126 0.3000791 1 0 0 1 0 -0 1 0 0 1 0 -0 1 0 0 1 0 -0 1 0 0 1 -0 0 1 0 0 1 -0 0 1 0 0 0.9999958 0.001549497 -0.002438197 -0.5014668 -0.832628 -0.2350781 -0.5373335 -0.6280569 -0.5628653 -0.4858028 -0.6527827 -0.5812662 -0.5751376 -0.432395 -0.6944432 -0.5340389 0.6702576 -0.5153224 -0.5675706 0.7987361 -0.1997101 -0.444325 0.5636755 -0.6963083 -0.1117017 0.7382532 -0.6652105 -0.1325518 0.6977558 -0.7039651 -0.4023889 0.7957605 -0.4526018 -0.05056068 -0.7419491 -0.668547 -0.007891717 -0.775361 -0.6314688 -0.1100236 -0.8574476 -0.5026712 0.07929038 -0.5585749 -0.8256556 -0.01646081 -0.4814948 -0.8762944 0.03047633 -0.3183763 -0.9474744 -0.02198719 -0.166654 -0.9857703 0.01719798 -0.1169627 -0.9929873 0.0171484 0.1399775 -0.9900061 -0.01278757 0.1666855 -0.9859272 0.03591586 0.6570735 -0.7529704 -0.00454816 0.4815591 -0.8764018 0.04242178 0.4356672 -0.8991076 0.05479017 -0.5586653 -0.8275815 0.05994148 0.1462427 -0.987431 -0.3240331 -0.2822811 -0.9029506 -0.2280862 -0.5140638 -0.8268707 0.08073543 -0.1165982 -0.9898922 0.1567393 -0.345575 -0.9252084 0.1096563 -0.2788537 -0.9540525 0.1035633 0.4260012 -0.8987757 0.1213201 0.05192302 -0.9912545 -0.1269616 0.4729252 -0.8719074 -0.4667095 0.4589526 -0.7560057 -0.1611194 -0.1153109 -0.9801754 -0.09214093 0.2643573 -0.9600132 -0.1581832 -0.3347265 -0.9289436 0.9907066 0 -0.136016 0.994095 0.05327449 -0.09453604 0.8823459 0.1027885 -0.4592387 0.933646 -0.04692155 -0.3551103 0.7561911 -0.06191444 -0.6514151 0.6315426 0.10065 -0.7687806 0.3016938 0.09156142 -0.948998 0.4889182 -0.06529193 -0.8698828 0.1634212 -0.05396411 -0.9850794 -0.06485808 0.04012953 -0.9970873 -0.1819679 -0.05312403 -0.9818683 -0.5260247 -0.01298575 -0.8503701 -0.5061108 -0.02788325 -0.8620176 -0.3692917 0.0252257 -0.9289711 -0.769479 -0.02941068 -0.6379945 -0.7482382 0.0006260694 -0.6634299 -0.9036187 0.04567236 -0.4258959 -0.9395257 -0.1252866 -0.3187392 -0.9642993 -0.04343924 -0.261228 -0.03100639 -0.9554996 -0.2933583 0.1794553 -0.5879295 -0.7887551 0.9731607 -0.1737864 -0.1508529 0.2013551 -0.9429168 -0.2652622 0.1983183 -0.9453761 -0.2587157 0.3785615 -0.8991994 -0.2193894 0.2908323 -0.9448318 -0.1506963 0.3220831 -0.946013 -0.03635695 0.5932052 -0.3804971 -0.7094572 0.4945758 -0.5625019 -0.6625605 0.7413545 -0.5490978 -0.3858563 0.7448097 -0.5443515 -0.3859273 0.8255249 -0.5575783 -0.08726521 0.8394485 -0.5373644 -0.08102967 0.4389774 -0.8948302 -0.08110259 0.1818276 -0.6118475 -0.7697932 -0.01322874 -0.9500525 -0.3118096 -0.05842464 -0.4632022 -0.8843248 -0.1444807 -0.541997 -0.8278676 -0.1779364 -0.5372993 -0.8244078 -0.1303892 -0.4575668 -0.8795631 -0.3300587 -0.2271237 -0.9162293 -0.4239604 -0.3090354 -0.8513252 -0.06197591 -0.4436679 -0.8940458 0.002472339 -0.9228407 -0.3851739 -0.004099772 -0.4445187 -0.8957602 7.359019e-05 -0.8818241 -0.4715786 0.2028312 -0.9192236 -0.3374723 0.4838377 -0.4941866 -0.7222746 0.5969847 -0.7429224 -0.3027799 0.3222955 -0.8496992 -0.4172971 0.1783755 -0.9839242 -0.008685341 0.7865354 -0.6149507 -0.05654722 0.5907397 -0.8068556 0.003257714 0.7797446 -0.6258612 -0.01720818 0.4315576 -0.8975585 -0.09025912 0.8857289 -0.4163778 -0.2052162 0.5227368 -0.8434876 -0.1235914 0.7785435 -0.6194259 -0.1009033 0.6070089 0.0004072175 -0.7946948 0.8918504 0 -0.4523304 0.8918504 0 -0.4523304 0.6112559 0 -0.791433 0.2067524 -0.0003973038 -0.9783933 0.2138586 0.0001166058 -0.9768646 0.9999847 0 0.005514551 0.9999847 -0 0.005514551 0.9974256 0 -0.07170898 0.9974256 0 -0.07170898 0.9917056 0 -0.1285302 0.9917056 0 -0.1285302 0.9788211 0 -0.2047178 0.9788211 0 -0.2047178 0.7785428 0.6194269 -0.1009032 0.5757324 0.808723 -0.1204129 0.9744393 -0.2245869 0.005373677 0.8751023 0.4753829 -0.09059325 0.4118158 0.9085789 -0.06994378 -0.2437881 0.9697944 0.008133187 0.5138552 0.8503066 -0.1137174 0.409443 0.907854 -0.09031938 0.7865346 0.6149517 -0.05654717 0.2954028 0.873595 -0.3867415 0.6225834 0.7160193 -0.315763 0.3091538 0.8271163 -0.469364 0.2087271 0.9203162 -0.3308342 0.1886811 0.4088663 -0.8928761 -0.007934561 0.8696948 -0.4935261 0.001031237 0.964049 -0.2657227 0.001026312 0.4163443 -0.9092064 -0.005140878 0.07387871 -0.997254 6.637486e-07 -1.070898e-05 -1 3.080767e-05 3.14987e-05 -1 -5.388831e-07 -8.661728e-07 -1 1.060049e-07 -3.000018e-06 -1 -4.37114e-08 0 -1 -4.37114e-08 0 -1 -4.37114e-08 -1.231732e-13 -1 -4.371145e-08 -1.642316e-14 -1 -4.371141e-08 8.838628e-14 -1 -4.371137e-08 -6.563294e-14 -1 -4.371134e-08 -1.444041e-14 -1 -4.371139e-08 1.578545e-15 -1 -4.37114e-08 -8.601309e-15 -1 -4.37114e-08 -8.601309e-15 -1 -3.781241e-08 0.5016908 -0.865047 0.3869823 0 -0.9220872 -4.371138e-08 0 -1 -4.371138e-08 -0 -1 -4.371137e-08 0 -1 -4.371138e-08 -4.205236e-14 -1 -4.371137e-08 0 -1 -4.371137e-08 0 -1 -4.371137e-08 4.343081e-14 -1 -4.37116e-08 7.769337e-13 -1 -0.01138232 0.9591509 -0.2826659 -0.8761296 -0.2826897 -0.3904912 -4.371134e-08 5.879846e-15 -1 -4.371138e-08 1.289478e-14 -1 -4.371138e-08 0 -1 -4.37114e-08 1.749028e-13 -1 -4.371137e-08 2.479553e-14 -1 -6.001851e-08 1 1.846266e-08 0.0003531315 0.9999996 -0.0007695383 0.2019918 0.9713851 -0.1249412 0.05457374 0.9981918 -0.02519752 -0.0002516085 0.9999999 0.0001160761 -0.0002065103 1 6.889537e-06 -0.6506679 -0.05879495 -0.7570828 -0.9459508 0.2163157 -0.2416288 -0.7468001 0.120999 -0.6539487 0.6922038 0.6807662 -0.2396065 0.7529575 0.6547909 -0.06560399 0.8662161 0.4379625 -0.2405382 0.8731356 0.4202779 -0.2469829 0.8123118 0.4152439 -0.4095389 0.7729702 0.06208414 -0.6313972 0.5297675 0.5536076 -0.6425458 0.3240465 0.5594627 -0.7628863 0.2445313 0.3236894 -0.9140183 0.5866927 0.7894429 -0.1804761 0.3528245 0.9058042 -0.2345922 0.06525186 -0.9848477 -0.160677 0.5873113 0.4895033 -0.6445557 0.6497012 0.6695495 -0.3599885 0.4953083 0.02461707 -0.8683684 0.4374576 0.000700753 -0.8992388 0.7762735 0.005436683 -0.6303728 0.7602901 0.01744203 -0.6493494 0.6004903 -0.004800221 -0.7996176 0.8929271 -0.004127205 -0.4501823 0.9351333 0.02577647 -0.3533569 0.9635364 -0.002767689 -0.267563 0.9955595 0.0021936 -0.09410833 0.9962258 1.988827e-07 -0.08679953 -0.9687021 -0.00039996 -0.248226 -0.9619156 0.0222238 -0.2724418 -0.9351833 0.02360805 -0.3533762 -0.9533536 0.09088848 -0.2878476 -0.7602984 0.01682671 -0.6493561 -0.7832261 0.002282666 -0.6217328 -0.4830908 0.007823925 -0.8755353 -0.6726807 -0.01218607 -0.7398326 -0.4954187 0.01266639 -0.868562 0.1719263 0.005588988 -0.985094 0.2056574 0.02496526 -0.9783055 0.05534248 -2.426742e-05 -0.9984674 -0.171929 7.386679e-05 -0.9851094 -0.06567875 0.05909662 -0.9960893 -0.3117439 -0.0018568 -0.9501643 -0.7267337 0.08043972 -0.6821933 0.3215539 0.2053173 -0.9243635 0.02494732 0.1531897 -0.9878818 0.2535049 0.06727282 -0.964992 -0.03750397 0.4204283 -0.9065503 0.2590229 0.157948 -0.9528692 0.4763381 0.04453637 -0.8781335 0.4308373 0.6476442 -0.6284396 0.02237867 0.4666641 -0.8841515 -0.4359154 0.2111939 -0.8748571 -0.3678735 0.4555807 -0.8106265 0.2710745 -0.06760548 -0.9601813 -0.1686789 -0.02411813 -0.9853759 0.3063908 0.2227912 -0.9254668 0.03693787 0.1645637 -0.9856746 -0.007457839 0.001300693 -0.9999713 -0.06592292 -0.003148925 -0.9978197 -0.08397643 -0.0008276682 -0.9964674 -0.338916 -1.346731e-08 -0.9408166 -0.3157834 0.002741635 -0.9488273 -0.2109763 -0.002928881 -0.9774868 -0.1759014 0.001348465 -0.9844069 -0.5233952 -0.00985945 -0.852033 -0.4692442 -0.01325668 -0.882969 -0.4913352 -0.02263322 -0.8706765 -0.2623735 -1.042579e-08 -0.9649664 -0.1861705 -0.007734811 -0.982487 -0.4796038 0.09574335 -0.8722462 -0.4821299 0.00131527 -0.8760988 0.1713935 0.3988732 -0.9008465 0.01437619 0.2343837 -0.9720379 -0.05892069 0.04293462 -0.997339 -0.3055704 0.2522779 -0.9181408 -0.3303532 0.3100367 -0.8914842 0.05248252 0.2300835 -0.9717547 -0.04226565 0.5937407 -0.8035457 0.01808409 -0.9998153 0.006500377 2.375998e-07 -1 0 0.1098807 -0.9922077 -0.05873735 1.511988e-07 -1 7.338804e-08 0 -1 -1.10045e-07 0.01566126 -0.9998773 0 0.007449264 -0.999841 -0.01620163 -0 -1 0 7.753916e-08 -1 7.777303e-08 4.126392e-08 -1 -5.436046e-08 7.335957e-08 -0 1 7.335957e-08 0 1 0 -1 0 0 -1 -0 1 -0 0 1 0 0 1 0 0 -1 0 0 -1 0 0 -1 -0 0 -5.219619e-08 0.3162274 -0.9486834 -6.959491e-08 0.3162273 -0.9486834 -7.780956e-09 0.9899495 -0.1414214 -6.181725e-09 0.9899495 -0.1414214 0.1101954 0.1269061 0.9857748 0.1401053 -0.1170245 0.9831967 0.1685051 -0.4947874 0.8525206 -0.002344484 0.3822118 0.9240718 0.1170025 -0.1375569 0.9835591 0.08062156 -0.3290253 0.9408733 0.4746959 -0.274087 0.8363852 -0.02242643 0.1607559 0.9867393 -0.2074466 -0.2556041 0.9442629 0.2057629 0.2949023 0.93311 -0.3843264 0.5675602 0.7281268 -0.02516267 0.4860444 0.8735718 -0.07950954 0.2403803 0.9674169 -0.7287699 -0.1712449 0.6630005 -0.4131904 -0.5083519 0.7555475 -0.1311359 -0.4388484 0.8889406 -0.08446778 -0.740248 0.6670068 0.02467005 -0.8874214 0.4602984 0.05492172 0.6417234 0.7649671 -0.0802037 0.7405098 0.6672425 0.02293403 0.8496246 0.526889 -0.469823 0.8083777 0.3546714 -0.0109401 0.4815349 0.8763586 0.07055493 0.4118635 0.90851 0.01440447 0.1666797 0.9859059 0.01708765 0.1624692 0.9865656 0.0172285 -0.101412 0.9946953 -0.05520914 -0.1664429 0.9845043 0.03189719 -0.3448759 0.9381062 -0.007335556 -0.700206 0.7139032 0.008364306 -0.481547 0.8763804 -0.0358752 -0.5134708 0.8573568 -0.8812026 -0.4068246 0.2407815 -0.4714929 0.8039976 0.3623287 -0.3742646 0.609158 0.69918 -0.847454 0.224825 0.4809111 -0.7951232 -0.5426233 0.270812 -0.5907887 -0.6123646 0.5253363 -0.6932289 -0.3945653 0.6031185 -0.4372741 -0.4446802 0.7816974 -0 -1 0 0 -1 -0 -0 -1 0 0 -1 -0 -0 -1 0 0 -1 -0 0 -1 0 0 -1 -0 0 -1 0 0 -1 0 0 -1 0 0 -1 0 0 -1 0 0 -1 0 0 -1 0 0 -1 0 -0.02429865 -0.9993727 -0.02576359 -0.02658247 -0.9986207 -0.04527577 -0.0006273879 -0.9999473 0.01024316 0 -1 0 0 1 0 -0 1 0 0 1 0 -0 1 -0 0 1 0 -0 1 -0 0 1 0 0 1 -0 0 1 0 0 1 -0 0 1 0 0 1 0 0.003909121 0.999973 -0.006223552 0.003905633 0.9999682 -0.006948896 0 1 0 0 1 0 0 1 0 0.000879299 0.9999904 -0.004289398 0.9868851 -0.1601481 0.02025913 0.9880873 -0.1460584 0.04848197 0.98339 -0.1669576 -0.07119973 0.998786 -0.02641319 0.04158014 1 -0 0 1 0 0 1 -0 0 1 0 0 1 0 0 1 0 0 1 0 -0 1 0 0 1 0 -0 1 0 0 1 0 -0 1 0 0 0.984268 0.09473614 0.1491363 0.9352714 -0.2736998 0.224401 0.1989538 0.8622283 -0.4658107 0.02790201 -0.8705874 -0.4912219 0.0259204 -0.7426533 -0.6691742 0.04356328 0.7421976 -0.6687637 0.1016243 0.7017516 -0.7051363 -0.04050448 0.5775424 -0.8153552 0.02493016 0.4814137 -0.8761389 -0.04102036 0.379575 -0.9242511 -0.04245933 0.3475347 -0.9367053 0.02336533 0.166652 -0.9857389 -0.01770161 0.1169619 -0.9929786 -0.01770154 -0.116962 -0.9929786 0.02336543 -0.166652 -0.9857389 -0.04524347 -0.3549825 -0.9337775 0.01278044 -0.7395384 -0.672993 -0.008442488 -0.481546 -0.8763802 0.01385831 -0.4975731 -0.8673114 0.5380448 -0.3817739 -0.7515029 0.7767261 -0.4015528 -0.4852338 0.1260546 -0.4772279 -0.8696918 0.4991179 -0.4407365 -0.7460782 0.7352373 0.2871678 -0.6139713 0.4436671 -0.01574645 -0.8960534 0.06624372 0.5563243 -0.8283206 0.03698828 0.391532 -0.9194208 -0.0943822 0.2048734 -0.9742273 0.015388 -0.1843724 -0.982736 -0.01714839 -0.380161 -0.9247614 0.1231979 -0.4820181 -0.8674565 -0.04490371 0.3825712 -0.9228342 -0.09731661 0.116425 -0.9884203 -0.133353 0.2475334 -0.9596584 -0.1535443 -0.05496584 -0.9866118 -0.09616125 -0.3462601 -0.9331972 -0.109299 -0.1162794 -0.9871842 -0.999885 0 0.01516858 -0.9957306 0.0487791 -0.07836572 -0.9720308 0.03409546 -0.2323655 -0.9431202 0.128919 -0.306438 -0.8478261 0.04412974 -0.5284348 -0.8055462 0.09253279 -0.5852633 -0.588495 -0.005517259 -0.808482 -0.5877513 0.0107485 -0.8089703 -0.7307296 -0.003499165 -0.682658 -0.8082657 -0.01959197 -0.5884919 -0.8141071 -0.0167207 -0.5804741 -0.9509017 -0.018045 -0.3089664 -0.9574506 -0.006323367 -0.288528 -0.9969057 0.00483144 -0.0784582 -0.9957058 -2.013869e-07 -0.09257413 0.9981452 0.009766113 0.06008946 0.9935835 0.04611196 0.1032736 0.9496537 -0.05429386 -0.308561 0.7864168 0.003954961 -0.6176836 0.8088609 -0.01964418 -0.5876718 0.9206419 0.02787432 -0.3894117 0.6183011 -0.02219939 -0.7856277 0.5877851 -0.0004278016 -0.8090171 0.5022936 0.001349464 -0.8646961 0.3090154 -0.00309044 -0.951052 0.3002479 -3.732327e-05 -0.9538612 0.3074945 -0.07291128 -0.9487524 0.2572478 -0.008811956 -0.9663053 0.5101891 -0.0005630449 -0.8600621 0.3095554 0.0004917421 -0.9508812 0.3640848 0.02559096 -0.9310142 0.5738147 -0.2294437 -0.7861884 0.9258959 0.01523043 -0.3774715 0.8069213 0.07193179 -0.5862626 0.9389091 0.2684429 -0.2153791 0.9903285 0.1362484 0.02619004 0.9721133 0.23394 -0.01636586 0 -0.01302351 -0.9999152 0.06786444 0.01197362 -0.9976227 0.005375499 0.0006038723 -0.9999853 -0.3090166 -1.22951e-08 -0.9510566 -0.5773671 -2.675784e-08 -0.8164846 -0.5773672 -2.369184e-08 -0.8164846 -0.3144949 0.0007427655 -0.9492589 -0.3090163 -0.001539621 -0.9510555 -0.09515234 0.0006620694 -0.9954625 0.2321811 -6.273604e-05 -0.9726726 0.1267195 -0.0001880365 -0.9919387 0 0.005723856 -0.9999836 -0.0008239628 0.005585404 -0.9999841 -0.09397885 -0.0003134475 -0.9955741 -0.5411348 -0.8329638 -0.1155187 -0.884626 -0.4589906 -0.08224667 -0.9421536 -0.1513677 -0.2990559 -0.5450367 -0.8304329 -0.1153958 -0.6975241 -0.5769423 -0.4249679 -0.8102533 -0.1693212 -0.5610881 0.2746328 -0.9240997 -0.2657381 -0.4765318 0.7875277 -0.390791 -0.08791692 0.7030464 -0.7056887 -0.9798041 0.1749687 -0.09679822 -0.3130653 0.9295956 -0.1945304 -0.4561707 0.8261198 -0.3308085 -0.8687617 0.4818372 -0.1143943 -0.8901199 -0.06282832 -0.4513747 -0.4977959 -0.009317609 -0.8672441 -0.5369961 0.1046338 -0.8370705 -0.183211 -0.2528252 -0.9500069 -0.1815993 0.2834035 -0.9416497 0.3331404 0.7357394 -0.5896652 -0.5071341 0.3433518 -0.7905217 -0.189363 -7.524611e-09 -0.9819072 -0.189363 -7.524611e-09 -0.9819072 -0.53996 -2.145608e-08 -0.8416907 -0.53996 -2.145608e-08 -0.8416907 -0.0007251845 -0.174195 -0.984711 -4.104058e-08 -0.1962544 -0.980553 0.006130647 -0.9992939 -0.03706982 -0.00333131 -0.9942278 -0.1072385 -0.003932393 -0.6620334 -0.749464 0.001515831 -0.75366 -0.6572627 0.004911361 0.1962518 -0.9805413 -4.990724e-08 0.300622 -0.9537433 -0.002265168 0.6620374 -0.7494674 0.003988716 0.7875897 -0.6161871 0.01564073 0.9766393 -0.2143154 -0.009667802 0.9985803 -0.0523825 -6.001851e-08 1 -6.169594e-09 -0.000211667 0.9999998 0.0007008166 -0.0001108969 1 -3.665302e-05 2.13434e-05 1 -0.0002932744 6.001851e-08 -1 1.281244e-08 6.016467e-08 -1 1.321663e-08 -0.7610353 0.520861 -0.38669 -0.2143121 0.1916942 -0.9577702 -0.3846609 0.6618037 -0.6434686 -0.4234531 0.5997532 -0.6789578 -0.3094934 0.8811537 -0.357466 -0.5006599 0.5778334 -0.6445527 -0.2665071 -0.9425771 -0.2013018 -0.4563503 -0.589082 -0.6668783 -0.5779861 -0.1601528 -0.800177 -0.09361281 -0.9034444 -0.4183598 -0.4919721 -0.5973344 -0.633368 -5.232775e-08 -0 -1 -5.232775e-08 -2.079318e-15 -1 -0.2183617 0 -0.9758679 -0.2183617 0 -0.9758679 -0.6134375 0 -0.7897432 -0.6134375 0 -0.7897432 -0.8904508 0 -0.4550795 -0.8915162 0.0001230995 -0.4529887 -0.8912152 0.4159178 -0.1809631 -0.7495286 0.6303543 -0.2021395 -0.1678064 0.985669 -0.01724964 -0.3679945 0.9218388 -0.1216274 -0.4795455 0.86856 -0.1250581 -0.486086 0.8696566 -0.08612622 -0.7153167 0.6960902 -0.06148556 -0.9547849 -0.2879895 -0.07380914 -0.910921 0.412573 -0.002512814 -0.5150056 0.8555765 -0.05251727 -0.9948563 -0 -0.101296 -0.9948408 3.000783e-05 -0.1014481 -0.9800968 -0.0001117461 -0.1985202 -0.9800012 -1.505767e-05 -0.1989913 -0.3230721 -0.9437095 -0.07097062 -0.330033 -0.9408476 -0.07670612 0.0253762 0.07310987 -0.9970009 -0.004838019 0.006221688 -0.9999689 0.03855859 -0.08094532 -0.9959725 -0.002892958 -0.07884413 -0.9968827 0.0197013 -0.09560935 -0.9952239 -0.003188784 -0.4022423 -0.9155277 -0.5599622 0.4139543 -0.7176936 -0.6963907 -0.7141314 -0.07110765 0.8991451 0.1495442 0.4113084 0.9549734 0.237172 0.178256 -0.9423845 0.2894341 0.1677478 -0.2893352 0.2590399 0.9215115 -0.2437628 -0.5134235 0.8227856 -0.03443167 -0.03535408 0.9987816 0.009850575 -0.0004664132 0.9999514 0.05101246 -0.04809625 0.9975392 -0.002003593 -0.06556948 0.997846 0.03087238 0.06034828 0.9976999 0.02744336 0.1137892 0.9931259 0.01808828 0.1056399 0.9942399 -0.03405383 0.1107372 0.9932662 -0.8356051 0.1509325 0.5281889 -0.6600434 -9.039434e-05 0.7512275 -0.9487697 0.3149703 -0.02509098 -0.8767145 -0.3939962 0.2759324 -0.9050381 0.05938035 0.4211652 -0.9163268 0.01568411 0.400124 -0.758275 -0.02375604 0.6515018 -0.7574567 -0.0222701 0.6525055 -0.4469111 -0.002170024 0.8945757 -0.4898808 -0.01840977 0.871595 -0.6295214 0.01466975 0.7768447 -0.1868003 -0.02359775 0.9821144 -0.2499644 0.000421575 0.9682549 -0.1819643 0.01426252 0.9832017 -0.1636155 0.02323901 0.9862505 0.0122084 -0.009436378 0.999881 -0.4899638 0.0004317315 0.8717427 -0.5331667 0.02701393 0.8455788 -0.4299594 0.001944528 0.9028461 -0.9336853 0.04601852 0.3551255 -0.8979812 -0.005095693 0.4400043 -0.7576217 0.007776515 0.6526477 -0.7771746 0.03316321 0.6284106 -0.965907 0.0771095 0.2471393 -0.9901291 -0.009687657 0.1398234 0.7679648 -0.06923431 0.6367391 0.7223439 -0.01134076 0.691441 0.6685388 2.60232e-08 0.7436772 0.8963906 0.05928886 0.4392821 0.9394814 -0.06058349 0.3372008 0.9922884 0.09027582 0.08493631 0.9887541 0 0.1495505 0.1822111 0.01233462 0.983182 0.1711956 0.01780312 0.9850762 0.2666839 1.196845e-08 0.9637841 0.5063077 2.272248e-08 0.8623528 -0.2075434 -7.405665e-05 0.9782258 -0.0321112 -0.03010861 0.9990307 -0.1636597 0.0006910289 0.9865166 0.182225 -0.0006471254 0.9832567 0.07524315 -0.02497352 0.9968525 0.1600337 -0.0117032 0.9870421 0.9963566 1.583666e-07 0.08528454 0.9963566 1.583666e-07 0.08528454 0.9412102 1.496014e-07 0.3378214 0.9412103 7.480069e-08 0.3378213 0.7870834 6.255179e-08 0.6168466 0.7697652 0.01103081 0.6382319 0.6685387 3.000321e-08 0.7436773 0.5063077 2.272248e-08 0.8623528 0.5419383 -0.7494726 0.3802547 0.7482607 -0.555949 0.3619761 0.3585871 -0.9250091 0.1255924 0.2872823 -0.9547523 0.07692229 0.8264101 -0.5547372 0.09650535 0.8375514 -0.53615 0.1051228 0.199822 -0.9698633 0.1394143 0.9713111 -0.1734561 0.1626893 0.2840803 -0.5085711 0.8128061 0.1659593 -0.4862153 0.8579348 0.5111639 -0.3246675 0.795803 0.5404405 2.036986e-08 0.8413823 0.5394818 -6.105475e-05 0.8419972 0.1899198 6.150383e-05 0.9817995 0.1888004 6.442891e-09 0.9820155 -0.03397513 -0.9685678 0.2464187 0.02301446 -0.9985844 -0.04795294 -0.006232475 -0.7108189 0.7033475 4.757681e-08 -0.4163421 0.9092081 5.232775e-08 0 1 5.232774e-08 0 1 -5.048459e-08 1 -7.723425e-09 -5.225453e-08 1 -4.4728e-09 -0 1 -0 -0 1 -0 -5.232775e-08 1 -1.031958e-08 0 1 0 0 1 0 -4.476556e-08 1 -5.763122e-08 -4.749545e-08 1 -1.704718e-08 0.891516 0 0.4529893 0.8964471 0.0003923482 0.4431505 0.6134391 -0.0004117156 0.7897419 0.6134402 -0.0004116626 0.7897411 0.2183621 0.0003730755 0.9758677 0.2076078 0 0.9782121 0.6986535 -0.6265787 0.345373 0.2781424 -0.8433039 0.4598645 0.3123878 -0.8010215 0.5106646 0.1894678 -0.4088009 0.8927395 0.4344984 -0.7059138 0.5593718 0.4678202 -0.8786898 0.09512383 0.7638052 0.6406542 0.07851059 0.394643 -0.9073384 0.1448922 0.210103 -0.9765396 0.0471932 0.5945461 -0.7982292 0.09667026 0.9947588 -0 0.10225 0.9884533 0.009628879 0.1512193 0.9799473 0 0.1992568 4.37114e-08 8.601309e-15 1 4.371138e-08 6.809367e-15 1 -0.8547272 0.341891 0.3905789 -0.8877227 -0.4445116 0.1198239 4.371138e-08 3.610939e-14 1 4.371138e-08 2.861906e-14 1 0.3260861 -0.8152158 0.4786346 -0.444469 -0.8901927 0.1000215 4.371137e-08 0 1 4.371137e-08 0 1 4.371137e-08 -4.029928e-13 1 0.9202054 -0.3073748 0.2423691 4.371131e-08 1.696703e-13 1 4.371139e-08 -3.031649e-14 1 4.371139e-08 4.292862e-14 1 0.1632724 0.7167125 0.6779863 -0.5219695 0.3972313 0.7548214 4.37114e-08 0 1 4.37114e-08 0 1 4.37114e-08 2.463469e-14 1 4.371147e-08 1.026447e-13 1 4.371144e-08 1.612331e-14 1 -0.9566939 -0.2762062 0.0919075 -0.4107668 0.8982431 0.1563008 0.5949903 -0.7616563 0.256644 0.2644902 -0.7853598 0.5596918 0.1978202 -0.7912806 0.5785691 -0.1005044 0.984937 0.1407053 -0.1122252 0.3142297 0.9426904 -0.9638392 -0.2648546 0.02942828 1 0 0 1 0 0 1 0 0 -0.1405733 -0.9840147 0.109335 2.724785e-07 -1 0 0.2792426 0 -0.9602206 2.107165e-07 -0.7584813 -0.6516948 0 -1 0 4.551616e-08 -1 1.125381e-07 -0.1890345 -0.9780174 -0.08802217 0.01487406 -0.999881 -0.004067515 0.00377847 -0.9999842 0.004167056 0 -1 0 0 -1 0 0.2108405 0.7379415 -0.641084 0 0 -1 0 -1 -0 -0.145799 -0.9827936 0.1133992 0.1204397 0.9447253 0.3049401 0.9748225 -0.2229826 0 -1 0 0 -0.8248559 -0.5249077 0.2099633 0.08805948 0.9566021 0.2777735 -0.04589906 -0.9804842 -0.1911649 0.3383015 0.9320939 -0.1294339 -0.9934459 0.01657412 0.1130953 0.9839017 -0.006736561 0.1785835 -0.1930942 0.9796427 -0.05490686 0.6450226 0.7444327 0.1725275 0.2298676 -0.9646269 -0.1290579 -0.6571745 -0.7535546 0.01664856</float_array>
          <technique_common>
            <accessor count="1436" source="#cubenormals-array0-array" stride="3">
              <param type="float" name="X"/>
              <param type="float" name="Y"/>
              <param type="float" name="Z"/>
            </accessor>
          </technique_common>
        </source>
        <vertices id="cubeverts-array0-vertices">
          <input semantic="POSITION" source="#cubeverts-array0"/>
        </vertices>
        <triangles count="1436" material="ref_link_3_u_stl">
          <input offset="0" semantic="VERTEX" source="#cubeverts-array0-vertices"/>
          <input offset="1" semantic="NORMAL" source="#cubenormals-array0"/>
          <p>497 0 447 0 511 0 527 1 508 1 505 1 505 2 465 2 527 2 465 3 505 3 433 3 433 4 370 4 465 4 370 5 433 5 324 5 324 6 272 6 370 6 272 7 324 7 267 7 267 8 256 8 272 8 256 9 267 9 263 9 263 10 284 10 256 10 284 11 263 11 323 11 323 12 369 12 284 12 369 13 323 13 432 13 432 14 447 14 369 14 432 15 511 15 447 15 511 16 432 16 508 16 508 17 526 17 511 17 508 18 527 18 526 18 242 19 323 19 263 19 323 20 242 20 275 20 323 21 275 21 333 21 333 22 432 22 323 22 432 23 333 23 387 23 432 24 387 24 442 24 442 25 508 25 432 25 508 26 442 26 500 26 508 27 500 27 530 27 508 28 530 28 557 28 557 29 505 29 508 29 505 30 557 30 531 30 505 31 531 31 501 31 501 32 433 32 505 32 433 33 501 33 444 33 433 34 444 34 392 34 392 35 324 35 433 35 324 36 392 36 335 36 324 37 335 37 276 37 276 38 267 38 324 38 267 39 276 39 243 39 243 40 263 40 267 40 263 41 243 41 220 41 263 42 220 42 242 42 557 43 528 43 556 43 528 44 557 44 530 44 530 45 498 45 528 45 498 46 530 46 500 46 500 47 441 47 498 47 441 48 500 48 442 48 442 49 389 49 441 49 389 50 442 50 387 50 387 51 332 51 389 51 332 52 387 52 333 52 333 53 273 53 332 53 273 54 333 54 275 54 275 55 240 55 273 55 240 56 275 56 242 56 242 57 219 57 240 57 219 58 242 58 220 58 220 59 241 59 219 59 241 60 220 60 243 60 243 61 274 61 241 61 274 62 243 62 276 62 276 63 334 63 274 63 334 64 276 64 335 64 335 65 394 65 334 65 394 66 335 66 392 66 392 67 443 67 394 67 443 68 392 68 444 68 444 69 499 69 443 69 499 70 444 70 501 70 501 71 529 71 499 71 529 72 501 72 531 72 531 73 556 73 529 73 556 74 531 74 557 74 449 75 441 75 389 75 449 76 498 76 441 76 498 77 449 77 575 77 575 78 528 78 498 78 575 79 556 79 528 79 556 80 575 80 615 80 615 81 529 81 556 81 529 82 615 82 576 82 576 83 499 83 529 83 576 84 443 84 499 84 443 85 576 85 450 85 450 86 394 86 443 86 322 87 394 87 450 87 322 88 334 88 394 88 322 89 274 89 334 89 274 90 322 90 213 90 213 91 241 91 274 91 213 92 219 92 241 92 219 93 213 93 169 93 169 94 240 94 219 94 240 95 169 95 212 95 212 96 273 96 240 96 212 97 332 97 273 97 332 98 212 98 321 98 321 99 389 99 332 99 389 100 321 100 449 100 615 101 575 101 598 101 598 102 575 102 546 102 449 103 546 103 575 103 546 104 449 104 481 104 481 105 449 105 423 105 321 106 423 106 449 106 423 107 321 107 353 107 353 108 321 108 289 108 212 109 289 109 321 109 289 110 212 110 227 110 227 111 212 111 181 111 169 112 181 112 212 112 169 113 213 113 182 113 182 114 213 114 228 114 322 115 228 115 213 115 228 116 322 116 291 116 291 117 322 117 355 117 450 118 355 118 322 118 355 119 450 119 425 119 425 120 450 120 483 120 576 121 483 121 450 121 483 122 576 122 547 122 547 123 576 123 599 123 615 124 599 124 576 124 618 125 598 125 600 125 546 126 600 126 598 126 600 127 546 127 548 127 481 128 548 128 546 128 548 129 481 129 482 129 423 130 482 130 481 130 482 131 423 131 422 131 353 132 422 132 423 132 422 133 353 133 352 133 289 134 352 134 353 134 352 135 289 135 290 135 227 136 290 136 289 136 290 137 227 137 229 137 181 138 229 138 227 138 229 139 181 139 183 139 169 140 183 140 181 140 183 141 169 141 167 141 182 142 167 142 169 142 167 143 182 143 184 143 228 144 184 144 182 144 184 145 228 145 230 145 291 146 230 146 228 146 230 147 291 147 292 147 355 148 292 148 291 148 292 149 355 149 354 149 425 150 354 150 355 150 354 151 425 151 424 151 483 152 424 152 425 152 424 153 483 153 484 153 547 154 484 154 483 154 484 155 547 155 549 155 599 156 549 156 547 156 549 157 599 157 601 157 615 158 601 158 599 158 601 159 615 159 618 159 598 160 618 160 615 160 600 161 535 161 592 161 535 162 600 162 548 162 548 163 471 163 535 163 471 164 548 164 482 164 482 165 412 165 471 165 412 166 482 166 422 166 422 167 359 167 412 167 359 168 422 168 352 168 352 169 302 169 359 169 302 170 352 170 290 170 290 171 238 171 302 171 238 172 290 172 229 172 229 173 193 173 238 173 193 174 229 174 183 174 183 175 179 175 193 175 179 176 183 176 167 176 167 177 194 177 179 177 194 178 167 178 184 178 184 179 239 179 194 179 239 180 184 180 230 180 230 181 304 181 239 181 304 182 230 182 292 182 292 183 361 183 304 183 361 184 292 184 354 184 354 185 414 185 361 185 414 186 354 186 424 186 424 187 473 187 414 187 473 188 424 188 484 188 484 189 536 189 473 189 536 190 484 190 549 190 549 191 593 191 536 191 593 192 549 192 601 192 601 193 603 193 593 193 603 194 601 194 618 194 618 195 592 195 603 195 592 196 618 196 600 196 570 197 511 197 526 197 511 198 570 198 544 198 544 199 497 199 511 199 447 200 497 200 411 200 411 201 369 201 447 201 369 202 411 202 331 202 331 203 284 203 369 203 256 204 284 204 218 204 218 205 272 205 256 205 272 206 218 206 259 206 259 207 370 207 272 207 370 208 259 208 364 208 364 209 465 209 370 209 465 210 364 210 467 210 467 211 527 211 465 211 526 212 527 212 570 212 603 213 590 213 602 213 590 214 603 214 592 214 592 215 533 215 590 215 533 216 592 216 535 216 535 217 470 217 533 217 470 218 535 218 471 218 471 219 413 219 470 219 413 220 471 220 412 220 412 221 360 221 413 221 360 222 412 222 359 222 359 223 301 223 360 223 301 224 359 224 302 224 302 225 236 225 301 225 236 226 302 226 238 226 238 227 191 227 236 227 191 228 238 228 193 228 193 229 178 229 191 229 178 230 193 230 179 230 179 231 192 231 178 231 192 232 179 232 194 232 194 233 237 233 192 233 237 234 194 234 239 234 239 235 303 235 237 235 303 236 239 236 304 236 304 237 362 237 303 237 362 238 304 238 361 238 361 239 415 239 362 239 415 240 361 240 414 240 414 241 472 241 415 241 472 242 414 242 473 242 473 243 534 243 472 243 534 244 473 244 536 244 536 245 591 245 534 245 591 246 536 246 593 246 593 247 602 247 591 247 602 248 593 248 603 248 360 249 331 249 411 249 331 250 360 250 301 250 301 251 284 251 331 251 284 252 301 252 236 252 236 253 218 253 284 253 218 254 236 254 191 254 218 255 191 255 178 255 178 256 259 256 218 256 259 257 178 257 192 257 259 258 192 258 237 258 237 259 364 259 259 259 364 260 237 260 303 260 364 261 303 261 362 261 364 262 362 262 415 262 415 263 467 263 364 263 467 264 415 264 472 264 467 265 472 265 534 265 534 266 527 266 467 266 527 267 534 267 591 267 591 268 570 268 527 268 570 269 591 269 602 269 602 270 544 270 570 270 544 271 602 271 590 271 590 272 497 272 544 272 497 273 590 273 533 273 533 274 411 274 497 274 411 275 533 275 470 275 411 276 470 276 413 276 411 277 413 277 360 277 260 278 280 278 249 278 234 279 260 279 249 279 260 280 234 280 265 280 265 281 234 281 250 281 250 282 286 282 265 282 286 283 250 283 281 283 281 284 325 284 286 284 325 285 281 285 338 285 338 286 380 286 325 286 380 287 338 287 393 287 393 288 435 288 380 288 435 289 393 289 439 289 439 290 468 290 435 290 468 291 439 291 492 291 492 292 507 292 468 292 507 293 492 293 523 293 523 294 515 294 507 294 515 295 523 295 542 295 542 296 502 296 515 296 502 297 542 297 522 297 522 298 462 298 502 298 462 299 522 299 491 299 491 300 429 300 462 300 429 301 491 301 437 301 437 302 374 302 429 302 374 303 437 303 390 303 390 304 317 304 374 304 317 305 390 305 336 305 336 306 277 306 317 306 277 307 336 307 280 307 280 308 260 308 277 308 265 309 266 309 260 309 277 310 260 310 266 310 235 311 250 311 234 311 250 312 235 312 252 312 252 313 281 313 250 313 281 314 252 314 283 314 283 315 338 315 281 315 338 316 283 316 339 316 339 317 393 317 338 317 393 318 339 318 391 318 391 319 439 319 393 319 439 320 391 320 440 320 440 321 492 321 439 321 492 322 440 322 494 322 494 323 523 323 492 323 523 324 494 324 525 324 525 325 542 325 523 325 542 326 525 326 543 326 543 327 522 327 542 327 522 328 543 328 524 328 524 329 491 329 522 329 491 330 524 330 493 330 493 331 437 331 491 331 437 332 493 332 438 332 438 333 390 333 437 333 390 334 438 334 388 334 388 335 336 335 390 335 336 336 388 336 337 336 337 337 280 337 336 337 280 338 337 338 282 338 282 339 249 339 280 339 249 340 282 340 251 340 251 341 234 341 249 341 234 342 251 342 235 342 276 343 339 343 283 343 339 344 276 344 335 344 335 345 391 345 339 345 391 346 335 346 392 346 392 347 440 347 391 347 440 348 392 348 444 348 444 349 494 349 440 349 494 350 444 350 501 350 501 351 525 351 494 351 525 352 501 352 531 352 531 353 543 353 525 353 543 354 531 354 557 354 557 355 524 355 543 355 524 356 557 356 530 356 530 357 493 357 524 357 493 358 530 358 500 358 500 359 438 359 493 359 438 360 500 360 442 360 442 361 388 361 438 361 388 362 442 362 387 362 387 363 337 363 388 363 337 364 387 364 333 364 333 365 282 365 337 365 282 366 333 366 275 366 275 367 251 367 282 367 251 368 275 368 242 368 242 369 235 369 251 369 235 370 242 370 220 370 220 371 252 371 235 371 252 372 220 372 243 372 243 373 283 373 252 373 283 374 243 374 276 374 220 375 241 375 243 375 274 376 243 376 241 376 243 377 274 377 276 377 334 378 276 378 274 378 276 379 334 379 335 379 394 380 335 380 334 380 335 381 394 381 392 381 443 382 392 382 394 382 392 383 443 383 444 383 499 384 444 384 443 384 444 385 499 385 501 385 529 386 501 386 499 386 501 387 529 387 531 387 556 388 531 388 529 388 531 389 556 389 557 389 528 390 557 390 556 390 557 391 528 391 530 391 498 392 530 392 528 392 530 393 498 393 500 393 441 394 500 394 498 394 500 395 441 395 442 395 389 396 442 396 441 396 442 397 389 397 387 397 332 398 387 398 389 398 387 399 332 399 333 399 273 400 333 400 332 400 333 401 273 401 275 401 240 402 275 402 273 402 275 403 240 403 242 403 219 404 242 404 240 404 242 405 219 405 220 405 241 406 220 406 219 406 515 407 488 407 512 407 502 408 488 408 515 408 462 409 488 409 502 409 462 410 431 410 488 410 431 411 462 411 429 411 429 412 348 412 431 412 348 413 429 413 374 413 348 414 374 414 317 414 317 415 269 415 348 415 277 416 269 416 317 416 266 417 269 417 277 417 266 418 270 418 269 418 270 419 266 419 265 419 270 420 265 420 286 420 286 421 349 421 270 421 349 422 286 422 325 422 380 423 448 423 349 423 349 424 325 424 380 424 435 425 448 425 380 425 448 426 435 426 468 426 468 427 512 427 448 427 512 428 468 428 507 428 512 429 507 429 515 429 270 430 274 430 241 430 219 431 270 431 241 431 219 432 269 432 270 432 269 433 219 433 240 433 269 434 240 434 273 434 273 435 348 435 269 435 348 436 273 436 332 436 348 437 332 437 389 437 389 438 431 438 348 438 431 439 389 439 441 439 441 440 488 440 431 440 488 441 441 441 498 441 488 442 498 442 528 442 528 443 512 443 488 443 512 444 528 444 556 444 512 445 556 445 529 445 529 446 448 446 512 446 448 447 529 447 499 447 448 448 499 448 443 448 443 449 349 449 448 449 349 450 443 450 394 450 349 451 394 451 334 451 334 452 270 452 349 452 270 453 334 453 274 453 300 454 310 454 293 454 293 455 285 455 300 455 285 456 293 456 320 456 320 457 340 457 285 457 340 458 320 458 310 458 310 459 300 459 340 459 300 460 343 460 340 460 271 461 285 461 340 461 285 462 253 462 300 462 340 463 343 463 342 463 313 464 376 464 330 464 330 465 376 465 288 465 343 466 288 466 376 466 288 467 343 467 300 467 430 468 464 468 452 468 430 469 452 469 417 469 417 470 376 470 430 470 376 471 417 471 385 471 376 472 385 472 343 472 253 473 288 473 300 473 253 474 285 474 271 474 271 475 340 475 342 475 271 476 327 476 102 476 327 477 271 477 342 477 253 478 99 478 288 478 253 479 102 479 99 479 102 480 253 480 271 480 313 481 346 481 376 481 376 482 346 482 386 482 386 483 430 483 376 483 313 484 279 484 346 484 313 485 94 485 85 485 288 486 99 486 95 486 330 487 94 487 313 487 94 488 330 488 95 488 288 489 95 489 330 489 180 490 200 490 137 490 180 491 137 491 159 491 159 492 137 492 139 492 136 493 123 493 120 493 123 494 136 494 137 494 123 495 137 495 195 495 200 496 195 496 137 496 279 497 195 497 200 497 231 498 200 498 180 498 279 499 200 499 231 499 139 500 136 500 132 500 136 501 139 501 137 501 195 502 279 502 313 502 85 503 195 503 313 503 120 504 37 504 29 504 37 505 120 505 123 505 37 506 123 506 195 506 37 507 195 507 85 507 35 508 60 508 44 508 60 509 64 509 44 509 60 510 81 510 64 510 95 511 81 511 60 511 81 512 95 512 99 512 85 513 94 513 60 513 95 514 60 514 94 514 12 515 37 515 9 515 37 516 12 516 29 516 0 517 12 517 9 517 12 518 0 518 2 518 35 519 9 519 60 519 60 520 37 520 85 520 37 521 60 521 9 521 9 522 4 522 0 522 36 523 9 523 35 523 9 524 36 524 10 524 10 525 4 525 9 525 4 526 10 526 5 526 5 527 0 527 4 527 0 528 5 528 1 528 1 529 2 529 0 529 2 530 1 530 3 530 102 531 81 531 99 531 81 532 102 532 82 532 82 533 64 533 81 533 64 534 82 534 56 534 56 535 44 535 64 535 44 536 56 536 43 536 43 537 35 537 44 537 35 538 43 538 36 538 34 539 10 539 36 539 5 540 6 540 1 540 11 541 1 541 6 541 1 542 11 542 3 542 25 543 34 543 53 543 19 544 25 544 31 544 25 545 19 545 6 545 34 546 25 546 6 546 6 547 5 547 34 547 34 548 5 548 10 548 102 549 71 549 82 549 56 550 71 550 43 550 43 551 34 551 36 551 34 552 43 552 71 552 71 553 102 553 106 553 107 554 71 554 106 554 107 555 87 555 71 555 71 556 56 556 82 556 53 557 34 557 71 557 31 558 126 558 122 558 207 559 87 559 312 559 87 560 53 560 71 560 53 561 126 561 25 561 126 562 31 562 25 562 53 563 87 563 126 563 87 564 207 564 126 564 327 565 106 565 102 565 106 566 327 566 329 566 106 567 329 567 107 567 312 568 107 568 329 568 107 569 312 569 87 569 209 570 207 570 287 570 149 571 207 571 209 571 207 572 149 572 126 572 127 573 138 573 130 573 130 574 138 574 133 574 312 575 287 575 207 575 126 576 127 576 122 576 127 577 126 577 149 577 138 578 127 578 149 578 464 579 495 579 452 579 452 580 495 580 459 580 486 581 451 581 459 581 486 582 487 582 451 582 342 583 379 583 327 583 342 584 343 584 385 584 342 585 385 585 379 585 385 586 416 586 379 586 416 587 385 587 417 587 417 588 451 588 416 588 451 589 417 589 452 589 452 590 459 590 451 590 287 591 312 591 368 591 327 592 368 592 329 592 329 593 368 593 312 593 368 594 327 594 379 594 368 595 379 595 416 595 416 596 434 596 368 596 434 597 416 597 451 597 451 598 487 598 434 598 475 599 486 599 459 599 459 600 561 600 562 600 561 601 459 601 495 601 495 602 537 602 561 602 562 603 475 603 459 603 486 604 572 604 571 604 486 605 475 605 572 605 537 606 495 606 577 606 577 607 540 607 596 607 495 608 540 608 577 608 562 609 572 609 475 609 640 610 625 610 623 610 596 611 625 611 577 611 596 612 623 612 625 612 608 613 666 613 638 613 608 614 662 614 666 614 571 615 658 615 662 615 608 616 571 616 662 616 658 617 571 617 572 617 572 618 652 618 658 618 652 619 572 619 562 619 561 620 652 620 562 620 652 621 561 621 648 621 644 622 537 622 577 622 537 623 644 623 648 623 648 624 561 624 537 624 577 625 625 625 644 625 550 626 487 626 486 626 571 627 550 627 486 627 571 628 608 628 550 628 610 629 623 629 596 629 296 630 346 630 279 630 346 631 296 631 358 631 386 632 358 632 420 632 358 633 386 633 346 633 495 634 464 634 479 634 464 635 420 635 479 635 420 636 464 636 430 636 386 637 420 637 430 637 596 638 553 638 610 638 553 639 596 639 540 639 540 640 479 640 553 640 495 641 479 641 540 641 631 642 636 642 628 642 636 643 631 643 640 643 636 644 640 644 623 644 623 645 610 645 636 645 135 646 139 646 132 646 139 647 135 647 142 647 142 648 159 648 139 648 159 649 142 649 174 649 224 650 180 650 174 650 159 651 174 651 180 651 279 652 224 652 296 652 224 653 279 653 231 653 180 654 224 654 231 654 620 655 628 655 636 655 636 656 589 656 620 656 589 657 636 657 610 657 610 658 519 658 589 658 519 659 610 659 553 659 553 660 455 660 519 660 455 661 553 661 479 661 420 662 455 662 479 662 455 663 420 663 395 663 358 664 395 664 420 664 358 665 316 665 395 665 316 666 358 666 296 666 296 667 261 667 316 667 261 668 296 668 224 668 224 669 196 669 261 669 196 670 224 670 174 670 174 671 164 671 196 671 164 672 174 672 142 672 142 673 156 673 164 673 156 674 142 674 135 674 637 675 638 675 630 675 638 676 637 676 608 676 608 677 637 677 613 677 564 678 550 678 608 678 608 679 613 679 564 679 550 680 564 680 487 680 487 681 564 681 485 681 434 682 485 682 428 682 487 683 485 683 434 683 363 684 287 684 368 684 287 685 363 685 297 685 368 686 428 686 363 686 428 687 368 687 434 687 226 688 287 688 297 688 209 689 226 689 175 689 287 690 226 690 209 690 175 691 138 691 149 691 209 692 175 692 149 692 138 693 175 693 143 693 134 694 138 694 143 694 138 695 134 695 133 695 622 696 613 696 637 696 613 697 622 697 595 697 595 698 564 698 613 698 564 699 595 699 520 699 520 700 485 700 564 700 485 701 520 701 457 701 457 702 428 702 485 702 428 703 457 703 398 703 428 704 398 704 363 704 318 705 363 705 398 705 134 706 165 706 155 706 165 707 134 707 143 707 143 708 197 708 165 708 197 709 143 709 175 709 175 710 262 710 197 710 262 711 175 711 226 711 226 712 318 712 262 712 318 713 226 713 297 713 363 714 318 714 297 714 637 715 630 715 622 715 625 716 640 716 643 716 643 717 644 717 625 717 644 718 643 718 647 718 647 719 648 719 644 719 648 720 647 720 650 720 650 721 652 721 648 721 652 722 650 722 653 722 653 723 658 723 652 723 658 724 653 724 656 724 656 725 662 725 658 725 662 726 656 726 660 726 660 727 666 727 662 727 666 728 660 728 664 728 664 729 638 729 666 729 630 730 638 730 614 730 579 731 614 731 612 731 638 732 612 732 614 732 579 733 612 733 580 733 604 734 640 734 616 734 631 735 616 735 640 735 586 736 604 736 541 736 586 737 647 737 643 737 643 738 604 738 586 738 604 739 643 739 640 739 660 740 580 740 664 740 612 741 664 741 580 741 664 742 612 742 638 742 660 743 574 743 580 743 574 744 660 744 656 744 656 745 567 745 574 745 653 746 567 746 656 746 567 747 653 747 566 747 653 748 573 748 566 748 573 749 653 749 650 749 647 750 586 750 563 750 563 751 650 751 647 751 650 752 563 752 573 752 504 753 580 753 574 753 466 754 566 754 573 754 514 755 580 755 504 755 514 756 579 756 580 756 460 757 567 757 566 757 460 758 574 758 567 758 574 759 460 759 504 759 466 760 573 760 563 760 566 761 466 761 460 761 503 762 563 762 541 762 541 763 563 763 586 763 504 764 460 764 469 764 563 765 503 765 466 765 469 766 514 766 504 766 155 767 168 767 154 767 168 768 155 768 165 768 168 769 197 769 217 769 168 770 165 770 197 770 217 771 197 771 262 771 217 772 262 772 298 772 298 773 318 773 373 773 298 774 262 774 318 774 373 775 318 775 398 775 398 776 436 776 373 776 436 777 398 777 457 777 514 778 474 778 520 778 474 779 457 779 520 779 436 780 457 780 474 780 579 781 520 781 595 781 520 782 579 782 514 782 595 783 614 783 579 783 614 784 595 784 622 784 614 785 622 785 630 785 306 786 307 786 328 786 307 787 298 787 373 787 168 788 151 788 154 788 307 789 306 789 206 789 307 790 206 790 210 790 125 791 210 791 206 791 210 792 125 792 146 792 125 793 124 793 146 793 307 794 217 794 298 794 217 795 307 795 210 795 210 796 168 796 217 796 168 797 210 797 146 797 146 798 151 798 168 798 151 799 146 799 144 799 144 800 146 800 124 800 373 801 366 801 307 801 307 802 366 802 328 802 326 803 366 803 372 803 373 804 372 804 366 804 372 805 373 805 410 805 436 806 410 806 373 806 410 807 436 807 445 807 474 808 445 808 436 808 366 809 326 809 328 809 306 810 93 810 86 810 93 811 328 811 326 811 93 812 306 812 328 812 65 813 93 813 83 813 86 814 93 814 65 814 65 815 62 815 52 815 65 816 83 816 62 816 22 817 45 817 24 817 24 818 21 818 15 818 18 819 24 819 15 819 24 820 18 820 22 820 33 821 65 821 52 821 24 822 45 822 65 822 65 823 33 823 24 823 21 824 24 824 33 824 61 825 83 825 84 825 52 826 61 826 51 826 61 827 52 827 62 827 83 828 61 828 62 828 83 829 98 829 84 829 98 830 83 830 93 830 18 831 14 831 17 831 14 832 18 832 15 832 15 833 20 833 14 833 20 834 15 834 21 834 21 835 32 835 20 835 32 836 21 836 33 836 33 837 51 837 32 837 51 838 33 838 52 838 23 839 20 839 32 839 51 840 23 840 32 840 14 841 12 841 17 841 12 842 14 842 23 842 12 843 23 843 38 843 12 844 38 844 30 844 23 845 51 845 63 845 63 846 38 846 23 846 20 847 23 847 14 847 63 848 61 848 84 848 63 849 51 849 61 849 63 850 97 850 96 850 84 851 97 851 63 851 97 852 84 852 98 852 254 853 96 853 97 853 97 854 248 854 254 854 98 855 248 855 97 855 248 856 98 856 244 856 299 857 93 857 326 857 255 858 93 858 299 858 255 859 98 859 93 859 98 860 255 860 244 860 155 861 133 861 134 861 133 862 155 862 154 862 154 863 130 863 133 863 130 864 154 864 151 864 151 865 127 865 130 865 127 866 151 866 144 866 127 867 144 867 124 867 124 868 122 868 127 868 135 869 152 869 156 869 152 870 135 870 132 870 132 871 136 871 152 871 121 872 136 872 120 872 120 873 30 873 121 873 30 874 120 874 29 874 29 875 12 875 30 875 17 876 12 876 2 876 2 877 18 877 17 877 18 878 2 878 3 878 3 879 22 879 18 879 22 880 3 880 11 880 22 881 11 881 6 881 22 882 6 882 19 882 22 883 19 883 31 883 31 884 104 884 22 884 122 885 104 885 31 885 104 886 122 886 111 886 111 887 122 887 124 887 30 888 158 888 121 888 254 889 158 889 30 889 158 890 254 890 268 890 63 891 96 891 38 891 96 892 254 892 38 892 38 893 254 893 30 893 264 894 248 894 244 894 264 895 254 895 248 895 268 896 254 896 264 896 121 897 166 897 136 897 136 898 163 898 152 898 136 899 176 899 163 899 176 900 136 900 166 900 166 901 199 901 176 901 247 902 199 902 166 902 278 903 247 903 268 903 319 904 278 904 268 904 268 905 345 905 319 905 166 906 121 906 158 906 166 907 158 907 208 907 268 908 208 908 158 908 208 909 268 909 247 909 247 910 166 910 208 910 278 911 316 911 261 911 316 912 278 912 319 912 247 913 196 913 199 913 196 914 247 914 261 914 278 915 261 915 247 915 196 916 176 916 199 916 164 917 176 917 196 917 176 918 164 918 163 918 156 919 163 919 164 919 163 920 156 920 152 920 616 921 628 921 620 921 628 922 616 922 631 922 616 923 620 923 589 923 589 924 604 924 616 924 541 925 589 925 519 925 589 926 541 926 604 926 503 927 455 927 461 927 519 928 503 928 541 928 503 929 519 929 455 929 319 930 395 930 316 930 395 931 319 931 371 931 395 932 371 932 396 932 396 933 455 933 395 933 455 934 396 934 427 934 461 935 455 935 427 935 244 936 255 936 264 936 347 937 341 937 365 937 299 938 341 938 347 938 344 939 347 939 365 939 264 940 310 940 268 940 310 941 345 941 268 941 347 942 344 942 320 942 347 943 320 943 299 943 299 944 320 944 293 944 264 945 255 945 293 945 293 946 255 946 299 946 320 947 344 947 310 947 310 948 264 948 293 948 345 949 310 949 344 949 404 950 344 950 365 950 326 951 341 951 299 951 341 952 326 952 372 952 372 953 365 953 341 953 446 954 410 954 445 954 410 955 446 955 404 955 410 956 404 956 372 956 404 957 365 957 372 957 474 958 514 958 469 958 474 959 469 959 445 959 460 960 445 960 469 960 445 961 460 961 446 961 466 962 446 962 460 962 503 963 446 963 466 963 503 964 461 964 446 964 371 965 319 965 345 965 345 966 396 966 371 966 345 967 427 967 396 967 427 968 404 968 446 968 461 969 427 969 446 969 404 970 345 970 344 970 345 971 404 971 427 971 104 972 45 972 22 972 45 973 104 973 105 973 45 974 86 974 65 974 86 975 45 975 112 975 45 976 105 976 112 976 124 977 112 977 111 977 112 978 124 978 125 978 125 979 86 979 112 979 86 980 125 980 206 980 86 981 206 981 306 981 101 982 112 982 105 982 112 983 101 983 109 983 100 984 109 984 101 984 109 985 100 985 108 985 109 986 111 986 112 986 111 987 109 987 108 987 108 988 110 988 111 988 104 989 103 989 100 989 100 990 105 990 104 990 105 991 100 991 101 991 108 992 103 992 110 992 103 993 108 993 100 993 103 994 111 994 110 994 111 995 103 995 104 995 565 996 456 996 521 996 456 997 565 997 490 997 490 998 569 998 568 998 581 999 521 999 506 999 490 1000 565 1000 584 1000 584 1001 569 1001 490 1001 490 1002 496 1002 456 1002 506 1003 456 1003 489 1003 496 1004 490 1004 568 1004 456 1005 506 1005 521 1005 538 1006 583 1006 581 1006 489 1007 538 1007 581 1007 489 1008 581 1008 506 1008 538 1009 489 1009 516 1009 532 1010 568 1010 594 1010 532 1011 496 1011 568 1011 594 1012 661 1012 665 1012 665 1013 626 1013 594 1013 583 1014 646 1014 581 1014 646 1015 583 1015 642 1015 621 1016 642 1016 583 1016 642 1017 621 1017 639 1017 581 1018 646 1018 651 1018 581 1019 651 1019 521 1019 654 1020 521 1020 651 1020 521 1021 654 1021 565 1021 654 1022 584 1022 565 1022 584 1023 654 1023 657 1023 584 1024 657 1024 569 1024 661 1025 594 1025 568 1025 568 1026 657 1026 661 1026 657 1027 568 1027 569 1027 538 1028 585 1028 607 1028 621 1029 627 1029 639 1029 607 1030 583 1030 538 1030 583 1031 607 1031 621 1031 632 1032 617 1032 626 1032 626 1033 617 1033 582 1033 582 1034 594 1034 626 1034 532 1035 594 1035 582 1035 635 1036 629 1036 619 1036 619 1037 611 1037 635 1037 611 1038 619 1038 588 1038 588 1039 552 1039 611 1039 552 1040 588 1040 518 1040 518 1041 478 1041 552 1041 478 1042 518 1042 454 1042 454 1043 419 1043 478 1043 419 1044 454 1044 384 1044 419 1045 384 1045 357 1045 315 1046 357 1046 384 1046 135 1047 162 1047 156 1047 162 1048 135 1048 141 1048 141 1049 190 1049 162 1049 190 1050 141 1050 173 1050 173 1051 258 1051 190 1051 258 1052 173 1052 225 1052 225 1053 315 1053 258 1053 315 1054 225 1054 295 1054 357 1055 315 1055 295 1055 155 1056 140 1056 134 1056 140 1057 155 1057 161 1057 161 1058 172 1058 140 1058 172 1059 161 1059 188 1059 188 1060 223 1060 172 1060 223 1061 188 1061 257 1061 257 1062 294 1062 223 1062 294 1063 257 1063 314 1063 314 1064 356 1064 294 1064 356 1065 314 1065 383 1065 383 1066 418 1066 356 1066 453 1067 418 1067 383 1067 418 1068 453 1068 480 1068 517 1069 480 1069 453 1069 587 1070 624 1070 609 1070 609 1071 517 1071 587 1071 517 1072 609 1072 551 1072 480 1073 517 1073 551 1073 633 1074 632 1074 626 1074 639 1075 627 1075 634 1075 634 1076 642 1076 639 1076 642 1077 634 1077 641 1077 641 1078 646 1078 642 1078 646 1079 641 1079 645 1079 645 1080 651 1080 646 1080 651 1081 645 1081 649 1081 649 1082 654 1082 651 1082 654 1083 649 1083 655 1083 655 1084 657 1084 654 1084 657 1085 655 1085 659 1085 659 1086 661 1086 657 1086 661 1087 659 1087 663 1087 663 1088 665 1088 661 1088 665 1089 663 1089 667 1089 667 1090 626 1090 665 1090 626 1091 667 1091 633 1091 667 1092 605 1092 633 1092 606 1093 641 1093 634 1093 606 1094 645 1094 641 1094 578 1095 667 1095 663 1095 667 1096 578 1096 605 1096 663 1097 555 1097 578 1097 555 1098 663 1098 659 1098 555 1099 659 1099 513 1099 659 1100 560 1100 513 1100 655 1101 560 1101 659 1101 560 1102 655 1102 559 1102 655 1103 558 1103 559 1103 558 1104 655 1104 649 1104 558 1105 649 1105 539 1105 606 1106 554 1106 645 1106 554 1107 649 1107 645 1107 649 1108 554 1108 539 1108 545 1109 606 1109 597 1109 606 1110 634 1110 597 1110 510 1111 554 1111 545 1111 545 1112 554 1112 606 1112 578 1113 480 1113 605 1113 509 1114 480 1114 578 1114 509 1115 578 1115 555 1115 513 1116 477 1116 509 1116 477 1117 513 1117 458 1117 539 1118 476 1118 463 1118 476 1119 539 1119 510 1119 554 1120 510 1120 539 1120 513 1121 509 1121 555 1121 458 1122 560 1122 559 1122 458 1123 513 1123 560 1123 559 1124 463 1124 458 1124 463 1125 558 1125 539 1125 463 1126 559 1126 558 1126 134 1127 131 1127 133 1127 131 1128 134 1128 140 1128 140 1129 157 1129 131 1129 157 1130 140 1130 172 1130 157 1131 172 1131 187 1131 187 1132 172 1132 223 1132 295 1133 225 1133 233 1133 232 1134 223 1134 294 1134 223 1135 232 1135 187 1135 198 1136 225 1136 173 1136 198 1137 173 1137 171 1137 141 1138 171 1138 173 1138 171 1139 141 1139 145 1139 135 1140 145 1140 141 1140 145 1141 135 1141 132 1141 629 1142 634 1142 627 1142 634 1143 629 1143 635 1143 634 1144 635 1144 611 1144 552 1145 545 1145 597 1145 597 1146 611 1146 552 1146 634 1147 611 1147 597 1147 545 1148 478 1148 510 1148 545 1149 552 1149 478 1149 510 1150 478 1150 476 1150 419 1151 476 1151 478 1151 476 1152 419 1152 421 1152 421 1153 463 1153 476 1153 463 1154 421 1154 458 1154 480 1155 509 1155 477 1155 477 1156 418 1156 480 1156 418 1157 477 1157 458 1157 551 1158 605 1158 480 1158 609 1159 633 1159 605 1159 605 1160 551 1160 609 1160 633 1161 609 1161 624 1161 633 1162 624 1162 622 1162 633 1163 622 1163 632 1163 377 1164 419 1164 357 1164 419 1165 377 1165 402 1165 419 1166 402 1166 421 1166 356 1167 295 1167 294 1167 233 1168 294 1168 295 1168 294 1169 233 1169 232 1169 295 1170 356 1170 351 1170 295 1171 351 1171 357 1171 377 1172 357 1172 351 1172 418 1173 458 1173 421 1173 409 1174 418 1174 421 1174 409 1175 356 1175 418 1175 356 1176 409 1176 378 1176 356 1177 378 1177 351 1177 129 1178 128 1178 120 1178 128 1179 145 1179 132 1179 171 1180 145 1180 128 1180 128 1181 129 1181 171 1181 185 1182 171 1182 129 1182 211 1183 198 1183 171 1183 185 1184 211 1184 171 1184 150 1185 187 1185 177 1185 177 1186 187 1186 201 1186 131 1187 130 1187 133 1187 127 1188 131 1188 122 1188 187 1189 150 1189 157 1189 131 1190 157 1190 150 1190 211 1191 225 1191 198 1191 225 1192 211 1192 233 1192 233 1193 211 1193 216 1193 211 1194 205 1194 216 1194 202 1195 201 1195 215 1195 187 1196 215 1196 201 1196 215 1197 187 1197 232 1197 202 1198 216 1198 205 1198 216 1199 202 1199 215 1199 215 1200 233 1200 216 1200 233 1201 215 1201 232 1201 73 1202 205 1202 211 1202 205 1203 73 1203 75 1203 66 1204 185 1204 129 1204 185 1205 66 1205 72 1205 211 1206 72 1206 73 1206 72 1207 211 1207 185 1207 201 1208 76 1208 79 1208 76 1209 201 1209 202 1209 201 1210 79 1210 80 1210 80 1211 177 1211 201 1211 150 1212 80 1212 69 1212 80 1213 150 1213 177 1213 122 1214 39 1214 31 1214 39 1215 122 1215 131 1215 131 1216 69 1216 39 1216 69 1217 131 1217 150 1217 29 1218 129 1218 120 1218 129 1219 29 1219 66 1219 48 1220 41 1220 26 1220 59 1221 79 1221 76 1221 79 1222 59 1222 48 1222 48 1223 80 1223 79 1223 48 1224 69 1224 80 1224 41 1225 48 1225 59 1225 27 1226 72 1226 66 1226 27 1227 73 1227 72 1227 27 1228 75 1228 73 1228 75 1229 27 1229 58 1229 58 1230 27 1230 40 1230 76 1231 205 1231 75 1231 205 1232 76 1232 202 1232 58 1233 76 1233 75 1233 76 1234 58 1234 59 1234 40 1235 59 1235 58 1235 59 1236 40 1236 41 1236 27 1237 41 1237 40 1237 41 1238 27 1238 26 1238 13 1239 26 1239 8 1239 26 1240 13 1240 48 1240 39 1241 19 1241 31 1241 48 1242 39 1242 69 1242 39 1243 48 1243 13 1243 19 1244 39 1244 13 1244 19 1245 13 1245 6 1245 6 1246 13 1246 11 1246 11 1247 13 1247 8 1247 11 1248 8 1248 3 1248 3 1249 7 1249 2 1249 7 1250 3 1250 8 1250 8 1251 27 1251 7 1251 27 1252 8 1252 26 1252 7 1253 66 1253 29 1253 66 1254 7 1254 27 1254 402 1255 377 1255 351 1255 402 1256 351 1256 397 1256 378 1257 397 1257 351 1257 421 1258 397 1258 409 1258 409 1259 397 1259 378 1259 405 1260 397 1260 421 1260 405 1261 421 1261 402 1261 397 1262 405 1262 381 1262 381 1263 402 1263 397 1263 402 1264 381 1264 401 1264 401 1265 405 1265 402 1265 426 1266 405 1266 401 1266 405 1267 426 1267 381 1267 401 1268 350 1268 375 1268 350 1269 401 1269 381 1269 401 1270 408 1270 426 1270 401 1271 375 1271 408 1271 426 1272 407 1272 381 1272 381 1273 367 1273 350 1273 367 1274 381 1274 382 1274 381 1275 407 1275 382 1275 619 1276 621 1276 607 1276 518 1277 538 1277 516 1277 617 1278 622 1278 624 1278 622 1279 617 1279 632 1279 617 1280 624 1280 587 1280 587 1281 582 1281 617 1281 582 1282 517 1282 532 1282 582 1283 587 1283 517 1283 453 1284 456 1284 496 1284 496 1285 517 1285 453 1285 517 1286 496 1286 532 1286 456 1287 407 1287 426 1287 456 1288 426 1288 454 1288 454 1289 426 1289 408 1289 408 1290 384 1290 454 1290 384 1291 408 1291 375 1291 516 1292 454 1292 518 1292 454 1293 516 1293 489 1293 454 1294 489 1294 456 1294 607 1295 588 1295 619 1295 588 1296 607 1296 585 1296 585 1297 518 1297 588 1297 538 1298 518 1298 585 1298 621 1299 619 1299 629 1299 621 1300 629 1300 627 1300 214 1301 257 1301 188 1301 257 1302 214 1302 245 1302 246 1303 257 1303 245 1303 188 1304 170 1304 214 1304 170 1305 188 1305 161 1305 155 1306 170 1306 161 1306 170 1307 155 1307 154 1307 375 1308 315 1308 384 1308 350 1309 315 1309 375 1309 315 1310 350 1310 314 1310 314 1311 258 1311 315 1311 407 1312 456 1312 453 1312 453 1313 382 1313 407 1313 382 1314 453 1314 383 1314 382 1315 383 1315 314 1315 382 1316 314 1316 367 1316 367 1317 314 1317 350 1317 156 1318 160 1318 153 1318 160 1319 156 1319 162 1319 162 1320 189 1320 160 1320 189 1321 162 1321 190 1321 190 1322 246 1322 189 1322 246 1323 190 1323 258 1323 257 1324 246 1324 258 1324 258 1325 314 1325 257 1325 170 1326 186 1326 214 1326 186 1327 170 1327 148 1327 119 1328 147 1328 148 1328 119 1329 148 1329 144 1329 170 1330 144 1330 148 1330 144 1331 170 1331 151 1331 147 1332 186 1332 148 1332 151 1333 170 1333 154 1333 203 1334 214 1334 186 1334 214 1335 203 1335 222 1335 214 1336 222 1336 245 1336 222 1337 246 1337 245 1337 246 1338 222 1338 221 1338 203 1339 221 1339 222 1339 221 1340 203 1340 204 1340 78 1341 147 1341 70 1341 147 1342 78 1342 186 1342 78 1343 203 1343 186 1343 203 1344 78 1344 77 1344 77 1345 204 1345 203 1345 204 1346 77 1346 74 1346 153 1347 49 1347 16 1347 49 1348 153 1348 160 1348 221 1349 189 1349 246 1349 204 1350 189 1350 221 1350 189 1351 204 1351 74 1351 55 1352 74 1352 67 1352 74 1353 55 1353 49 1353 49 1354 189 1354 74 1354 189 1355 49 1355 160 1355 55 1356 50 1356 49 1356 50 1357 55 1357 54 1357 67 1358 54 1358 55 1358 54 1359 67 1359 68 1359 74 1360 68 1360 67 1360 68 1361 74 1361 77 1361 57 1362 50 1362 54 1362 78 1363 70 1363 57 1363 68 1364 78 1364 57 1364 78 1365 68 1365 77 1365 68 1366 57 1366 54 1366 50 1367 42 1367 28 1367 28 1368 11 1368 18 1368 11 1369 28 1369 42 1369 42 1370 57 1370 70 1370 42 1371 50 1371 57 1371 16 1372 28 1372 18 1372 49 1373 28 1373 16 1373 28 1374 49 1374 50 1374 156 1375 132 1375 135 1375 132 1376 156 1376 153 1376 132 1377 153 1377 128 1377 16 1378 7 1378 29 1378 29 1379 153 1379 16 1379 153 1380 29 1380 120 1380 153 1381 120 1381 128 1381 2 1382 7 1382 16 1382 16 1383 3 1383 2 1383 3 1384 16 1384 18 1384 18 1385 11 1385 3 1385 11 1386 19 1386 6 1386 11 1387 31 1387 19 1387 122 1388 92 1388 115 1388 92 1389 122 1389 31 1389 92 1390 31 1390 47 1390 47 1391 31 1391 11 1391 134 1392 154 1392 155 1392 154 1393 134 1393 133 1393 133 1394 151 1394 154 1394 151 1395 133 1395 130 1395 130 1396 144 1396 151 1396 144 1397 130 1397 131 1397 131 1398 119 1398 144 1398 119 1399 131 1399 127 1399 119 1400 127 1400 122 1400 119 1401 122 1401 115 1401 47 1402 90 1402 92 1402 90 1403 47 1403 89 1403 46 1404 47 1404 42 1404 92 1405 90 1405 89 1405 89 1406 91 1406 92 1406 91 1407 89 1407 88 1407 46 1408 89 1408 47 1408 89 1409 46 1409 88 1409 88 1410 42 1410 91 1410 42 1411 88 1411 46 1411 92 1412 114 1412 115 1412 91 1413 70 1413 147 1413 11 1414 42 1414 47 1414 91 1415 42 1415 70 1415 147 1416 119 1416 114 1416 147 1417 114 1417 91 1417 114 1418 92 1418 91 1418 117 1419 114 1419 119 1419 114 1420 117 1420 113 1420 118 1421 113 1421 117 1421 113 1422 118 1422 116 1422 119 1423 116 1423 118 1423 119 1424 118 1424 117 1424 113 1425 115 1425 114 1425 115 1426 113 1426 116 1426 115 1427 116 1427 119 1427 311 1428 308 1428 305 1428 305 1429 309 1429 311 1429 305 1430 308 1430 309 1430 308 1431 311 1431 309 1431 399 1432 406 1432 400 1432 403 1433 406 1433 399 1433 403 1434 400 1434 406 1434 400 1435 403 1435 399 1435</p>
        </triangles>
      </mesh>
    </geometry>
  </library_geometries>
  <library_materials>
    <material id="mat_link_3_u_stl" name="link_3_u_stl">
      <instance_effect url="#effect_link_3_u_stl"/>
    </material>
  </library_materials>
  <library_visual_scenes>
    <visual_scene id="myscene">
      <node id="node0" name="node0">
        <instance_geometry url="#geometry0">
          <bind_material>
            <technique_common>
              <instance_material symbol="ref_link_3_u_stl" target="#mat_link_3_u_stl"/>
            </technique_common>
          </bind_material>
        </instance_geometry>
      </node>
    </visual_scene>
  </library_visual_scenes>
  <scene>
    <instance_visual_scene url="#myscene"/>
  </scene>
</COLLADA>
