<COLLADA xmlns="http://www.collada.org/2005/11/COLLADASchema" version="1.4.1">
  <asset>
    <contributor/>
    <created>2026-03-03T03:42:28.268194</created>
    <modified>2026-03-03T03:42:28.268203</modified>
    <unit name="meter" meter="1.0"/>
    <up_axis>Z_UP</up_axis>
  </asset>
  <library_effects>
    <effect id="effect_Body001" name="effect_Body001">
      <profile_COMMON>
        <technique sid="common">
          <phong>
            <emission>
              <color>0.0 0.0 0.0 1.0</color>
            </emission>
            <ambient>
              <color>0.0 0.0 0.0 1.0</color>
            </ambient>
            <diffuse>
              <color>0.4470588266849518 0.4745098054409027 0.501960813999176 1.0</color>
            </diffuse>
            <specular>
              <color>1 1 1 1.0</color>
            </specular>
            <shininess>
              <float>0.0</float>
            </shininess>
            <reflective>
              <color>0.0 0.0 0.0 1.0</color>
            </reflective>
            <reflectivity>
              <float>0.0</float>
            </reflectivity>
            <transparent>
              <color>0.0 0.0 0.0 1.0</color>
            </transparent>
            <transparency>
              <float>1.0</float>
            </transparency>
          </phong>
        </technique>
        <extra>
          <technique profile="GOOGLEEARTH">
            <double_sided>0</double_sided>
          </technique>
        </extra>
      </profile_COMMON>
    </effect>
  </library_effects>
  <library_geometries>
    <geometry id="geometry0" name="Body001">
      <mesh>
        <source id="cubeverts-array0">
          <float_array count="756" id="cubeverts-array0-array">0.015 0 0 0.01498135 0.0007476883 0 0.015 0 0.045 0.01498135 0.0007476883 0.045 0.01492546 0.001493518 0 0.01492546 0.001493518 0.045 0.01483246 0.002235634 0 0.01483246 0.002235634 0.045 0.01470259 0.002972192 0.045 0.01470259 0.002972192 0 0.01453616 0.003701361 0 0.01453616 0.003701361 0.045 0.01433359 0.004421328 0 0.01433359 0.004421328 0.045 0.01409539 0.005130302 0.045 0.01409539 0.005130302 0 0.01382214 0.005826522 0.045 0.01382214 0.005826522 0 0.01351453 0.006508256 0 0.01351453 0.006508256 0.045 0.01317332 0.00717381 0 0.01317332 0.00717381 0.045 0.01279936 0.007821528 0 0.01279936 0.007821528 0.045 0.01239358 0.0084498 0 0.01239358 0.0084498 0.045 0.01195699 0.009057066 0.045 0.01195699 0.009057066 0 0.01149067 0.009641814 0 0.01149067 0.009641814 0.045 0.01099578 0.01020259 0 0.01099578 0.01020259 0.045 0.01047355 0.010738 0 0.01047355 0.010738 0.045 0.009925287 0.01124672 0.045 0.009925287 0.01124672 0 0.009352347 0.01172747 0 0.009352347 0.01172747 0.045 0.008756155 0.01217907 0 0.008756155 0.01217907 0.045 0.008138194 0.01260039 0.045 0.008138194 0.01260039 0 0.0075 0.01299038 0 0.0075 0.01299038 0.045 0.00684316 0.01334808 0.045 0.00684316 0.01334808 0 0.006169307 0.01367259 0.045 0.006169307 0.01367259 0 0.005480115 0.01396311 0.045 0.005480115 0.01396311 0 0.0047773 0.01421891 0 0.0047773 0.01421891 0.045 0.004062607 0.01443936 0 0.004062607 0.01443936 0.045 0.003337814 0.01462392 0.045 0.003337814 0.01462392 0 0.002604723 0.01477212 0 0.002604723 0.01477212 0.045 0.001865156 0.01488359 0 0.001865156 0.01488359 0.045 0.001120951 0.01495806 0 0.001120951 0.01495806 0.045 0.0003739604 0.01499534 0 0.0003739604 0.01499534 0.045 -0.0003739604 0.01499534 0.045 -0.0003739604 0.01499534 0 -0.001120951 0.01495806 0 -0.001120951 0.01495806 0.045 -0.001865156 0.01488359 0 -0.001865156 0.01488359 0.045 -0.002604723 0.01477212 0 -0.002604723 0.01477212 0.045 -0.003337814 0.01462392 0 -0.003337814 0.01462392 0.045 -0.004062607 0.01443936 0 -0.004062607 0.01443936 0.045 -0.0047773 0.01421891 0 -0.0047773 0.01421891 0.045 -0.005480115 0.01396311 0 -0.005480115 0.01396311 0.045 -0.006169307 0.01367259 0.045 -0.006169307 0.01367259 0 -0.00684316 0.01334808 0 -0.00684316 0.01334808 0.045 -0.0075 0.01299038 0 -0.0075 0.01299038 0.045 -0.008138194 0.01260039 0 -0.008138194 0.01260039 0.045 -0.008756155 0.01217907 0 -0.008756155 0.01217907 0.045 -0.009352347 0.01172747 0 -0.009352347 0.01172747 0.045 -0.009925287 0.01124672 0.045 -0.009925287 0.01124672 0 -0.01047355 0.010738 0.045 -0.01047355 0.010738 0 -0.01099578 0.01020259 0 -0.01099578 0.01020259 0.045 -0.01149067 0.009641814 0 -0.01149067 0.009641814 0.045 -0.01195699 0.009057066 0 -0.01195699 0.009057066 0.045 -0.01239358 0.0084498 0 -0.01239358 0.0084498 0.045 -0.01279936 0.007821528 0 -0.01279936 0.007821528 0.045 -0.01317332 0.00717381 0 -0.01317332 0.00717381 0.045 -0.01351453 0.006508256 0 -0.01351453 0.006508256 0.045 -0.01382214 0.005826522 0 -0.01382214 0.005826522 0.045 -0.01409539 0.005130302 0 -0.01409539 0.005130302 0.045 -0.01433359 0.004421328 0 -0.01433359 0.004421328 0.045 -0.01453616 0.003701361 0 -0.01453616 0.003701361 0.045 -0.01470259 0.002972192 0 -0.01470259 0.002972192 0.045 -0.01483246 0.002235634 0 -0.01483246 0.002235634 0.045 -0.01492546 0.001493518 0 -0.01492546 0.001493518 0.045 -0.01498135 0.0007476883 0 -0.01498135 0.0007476883 0.045 -0.015 -5.145373e-17 0 -0.015 -5.145373e-17 0.045 -0.01498135 -0.0007476883 0 -0.01498135 -0.0007476883 0.045 -0.01492546 -0.001493518 0 -0.01492546 -0.001493518 0.045 -0.01483246 -0.002235634 0 -0.01483246 -0.002235634 0.045 -0.01470259 -0.002972192 0 -0.01470259 -0.002972192 0.045 -0.01453616 -0.003701361 0 -0.01453616 -0.003701361 0.045 -0.01433359 -0.004421328 0 -0.01433359 -0.004421328 0.045 -0.01409539 -0.005130302 0 -0.01409539 -0.005130302 0.045 -0.01382214 -0.005826522 0 -0.01382214 -0.005826522 0.045 -0.01351453 -0.006508256 0 -0.01351453 -0.006508256 0.045 -0.01317332 -0.00717381 0 -0.01317332 -0.00717381 0.045 -0.01279936 -0.007821528 0 -0.01279936 -0.007821528 0.045 -0.01239358 -0.0084498 0 -0.01239358 -0.0084498 0.045 -0.01195699 -0.009057066 0 -0.01195699 -0.009057066 0.045 -0.01149067 -0.009641814 0 -0.01149067 -0.009641814 0.045 -0.01099578 -0.01020259 0 -0.01099578 -0.01020259 0.045 -0.01047355 -0.010738 0.045 -0.01047355 -0.010738 0 -0.009925287 -0.01124672 0.045 -0.009925287 -0.01124672 0 -0.009352347 -0.01172747 0 -0.009352347 -0.01172747 0.045 -0.008756155 -0.01217907 0.045 -0.008756155 -0.01217907 0 -0.008138194 -0.01260039 0 -0.008138194 -0.01260039 0.045 -0.0075 -0.01299038 0 -0.0075 -0.01299038 0.045 -0.00684316 -0.01334808 0.045 -0.00684316 -0.01334808 0 -0.006169307 -0.01367259 0.045 -0.006169307 -0.01367259 0 -0.005480115 -0.01396311 0 -0.005480115 -0.01396311 0.045 -0.0047773 -0.01421891 0 -0.0047773 -0.01421891 0.045 -0.004062607 -0.01443936 0 -0.004062607 -0.01443936 0.045 -0.003337814 -0.01462392 0 -0.003337814 -0.01462392 0.045 -0.002604723 -0.01477212 0 -0.002604723 -0.01477212 0.045 -0.001865156 -0.01488359 0 -0.001865156 -0.01488359 0.045 -0.001120951 -0.01495806 0 -0.001120951 -0.01495806 0.045 -0.0003739604 -0.01499534 0 -0.0003739604 -0.01499534 0.045 0.0003739604 -0.01499534 0 0.0003739604 -0.01499534 0.045 0.001120951 -0.01495806 0.045 0.001120951 -0.01495806 0 0.001865156 -0.01488359 0 0.001865156 -0.01488359 0.045 0.002604723 -0.01477212 0 0.002604723 -0.01477212 0.045 0.003337814 -0.01462392 0 0.003337814 -0.01462392 0.045 0.004062607 -0.01443936 0 0.004062607 -0.01443936 0.045 0.0047773 -0.01421891 0 0.0047773 -0.01421891 0.045 0.005480115 -0.01396311 0.045 0.005480115 -0.01396311 0 0.006169307 -0.01367259 0 0.006169307 -0.01367259 0.045 0.00684316 -0.01334808 0 0.00684316 -0.01334808 0.045 0.0075 -0.01299038 0.045 0.0075 -0.01299038 0 0.008138194 -0.01260039 0.045 0.008138194 -0.01260039 0 0.008756155 -0.01217907 0 0.008756155 -0.01217907 0.045 0.009352347 -0.01172747 0 0.009352347 -0.01172747 0.045 0.009925287 -0.01124672 0.045 0.009925287 -0.01124672 0 0.01047355 -0.010738 0 0.01047355 -0.010738 0.045 0.01099578 -0.01020259 0 0.01099578 -0.01020259 0.045 0.01149067 -0.009641814 0 0.01149067 -0.009641814 0.045 0.01195699 -0.009057066 0 0.01195699 -0.009057066 0.045 0.01239358 -0.0084498 0 0.01239358 -0.0084498 0.045 0.01279936 -0.007821528 0.045 0.01279936 -0.007821528 0 0.01317332 -0.00717381 0 0.01317332 -0.00717381 0.045 0.01351453 -0.006508256 0 0.01351453 -0.006508256 0.045 0.01382214 -0.005826522 0.045 0.01382214 -0.005826522 0 0.01409539 -0.005130302 0 0.01409539 -0.005130302 0.045 0.01433359 -0.004421328 0 0.01433359 -0.004421328 0.045 0.01453616 -0.003701361 0 0.01453616 -0.003701361 0.045 0.01470259 -0.002972192 0 0.01470259 -0.002972192 0.045 0.01483246 -0.002235634 0 0.01483246 -0.002235634 0.045 0.01492546 -0.001493518 0.045 0.01492546 -0.001493518 0 0.01498135 -0.0007476883 0 0.01498135 -0.0007476883 0.045</float_array>
          <technique_common>
            <accessor count="252" source="#cubeverts-array0-array" stride="3">
              <param type="float" name="X"/>
              <param type="float" name="Y"/>
              <param type="float" name="Z"/>
            </accessor>
          </technique_common>
        </source>
        <source id="cubenormals-array0">
          <float_array count="1500" id="cubenormals-array0-array">0.9996892 0.02493077 -0 0.9996892 0.02493077 0 0.9972038 0.07472983 0 0.9972038 0.07472983 -0 0.9922392 0.124344 0 0.9848077 0.1736484 0 0.9922392 0.124344 -0 0.9848077 0.1736484 0 0.974928 0.2225204 0 0.974928 0.2225204 -0 0.9626243 0.2708403 0 0.9479272 0.318487 0 0.9626243 0.2708403 -0 0.9308739 0.3653406 0 0.9479272 0.318487 0 0.9308739 0.3653406 0 0.9115057 0.4112875 0 0.9115057 0.4112875 -0 0.8898718 0.4562107 0 0.8898718 0.4562107 -0 0.8660254 0.5000001 -0 0.8660254 0.5000001 0 0.8400258 0.5425466 -0 0.8400258 0.5425466 0 0.8119381 0.5837436 0 0.8119381 0.5837436 0 0.7818317 0.6234897 -0 0.7818317 0.6234897 0 0.7497813 0.6616858 0 0.7497813 0.6616858 -0 0.7158672 0.6982364 0 0.6801724 0.7330521 0 0.7158672 0.6982364 -0 0.6801724 0.7330521 0 0.6427878 0.7660443 0 0.6427878 0.7660443 -0 0.6038045 0.7971325 0 0.5633195 0.8262391 0 0.6038045 0.7971325 -0 0.5633195 0.8262391 0 0.5214356 0.8532906 0 0.4782534 0.8782219 0 0.5214356 0.8532906 -0 0.4338838 0.9009688 0 0.4782534 0.8782219 0 0.3884351 0.9214761 0 0.4338838 0.9009688 0 0.3884351 0.9214761 0 0.3420203 0.9396926 0 0.3420203 0.9396926 -0 0.2947547 0.9555729 0 0.2467576 0.9690773 0 0.2947547 0.9555729 -0 0.2467576 0.9690773 0 0.1981468 0.9801723 0 0.1981468 0.9801723 -0 0.1490414 0.9888309 0 0.1490414 0.9888309 -0 0.09956878 0.9950308 0 0.09956878 0.9950308 -0 0.04984497 0.998757 0 0 1 0 0.04984497 0.998757 -0 0 1 0 -0.04984497 0.998757 0 -0.04984497 0.998757 0 -0.09956878 0.9950308 0 -0.09956878 0.9950308 0 -0.1490414 0.9888309 0 -0.1490414 0.9888309 0 -0.1981468 0.9801723 0 -0.1981468 0.9801723 0 -0.2467576 0.9690773 0 -0.2467576 0.9690773 0 -0.2947547 0.9555729 0 -0.2947547 0.9555729 0 -0.3420203 0.9396926 0 -0.3420203 0.9396926 0 -0.3884351 0.9214761 0 -0.3884351 0.9214761 0 -0.4338838 0.9009688 0 -0.4338838 0.9009688 0 -0.4782534 0.8782219 0 -0.4782534 0.8782219 0 -0.5214356 0.8532906 0 -0.5214356 0.8532906 0 -0.5633195 0.8262391 0 -0.5633195 0.8262391 0 -0.6038045 0.7971325 0 -0.6038045 0.7971325 0 -0.6427878 0.7660443 0 -0.6427878 0.7660443 0 -0.6801724 0.7330521 0 -0.6801724 0.7330521 0 -0.7158672 0.6982364 0 -0.7158672 0.6982364 0 -0.7497813 0.6616858 0 -0.7497813 0.6616858 0 -0.7818317 0.6234897 0 -0.7818317 0.6234897 0 -0.8119381 0.5837436 0 -0.8119381 0.5837436 0 -0.8400258 0.5425466 0 -0.8400258 0.5425466 0 -0.8660254 0.5000001 0 -0.8660254 0.5000001 0 -0.8898718 0.4562107 0 -0.8898718 0.4562107 0 -0.9115057 0.4112875 0 -0.9115057 0.4112875 0 -0.9308739 0.3653406 0 -0.9308739 0.3653406 0 -0.9479272 0.318487 0 -0.9479272 0.318487 0 -0.9626243 0.2708403 0 -0.9626243 0.2708403 0 -0.974928 0.2225204 0 -0.974928 0.2225204 0 -0.9848077 0.1736484 0 -0.9848077 0.1736484 0 -0.9922392 0.124344 0 -0.9922392 0.124344 0 -0.9972038 0.07472983 0 -0.9972038 0.07472983 0 -0.9996892 0.02493077 0 -0.9996892 0.02493077 0 -0.9996892 -0.02493077 0 -0.9996892 -0.02493077 0 -0.9972038 -0.07472983 0 -0.9972038 -0.07472983 0 -0.9922392 -0.124344 0 -0.9922392 -0.124344 0 -0.9848077 -0.1736484 0 -0.9848077 -0.1736484 0 -0.974928 -0.2225204 0 -0.974928 -0.2225204 0 -0.9626243 -0.2708403 0 -0.9626243 -0.2708403 0 -0.9479272 -0.318487 0 -0.9479272 -0.318487 0 -0.9308739 -0.3653406 0 -0.9308739 -0.3653406 0 -0.9115057 -0.4112875 0 -0.9115057 -0.4112875 0 -0.8898718 -0.4562107 0 -0.8898718 -0.4562107 0 -0.8660254 -0.5000001 0 -0.8660254 -0.5000001 0 -0.8400258 -0.5425466 0 -0.8400258 -0.5425466 0 -0.8119381 -0.5837436 0 -0.8119381 -0.5837436 0 -0.7818317 -0.6234897 0 -0.7818317 -0.6234897 0 -0.7497813 -0.6616858 0 -0.7497813 -0.6616858 0 -0.7158672 -0.6982364 -0 -0.7158672 -0.6982364 0 -0.6801724 -0.7330521 -0 -0.6801724 -0.7330521 0 -0.6427878 -0.7660443 0 -0.6427878 -0.7660443 0 -0.6038045 -0.7971325 -0 -0.6038045 -0.7971325 0 -0.5633195 -0.8262391 0 -0.5633195 -0.8262391 0 -0.5214356 -0.8532906 0 -0.4782534 -0.8782219 -0 -0.5214356 -0.8532906 0 -0.4338838 -0.9009688 -0 -0.4782534 -0.8782219 0 -0.4338838 -0.9009688 0 -0.3884351 -0.9214761 0 -0.3884351 -0.9214761 0 -0.3420203 -0.9396926 0 -0.3420203 -0.9396926 0 -0.2947547 -0.9555729 0 -0.2947547 -0.9555729 0 -0.2467576 -0.9690773 0 -0.2467576 -0.9690773 0 -0.1981468 -0.9801723 0 -0.1981468 -0.9801723 0 -0.1490414 -0.9888309 0 -0.1490414 -0.9888309 0 -0.09956878 -0.9950308 0 -0.09956878 -0.9950308 0 -0.04984497 -0.998757 0 -0.04984497 -0.998757 0 0 -1 0 0 -1 0 0.04984497 -0.998757 0 0.04984497 -0.998757 0 0.09956878 -0.9950308 0 0.09956878 -0.9950308 0 0.1490414 -0.9888309 0 0.1490414 -0.9888309 0 0.1981468 -0.9801723 0 0.1981468 -0.9801723 0 0.2467576 -0.9690773 0 0.2467576 -0.9690773 0 0.2947547 -0.9555729 0 0.3420203 -0.9396926 0 0.2947547 -0.9555729 0 0.3420203 -0.9396926 0 0.3884351 -0.9214761 0 0.3884351 -0.9214761 0 0.4338838 -0.9009688 0 0.4782534 -0.8782219 0 0.4338838 -0.9009688 0 0.5214356 -0.8532906 0 0.4782534 -0.8782219 0 0.5214356 -0.8532906 0 0.5633195 -0.8262391 0 0.5633195 -0.8262391 0 0.6038045 -0.7971325 0 0.6427878 -0.7660443 0 0.6038045 -0.7971325 0 0.6427878 -0.7660443 0 0.6801724 -0.7330521 0 0.6801724 -0.7330521 0 0.7158672 -0.6982364 0 0.7158672 -0.6982364 0 0.7497813 -0.6616858 0 0.7497813 -0.6616858 0 0.7818317 -0.6234897 0 0.7818317 -0.6234897 0 0.8119381 -0.5837436 0 0.8119381 -0.5837436 0 0.8400258 -0.5425466 0 0.8400258 -0.5425466 0 0.8660254 -0.5000001 0 0.8660254 -0.5000001 0 0.8898718 -0.4562107 0 0.9115057 -0.4112875 0 0.8898718 -0.4562107 0 0.9115057 -0.4112875 0 0.9308739 -0.3653406 0 0.9308739 -0.3653406 0 0.9479272 -0.318487 0 0.9479272 -0.318487 0 0.9626243 -0.2708403 0 0.9626243 -0.2708403 0 0.974928 -0.2225204 0 0.974928 -0.2225204 0 0.9848077 -0.1736484 0 0.9922392 -0.124344 0 0.9848077 -0.1736484 0 0.9922392 -0.124344 0 0.9972038 -0.07472983 0 0.9996892 -0.02493077 0 0.9972038 -0.07472983 0 0.9996892 -0.02493077 0 0 0 -1 0 0 -1 0 0 -1 0 0 -1 0 0 -1 0 0 -1 0 0 -1 0 0 -1 0 0 -1 0 0 -1 0 0 -1 0 0 -1 0 0 -1 0 0 -1 0 0 -1 0 0 -1 0 0 -1 0 0 -1 0 0 -1 0 0 -1 0 0 -1 0 0 -1 0 0 -1 0 0 -1 0 0 -1 0 0 -1 0 0 -1 0 0 -1 0 0 -1 0 -0 -1 0 0 -1 0 0 -1 0 0 -1 0 -0 -1 0 0 -1 0 0 -1 0 0 -1 0 -0 -1 0 -0 -1 0 -0 -1 0 0 -1 0 0 -1 0 -0 -1 0 0 -1 0 0 -1 0 -0 -1 0 -0 -1 0 0 -1 0 0 -1 0 -0 -1 0 -0 -1 0 -0 -1 0 0 -1 0 0 -1 0 -0 -1 0 0 -1 0 -0 -1 0 -0 -1 0 0 -1 0 0 -1 0 0 -1 0 -0 -1 0 0 -1 0 0 -1 0 -0 -1 0 -0 -1 0 0 -1 0 -0 -1 0 -0 -1 0 0 -1 0 0 -1 0 0 -1 0 -0 -1 0 -0 -1 0 0 -1 0 0 -1 0 0 -1 0 -0 -1 0 -0 -1 0 -0 -1 0 -0 -1 0 0 -1 0 0 -1 0 0 -1 0 -0 -1 0 -0 -1 0 -0 -1 0 0 -1 0 0 -1 0 0 -1 -0 -0 -1 0 0 -1 -0 -0 -1 0 0 -1 0 0 -1 -0 -0 -1 -0 -0 -1 -0 -0 -1 0 0 -1 0 0 -1 0 0 -1 0 0 -1 0 0 -1 -0 -0 -1 -0 -0 -1 0 0 -1 0 0 -1 -0 -0 -1 -0 -0 -1 0 -0 -1 -0 -0 -1 -0 -0 -1 0 0 -1 0 0 -1 0 0 -1 -0 -0 -1 0 0 -1 -0 -0 -1 -0 -0 -1 0 -0 -1 0 0 -1 0 0 -1 0 -0 -1 0 0 -1 0 0 1 0 0 1 0 0 1 0 0 1 0 0 1 0 0 1 0 0 1 0 0 1 0 0 1 0 0 1 0 0 1 0 0 1 0 0 1 0 0 1 0 0 1 0 0 1 0 0 1 0 0 1 0 0 1 0 0 1 0 0 1 0 0 1 0 0 1 0 0 1 0 0 1 0 0 1 0 0 1 0 0 1 0 0 1 0 0 1 0 0 1 0 0 1 0 0 1 0 0 1 0 0 1 0 0 1 0 0 1 0 0 1 0 0 1 0 0 1 0 0 1 0 0 1 0 0 1 0 0 1 0 0 1 0 0 1 0 0 1 0 0 1 0 0 1 0 0 1 0 0 1 0 0 1 0 0 1 0 0 1 0 0 1 0 0 1 0 0 1 0 0 1 0 0 1 0 0 1 0 0 1 0 0 1 0 0 1 0 0 1 0 0 1 0 0 1 0 0 1 0 0 1 0 0 1 0 0 1 0 0 1 0 0 1 0 0 1 0 0 1 0 0 1 0 0 1 0 0 1 0 0 1 0 0 1 0 0 1 0 0 1 0 0 1 0 0 1 0 0 1 0 0 1 0 0 1 0 0 1 0 0 1 0 0 1 0 0 1 0 0 1 0 0 1 0 0 1 0 0 1 0 0 1 0 0 1 0 0 1 0 0 1 0 0 1 0 0 1 0 0 1 0 0 1 0 0 1 0 0 1 0 0 1 0 0 1 0 0 1 0 0 1 0 0 1 0 0 1 0 0 1 0 0 1 0 0 1 0 0 1 0 0 1 0 0 1 0 0 1 0 0 1 0 0 1 0 0 1 0 0 1 0 0 1 0 0 1 0 0 1</float_array>
          <technique_common>
            <accessor count="500" source="#cubenormals-array0-array" stride="3">
              <param type="float" name="X"/>
              <param type="float" name="Y"/>
              <param type="float" name="Z"/>
            </accessor>
          </technique_common>
        </source>
        <vertices id="cubeverts-array0-vertices">
          <input semantic="POSITION" source="#cubeverts-array0"/>
        </vertices>
        <triangles count="500" material="ref_Body001">
          <input offset="0" semantic="VERTEX" source="#cubeverts-array0-vertices"/>
          <input offset="1" semantic="NORMAL" source="#cubenormals-array0"/>
          <p>0 0 1 0 2 0 2 1 1 1 3 1 3 2 4 2 5 2 1 3 4 3 3 3 5 4 6 4 7 4 7 5 6 5 8 5 4 6 6 6 5 6 6 7 9 7 8 7 8 8 10 8 11 8 9 9 10 9 8 9 11 10 12 10 13 10 13 11 12 11 14 11 10 12 12 12 11 12 14 13 15 13 16 13 12 14 15 14 14 14 15 15 17 15 16 15 16 16 18 16 19 16 17 17 18 17 16 17 19 18 20 18 21 18 18 19 20 19 19 19 20 20 22 20 21 20 21 21 22 21 23 21 22 22 24 22 23 22 23 23 24 23 25 23 25 24 24 24 26 24 24 25 27 25 26 25 27 26 28 26 26 26 26 27 28 27 29 27 29 28 30 28 31 28 28 29 30 29 29 29 31 30 32 30 33 30 33 31 32 31 34 31 30 32 32 32 31 32 32 33 35 33 34 33 34 34 36 34 37 34 35 35 36 35 34 35 37 36 38 36 39 36 39 37 38 37 40 37 36 38 38 38 37 38 38 39 41 39 40 39 40 40 42 40 43 40 43 41 42 41 44 41 41 42 42 42 40 42 44 43 45 43 46 43 42 44 45 44 44 44 46 45 47 45 48 45 45 46 47 46 46 46 47 47 49 47 48 47 48 48 50 48 51 48 49 49 50 49 48 49 51 50 52 50 53 50 53 51 52 51 54 51 50 52 52 52 51 52 52 53 55 53 54 53 54 54 56 54 57 54 55 55 56 55 54 55 57 56 58 56 59 56 56 57 58 57 57 57 59 58 60 58 61 58 58 59 60 59 59 59 61 60 62 60 63 60 63 61 62 61 64 61 60 62 62 62 61 62 62 63 65 63 64 63 64 64 66 64 67 64 65 65 66 65 64 65 67 66 68 66 69 66 66 67 68 67 67 67 69 68 70 68 71 68 68 69 70 69 69 69 71 70 72 70 73 70 70 71 72 71 71 71 73 72 74 72 75 72 72 73 74 73 73 73 74 74 76 74 75 74 75 75 76 75 77 75 76 76 78 76 77 76 77 77 78 77 79 77 79 78 78 78 80 78 78 79 81 79 80 79 81 80 82 80 80 80 80 81 82 81 83 81 82 82 84 82 83 82 83 83 84 83 85 83 84 84 86 84 85 84 85 85 86 85 87 85 86 86 88 86 87 86 87 87 88 87 89 87 88 88 90 88 89 88 89 89 90 89 91 89 91 90 90 90 92 90 90 91 93 91 92 91 92 92 93 92 94 92 93 93 95 93 94 93 94 94 96 94 97 94 95 95 96 95 94 95 97 96 98 96 99 96 96 97 98 97 97 97 99 98 100 98 101 98 98 99 100 99 99 99 101 100 102 100 103 100 100 101 102 101 101 101 103 102 104 102 105 102 102 103 104 103 103 103 105 104 106 104 107 104 104 105 106 105 105 105 107 106 108 106 109 106 106 107 108 107 107 107 109 108 110 108 111 108 108 109 110 109 109 109 111 110 112 110 113 110 110 111 112 111 111 111 113 112 114 112 115 112 112 113 114 113 113 113 115 114 116 114 117 114 114 115 116 115 115 115 117 116 118 116 119 116 116 117 118 117 117 117 119 118 120 118 121 118 118 119 120 119 119 119 121 120 122 120 123 120 120 121 122 121 121 121 122 122 124 122 123 122 123 123 124 123 125 123 124 124 126 124 125 124 125 125 126 125 127 125 126 126 128 126 127 126 127 127 128 127 129 127 128 128 130 128 129 128 129 129 130 129 131 129 130 130 132 130 131 130 131 131 132 131 133 131 132 132 134 132 133 132 133 133 134 133 135 133 134 134 136 134 135 134 135 135 136 135 137 135 136 136 138 136 137 136 137 137 138 137 139 137 138 138 140 138 139 138 139 139 140 139 141 139 140 140 142 140 141 140 141 141 142 141 143 141 142 142 144 142 143 142 143 143 144 143 145 143 144 144 146 144 145 144 145 145 146 145 147 145 146 146 148 146 147 146 147 147 148 147 149 147 148 148 150 148 149 148 149 149 150 149 151 149 150 150 152 150 151 150 151 151 152 151 153 151 152 152 154 152 153 152 153 153 154 153 155 153 154 154 156 154 155 154 155 155 156 155 157 155 157 156 156 156 158 156 156 157 159 157 158 157 158 158 159 158 160 158 159 159 161 159 160 159 161 160 162 160 160 160 160 161 162 161 163 161 163 162 162 162 164 162 162 163 165 163 164 163 164 164 166 164 167 164 165 165 166 165 164 165 167 166 168 166 169 166 169 167 168 167 170 167 166 168 168 168 167 168 170 169 171 169 172 169 168 170 171 170 170 170 171 171 173 171 172 171 172 172 174 172 175 172 173 173 174 173 172 173 174 174 176 174 175 174 175 175 176 175 177 175 176 176 178 176 177 176 177 177 178 177 179 177 178 178 180 178 179 178 179 179 180 179 181 179 180 180 182 180 181 180 181 181 182 181 183 181 182 182 184 182 183 182 183 183 184 183 185 183 184 184 186 184 185 184 185 185 186 185 187 185 186 186 188 186 187 186 187 187 188 187 189 187 188 188 190 188 189 188 189 189 190 189 191 189 191 190 190 190 192 190 190 191 193 191 192 191 193 192 194 192 192 192 192 193 194 193 195 193 194 194 196 194 195 194 195 195 196 195 197 195 196 196 198 196 197 196 197 197 198 197 199 197 199 198 200 198 201 198 198 199 200 199 199 199 201 200 202 200 203 200 203 201 202 201 204 201 200 202 202 202 201 202 202 203 205 203 204 203 204 204 206 204 207 204 205 205 206 205 204 205 207 206 208 206 209 206 209 207 208 207 210 207 206 208 208 208 207 208 210 209 211 209 212 209 208 210 211 210 210 210 211 211 213 211 212 211 212 212 214 212 215 212 213 213 214 213 212 213 215 214 216 214 217 214 217 215 216 215 218 215 214 216 216 216 215 216 216 217 219 217 218 217 218 218 220 218 221 218 219 219 220 219 218 219 221 220 222 220 223 220 220 221 222 221 221 221 222 222 224 222 223 222 223 223 224 223 225 223 224 224 226 224 225 224 225 225 226 225 227 225 226 226 228 226 227 226 227 227 228 227 229 227 229 228 228 228 230 228 228 229 231 229 230 229 231 230 232 230 230 230 230 231 232 231 233 231 233 232 234 232 235 232 235 233 234 233 236 233 232 234 234 234 233 234 234 235 237 235 236 235 236 236 238 236 239 236 237 237 238 237 236 237 239 238 240 238 241 238 238 239 240 239 239 239 241 240 242 240 243 240 240 241 242 241 241 241 243 242 244 242 245 242 242 243 244 243 243 243 245 244 246 244 247 244 247 245 246 245 248 245 244 246 246 246 245 246 246 247 249 247 248 247 248 248 250 248 251 248 251 249 250 249 2 249 249 250 250 250 248 250 250 251 0 251 2 251 156 252 162 252 159 252 159 253 162 253 161 253 156 254 165 254 162 254 156 255 166 255 165 255 146 256 144 256 148 256 156 257 142 257 166 257 144 258 142 258 148 258 148 259 142 259 150 259 150 260 142 260 152 260 152 261 142 261 154 261 154 262 142 262 156 262 166 263 142 263 168 263 140 264 138 264 142 264 142 265 180 265 168 265 138 266 180 266 142 266 168 267 180 267 171 267 171 268 180 268 173 268 173 269 180 269 174 269 174 270 180 270 176 270 176 271 180 271 178 271 134 272 132 272 136 272 136 273 132 273 138 273 138 274 184 274 180 274 180 275 184 275 182 275 138 276 188 276 184 276 184 277 188 277 186 277 128 278 126 278 130 278 130 279 126 279 132 279 132 280 126 280 138 280 124 281 122 281 126 281 138 282 194 282 188 282 188 283 194 283 190 283 190 284 194 284 193 284 122 285 120 285 126 285 194 286 200 286 196 286 138 287 200 287 194 287 196 288 200 288 198 288 120 289 114 289 126 289 116 290 114 290 118 290 118 291 114 291 120 291 126 292 114 292 138 292 138 293 202 293 200 293 112 294 110 294 114 294 138 295 206 295 202 295 202 296 206 296 205 296 110 297 108 297 114 297 108 298 106 298 114 298 206 299 213 299 208 299 208 300 213 300 211 300 104 301 102 301 106 301 106 302 100 302 114 302 102 303 100 303 106 303 213 304 216 304 214 304 206 305 216 305 213 305 100 306 98 306 114 306 206 307 219 307 216 307 98 308 95 308 114 308 96 309 95 309 98 309 219 310 222 310 220 310 206 311 222 311 219 311 206 312 224 312 222 312 93 313 90 313 95 313 224 314 228 314 226 314 206 315 228 315 224 315 88 316 86 316 90 316 90 317 86 317 95 317 206 318 231 318 228 318 95 319 84 319 114 319 86 320 84 320 95 320 231 321 234 321 232 321 138 322 234 322 206 322 206 323 234 323 231 323 78 324 76 324 81 324 81 325 76 325 82 325 234 326 240 326 237 326 237 327 240 327 238 327 138 328 240 328 234 328 82 329 74 329 84 329 84 330 74 330 114 330 76 331 74 331 82 331 72 332 70 332 74 332 242 333 246 333 244 333 246 334 250 334 249 334 242 335 250 335 246 335 66 336 65 336 68 336 68 337 65 337 70 337 70 338 65 338 74 338 242 339 0 339 250 339 242 340 1 340 0 340 240 341 1 341 242 341 62 342 60 342 65 342 240 343 4 343 1 343 60 344 58 344 65 344 4 345 9 345 6 345 240 346 9 346 4 346 58 347 52 347 65 347 55 348 52 348 56 348 56 349 52 349 58 349 9 350 12 350 10 350 240 351 12 351 9 351 240 352 15 352 12 352 138 353 15 353 240 353 114 354 15 354 138 354 50 355 49 355 52 355 52 356 49 356 65 356 15 357 18 357 17 357 114 358 18 358 15 358 45 359 42 359 47 359 47 360 42 360 49 360 65 361 41 361 74 361 49 362 41 362 65 362 42 363 41 363 49 363 18 364 24 364 20 364 20 365 24 365 22 365 18 366 27 366 24 366 38 367 36 367 41 367 18 368 28 368 27 368 41 369 35 369 74 369 36 370 35 370 41 370 74 371 35 371 114 371 18 372 30 372 28 372 18 373 32 373 30 373 35 374 32 374 114 374 114 375 32 375 18 375 163 376 157 376 158 376 163 377 158 377 160 377 164 378 157 378 163 378 167 379 157 379 164 379 145 380 147 380 149 380 143 381 157 381 167 381 143 382 145 382 149 382 143 383 149 383 151 383 143 384 151 384 153 384 143 385 153 385 155 385 143 386 155 386 157 386 143 387 167 387 169 387 139 388 141 388 143 388 181 389 143 389 169 389 181 390 139 390 143 390 181 391 169 391 170 391 181 392 170 392 172 392 181 393 172 393 175 393 181 394 175 394 177 394 181 395 177 395 179 395 133 396 135 396 137 396 133 397 137 397 139 397 185 398 139 398 181 398 185 399 181 399 183 399 189 400 139 400 185 400 189 401 185 401 187 401 127 402 129 402 131 402 127 403 131 403 133 403 127 404 133 404 139 404 123 405 125 405 127 405 195 406 139 406 189 406 195 407 189 407 191 407 195 408 191 408 192 408 121 409 123 409 127 409 201 410 195 410 197 410 201 411 139 411 195 411 201 412 197 412 199 412 115 413 121 413 127 413 115 414 117 414 119 414 115 415 119 415 121 415 115 416 127 416 139 416 203 417 139 417 201 417 111 418 113 418 115 418 207 419 139 419 203 419 207 420 203 420 204 420 109 421 111 421 115 421 107 422 109 422 115 422 212 423 207 423 209 423 212 424 209 424 210 424 103 425 105 425 107 425 101 426 107 426 115 426 101 427 103 427 107 427 217 428 212 428 215 428 217 429 207 429 212 429 99 430 101 430 115 430 218 431 207 431 217 431 94 432 99 432 115 432 94 433 97 433 99 433 223 434 218 434 221 434 223 435 207 435 218 435 225 436 207 436 223 436 91 437 92 437 94 437 229 438 225 438 227 438 229 439 207 439 225 439 87 440 89 440 91 440 87 441 91 441 94 441 230 442 207 442 229 442 85 443 94 443 115 443 85 444 87 444 94 444 235 445 230 445 233 445 235 446 139 446 207 446 235 447 207 447 230 447 77 448 79 448 80 448 77 449 80 449 83 449 241 450 235 450 236 450 241 451 236 451 239 451 241 452 139 452 235 452 75 453 83 453 85 453 75 454 85 454 115 454 75 455 77 455 83 455 71 456 73 456 75 456 247 457 243 457 245 457 251 458 247 458 248 458 251 459 243 459 247 459 64 460 67 460 69 460 64 461 69 461 71 461 64 462 71 462 75 462 2 463 243 463 251 463 3 464 243 464 2 464 3 465 241 465 243 465 61 466 63 466 64 466 5 467 241 467 3 467 59 468 61 468 64 468 8 469 5 469 7 469 8 470 241 470 5 470 53 471 59 471 64 471 53 472 54 472 57 472 53 473 57 473 59 473 13 474 8 474 11 474 13 475 241 475 8 475 14 476 241 476 13 476 14 477 139 477 241 477 14 478 115 478 139 478 48 479 51 479 53 479 48 480 53 480 64 480 19 481 14 481 16 481 19 482 115 482 14 482 43 483 44 483 46 483 43 484 46 484 48 484 40 485 64 485 75 485 40 486 48 486 64 486 40 487 43 487 48 487 25 488 19 488 21 488 25 489 21 489 23 489 26 490 19 490 25 490 37 491 39 491 40 491 29 492 19 492 26 492 34 493 40 493 75 493 34 494 37 494 40 494 34 495 75 495 115 495 31 496 19 496 29 496 33 497 19 497 31 497 33 498 34 498 115 498 33 499 115 499 19 499</p>
        </triangles>
      </mesh>
    </geometry>
  </library_geometries>
  <library_materials>
    <material id="mat_Body001" name="Body001">
      <instance_effect url="#effect_Body001"/>
    </material>
  </library_materials>
  <library_visual_scenes>
    <visual_scene id="myscene">
      <node id="node0" name="node0">
        <instance_geometry url="#geometry0">
          <bind_material>
            <technique_common>
              <instance_material symbol="ref_Body001" target="#mat_Body001"/>
            </technique_common>
          </bind_material>
        </instance_geometry>
      </node>
    </visual_scene>
  </library_visual_scenes>
  <scene>
    <instance_visual_scene url="#myscene"/>
  </scene>
</COLLADA>
