<COLLADA xmlns="http://www.collada.org/2005/11/COLLADASchema" version="1.4.1">
  <asset>
    <contributor/>
    <created>2026-03-03T03:42:19.343815</created>
    <modified>2026-03-03T03:42:19.343828</modified>
    <unit name="meter" meter="1.0"/>
    <up_axis>Z_UP</up_axis>
  </asset>
  <library_effects>
    <effect id="effect_Body" name="effect_Body">
      <profile_COMMON>
        <technique sid="common">
          <phong>
            <emission>
              <color>0.0 0.0 0.0 1.0</color>
            </emission>
            <ambient>
              <color>0.0 0.0 0.0 1.0</color>
            </ambient>
            <diffuse>
              <color>0.4470588266849518 0.4745098054409027 0.501960813999176 1.0</color>
            </diffuse>
            <specular>
              <color>1 1 1 1.0</color>
            </specular>
            <shininess>
              <float>0.0</float>
            </shininess>
            <reflective>
              <color>0.0 0.0 0.0 1.0</color>
            </reflective>
            <reflectivity>
              <float>0.0</float>
            </reflectivity>
            <transparent>
              <color>0.0 0.0 0.0 1.0</color>
            </transparent>
            <transparency>
              <float>1.0</float>
            </transparency>
          </phong>
        </technique>
        <extra>
          <technique profile="GOOGLEEARTH">
            <double_sided>0</double_sided>
          </technique>
        </extra>
      </profile_COMMON>
    </effect>
  </library_effects>
  <library_geometries>
    <geometry id="geometry0" name="Body">
      <mesh>
        <source id="cubeverts-array0">
          <float_array count="786" id="cubeverts-array0-array">-0.01358203 0.006366197 0.1 -0.0138789 0.005689995 0.1 -0.01414214 0.005 0.1 -0.01325223 0.007026968 0.1 -0.01289032 0.007670707 0.1 -0.0120737 0.008900888 0.1 -0.01249715 0.008295852 0.1 -0.01063219 0.01058095 0.1 -0.01114009 0.01004482 0.1 -0.01162098 0.00948435 0.1 -0.01009853 0.01109142 0.1 -0.0077329 0.0128531 0.1 -0.008356138 0.01245692 0.1 -0.008959122 0.01203055 0.1 -0.009540389 0.01157502 0.1 -0.006431747 0.01355111 0.1 -0.007090918 0.01321813 0.1 -0.005756987 0.01385125 0.1 -0.00293524 0.01471001 0.1 -0.003655687 0.01454771 0.1 -0.004367272 0.01435015 0.1 -0.005068272 0.01411781 0.1 -0.002207678 0.01483665 0.1 -0.0007382773 0.01498182 0.1 -0.001474765 0.01492733 0.1 0.001474765 0.01492733 0.1 0.0007382773 0.01498182 0.1 9.750789e-17 0.015 0.1 0.002207678 0.01483665 0.1 0.00293524 0.01471001 0.1 0.005068272 0.01411781 0.1 0.004367272 0.01435015 0.1 0.003655687 0.01454771 0.1 0.0138789 0.005689995 0.1 0.01414214 0.005 0.1 0.01358203 0.006366197 0.1 0.006431747 0.01355111 0.1 0.005756987 0.01385125 0.1 0.0077329 0.0128531 0.1 0.007090918 0.01321813 0.1 0.01249715 0.008295852 0.1 0.01325223 0.007026968 0.1 0.01289032 0.007670707 0.1 0.008356138 0.01245692 0.1 0.0120737 0.008900888 0.1 0.01009853 0.01109142 0.1 0.009540389 0.01157502 0.1 0.008959122 0.01203055 0.1 0.01063219 0.01058095 0.1 0.01162098 0.00948435 0.1 0.01114009 0.01004482 0.1 0.05 0.005 0.1 0.05 0.005 0.2 -0.05 0.005 0.2 -0.05 0.005 0.1 0.015 0 0.1 0.015 0 0 0.01498233 0.0007279359 0.1 0.01498135 0.0007476883 0 0.01492935 0.001454157 0.1 0.01492546 0.001493518 0 0.01484119 0.00217695 0.1 0.01483246 0.002235634 0 0.01471806 0.002894614 0.1 0.01470259 0.002972192 0 0.01456024 0.003605457 0.1 0.01453616 0.003701361 0 0.01436812 0.004307804 0.1 0.01433359 0.004421328 0 0.01409539 0.005130302 0 0.01382214 0.005826522 0 0.01351453 0.006508256 0 0.01317332 0.00717381 0 0.01279936 0.007821528 0 0.01239358 0.0084498 0 0.01195699 0.009057066 0 0.01149067 0.009641814 0 0.01099578 0.01020259 0 0.01047355 0.010738 0 0.009925287 0.01124672 0 0.009352347 0.01172747 0 0.008756155 0.01217907 0 0.008138194 0.01260039 0 0.0075 0.01299038 0 0.00684316 0.01334808 0 0.006169307 0.01367259 0 0.005480115 0.01396311 0 0.0047773 0.01421891 0 0.004062607 0.01443936 0 0.003337814 0.01462392 0 0.002604723 0.01477212 0 0.001865156 0.01488359 0 0.001120951 0.01495806 0 0.0003739604 0.01499534 0 -0.0003739604 0.01499534 0 -0.001120951 0.01495806 0 -0.001865156 0.01488359 0 -0.002604723 0.01477212 0 -0.003337814 0.01462392 0 -0.004062607 0.01443936 0 -0.0047773 0.01421891 0 -0.005480115 0.01396311 0 -0.006169307 0.01367259 0 -0.00684316 0.01334808 0 -0.0075 0.01299038 0 -0.008138194 0.01260039 0 -0.008756155 0.01217907 0 -0.009352347 0.01172747 0 -0.009925287 0.01124672 0 -0.01047355 0.010738 0 -0.01099578 0.01020259 0 -0.01149067 0.009641814 0 -0.01195699 0.009057066 0 -0.01239358 0.0084498 0 -0.01279936 0.007821528 0 -0.01317332 0.00717381 0 -0.01351453 0.006508256 0 -0.01382214 0.005826522 0 -0.01409539 0.005130302 0 -0.01433359 0.004421328 0 -0.01436812 0.004307804 0.1 -0.01453616 0.003701361 0 -0.01456024 0.003605457 0.1 -0.01470259 0.002972192 0 -0.01471806 0.002894614 0.1 -0.01483246 0.002235634 0 -0.01484119 0.00217695 0.1 -0.01492546 0.001493518 0 -0.01492935 0.001454157 0.1 -0.01498135 0.0007476883 0 -0.01498233 0.0007279359 0.1 -0.015 -5.145373e-17 0 -0.015 -2.480838e-17 0.1 -0.01498233 -0.0007279359 0.1 -0.01498135 -0.0007476883 0 -0.01492935 -0.001454157 0.1 -0.01492546 -0.001493518 0 -0.01484119 -0.00217695 0.1 -0.01483246 -0.002235634 0 -0.01471806 -0.002894614 0.1 -0.01470259 -0.002972192 0 -0.01456024 -0.003605457 0.1 -0.01453616 -0.003701361 0 -0.01436812 -0.004307804 0.1 -0.01433359 -0.004421328 0 -0.01414214 -0.005 0.1 -0.01409539 -0.005130302 0 -0.0138789 -0.005689995 0.1 -0.01382214 -0.005826522 0 -0.01358203 -0.006366197 0.1 -0.01351453 -0.006508256 0 -0.01325223 -0.007026968 0.1 -0.01317332 -0.00717381 0 -0.01289032 -0.007670707 0.1 -0.01279936 -0.007821528 0 -0.01249715 -0.008295852 0.1 -0.01239358 -0.0084498 0 -0.0120737 -0.008900888 0.1 -0.01195699 -0.009057066 0 -0.01162098 -0.00948435 0.1 -0.01149067 -0.009641814 0 -0.01114009 -0.01004482 0.1 -0.01099578 -0.01020259 0 -0.01063219 -0.01058095 0.1 -0.01047355 -0.010738 0 -0.01009853 -0.01109142 0.1 -0.009925287 -0.01124672 0 -0.009540389 -0.01157502 0.1 -0.009352347 -0.01172747 0 -0.008959122 -0.01203055 0.1 -0.008756155 -0.01217907 0 -0.008356138 -0.01245692 0.1 -0.008138194 -0.01260039 0 -0.0077329 -0.0128531 0.1 -0.0075 -0.01299038 0 -0.007090918 -0.01321813 0.1 -0.00684316 -0.01334808 0 -0.006431747 -0.01355111 0.1 -0.006169307 -0.01367259 0 -0.005756987 -0.01385125 0.1 -0.005480115 -0.01396311 0 -0.005068272 -0.01411781 0.1 -0.0047773 -0.01421891 0 -0.004367272 -0.01435015 0.1 -0.004062607 -0.01443936 0 -0.003655687 -0.01454771 0.1 -0.003337814 -0.01462392 0 -0.00293524 -0.01471001 0.1 -0.002604723 -0.01477212 0 -0.002207678 -0.01483665 0.1 -0.001865156 -0.01488359 0 -0.001474765 -0.01492733 0.1 -0.001120951 -0.01495806 0 -0.0007382773 -0.01498182 0.1 -0.0003739604 -0.01499534 0 5.053525e-17 -0.015 0.1 0.0003739604 -0.01499534 0 0.0007382773 -0.01498182 0.1 0.001120951 -0.01495806 0 0.001474765 -0.01492733 0.1 0.001865156 -0.01488359 0 0.002207678 -0.01483665 0.1 0.002604723 -0.01477212 0 0.00293524 -0.01471001 0.1 0.003337814 -0.01462392 0 0.003655687 -0.01454771 0.1 0.004062607 -0.01443936 0 0.004367272 -0.01435015 0.1 0.0047773 -0.01421891 0 0.005068272 -0.01411781 0.1 0.005480115 -0.01396311 0 0.005756987 -0.01385125 0.1 0.006169307 -0.01367259 0 0.006431747 -0.01355111 0.1 0.00684316 -0.01334808 0 0.007090918 -0.01321813 0.1 0.0075 -0.01299038 0 0.0077329 -0.0128531 0.1 0.008138194 -0.01260039 0 0.008356138 -0.01245692 0.1 0.008756155 -0.01217907 0 0.008959122 -0.01203055 0.1 0.009352347 -0.01172747 0 0.009540389 -0.01157502 0.1 0.009925287 -0.01124672 0 0.01009853 -0.01109142 0.1 0.01047355 -0.010738 0 0.01063219 -0.01058095 0.1 0.01099578 -0.01020259 0 0.01114009 -0.01004482 0.1 0.01149067 -0.009641814 0 0.01162098 -0.00948435 0.1 0.01195699 -0.009057066 0 0.0120737 -0.008900888 0.1 0.01239358 -0.0084498 0 0.01249715 -0.008295852 0.1 0.01279936 -0.007821528 0 0.01289032 -0.007670707 0.1 0.01317332 -0.00717381 0 0.01325223 -0.007026968 0.1 0.01351453 -0.006508256 0 0.01358203 -0.006366197 0.1 0.01382214 -0.005826522 0 0.0138789 -0.005689995 0.1 0.01409539 -0.005130302 0 0.01414214 -0.005 0.1 0.01433359 -0.004421328 0 0.01436812 -0.004307804 0.1 0.01453616 -0.003701361 0 0.01456024 -0.003605457 0.1 0.01470259 -0.002972192 0 0.01471806 -0.002894614 0.1 0.01483246 -0.002235634 0 0.01484119 -0.00217695 0.1 0.01492546 -0.001493518 0 0.01492935 -0.001454157 0.1 0.01498135 -0.0007476883 0 0.01498233 -0.0007279359 0.1 0.05 -0.005 0.1 0.05 -0.005 0.2 -0.05 -0.005 0.1 -0.05 -0.005 0.2</float_array>
          <technique_common>
            <accessor count="262" source="#cubeverts-array0-array" stride="3">
              <param type="float" name="X"/>
              <param type="float" name="Y"/>
              <param type="float" name="Z"/>
            </accessor>
          </technique_common>
        </source>
        <source id="cubenormals-array0">
          <float_array count="1560" id="cubenormals-array0-array">0 0 1 0 0 1 0 0 1 0 0 1 0 0 1 0 0 1 0 0 1 0 0 1 0 0 1 0 0 1 0 0 1 0 0 1 0 0 1 0 0 1 0 0 1 0 0 1 0 0 1 0 0 1 0 0 1 0 0 1 0 0 1 0 0 1 0 0 1 0 0 1 0 0 1 0 0 1 0 0 1 0 0 1 0 0 1 0 0 1 0 0 1 0 0 1 0 0 1 0 0 1 0 0 1 0 0 1 0 0 1 0 0 1 0 0 1 0 0 1 0 0 1 0 0 1 0 0 1 0 0 1 0 0 1 0 0 1 0 0 1 0 0 1 0 0 1 0 1 -0 0 1 0 0 1 -0 0 1 0 0.9997054 0.02427176 0 0.9973496 0.07275765 4.669673e-06 0.9996892 0.02493077 -4.800032e-06 0.9926435 0.1210733 9.079595e-06 0.9972039 0.07472983 -9.338967e-06 0.9855988 0.1691008 1.322997e-05 0.9922392 0.124344 -1.361439e-05 0.9762306 0.216734 1.710921e-05 0.9848077 0.1736484 -1.764252e-05 0.964563 0.2638526 2.074725e-05 0.974928 0.2225204 -2.138802e-05 0.9506218 0.3103515 2.41114e-05 0.9626243 0.2708403 -2.488708e-05 0.9343178 0.3564412 2.769125e-05 0.9479272 0.318487 -2.812574e-05 0.9156417 0.4019955 2.911589e-05 0.9308739 0.3653406 -2.957377e-05 0.894747 0.4465735 3.047607e-05 0.9115057 0.4112875 -3.096223e-05 0.8716822 0.4900716 3.177469e-05 0.8898718 0.4562106 -3.230069e-05 0.8660254 0.5000001 -3.356862e-05 0.8465057 0.5323797 3.302027e-05 0.8400257 0.5425466 -3.478675e-05 0.8192768 0.5733983 3.419928e-05 0.8119381 0.5837436 -3.59421e-05 0.7900617 0.6130273 3.532466e-05 0.7589324 0.6511693 3.639217e-05 0.7818316 0.6234896 -3.70333e-05 0.7259626 0.6877343 3.739671e-05 0.7497812 0.6616858 -3.807213e-05 0.6912333 0.7226316 3.835014e-05 0.7158673 0.6982365 -3.90438e-05 0.6801724 0.7330521 -3.995863e-05 0.6548294 0.7557768 3.923673e-05 0.6168372 0.7870908 4.00657e-05 0.6427878 0.7660443 -4.0819e-05 0.5773509 0.8164961 4.083385e-05 0.6038044 0.7971325 -4.161687e-05 0.5364637 0.8439234 4.153572e-05 0.5633195 0.8262391 -4.236545e-05 0.4942766 0.8693047 4.219204e-05 0.5214356 0.8532906 -4.304479e-05 0.4508918 0.8925787 4.278212e-05 0.4782534 0.8782219 -4.366483e-05 0.4064144 0.9136889 4.331752e-05 0.4338838 0.9009688 -4.42253e-05 0.3609518 0.9325845 4.379157e-05 0.3884351 0.9214762 -4.472743e-05 0.3146128 0.9492201 4.420727e-05 0.3420203 0.9396926 -4.517313e-05 0.2675139 0.963554 4.455939e-05 0.2947547 0.955573 -4.555376e-05 0.2197645 0.975553 4.485168e-05 0.2467576 0.9690773 -4.588681e-05 0.1714817 0.9851873 4.509497e-05 0.1981468 0.9801723 -4.615251e-05 0.1227855 0.9924332 4.526911e-05 0.1490414 0.9888309 -4.635415e-05 0.07378989 0.9972738 4.539562e-05 0.09956878 0.9950307 -4.650297e-05 0.02461729 0.9996969 4.544789e-05 0.04984497 0.998757 -4.658785e-05 -0.02461729 0.9996969 4.544789e-05 0 1 -4.662514e-05 -0.07378989 0.9972738 4.539562e-05 -0.04984497 0.998757 -4.658785e-05 -0.1227855 0.9924332 4.526914e-05 -0.09956878 0.9950307 -4.650294e-05 -0.1714817 0.9851873 4.509497e-05 -0.1490414 0.9888309 -4.63541e-05 -0.1981468 0.9801723 -4.615251e-05 -0.2197645 0.975553 4.485168e-05 -0.2467576 0.9690773 -4.588681e-05 -0.2675139 0.963554 4.455945e-05 -0.2947547 0.955573 -4.555386e-05 -0.3146128 0.9492201 4.420727e-05 -0.3420203 0.9396926 -4.517313e-05 -0.3609518 0.9325845 4.379157e-05 -0.3884351 0.9214762 -4.472733e-05 -0.4064144 0.9136889 4.331761e-05 -0.4338838 0.9009688 -4.42253e-05 -0.4508918 0.8925787 4.278212e-05 -0.4782534 0.8782219 -4.366493e-05 -0.4942766 0.8693047 4.219214e-05 -0.5214356 0.8532906 -4.304489e-05 -0.5364637 0.8439234 4.153572e-05 -0.5633195 0.8262391 -4.236545e-05 -0.5773509 0.8164961 4.083375e-05 -0.6038044 0.7971325 -4.161687e-05 -0.6168372 0.7870908 4.006581e-05 -0.6427878 0.7660443 -4.08191e-05 -0.6548294 0.7557768 3.923673e-05 -0.6801724 0.7330521 -3.995873e-05 -0.6912333 0.7226316 3.835014e-05 -0.7259626 0.6877343 3.739671e-05 -0.7158673 0.6982365 -3.90436e-05 -0.7589324 0.6511693 3.639227e-05 -0.7497812 0.6616858 -3.807213e-05 -0.7900617 0.6130273 3.532446e-05 -0.7818316 0.6234896 -3.70333e-05 -0.8192768 0.5733983 3.419918e-05 -0.8119381 0.5837436 -3.59421e-05 -0.8465057 0.5323797 3.302022e-05 -0.8400257 0.5425466 -3.47867e-05 -0.8716822 0.4900716 3.177463e-05 -0.8660254 0.5000001 -3.356877e-05 -0.894747 0.4465735 3.047622e-05 -0.8898718 0.4562106 -3.230069e-05 -0.9156417 0.4019955 2.911584e-05 -0.9115057 0.4112875 -3.096228e-05 -0.9343178 0.3564412 2.76913e-05 -0.9308739 0.3653406 -2.957372e-05 -0.9506218 0.3103515 2.411135e-05 -0.9479272 0.318487 -2.812564e-05 -0.964563 0.2638526 2.074722e-05 -0.9626243 0.2708403 -2.488705e-05 -0.9762306 0.216734 1.710926e-05 -0.974928 0.2225204 -2.13881e-05 -0.9855988 0.1691008 1.322993e-05 -0.9848077 0.1736484 -1.764252e-05 -0.9922392 0.124344 -1.361441e-05 -0.9926435 0.1210733 9.079592e-06 -0.9972039 0.07472983 -9.33898e-06 -0.9973496 0.07275765 4.669669e-06 -0.9996892 0.02493077 -4.800034e-06 -0.9997054 0.02427176 0 -0.9997054 -0.02427176 6.467295e-18 -0.9996892 -0.02493077 -4.800032e-06 -0.9973496 -0.07275765 4.669673e-06 -0.9972039 -0.07472983 -9.338967e-06 -0.9926435 -0.1210733 9.079595e-06 -0.9922392 -0.124344 -1.361439e-05 -0.9855988 -0.1691008 1.322997e-05 -0.9848077 -0.1736484 -1.764252e-05 -0.9762306 -0.216734 1.710921e-05 -0.974928 -0.2225204 -2.138802e-05 -0.964563 -0.2638526 2.074725e-05 -0.9626243 -0.2708403 -2.488708e-05 -0.9506218 -0.3103515 2.41114e-05 -0.9479272 -0.318487 -2.812574e-05 -0.9343178 -0.3564412 2.769125e-05 -0.9308739 -0.3653406 -2.957377e-05 -0.9156417 -0.4019955 2.911589e-05 -0.9115057 -0.4112875 -3.096223e-05 -0.894747 -0.4465735 3.047607e-05 -0.8898718 -0.4562106 -3.230069e-05 -0.8716822 -0.4900716 3.177469e-05 -0.8660254 -0.5000001 -3.356862e-05 -0.8465057 -0.5323797 3.302027e-05 -0.8400257 -0.5425466 -3.478675e-05 -0.8192768 -0.5733983 3.419928e-05 -0.8119381 -0.5837436 -3.59421e-05 -0.7900617 -0.6130273 3.532466e-05 -0.7818316 -0.6234896 -3.70333e-05 -0.7589324 -0.6511693 3.639217e-05 -0.7497812 -0.6616858 -3.807213e-05 -0.7259626 -0.6877343 3.739671e-05 -0.7158673 -0.6982365 -3.90438e-05 -0.6912333 -0.7226316 3.835014e-05 -0.6801724 -0.7330521 -3.995863e-05 -0.6548294 -0.7557768 3.923673e-05 -0.6168372 -0.7870908 4.00657e-05 -0.6427878 -0.7660443 -4.0819e-05 -0.5773509 -0.8164961 4.083385e-05 -0.6038044 -0.7971325 -4.161687e-05 -0.5364637 -0.8439234 4.153572e-05 -0.5633195 -0.8262391 -4.236545e-05 -0.4942766 -0.8693047 4.219204e-05 -0.5214356 -0.8532906 -4.304479e-05 -0.4508918 -0.8925787 4.278212e-05 -0.4782534 -0.8782219 -4.366483e-05 -0.4338838 -0.9009688 -4.42253e-05 -0.4064144 -0.9136889 4.331752e-05 -0.3884351 -0.9214762 -4.472743e-05 -0.3609518 -0.9325845 4.379157e-05 -0.3420203 -0.9396926 -4.517313e-05 -0.3146128 -0.9492201 4.420727e-05 -0.2947547 -0.955573 -4.555376e-05 -0.2675139 -0.963554 4.455939e-05 -0.2467576 -0.9690773 -4.588681e-05 -0.2197645 -0.975553 4.485168e-05 -0.1981468 -0.9801723 -4.615251e-05 -0.1714817 -0.9851873 4.509497e-05 -0.1490414 -0.9888309 -4.635415e-05 -0.1227855 -0.9924332 4.526911e-05 -0.09956878 -0.9950307 -4.650297e-05 -0.07378989 -0.9972738 4.539562e-05 -0.04984497 -0.998757 -4.658785e-05 -0.02461729 -0.9996969 4.544789e-05 0 -1 -4.662514e-05 0.02461729 -0.9996969 4.544789e-05 0.04984497 -0.998757 -4.658785e-05 0.07378989 -0.9972738 4.539562e-05 0.09956878 -0.9950307 -4.650294e-05 0.1227855 -0.9924332 4.526914e-05 0.1714817 -0.9851873 4.509497e-05 0.1490414 -0.9888309 -4.63541e-05 0.2197645 -0.975553 4.485168e-05 0.1981468 -0.9801723 -4.615251e-05 0.2675139 -0.963554 4.455945e-05 0.2467576 -0.9690773 -4.588681e-05 0.3146128 -0.9492201 4.420727e-05 0.2947547 -0.955573 -4.555386e-05 0.3609518 -0.9325845 4.379157e-05 0.3420203 -0.9396926 -4.517313e-05 0.4064144 -0.9136889 4.331761e-05 0.3884351 -0.9214762 -4.472733e-05 0.4508918 -0.8925787 4.278212e-05 0.4338838 -0.9009688 -4.42253e-05 0.4942766 -0.8693047 4.219214e-05 0.4782534 -0.8782219 -4.366493e-05 0.5364637 -0.8439234 4.153572e-05 0.5214356 -0.8532906 -4.304489e-05 0.5773509 -0.8164961 4.083375e-05 0.5633195 -0.8262391 -4.236545e-05 0.6168372 -0.7870908 4.006581e-05 0.6038044 -0.7971325 -4.161687e-05 0.6548294 -0.7557768 3.923673e-05 0.6427878 -0.7660443 -4.08191e-05 0.6912333 -0.7226316 3.835014e-05 0.6801724 -0.7330521 -3.995873e-05 0.7158673 -0.6982365 -3.90436e-05 0.7259626 -0.6877343 3.739671e-05 0.7497812 -0.6616858 -3.807213e-05 0.7589324 -0.6511693 3.639227e-05 0.7818316 -0.6234896 -3.70333e-05 0.7900617 -0.6130273 3.532446e-05 0.8119381 -0.5837436 -3.59421e-05 0.8192768 -0.5733983 3.419918e-05 0.8465057 -0.5323797 3.302022e-05 0.8400257 -0.5425466 -3.47867e-05 0.8716822 -0.4900716 3.177463e-05 0.8660254 -0.5000001 -3.356877e-05 0.894747 -0.4465735 3.047622e-05 0.8898718 -0.4562106 -3.230069e-05 0.9156417 -0.4019955 2.911584e-05 0.9115057 -0.4112875 -3.096228e-05 0.9343178 -0.3564412 2.76913e-05 0.9308739 -0.3653406 -2.957372e-05 0.9506218 -0.3103515 2.411135e-05 0.9479272 -0.318487 -2.812564e-05 0.964563 -0.2638526 2.074722e-05 0.9626243 -0.2708403 -2.488705e-05 0.9762306 -0.216734 1.710926e-05 0.974928 -0.2225204 -2.13881e-05 0.9855988 -0.1691008 1.322993e-05 0.9848077 -0.1736484 -1.764252e-05 0.9926435 -0.1210733 9.079592e-06 0.9922392 -0.124344 -1.361441e-05 0.9973496 -0.07275765 4.669669e-06 0.9972039 -0.07472983 -9.33898e-06 0.9996892 -0.02493077 -4.800034e-06 0.9997054 -0.02427176 0 1 0 0 1 -0 0 -1 0 0 -1 -0 0 0 -0 -1 0 -0 -1 0 -0 -1 0 -0 -1 0 -0 -1 0 -0 -1 0 -0 -1 0 0 -1 0 0 -1 0 0 -1 0 0 -1 0 0 -1 0 0 -1 0 0 -1 0 0 -1 0 0 -1 0 0 -1 0 0 -1 0 0 -1 0 0 -1 0 0 -1 0 0 -1 0 0 -1 0 0 -1 0 0 -1 0 0 -1 0 0 -1 0 0 -1 0 0 -1 0 0 -1 0 0 1 0 0 1 0 0 -1 0 0 -1 0 0 -1 0 0 -1 0 0 -1 0 0 -1 0 0 -1 0 0 -1 0 0 -1 0 0 -1 0 0 -1 0 0 -1 0 0 -1 0 0 -1 0 0 -1 0 0 -1 0 0 -1 0 0 -1 0 0 -1 0 0 -1 0 0 -1 0 0 -1 0 0 -1 0 0 -1 0 0 -1 0 0 -1 0 0 -1 0 0 -1 0 0 -1 0 -0 -1 0 0 -1 0 0 -1 0 0 -1 0 -0 -1 0 0 -1 0 0 -1 0 0 -1 0 -0 -1 0 -0 -1 0 -0 -1 0 0 -1 0 0 -1 0 -0 -1 0 0 -1 0 0 -1 0 -0 -1 0 -0 -1 0 0 -1 0 0 -1 0 -0 -1 0 -0 -1 0 -0 -1 0 0 -1 0 0 -1 0 -0 -1 0 0 -1 0 -0 -1 0 -0 -1 0 0 -1 0 0 -1 0 0 -1 0 -0 -1 0 0 -1 0 0 -1 0 -0 -1 0 -0 -1 0 0 -1 0 -0 -1 0 -0 -1 0 0 -1 0 0 -1 0 0 -1 0 -0 -1 0 -0 -1 0 0 -1 0 0 -1 0 0 -1 0 -0 -1 0 -0 -1 0 -0 -1 0 -0 -1 0 0 -1 0 0 -1 0 0 -1 0 -0 -1 0 -0 -1 0 -0 -1 0 0 -1 0 0 -1 0 0 -1 -0 -0 -1 0 0 -1 -0 -0 -1 0 0 -1 0 0 -1 -0 -0 -1 -0 -0 -1 -0 -0 -1 0 0 -1 0 0 -1 0 0 -1 0 0 -1 0 0 -1 -0 -0 -1 -0 -0 -1 0 0 -1 0 0 -1 -0 -0 -1 -0 -0 -1 0 -0 -1 -0 -0 -1 -0 -0 -1 0 0 -1 0 0 -1 0 0 -1 -0 -0 -1 0 0 -1 -0 -0 -1 -0 -0 -1 0 -0 -1 0 0 -1 0 0 -1 0 -0 -1 0 0 -1 0 0 1 0 0 1 0 0 1 0 0 1 0 0 1 0 0 1 0 0 1 0 0 1 0 0 1 0 0 1 0 0 1 0 0 1 0 0 1 0 0 1 0 0 1 0 0 1 0 0 1 0 0 1 0 0 1 0 0 1 0 0 1 0 0 1 0 0 1 0 0 1 0 0 1 0 0 1 0 0 1 0 0 1 0 0 1 0 0 1 0 0 1 0 0 1 0 0 1 0 0 1 0 0 1 0 0 1 0 0 1 0 0 1 0 0 1 0 0 1 0 0 1 0 0 1 0 0 1 0 0 1 0 0 1 0 0 1 0 0 1 0 0 1 0 0 1 0 -1 0 0 -1 0 0 -1 0 0 -1 0</float_array>
          <technique_common>
            <accessor count="520" source="#cubenormals-array0-array" stride="3">
              <param type="float" name="X"/>
              <param type="float" name="Y"/>
              <param type="float" name="Z"/>
            </accessor>
          </technique_common>
        </source>
        <vertices id="cubeverts-array0-vertices">
          <input semantic="POSITION" source="#cubeverts-array0"/>
        </vertices>
        <triangles count="520" material="ref_Body">
          <input offset="0" semantic="VERTEX" source="#cubeverts-array0-vertices"/>
          <input offset="1" semantic="NORMAL" source="#cubenormals-array0"/>
          <p>0 0 1 0 2 0 3 1 0 1 2 1 4 2 3 2 2 2 5 3 6 3 4 3 5 4 4 4 2 4 7 5 8 5 9 5 7 6 9 6 5 6 10 7 5 7 2 7 10 8 7 8 5 8 11 9 12 9 13 9 11 10 13 10 14 10 11 11 14 11 10 11 11 12 10 12 2 12 15 13 16 13 11 13 17 14 15 14 11 14 18 15 19 15 20 15 18 16 20 16 21 16 22 17 21 17 17 17 22 18 11 18 2 18 22 19 17 19 11 19 22 20 18 20 21 20 23 21 24 21 22 21 23 22 22 22 2 22 25 23 26 23 27 23 28 24 25 24 27 24 29 25 28 25 27 25 30 26 29 26 27 26 30 27 31 27 32 27 30 28 32 28 29 28 30 29 27 29 23 29 33 30 2 30 34 30 35 31 2 31 33 31 36 32 37 32 30 32 38 33 39 33 36 33 38 34 36 34 30 34 40 35 35 35 41 35 40 36 41 36 42 36 43 37 30 37 23 37 43 38 38 38 30 38 44 39 35 39 40 39 45 40 46 40 47 40 45 41 47 41 43 41 48 42 23 42 2 42 48 43 44 43 49 43 48 44 49 44 50 44 48 45 2 45 35 45 48 46 35 46 44 46 48 47 45 47 43 47 48 48 43 48 23 48 51 49 34 49 52 49 52 50 2 50 53 50 34 51 2 51 52 51 2 52 54 52 53 52 55 53 56 53 57 53 57 54 58 54 59 54 56 55 58 55 57 55 59 56 60 56 61 56 58 57 60 57 59 57 61 58 62 58 63 58 60 59 62 59 61 59 63 60 64 60 65 60 62 61 64 61 63 61 65 62 66 62 67 62 64 63 66 63 65 63 67 64 68 64 34 64 66 65 68 65 67 65 34 66 69 66 33 66 68 67 69 67 34 67 33 68 70 68 35 68 69 69 70 69 33 69 35 70 71 70 41 70 70 71 71 71 35 71 41 72 72 72 42 72 71 73 72 73 41 73 72 74 73 74 42 74 42 75 73 75 40 75 73 76 74 76 40 76 40 77 74 77 44 77 74 78 75 78 44 78 44 79 75 79 49 79 49 80 76 80 50 80 75 81 76 81 49 81 50 82 77 82 48 82 76 83 77 83 50 83 48 84 78 84 45 84 77 85 78 85 48 85 78 86 79 86 45 86 45 87 79 87 46 87 46 88 80 88 47 88 79 89 80 89 46 89 47 90 81 90 43 90 80 91 81 91 47 91 43 92 82 92 38 92 81 93 82 93 43 93 38 94 83 94 39 94 82 95 83 95 38 95 39 96 84 96 36 96 83 97 84 97 39 97 36 98 85 98 37 98 84 99 85 99 36 99 37 100 86 100 30 100 85 101 86 101 37 101 30 102 87 102 31 102 86 103 87 103 30 103 31 104 88 104 32 104 87 105 88 105 31 105 32 106 89 106 29 106 88 107 89 107 32 107 29 108 90 108 28 108 89 109 90 109 29 109 28 110 91 110 25 110 90 111 91 111 28 111 25 112 92 112 26 112 91 113 92 113 25 113 26 114 93 114 27 114 92 115 93 115 26 115 27 116 94 116 23 116 93 117 94 117 27 117 23 118 95 118 24 118 94 119 95 119 23 119 24 120 96 120 22 120 95 121 96 121 24 121 22 122 97 122 18 122 96 123 97 123 22 123 97 124 98 124 18 124 18 125 98 125 19 125 98 126 99 126 19 126 19 127 99 127 20 127 99 128 100 128 20 128 20 129 100 129 21 129 100 130 101 130 21 130 21 131 101 131 17 131 101 132 102 132 17 132 17 133 102 133 15 133 102 134 103 134 15 134 15 135 103 135 16 135 103 136 104 136 16 136 16 137 104 137 11 137 104 138 105 138 11 138 11 139 105 139 12 139 105 140 106 140 12 140 12 141 106 141 13 141 106 142 107 142 13 142 13 143 107 143 14 143 107 144 108 144 14 144 14 145 108 145 10 145 108 146 109 146 10 146 10 147 109 147 7 147 7 148 110 148 8 148 109 149 110 149 7 149 8 150 111 150 9 150 110 151 111 151 8 151 9 152 112 152 5 152 111 153 112 153 9 153 5 154 113 154 6 154 112 155 113 155 5 155 6 156 114 156 4 156 113 157 114 157 6 157 4 158 115 158 3 158 114 159 115 159 4 159 3 160 116 160 0 160 115 161 116 161 3 161 0 162 117 162 1 162 116 163 117 163 0 163 1 164 118 164 2 164 117 165 118 165 1 165 2 166 119 166 120 166 118 167 119 167 2 167 120 168 121 168 122 168 119 169 121 169 120 169 122 170 123 170 124 170 121 171 123 171 122 171 124 172 125 172 126 172 123 173 125 173 124 173 125 174 127 174 126 174 126 175 127 175 128 175 127 176 129 176 128 176 128 177 129 177 130 177 129 178 131 178 130 178 130 179 131 179 132 179 132 180 131 180 133 180 131 181 134 181 133 181 133 182 134 182 135 182 134 183 136 183 135 183 135 184 136 184 137 184 136 185 138 185 137 185 137 186 138 186 139 186 138 187 140 187 139 187 139 188 140 188 141 188 140 189 142 189 141 189 141 190 142 190 143 190 142 191 144 191 143 191 143 192 144 192 145 192 144 193 146 193 145 193 145 194 146 194 147 194 146 195 148 195 147 195 147 196 148 196 149 196 148 197 150 197 149 197 149 198 150 198 151 198 150 199 152 199 151 199 151 200 152 200 153 200 152 201 154 201 153 201 153 202 154 202 155 202 154 203 156 203 155 203 155 204 156 204 157 204 156 205 158 205 157 205 157 206 158 206 159 206 158 207 160 207 159 207 159 208 160 208 161 208 160 209 162 209 161 209 161 210 162 210 163 210 162 211 164 211 163 211 163 212 164 212 165 212 164 213 166 213 165 213 165 214 166 214 167 214 167 215 168 215 169 215 166 216 168 216 167 216 169 217 170 217 171 217 168 218 170 218 169 218 171 219 172 219 173 219 170 220 172 220 171 220 173 221 174 221 175 221 172 222 174 222 173 222 175 223 176 223 177 223 174 224 176 224 175 224 176 225 178 225 177 225 177 226 178 226 179 226 178 227 180 227 179 227 179 228 180 228 181 228 180 229 182 229 181 229 181 230 182 230 183 230 182 231 184 231 183 231 183 232 184 232 185 232 184 233 186 233 185 233 185 234 186 234 187 234 186 235 188 235 187 235 187 236 188 236 189 236 188 237 190 237 189 237 189 238 190 238 191 238 190 239 192 239 191 239 191 240 192 240 193 240 192 241 194 241 193 241 193 242 194 242 195 242 194 243 196 243 195 243 195 244 196 244 197 244 196 245 198 245 197 245 197 246 198 246 199 246 198 247 200 247 199 247 199 248 200 248 201 248 201 249 202 249 203 249 200 250 202 250 201 250 203 251 204 251 205 251 202 252 204 252 203 252 205 253 206 253 207 253 204 254 206 254 205 254 207 255 208 255 209 255 206 256 208 256 207 256 209 257 210 257 211 257 208 258 210 258 209 258 211 259 212 259 213 259 210 260 212 260 211 260 213 261 214 261 215 261 212 262 214 262 213 262 215 263 216 263 217 263 214 264 216 264 215 264 217 265 218 265 219 265 216 266 218 266 217 266 219 267 220 267 221 267 218 268 220 268 219 268 221 269 222 269 223 269 220 270 222 270 221 270 223 271 224 271 225 271 222 272 224 272 223 272 225 273 226 273 227 273 224 274 226 274 225 274 226 275 228 275 227 275 227 276 228 276 229 276 228 277 230 277 229 277 229 278 230 278 231 278 230 279 232 279 231 279 231 280 232 280 233 280 232 281 234 281 233 281 233 282 234 282 235 282 235 283 236 283 237 283 234 284 236 284 235 284 237 285 238 285 239 285 236 286 238 286 237 286 239 287 240 287 241 287 238 288 240 288 239 288 241 289 242 289 243 289 240 290 242 290 241 290 243 291 244 291 245 291 242 292 244 292 243 292 245 293 246 293 247 293 244 294 246 294 245 294 247 295 248 295 249 295 246 296 248 296 247 296 249 297 250 297 251 297 248 298 250 298 249 298 251 299 252 299 253 299 250 300 252 300 251 300 253 301 254 301 255 301 252 302 254 302 253 302 255 303 256 303 257 303 254 304 256 304 255 304 256 305 56 305 257 305 257 306 56 306 55 306 258 307 51 307 259 307 259 308 51 308 52 308 54 309 260 309 53 309 53 310 260 310 261 310 247 311 258 311 245 311 249 312 258 312 247 312 251 313 258 313 249 313 253 314 258 314 251 314 255 315 258 315 253 315 257 316 258 316 255 316 55 317 258 317 257 317 57 318 51 318 55 318 59 319 51 319 57 319 61 320 51 320 59 320 63 321 51 321 61 321 65 322 51 322 63 322 67 323 51 323 65 323 34 324 51 324 67 324 55 325 51 325 258 325 260 326 143 326 145 326 260 327 141 327 143 327 260 328 139 328 141 328 260 329 137 329 139 329 260 330 135 330 137 330 260 331 133 331 135 331 54 332 132 332 260 332 260 333 132 333 133 333 54 334 130 334 132 334 54 335 128 335 130 335 54 336 126 336 128 336 54 337 124 337 126 337 54 338 122 338 124 338 54 339 120 339 122 339 54 340 2 340 120 340 52 341 53 341 261 341 52 342 261 342 259 342 162 343 168 343 164 343 164 344 168 344 166 344 162 345 170 345 168 345 162 346 172 346 170 346 152 347 150 347 154 347 162 348 148 348 172 348 150 349 148 349 154 349 154 350 148 350 156 350 156 351 148 351 158 351 158 352 148 352 160 352 160 353 148 353 162 353 172 354 148 354 174 354 146 355 144 355 148 355 148 356 186 356 174 356 144 357 186 357 148 357 174 358 186 358 176 358 176 359 186 359 178 359 178 360 186 360 180 360 180 361 186 361 182 361 182 362 186 362 184 362 140 363 138 363 142 363 142 364 138 364 144 364 144 365 190 365 186 365 186 366 190 366 188 366 144 367 194 367 190 367 190 368 194 368 192 368 134 369 131 369 136 369 136 370 131 370 138 370 138 371 131 371 144 371 129 372 127 372 131 372 144 373 200 373 194 373 194 374 200 374 196 374 196 375 200 375 198 375 127 376 125 376 131 376 200 377 206 377 202 377 144 378 206 378 200 378 202 379 206 379 204 379 125 380 119 380 131 380 121 381 119 381 123 381 123 382 119 382 125 382 131 383 119 383 144 383 144 384 208 384 206 384 118 385 117 385 119 385 144 386 212 386 208 386 208 387 212 387 210 387 117 388 116 388 119 388 116 389 115 389 119 389 212 390 218 390 214 390 214 391 218 391 216 391 114 392 113 392 115 392 115 393 112 393 119 393 113 394 112 394 115 394 218 395 222 395 220 395 212 396 222 396 218 396 112 397 111 397 119 397 212 398 224 398 222 398 111 399 109 399 119 399 110 400 109 400 111 400 224 401 228 401 226 401 212 402 228 402 224 402 212 403 230 403 228 403 108 404 107 404 109 404 230 405 234 405 232 405 212 406 234 406 230 406 106 407 105 407 107 407 107 408 105 408 109 408 212 409 236 409 234 409 109 410 104 410 119 410 105 411 104 411 109 411 236 412 240 412 238 412 144 413 240 413 212 413 212 414 240 414 236 414 101 415 100 415 102 415 102 416 100 416 103 416 240 417 246 417 242 417 242 418 246 418 244 418 144 419 246 419 240 419 103 420 99 420 104 420 104 421 99 421 119 421 100 422 99 422 103 422 98 423 97 423 99 423 248 424 252 424 250 424 252 425 256 425 254 425 248 426 256 426 252 426 95 427 94 427 96 427 96 428 94 428 97 428 97 429 94 429 99 429 248 430 56 430 256 430 248 431 58 431 56 431 246 432 58 432 248 432 93 433 92 433 94 433 246 434 60 434 58 434 92 435 91 435 94 435 60 436 64 436 62 436 246 437 64 437 60 437 91 438 88 438 94 438 89 439 88 439 90 439 90 440 88 440 91 440 64 441 68 441 66 441 246 442 68 442 64 442 246 443 69 443 68 443 144 444 69 444 246 444 119 445 69 445 144 445 87 446 86 446 88 446 88 447 86 447 94 447 69 448 71 448 70 448 119 449 71 449 69 449 84 450 83 450 85 450 85 451 83 451 86 451 94 452 82 452 99 452 86 453 82 453 94 453 83 454 82 454 86 454 71 455 74 455 72 455 72 456 74 456 73 456 71 457 75 457 74 457 81 458 80 458 82 458 71 459 76 459 75 459 82 460 79 460 99 460 80 461 79 461 82 461 99 462 79 462 119 462 71 463 77 463 76 463 71 464 78 464 77 464 79 465 78 465 119 465 119 466 78 466 71 466 171 467 165 467 167 467 171 468 167 468 169 468 155 469 157 469 159 469 155 470 159 470 161 470 155 471 161 471 163 471 155 472 163 472 165 472 175 473 171 473 173 473 151 474 153 474 155 474 151 475 155 475 165 475 179 476 175 476 177 476 179 477 171 477 175 477 147 478 149 478 151 478 147 479 151 479 165 479 189 480 179 480 181 480 189 481 181 481 183 481 189 482 183 482 185 482 189 483 185 483 187 483 193 484 189 484 191 484 195 485 189 485 193 485 199 486 189 486 195 486 199 487 195 487 197 487 199 488 179 488 189 488 203 489 199 489 201 489 205 490 199 490 203 490 209 491 199 491 205 491 209 492 205 492 207 492 211 493 199 493 209 493 215 494 199 494 211 494 215 495 211 495 213 495 217 496 199 496 215 496 219 497 179 497 199 497 219 498 199 498 217 498 225 499 219 499 221 499 225 500 221 500 223 500 229 501 179 501 219 501 229 502 219 502 225 502 229 503 225 503 227 503 229 504 165 504 171 504 229 505 171 505 179 505 233 506 229 506 231 506 235 507 229 507 233 507 237 508 229 508 235 508 237 509 165 509 229 509 237 510 147 510 165 510 239 511 147 511 237 511 243 512 147 512 239 512 243 513 239 513 241 513 245 514 145 514 147 514 245 515 147 515 243 515 260 516 145 516 261 516 261 517 145 517 259 517 145 518 245 518 259 518 245 519 258 519 259 519</p>
        </triangles>
      </mesh>
    </geometry>
  </library_geometries>
  <library_materials>
    <material id="mat_Body" name="Body">
      <instance_effect url="#effect_Body"/>
    </material>
  </library_materials>
  <library_visual_scenes>
    <visual_scene id="myscene">
      <node id="node0" name="node0">
        <instance_geometry url="#geometry0">
          <bind_material>
            <technique_common>
              <instance_material symbol="ref_Body" target="#mat_Body"/>
            </technique_common>
          </bind_material>
        </instance_geometry>
      </node>
    </visual_scene>
  </library_visual_scenes>
  <scene>
    <instance_visual_scene url="#myscene"/>
  </scene>
</COLLADA>
