<COLLADA xmlns="http://www.collada.org/2005/11/COLLADASchema" version="1.4.1">
  <asset>
    <contributor/>
    <created>2026-02-17T13:35:53.380300</created>
    <modified>2026-02-17T13:35:53.380303</modified>
    <unit name="meter" meter="1.0"/>
    <up_axis>Z_UP</up_axis>
  </asset>
  <library_effects>
    <effect id="effect_link_4_r_stl003" name="effect_link_4_r_stl003">
      <profile_COMMON>
        <technique sid="common">
          <phong>
            <emission>
              <color>0.0 0.0 0.0 1.0</color>
            </emission>
            <ambient>
              <color>0.0 0.0 0.0 1.0</color>
            </ambient>
            <diffuse>
              <color>0.6784313917160034 0.7098039388656616 0.7411764860153198 1.0</color>
            </diffuse>
            <specular>
              <color>1 1 1 1.0</color>
            </specular>
            <shininess>
              <float>0.0</float>
            </shininess>
            <reflective>
              <color>0.0 0.0 0.0 1.0</color>
            </reflective>
            <reflectivity>
              <float>0.0</float>
            </reflectivity>
            <transparent>
              <color>0.0 0.0 0.0 1.0</color>
            </transparent>
            <transparency>
              <float>1.0</float>
            </transparency>
          </phong>
        </technique>
        <extra>
          <technique profile="GOOGLEEARTH">
            <double_sided>0</double_sided>
          </technique>
        </extra>
      </profile_COMMON>
    </effect>
  </library_effects>
  <library_geometries>
    <geometry id="geometry0" name="link_4_r_stl003">
      <mesh>
        <source id="cubeverts-array0">
          <float_array count="885" id="cubeverts-array0-array">-0.1585 -0.01700002 -0.006000021 -0.1585 -0.01700002 0.005999977 -0.1585 -0.009029166 -0.01069929 -0.1585 -0.00272803 -0.01373166 -0.1585 -0.00272803 0.01373162 -0.1585 0.00425371 0.01333811 -0.1585 0.0101742 -0.009616941 -0.1585 0.0101742 0.009616902 -0.1585 0.01355634 0.003496391 -0.1584993 0.004230019 -0.01336583 -0.1584988 0.01356111 -0.003783258 -0.1584986 -0.008427127 0.01114872 -0.1495 -0.02600001 -0.006000019 -0.1495 -0.02600001 0.005999979 -0.1266996 0.01189209 -0.03433645 -0.1266229 -0.01189045 0.03442398 -0.1265671 -0.01197548 -0.03445067 -0.1265671 0.01197544 0.03445065 -0.1256715 0.01534513 -0.0342261 -0.1255608 -0.01531021 0.03429084 -0.125 -0.01173912 -0.035 -0.125 0.01173909 -0.035 -0.1227206 0.04102429 -1.583248e-08 -0.1224696 -0.03738817 -0.01721159 -0.1224696 -0.03738817 0.01721155 -0.1224696 0.03738815 -0.01721159 -0.1224696 0.03738815 0.01721155 -0.1222185 -0.04062068 -0.007915912 -0.1222185 -0.04062068 0.00791588 -0.1222185 -0.03467603 -0.02258925 -0.1222185 -0.03467603 0.02258921 -0.1222185 -0.02971502 -0.02880485 -0.1222185 -0.02971502 0.02880481 -0.1222185 0.02971499 -0.02880485 -0.1222185 0.02971499 0.02880481 -0.1222185 0.03467601 -0.02258925 -0.1222185 0.03467601 0.02258921 -0.1222185 0.04062065 -0.007915912 -0.1222185 0.04062065 0.00791588 -0.1222173 -0.02347168 0.0340388 -0.1222113 -0.02347614 -0.03403947 -0.1217477 -0.01969948 -0.035 -0.1217163 -0.04174527 -1.583248e-08 -0.1217163 0.04174524 -1.583248e-08 -0.1215771 0.02008967 -0.035 -0.121079 0.02362276 0.0344813 -0.1208216 0.0236681 -0.03453935 -0.1205066 -0.04122453 0.008033553 -0.1205066 -0.02360035 -0.03466187 -0.1205066 0.03892672 -0.0157705 -0.1205066 0.04122451 0.008033553 -0.1064721 -0.04626139 -1.396984e-08 -0.1064721 0.04626137 -1.396984e-08 -0.1052997 -0.0465 -1.396984e-08 -0.1052997 0.04649998 -1.396984e-08 -0.1050044 -0.0463807 0.008780713 -0.1050044 0.04638068 0.008780714 -0.1050044 0.04638068 -0.008780878 -0.1044297 -0.0465 -0.008664789 -0.1034235 -0.04592768 0.01763246 -0.1034235 0.04592766 -0.01763248 -0.1018882 -0.0465 -0.01700001 -0.1018882 -0.0465 0.01699998 -0.1018882 0.04649998 -0.01700001 -0.1018882 0.04649998 0.01699998 -0.1011622 -0.04568483 -0.02292073 -0.1005684 0.04556791 -0.02418332 -0.1000481 -0.04543067 0.02523733 -0.09983842 0.04482376 0.02658165 -0.09939436 0.04623521 0.02290803 -0.09939432 -0.04623523 -0.02290815 -0.09937852 -0.04623209 0.02294299 -0.09937849 0.04623206 -0.02294311 -0.09811613 -0.04593229 0.02564133 -0.0980662 0.04591856 0.02574453 -0.09750732 -0.04433653 0.03049656 -0.09746571 -0.04432289 -0.03040314 -0.09731094 0.04427234 -0.0306144 -0.09656059 0.0426475 0.03257155 -0.09558546 -0.04201981 0.0335054 -0.09479308 0.04524841 -0.02973122 -0.09436102 -0.04526734 -0.02965818 -0.09328252 0.04467884 0.03158756 -0.09299438 0.04224489 -0.03411277 -0.09266299 -0.04226162 -0.03424677 -0.09248737 -0.04456269 0.03215697 -0.09086753 -1.191584e-08 0.05903909 -0.09063869 -0.004948854 0.05881025 -0.09063869 0.004948831 0.05881025 -0.09035355 -0.007396895 0.05852512 -0.09035355 0.007396872 0.05852512 -0.08997218 0.04305158 0.03439521 -0.08951273 -0.003663931 0.05925546 -0.08918095 -0.0132509 0.05735249 -0.08918095 0.01325088 0.05735249 -0.08896798 -0.04433091 -0.03311789 -0.08840026 0.01016429 0.05837417 -0.08801102 -0.01645484 0.05618258 -0.08801102 0.01645481 0.05618258 -0.08794754 0.0446051 0.03270741 -0.08786494 -0.04460447 0.03271006 -0.08760028 -0.04401536 0.03389507 -0.08760028 -0.04325444 -0.0345388 -0.08760028 -0.04168972 -0.035 -0.08760028 0.04168969 -0.035 -0.08760028 0.04297709 -0.03470973 -0.08760028 0.04401534 -0.03389509 -0.08760028 0.04405679 0.03384303 -0.08760028 0.04460356 -0.03271372 -0.08709643 0.01809777 0.05526798 -0.0865628 -0.01882136 0.05473435 -0.08652945 -0.01135565 0.05750757 -0.08615045 -0.01627102 0.05622792 -0.08602917 0.01954489 0.05420072 -0.08591606 0.01764379 0.05574051 -0.07755283 -0.005568591 0.05780733 -0.07755283 0.009431405 0.05780733 -0.07594717 -0.01067813 0.05651289 -0.06062179 0.04401534 -0.03389509 -0.06062179 0.04401534 0.03389507 -0.06062179 0.04460356 -0.03271372 -0.06062179 0.04460356 0.0327137 -0.06062179 0.04602416 -0.02491387 -0.06062179 0.04602416 0.02491386 -0.06062179 0.04649998 -0.017 -0.06062179 0.04649998 0.01699999 -0.06062178 -0.0429771 -0.03470973 -0.06062178 -0.04168972 -0.035 -0.06062178 0.04168969 -0.035 -0.06062178 0.04297708 -0.03470973 -0.06062177 -0.0465 -0.017 -0.06062177 -0.0465 0.01699999 -0.06062177 -0.04602419 -0.02491387 -0.06062177 -0.04602419 0.02491386 -0.06062177 -0.04460358 -0.03271372 -0.06062177 -0.04460358 0.0327137 -0.06062177 -0.04401536 -0.03389509 -0.06062177 -0.04401536 0.03389507 -0.06005505 -0.02105875 -0.03499915 -0.05193485 -0.0225 -0.03490566 -0.05193385 0.0285779 -0.03490564 -0.0477887 -0.02767147 -0.03478884 -0.04767383 0.03373036 -0.03478519 -0.04072154 0.04649999 -0.0164813 -0.04072154 0.04649999 0.01648129 -0.04072152 -0.04649999 -0.0164813 -0.04072152 -0.04649999 0.01648129 -0.04030927 0.04602417 -0.02438442 -0.04030927 0.04602417 0.02438441 -0.04030925 -0.04602417 -0.02438442 -0.04030925 -0.04602417 0.02438441 -0.03990294 0.04460357 -0.03217367 -0.03990292 -0.04460357 -0.03217367 -0.03990292 -0.04460357 0.03217367 -0.03881354 0.04460357 0.03211535 -0.03874876 0.04401535 -0.03329493 -0.03874876 0.04401535 0.03329493 -0.03874873 -0.04401535 -0.03329493 -0.03874873 -0.04401535 0.03329493 -0.03870407 -0.04297709 -0.03410835 -0.03870407 -0.04297709 0.03410835 -0.03870407 0.04297709 -0.03410835 -0.03870407 0.04297709 0.03410835 -0.03868816 -0.0416897 -0.03439818 -0.03868816 0.0416897 -0.03439818 -0.0302684 0.03449999 -0.03384666 -0.03026839 -0.0285 -0.03384666 -0.02774198 0.0416897 -0.03364635 -0.02774197 -0.0416897 -0.03364635 -0.01775021 0.04649999 -0.01458665 -0.01775021 0.04649999 0.01458665 -0.0177502 -0.04649999 -0.01458665 -0.0177502 -0.04649999 0.01458665 -0.01707091 0.04460357 0.03032204 -0.01694154 0.04401535 0.03149631 -0.01694153 -0.04401535 0.03149631 -0.01694153 0.04401535 -0.03149631 -0.01694152 -0.04401535 -0.03149631 -0.01686204 0.04602417 0.02245052 -0.01686203 -0.04602417 0.02245052 -0.01686203 0.04602417 -0.02245052 -0.01686202 -0.04602417 -0.02245052 -0.01685234 0.04297709 0.03230605 -0.01685233 -0.04297709 0.03230605 -0.01685233 0.04297709 -0.03230605 -0.01685232 -0.04297709 -0.03230605 -0.01682054 0.0416897 -0.03259457 -0.01682053 -0.0416897 -0.03259457 -0.01598666 0.04460357 -0.03020109 -0.01598666 -0.04460357 0.03020109 -0.01598665 -0.04460357 -0.03020109 -0.01469372 -0.0285 -0.03235451 -0.006233253 -0.02677451 -0.03125936 -0.003137179 0.03175675 -0.03082171 0.001966104 0.04649999 0.01183783 0.001966116 -0.04649999 0.01183783 0.001966119 -0.04649999 -0.01183784 0.003262733 0.04602417 0.01964476 0.004180408 0.04649999 -0.0108623 0.004540679 0.04460357 0.0273392 0.004540688 0.04460357 -0.0273392 0.004540691 -0.04460357 0.0273392 0.004540699 -0.04460357 -0.0273392 0.004800974 0.04349622 0.02890643 0.004800983 0.04349622 -0.02890643 0.004800985 -0.04349622 0.02890643 0.004800994 -0.04349622 -0.02890643 0.004915269 0.0416897 0.02959459 0.004915278 0.0416897 -0.02959459 0.004915281 -0.0416897 0.02959459 0.004915289 -0.0416897 -0.02959459 0.005499192 -0.04602417 -0.01899738 0.006511659 0.04602417 -0.01842285 0.006511665 -0.04602417 0.01842285 0.008791754 0.04649999 0.006995355 0.008791765 -0.04649999 0.006995355 0.009353341 -0.04649999 -0.006583036 0.009760573 0.04602417 0.01720094 0.0107655 0.04460357 0.0255373 0.01076552 -0.04460357 -0.0255373 0.0111888 0.04649999 -0.004103931 0.01138264 -0.04349622 0.02700123 0.01165361 0.0416897 0.02764404 0.01165362 0.0416897 -0.02764404 0.01165363 -0.0416897 0.02764404 0.01165363 -0.0416897 -0.02764404 0.01199999 0.04649999 1.862645e-09 0.01200001 -0.04649999 1.862645e-09 0.01348831 -0.04602417 -0.014464 0.0135836 0.04460357 -0.02393819 0.0135836 -0.04460357 0.02393819 0.01436227 0.04349622 0.02531045 0.01436228 0.04349622 -0.02531045 0.01436229 -0.04349622 -0.02531045 0.01480573 0.0416897 0.02609195 0.01480573 0.0305 0.02609195 0.01480573 0.0416897 -0.02609195 0.01480574 0.0305 -0.02609195 0.01480574 -0.0416897 0.02609195 0.01480575 -0.0416897 -0.02609195 0.01687938 -0.04602417 0.009843272 0.01775476 0.0416897 0.02418197 0.01775477 -0.0416897 0.02418197 0.01775477 0.0416897 -0.02418197 0.01775478 -0.0416897 -0.02418197 0.01792397 0.04602417 0.007780389 0.01792397 0.04602417 -0.007780383 0.01856771 -0.04602417 -0.006810429 0.01877137 0.04460357 0.02012924 0.01877139 -0.04460357 -0.02012924 0.01984745 -0.04349622 0.02128316 0.01991387 0.04602417 2.793968e-09 0.01991388 -0.04602417 2.793968e-09 0.02114108 -0.04460357 0.01791941 0.02288512 0.0416897 -0.01939769 0.02288512 0.0416897 0.0193977 0.02288514 -0.0416897 -0.01939769 0.02288514 -0.0416897 0.0193977 0.02288514 -0.02449999 -0.01939769 0.02288514 -0.02449999 0.0193977 0.02293278 0.04460357 -0.01521968 0.0242474 0.04349622 -0.01609214 0.0242474 0.04349622 0.01609215 0.02424742 -0.04349622 -0.01609214 0.02584027 0.04460357 0.009477942 0.02584029 -0.04460357 -0.009477934 0.02584029 -0.04460357 0.009477942 0.02676418 0.0416897 -0.0135528 0.02676418 0.0416897 0.0135528 0.02676419 -0.0416897 -0.0135528 0.02676419 -0.0416897 0.0135528 0.02695605 0.04460357 -0.006435922 0.02732158 -0.04349622 0.01002126 0.02771371 0.04460357 3.72529e-09 0.02771373 -0.04460357 3.72529e-09 0.02816517 0.0416897 -0.01033068 0.02816517 0.0416897 0.01033069 0.02816518 -0.0416897 -0.01033068 0.02816518 -0.0416897 0.01033069 0.02816518 -0.02449999 -0.01033068 0.02816518 -0.02449999 0.01033069 0.02850131 0.04349622 -0.00680486 0.02850131 0.04349622 0.00680487 0.02850132 -0.04349622 -0.00680486 0.02889508 0.04401535 3.72529e-09 0.02889509 -0.04401535 3.72529e-09 0.02917983 0.0416897 -0.006966861 0.02917983 0.0416897 0.00696687 0.02917984 -0.0416897 -0.006966861 0.02917984 -0.0416897 0.00696687 0.02970972 0.04297709 3.72529e-09 0.02970974 -0.04297709 3.72529e-09 0.03 0.0416897 3.72529e-09 0.03000001 -0.0416897 3.72529e-09 0.03000001 -0.02449999 3.72529e-09</float_array>
          <technique_common>
            <accessor count="295" source="#cubeverts-array0-array" stride="3">
              <param type="float" name="X"/>
              <param type="float" name="Y"/>
              <param type="float" name="Z"/>
            </accessor>
          </technique_common>
        </source>
        <source id="cubenormals-array0">
          <float_array count="1758" id="cubenormals-array0-array">-0.5772058 -0.5245544 0.6258405 -0.3703929 0.5523185 0.7468289 -0.9999951 -0.001507408 0.002782554 -0.6022206 -0.4109586 0.6844292 -0.5978615 -0.3310196 0.73006 -0.4687684 -0.8381668 0.2788056 -0.4932742 -0.7672108 0.4099611 -0.5317521 -0.6619134 0.5283089 -0.5709242 -0.5709233 0.5899933 0.4417476 4.668625e-08 0.8971394 0.4121823 -0.3596895 0.8370957 0.6461303 -0.6156139 0.4511487 0.1202041 0 0.9927493 0.3203136 -0 0.9473116 -0.3983131 0.5843087 0.7070572 -0.5983143 0.4834624 0.6389711 -0.3428464 -0.9240174 -0.1692581 -0.4132287 -0.8635114 0.2891192 -0.03702633 -0.9710238 0.2360972 0.08850726 -0.187957 0.9781813 -0.3970168 -0.589597 0.7033868 -0.4508944 -0.6976135 0.556803 -0.4438486 -0.7916034 0.4199554 -0.4295098 -0.8200928 0.3781126 -0.1497604 -0.9335673 0.3256131 -0.3014559 -0.8939551 0.3316155 -0.2304336 -0.6066337 0.7608522 -0.2579733 -0.6788487 0.6874694 -0.370006 -0.5527372 0.746711 -0.3954895 -0.5881408 0.7054632 -0.5810085 -0.26182 0.7706358 -0.5740135 -0.2090862 0.7917016 -0.5143753 -0.2361828 0.8244002 -0.5258499 -0.1955342 0.8277972 -0.575604 0.2691874 0.7721517 -0.6019428 0.4249398 0.6760851 -0.55874 0.04666995 0.8280287 0.2762214 -0.1146686 0.9542289 0.2596181 -0.3580756 0.8968725 0.2596185 -0.3580746 0.8968728 0.6367862 -0.3580751 0.682851 0.5436082 5.745143e-08 0.8393391 0.4645765 -0.5192597 0.7173131 0.4626129 -0.5630203 0.6848339 7.457859e-06 -0.9828128 0.1846047 0.1001709 -0.9869879 0.1257795 0.3231185 -0.8549754 0.4057234 0.3619794 -0.7627745 0.5358601 0.1790723 -0.9831991 0.03539601 0.06040201 0.9851694 0.160602 0.1612291 0.9860551 -0.04123564 0.04548034 0.9977741 -0.04877025 0.01027855 0.9981665 -0.05964921 0.01006385 0.9981918 -0.0592604 -3.059233e-12 1 2.206268e-05 0.001406386 0.9985411 0.05397831 -6.207722e-09 0.9989974 0.04476906 1.275632e-05 0.9826725 0.1853506 0.01222762 0.8951072 0.4456835 0.0005157953 0.8951738 0.4457167 -4.9305e-05 0.9005235 0.4348072 -0.03601849 0.9711952 0.2355473 -0.3515533 0.80158 0.4836111 -0.3145975 0.8429556 0.4364105 -0.08298271 0.8872521 0.4537594 -0.1704419 0.7519665 0.6367856 -0.2302085 0.6993099 0.6767344 -0.4367627 0.7030835 0.5611701 -0.429381 0.7476507 0.5066068 -0.4357868 0.7952867 0.4214367 -0.6004387 0.6249999 0.4988472 -0.6071025 0.6954991 0.3843273 -0.6065642 0.6981199 0.3804055 -0.4136202 -0.8633468 -0.2890513 -0.4687683 -0.8381668 -0.2788056 -0.4932741 -0.7672108 -0.4099612 -0.2920786 -0.9419652 -0.1655041 -0.441613 -0.7926328 -0.4203704 -0.4206549 -0.83298 -0.3594352 -0.2811548 -0.9100565 -0.3045473 -0.5974771 0.4748026 -0.646207 -0.6002693 0.4266057 -0.6765237 -0.09309013 0.1464309 -0.984831 0.9931418 -0 0.1169164 0.9931418 0 -0.1169164 0.6820097 9.360802e-08 -0.7313432 -0.3700132 -0.9018241 0.2231669 -0.4753909 -0.8747264 0.09411254 -0.2838161 -0.9580224 -0.04051694 -0.4930401 -0.8700066 -0 -0.4753909 -0.8747264 -0.09411252 -0.3074466 -0.9469364 -0.09374404 -0.3223217 -0.9398525 -0.113075 0.06771601 -0.56688 0.8210126 0.02143194 -0.6240279 0.7811081 0.0273579 -0.6172153 0.7863185 -0.06252311 -0.8880627 0.4554508 -0.192225 -0.6207707 0.7600613 -0.1950206 -0.6342956 0.7480882 0 -0.6373693 0.7705585 0 -0.8951741 0.4457168 -3.012728e-05 -0.8954483 0.4451654 0.1049481 -0.2131068 0.971376 0.2555104 -0.1612063 0.9532717 -0.4214515 -0.4428582 0.7913628 -0.4997928 -0.2652741 0.8245221 0.1055296 -0.226862 0.9681928 0.07961214 -0.1914278 0.9782726 0.01074985 -0.194328 0.9808776 -0.2235397 -0.1384135 0.964817 -0.5326952 -0.1588673 0.8312623 -0.4227736 0.4430453 0.7905526 0.6820083 -0 0.7313445 0.8332027 1.437743e-07 0.5529677 0.4868897 0.4447338 0.7517647 0.5436083 1.389917e-07 0.8393391 0.5436085 7.487342e-08 0.8393389 0.6820083 1.191273e-07 0.7313445 0.6820081 9.360782e-08 0.7313446 -0.2850021 -0.9445769 0.1629363 -0.2905298 -0.9265707 0.2388703 -0.3516132 -0.9109804 0.2155986 0.04118461 -0.9979113 0.04976821 0.1000637 -0.9876062 0.1209188 0.1583324 -0.9861787 0.04881094 0.1594898 -0.9831989 0.088785 6.207701e-09 -0.9989973 -0.04476893 0.1790723 -0.983199 -0.03539597 0.154376 -0.9826858 -0.1024539 0.154376 -0.9826858 -0.1024538 0.1790723 -0.9831989 -0.03539601 0.2550058 0.6893801 0.6780317 0.1727489 0.3601546 0.9167587 0.004932729 0.98369 0.1798045 0.002066378 0.9981968 0.05998952 0.004935484 0.9981958 0.05983979 0.05015613 0.9835967 0.1732686 0.159734 0.8185264 0.5518148 0.1791448 0.9835967 -0.02108961 0.5263653 0.6358824 -0.5644406 0.06740943 0.5722631 0.8172948 0.1263435 0.4657592 0.8758457 0.157639 0.3889684 0.9076637 0.07050832 0.3103869 0.9479919 0.004483952 0.3415483 0.9398535 0.0341423 0.3218281 0.9461823 0.01222807 0.8951047 0.4456882 0.02139833 0.6255288 0.7799075 0.0290533 0.6172314 0.786245 0.2909274 0.5630214 -0.7735426 0.004935521 0.9981958 -0.05983986 0.01473542 0.9838011 -0.178657 0.01473538 0.9838011 -0.1786572 0.07777025 0.3238306 -0.9429133 0.0600087 0.9980798 0.01534773 -0.3926595 0.5834696 -0.710902 -0.3550821 0.5492685 -0.7564527 -0.1497283 0.8473057 -0.5095631 -0.2072075 0.7135866 -0.6692229 0.004935498 0.9981958 -0.0598398 0.002049222 0.9981968 -0.05999042 -0.4051042 0.8668871 0.2905121 -0.5984187 0.7616116 0.2486819 -0.3497108 0.9176484 0.1887422 -0.4013898 0.8704004 0.2851129 -0.402068 0.8697191 0.2862341 -0.2850016 0.944577 -0.162937 -0.3489003 -0.1905503 -0.9175833 -0.3929549 -0.1810667 -0.9015549 -0.4483039 -0.6986327 -0.5576164 -0.3939668 -0.590506 -0.7043385 -0.531752 -0.6619136 -0.5283089 -0.5709241 -0.5709235 -0.5899933 -0.5772141 -0.5244786 -0.6258962 -0.1513174 -0.8690109 -0.4710871 -0.2133106 -0.9321033 -0.2927149 -0.9999999 0.0001129121 -0.0003540506 -0.5767183 -0.2462828 -0.7789357 -0.5573106 0.04364606 -0.829156 -0.5440953 0.0009955437 -0.8390229 -0.3236384 0.9394173 -0.1129301 -0.5723168 0.1958408 -0.7963039 -0.5825146 0.3111796 -0.7508954 -0.4004077 0.199665 -0.8943197 0.7837371 0.5192598 0.3407718 0.7513741 0.5630218 0.3441563 0.7779552 0.3580756 0.5163019 0.6572245 -0.6146588 0.4361771 0.8332027 -0 0.5529677 0.8332028 1.143598e-07 0.5529675 0.06001157 -0.9981272 -0.01186207 0.06000552 -0.9980266 0.01849858 0.05057387 -0.9984509 0.02319443 0.8575009 -0.4447346 0.2586566 0.8213788 -0.4447346 0.3571385 0.5060669 -0.8151878 0.281718 0.6538873 -0.6267501 0.423811 0.9170631 0 -0.3987421 0.9573931 0 -0.2887879 0.9691411 -0.2185149 -0.1140909 0.9691411 -0.2185149 0.1140909 0.8134061 -0.5578204 0.1649453 0.3576174 -0.9032058 -0.2373379 0.1021777 -0.9831991 -0.1512598 0.08338602 -0.9856229 -0.1469501 -0.199381 -0.9797176 -0.02001711 -0.283881 -0.9582412 0.03443151 -0.08105613 -0.9965768 0.01626565 -0.199381 -0.9797177 0.02001524 -0.3096426 -0.9451841 0.1036754 -0.316555 -0.9427687 0.1047863 -0.3379914 -0.9297609 0.1459679 -0.3373768 -0.9347555 0.1113959 -0.320438 -0.9409487 0.1092465 0.06467874 -0.6171442 0.7841873 0.06467814 -0.6171483 0.784184 0.1075815 -0.6171441 0.7794609 0.01161704 -0.8951136 0.4456868 0.01246883 -0.8906955 0.4544293 0.03588203 -0.8996919 0.4350482 0.01062345 -0.3395525 0.9405271 0.1093882 -0.2485969 0.9624104 0.1271391 -0.4581251 0.8797483 0.1678436 -0.3601866 0.9176569 0.1694328 -0.3559274 0.9190257 0.02928134 -0.5086598 0.8604695 0.09586057 -0.5145236 0.8521011 -0.5572384 0.04160408 0.8293096 -0.3089595 -0.05818205 0.9492939 -0.5543235 -0.05265776 0.8306339 -0.5513714 -0.06395855 0.8318046 -0.0002907746 -0.9938692 0.1105621 0.001813818 -0.9975756 0.06956671 0.001065287 -0.9838148 0.1791848 0.004670836 -0.9838046 0.179183 0.004670947 -0.9838047 0.1791826 0.002049688 -0.9981968 0.05999039 0.004935487 -0.9981958 0.05983978 0.004935499 -0.9981958 0.05983981 0.03435041 -0.9982364 0.04841814 0.0111037 -0.99786 0.06443784 0.008289944 -0.9981962 0.05946098 2.06902e-07 -1 2.916358e-07 1.765378e-07 -1 8.09646e-08 1.575849e-07 -1 0 4.477085e-07 -1 3.211262e-06 8.40781e-07 -1 1.019396e-05 -6.312613e-09 -0.9989855 0.0450335 0.001414243 -0.9985271 0.05423574 0.1075815 0.6171441 0.7794609 0.06095878 0.8951067 0.4416651 0.08691215 0.8203595 0.5652049 0.06467877 0.6171441 0.7841874 0.06467803 0.6171494 0.7841833 0.0366489 0.8951067 0.4443431 0.03664896 0.8951048 0.4443471 0.3956567 0.4447338 0.8035344 0.2909272 0.5630211 0.7735429 0.2596184 0.3580754 0.8968725 0.4417474 1.09157e-07 0.8971394 0.4417472 6.568384e-08 0.8971395 0.3203136 4.762775e-08 0.9473116 0.2757616 0.1281861 0.9526405 0.001200453 0.9838147 0.1791848 0.004669848 0.9838046 0.179183 -0.0003380743 0.9938089 0.1111025 0.001818869 0.9975591 0.06980364 0.01467817 0.9839277 0.1779629 0.01467809 0.9839277 0.1779627 0.02459289 0.98369 0.178183 0.02475046 0.9838048 0.1775266 0.004935495 0.9981958 0.05983981 0.3990705 0.8109328 -0.4279377 0.1659567 0.9831989 -0.07601403 0.5263664 0.6358811 -0.5644411 0.6820098 1.179184e-07 -0.731343 0.4451063 0.8939434 -0.05239961 -0.0005021165 0.6388883 0.7692994 0.01405004 0.6298372 0.7766001 -0.08922677 0.6329682 0.7690187 0.5436076 7.46119e-08 -0.8393395 0.4417479 6.063132e-08 -0.8971393 -0.002053736 0.9894634 -0.1447678 0.001813044 0.9975747 -0.06957993 0.02814684 0.9861676 -0.1633438 0.02475047 0.9838047 -0.1775265 0.03588196 0.8996929 -0.4350463 0.06467874 0.6171442 -0.7841873 0.1075814 0.6171442 -0.7794609 0.08691205 0.8203598 -0.5652044 0.06283895 0.8904498 -0.450722 0.06684551 0.2199299 -0.9732227 0.06186525 0.9979591 -0.01582254 0.06001155 0.9981272 -0.01186205 0.04501612 0.9978951 -0.04668144 0.04839124 0.9979478 0.04193351 0.05005062 0.9984828 0.02295444 -0.06962315 -0.108114 -0.9916975 -0.1684182 0.6084722 -0.7754978 -0.1316866 0.2180357 -0.9670156 -0.137658 0.228338 -0.9638008 0.035882 0.8996918 -0.4350484 0.06467801 0.6171494 -0.7841833 -0.1039949 0.8903202 -0.4433 3.059277e-12 1 -2.2063e-05 5.826932e-09 0.9989855 -0.04503467 0.001412882 0.9985276 -0.05422778 -1.772132e-07 1 0 -1.867789e-07 1 3.748121e-08 -1.867789e-07 1 -3.748122e-08 -0.6022093 0.7944486 0.07871176 -0.5813719 0.8098736 0.07817639 -0.5813718 0.8098736 -0.07817637 -0.3192739 0.9413617 0.109098 -0.3380943 0.9280956 0.155983 -0.3373787 0.9347548 0.1113961 -0.3596302 -0.557416 -0.7483005 -0.3279632 -0.5070677 -0.7970712 -0.176541 -0.6953096 -0.6966906 -0.2089802 -0.7288527 -0.6519977 -0.110099 -0.2810048 -0.9533701 -0.1216131 -0.2030646 -0.9715837 -0.3634881 0.0024409 -0.9315957 -0.3355112 0.1375242 -0.9319438 -0.3499334 0.1338135 -0.9271681 -0.6031833 -0.405075 -0.6870837 -0.6011233 -0.3465461 -0.7201087 0.8933166 0.3596897 0.2694601 0.9931418 1.36145e-07 0.1169167 0.9931418 1.717126e-07 0.1169164 0.5417707 0.6232908 0.5639088 0.5379632 0.6146592 0.5768792 0.5247604 0.6232898 0.5797727 0.2903317 0.8549756 0.4297954 0.1045723 0.9823952 0.1548047 0.1214159 0.9870098 0.1052132 0.917063 1.578805e-07 0.3987423 0.917063 0 0.3987423 0.9170628 1.258698e-07 0.3987429 0.9573931 -0 0.2887881 0.9573932 1.314053e-07 0.2887875 0.9573931 1.650569e-07 0.2887881 0.02940943 -0.9982229 -0.05182785 0.05071209 -0.9981461 -0.0336558 0.05105361 -0.998485 -0.02052575 0.03122926 -0.9985477 -0.04390224 1.739566e-07 -1 -6.993808e-08 2.068301e-07 -1 -2.90763e-07 0.9232811 -0.359028 -0.136568 0.8933163 -0.3596906 -0.2694598 0.5879267 -0.7627741 -0.2692913 0.7837368 -0.5192605 -0.3407715 0.7513739 -0.5630223 -0.3441559 0.777955 -0.3580755 -0.5163022 0.8332025 0 -0.552968 0.6820098 0 -0.731343 0.5379649 -0.6146584 -0.5768785 0.5417721 -0.6232894 -0.563909 -0.007855585 -0.7934077 -0.6086399 0.2596183 -0.3580747 -0.8968728 0.5247599 -0.6232904 -0.5797725 0.2903317 -0.8549756 -0.4297955 0.2909274 -0.5630214 -0.7735426 0.2550059 -0.6893803 -0.6780315 -0.2689253 0.2406798 0.9326052 -0.5159928 0.240968 0.8220012 -0.5032718 0.26553 0.8223207 0.08691215 -0.8203595 0.5652049 0.06425733 -0.9831989 0.1708531 0.02814683 -0.9861676 0.1633438 0.1597341 -0.8185263 0.5518149 0.164675 -0.8838367 0.4378526 0.7779548 0.3580762 -0.516302 0.8332027 1.143598e-07 -0.5529678 0.8332025 1.440594e-07 -0.552968 0.9170628 1.253314e-07 -0.3987427 0.9170631 1.585587e-07 -0.3987422 0.5647227 0.8197695 -0.09521713 0.5265865 0.8151881 -0.2411951 0.5265876 0.8151871 -0.241196 0.7513736 0.5630224 -0.3441561 0.7837371 0.5192598 -0.3407716 -0.0892344 0.6329671 0.7690188 -0.2949887 0.584843 0.7556059 -0.2466739 0.604888 0.757141 -0.128001 0.5358378 0.8345619 -0.07063539 0.6252812 0.7771962 0.09351289 0.2199329 -0.9710225 0.150651 1.981578e-08 -0.9885871 0.2596183 0.3580747 -0.8968728 0.136715 0.01153932 -0.9905432 0.1362591 0.3601766 -0.9228794 0.1333782 0.2198739 -0.9663672 0.4417479 5.827929e-08 -0.8971392 0.5436076 7.181421e-08 -0.8393396 0.3956572 -0.4447336 -0.8035343 0.4868891 -0.4447336 -0.7517653 0.5436074 1.455427e-07 -0.8393396 0.441748 1.129477e-07 -0.8971393 0.4868891 0.4447334 -0.7517654 0.3956573 0.4447335 -0.8035344 0.203891 0.8151878 -0.5421229 0.2038904 0.8151886 -0.542122 0.3990696 0.8109336 -0.4279371 0.06425732 0.9831989 -0.1708531 0.1080124 0.9873793 -0.1158257 0.1080124 0.9873792 -0.1158257 0.02052255 0.006403685 -0.9997689 0.02742356 0.01763811 -0.9994683 0.07904115 1.194605e-08 -0.9968714 0.06852278 0.003717578 -0.9976426 0.06536267 9.894398e-09 -0.9978616 0.02153424 0.9981272 0.05725708 0.03094537 0.9985688 0.04361861 0.008289954 0.9981961 0.05946099 0.008289944 0.9981962 0.05946097 0.07904112 1.265676e-08 -0.9968713 0.09586002 1.534995e-08 -0.9953948 0.09586003 1.31571e-08 -0.9953948 0.01098942 8.57594e-05 -0.9999396 0.02675652 0.2198724 -0.9751617 0.02675644 0.2198709 -0.9751619 0 0.9774148 -0.2113299 0.002926437 0.9838113 -0.1791839 0.004669943 0.9838047 -0.1791829 0.004669858 0.9838046 -0.1791827 -0.08105613 0.9965768 0.01626565 -0.1993779 0.9797183 0.02001514 -0.3174019 0.9422738 0.1066595 -0.2838812 0.958241 0.03443196 -0.08105625 0.9965768 -0.01626568 -0.1993779 0.9797182 -0.02001552 -0.2838812 0.958241 -0.03443242 -0.3096422 0.9451841 -0.1036759 -0.3165555 0.9427684 -0.104787 -0.3109936 -0.1270589 -0.9418805 -0.3307953 0 -0.9437025 -0.6004387 0.625 -0.4988471 -0.4487246 0.6984671 -0.5574853 -0.4409768 0.7929246 -0.4204879 -0.5970986 0.7625312 -0.2490373 -0.9999998 0.0006323014 -0.000163081 -0.606873 0.687407 -0.3989698 -0.6045979 0.6994959 -0.3810078 -0.6089236 0.7932288 0.0004196152 -0.6017573 0.7947921 -0.07870061 -0.3197178 0.9282023 -0.1903181 -0.3641134 0.9077069 -0.2085415 -0.4275519 0.8194774 -0.3816494 -0.2227012 0.9321417 -0.28551 -0.2471077 0.9180268 -0.3101042 0.5879263 0.7627743 0.2692913 0.3576166 0.9032061 0.2373378 0.4615161 0.8821374 0.09400285 0.4439987 0.8917191 0.08776221 0.1543759 0.9826858 0.102454 0.167559 0.9849302 0.04285461 0.1790723 0.9831989 0.03539601 0.7833821 -0.6146604 -0.09222295 0.7773911 -0.6099598 0.1536617 0.4439987 -0.8917191 -0.08776222 0.4615165 -0.8821371 -0.094003 0.4439987 -0.8917191 0.08776221 0.562441 -0.8164569 0.1306079 -0.005426771 -0.9630873 -0.2691344 -0.002255684 -0.8951718 -0.4457157 -0.002032453 -0.9896592 -0.1434241 0.001819657 -0.99756 -0.06979048 0.003127157 -0.9838107 -0.1791838 0.004670966 -0.9838047 -0.1791827 0.009517682 -0.9980535 -0.06163273 -0.1036636 0.1269732 0.9864744 -0.03075727 0.04758824 0.9983934 -0.5514307 0.06395944 0.8317652 -0.5325799 0.1588627 0.831337 0.05622055 0.05887058 0.9966813 0.05608515 0.05926237 0.9966657 0.02475047 -0.9838047 0.1775265 0.01473537 -0.9838011 0.178657 0.01473536 -0.9838011 0.178657 0.035882 -0.8996929 0.4350464 0.06283898 -0.8904498 0.4507222 0.8933166 0.3596897 -0.2694599 0.9931418 1.36145e-07 -0.1169167 0.9931418 1.715023e-07 -0.1169164 0.9573933 1.314053e-07 -0.2887873 0.9573931 1.655317e-07 -0.2887879 0.7833821 0.6146604 -0.09222273 0.7833821 0.6146604 0.09222271 0.9691411 0.2185149 -0.1140909 0.9232814 0.3590272 -0.1365678 0.9232815 0.3590272 0.1365678 0.9691411 0.2185149 0.1140909 0.1075814 -0.6171442 -0.7794608 0.0935129 -0.2199329 -0.9710225 0.1362591 -0.3601767 -0.9228793 0.1333782 -0.2198738 -0.9663672 0.1471788 -0.0003893962 -0.9891098 0.1367193 -0.008370931 -0.9905745 0.128915 0.0005957212 -0.9916555 0.0282552 6.446836e-06 -0.9996007 0.001494284 0 -0.9999989 0.02158141 0.6171489 -0.7865503 0.02158118 0.6171448 -0.7865536 8.728315e-08 0.6172884 -0.7867369 0 0.6172898 -0.7867358 0.01246839 0.8906953 -0.4544297 0.01161654 0.8951136 -0.4456868 -0.4554186 0.8446304 -0.2814134 -0.406673 0.8707513 -0.2764225 -0.4206005 0.8452815 -0.3295366 0.08691205 -0.8203598 -0.5652044 0.159734 -0.8185266 -0.5518144 0.05015613 -0.9835966 -0.1732686 0.0263709 -0.9849584 -0.1707675 0.01473543 -0.9838011 -0.178657 0.02475047 -0.9838047 -0.1775265 0.06283893 -0.8904499 -0.4507219 0.004935524 -0.9981958 -0.05983985 4.477082e-07 -1 -3.211254e-06 0.008289966 -0.9981962 -0.05946101 0.1121638 1.536385e-08 -0.9936897 0.128273 0.000494815 -0.9917388 0.1289212 -0.002739191 -0.9916511 3.110076e-08 -0.2199524 -0.9755106 -0.003170793 -0.2827222 -0.9591966 0.001361245 -0.6172864 -0.7867373 0.02742645 -0.01005072 -0.9995733 0.06852303 -0.002026459 -0.9976475 0.06536259 0 -0.9978616 0.04303008 0 -0.9990738 0.04285501 -2.089758e-05 -0.9990814 0.01151261 1.481256e-07 -0.9999338 0.01146398 -0.0002738709 -0.9999343 0.02816538 -1.778457e-07 -0.9996032 0.02192197 -0.005008985 -0.9997472 0.004671032 -0.9838048 -0.1791829 0.01473538 -0.983801 -0.1786572 0.0124693 -0.8906957 -0.454429 0.01161753 -0.8951136 -0.4456868 0.035882 -0.8996919 -0.4350482 0.03588197 -0.8996928 -0.4350463 8.407787e-07 -1 -1.019391e-05 0.0049355 -0.9981957 -0.0598398 0.001407751 -0.9985406 -0.05398687 0.002066815 -0.9981968 -0.05998952 0.02675661 -0.2198736 -0.9751614 0.0267568 -0.219871 -0.975162 0.02158206 -0.6171486 -0.7865505 0.02158176 -0.6171431 -0.7865549 0.06467812 -0.6171483 -0.7841841 0.06467871 -0.6171441 -0.7841874 0.0777702 -0.3238311 -0.9429131 0.06684543 -0.2199299 -0.9732227 -0.7071072 -0.7071063 -0 -0.7071072 -0.7071063 0 0 -1 0 0 -1 0 0 -1 0 0 -1 -0 -1 0 0 -1 0 0 -1 0 0 -1 0 0 -1 0 0 -1 0 -0 -1 0 0 0.2780554 3.8164e-08 -0.9605651 0.2780554 3.587052e-08 -0.9605651 0 1 0 0 1 0 0 1 -0 0 1 0 0 1 0 0 1 0 0 1 0 3.110058e-08 0.2199511 -0.9755109 3.097102e-08 0.2199511 -0.9755109 0 0 -1 0 0 -1 0 0 -1 -0 0 -1 0 0 -1 0 0 -1 0 0.895174 -0.4457168 0 0.895174 -0.4457168</float_array>
          <technique_common>
            <accessor count="586" source="#cubenormals-array0-array" stride="3">
              <param type="float" name="X"/>
              <param type="float" name="Y"/>
              <param type="float" name="Z"/>
            </accessor>
          </technique_common>
        </source>
        <vertices id="cubeverts-array0-vertices">
          <input semantic="POSITION" source="#cubeverts-array0"/>
        </vertices>
        <triangles count="586" material="ref_link_4_r_stl003">
          <input offset="0" semantic="VERTEX" source="#cubeverts-array0-vertices"/>
          <input offset="1" semantic="NORMAL" source="#cubenormals-array0"/>
          <p>39 0 1 0 32 0 45 1 98 1 78 1 4 2 1 2 11 2 1 3 39 3 11 3 39 4 4 4 11 4 28 5 24 5 13 5 24 6 30 6 13 6 30 7 32 7 13 7 32 8 1 8 13 8 238 9 235 9 224 9 238 10 224 10 221 10 257 11 250 11 253 11 92 12 115 12 116 12 115 13 224 13 116 13 45 14 78 14 34 14 7 15 45 15 34 15 61 16 27 16 65 16 28 17 67 17 24 17 73 18 100 18 85 18 115 19 92 19 111 19 39 20 32 20 75 20 30 21 75 21 32 21 30 22 24 22 75 22 24 23 67 23 75 23 73 24 85 24 75 24 75 25 67 25 73 25 110 26 97 26 79 26 85 27 79 27 75 27 79 28 97 28 39 28 39 29 75 29 79 29 4 30 39 30 19 30 19 31 15 31 4 31 39 32 89 32 19 32 19 33 89 33 15 33 5 34 17 34 45 34 45 35 7 35 5 35 4 36 17 36 5 36 224 37 115 37 209 37 205 38 221 38 209 38 221 39 224 39 209 39 257 40 242 40 250 40 238 41 242 41 235 41 238 42 221 42 242 42 221 43 250 43 242 43 73 44 135 44 100 44 230 45 213 45 253 45 253 46 250 46 230 46 250 47 221 47 230 47 266 48 252 48 274 48 218 49 217 49 197 49 246 50 251 50 271 50 246 51 212 51 198 51 212 52 180 52 198 52 180 53 169 53 198 53 144 54 64 54 125 54 69 55 144 55 125 55 64 56 69 56 125 56 74 57 99 57 121 57 119 58 154 58 121 58 107 59 119 59 121 59 99 60 107 60 121 60 82 61 99 61 74 61 68 62 78 62 82 62 74 63 68 63 82 63 107 64 99 64 82 64 91 65 107 65 82 65 78 66 91 66 82 66 78 67 36 67 34 67 78 68 68 68 36 68 26 69 36 69 68 69 7 70 34 70 36 70 8 71 7 71 36 71 26 72 8 72 36 72 23 73 65 73 27 73 27 74 12 74 23 74 29 75 23 75 12 75 61 76 65 76 70 76 29 77 76 77 23 77 65 78 23 78 76 78 76 79 70 79 65 79 46 80 6 80 33 80 9 81 6 81 46 81 104 82 44 82 46 82 293 83 294 83 289 83 293 84 288 84 294 84 244 85 243 85 258 85 59 86 67 86 28 86 28 87 13 87 42 87 42 88 58 88 51 88 13 89 12 89 42 89 42 90 12 90 27 90 61 91 58 91 42 91 27 92 61 92 42 92 110 93 160 93 183 93 110 94 137 94 158 94 160 95 110 95 158 95 85 96 100 96 101 96 110 97 79 97 101 97 85 98 101 98 79 98 101 99 137 99 110 99 101 100 135 100 137 100 100 101 135 101 101 101 115 102 111 102 117 102 117 103 209 103 115 103 39 104 97 104 93 104 39 105 93 105 89 105 117 106 111 106 93 106 111 107 92 107 93 107 92 108 89 108 93 108 92 109 87 109 89 109 15 110 89 110 87 110 45 111 94 111 98 111 257 112 259 112 242 112 268 113 255 113 259 113 231 114 234 114 241 114 234 115 235 115 241 115 235 116 242 116 241 116 241 117 259 117 255 117 242 118 259 118 241 118 62 119 71 119 59 119 73 120 67 120 71 120 67 121 59 121 71 121 213 122 215 122 240 122 253 123 213 123 240 123 252 124 266 124 240 124 240 125 266 125 253 125 61 126 70 126 130 126 247 127 274 127 252 127 249 128 247 128 228 128 247 129 249 129 265 129 274 130 247 130 265 130 203 131 231 131 218 131 116 132 207 132 203 132 148 133 121 133 154 133 144 134 69 134 148 134 148 135 170 135 144 135 218 136 197 136 199 136 218 137 199 137 203 137 273 138 271 138 251 138 261 139 243 139 232 139 182 140 162 140 114 140 203 141 182 141 114 141 116 142 203 142 114 142 96 143 116 143 114 143 98 144 94 144 114 144 114 145 94 145 96 145 154 146 119 146 156 146 119 147 114 147 156 147 162 148 156 148 114 148 232 149 223 149 204 149 147 150 169 150 180 150 180 151 188 151 147 151 151 152 147 152 188 152 184 153 167 153 161 153 245 154 251 154 226 154 33 155 77 155 46 155 83 156 46 156 77 156 77 157 80 157 106 157 83 158 77 158 106 158 169 159 147 159 143 159 72 160 143 160 147 160 26 161 68 161 38 161 26 162 38 162 8 162 69 163 64 163 38 163 74 164 69 164 38 164 68 165 74 165 38 165 63 166 72 166 60 166 41 167 48 167 40 167 41 168 40 168 16 168 29 169 31 169 76 169 40 170 76 170 31 170 29 171 12 171 31 171 31 172 12 172 0 172 0 173 40 173 31 173 95 174 81 174 76 174 70 175 76 175 81 175 3 176 6 176 9 176 16 177 40 177 3 177 9 178 14 178 3 178 14 179 16 179 3 179 43 180 60 180 37 180 14 181 9 181 18 181 9 182 46 182 18 182 44 183 18 183 46 183 282 184 268 184 276 184 262 185 268 185 282 185 255 186 268 186 262 186 257 187 253 187 270 187 257 188 270 188 259 188 268 189 259 189 270 189 227 190 247 190 252 190 252 191 240 191 227 191 227 192 240 192 215 192 289 193 278 193 272 193 278 194 270 194 272 194 253 195 266 195 272 195 270 196 253 196 272 196 279 197 277 197 269 197 279 198 288 198 277 198 291 199 288 199 293 199 293 200 289 200 291 200 289 201 272 201 291 201 249 202 263 202 265 202 249 203 228 203 219 203 219 204 228 204 211 204 51 205 58 205 53 205 55 206 42 206 51 206 55 207 53 207 62 207 51 208 53 208 55 208 62 209 59 209 55 209 59 210 42 210 55 210 47 211 59 211 28 211 28 212 42 212 47 212 59 213 47 213 42 213 183 214 160 214 175 214 160 215 158 215 175 215 205 216 183 216 175 216 137 217 135 217 153 217 137 218 153 218 158 218 175 219 158 219 153 219 97 220 112 220 93 220 117 221 93 221 112 221 112 222 183 222 205 222 205 223 209 223 112 223 209 224 117 224 112 224 97 225 110 225 112 225 110 226 183 226 112 226 4 227 86 227 17 227 92 228 86 228 87 228 4 229 15 229 86 229 15 230 87 230 86 230 73 231 71 231 133 231 71 232 150 232 133 232 133 233 135 233 73 233 133 234 153 234 135 234 150 235 153 235 133 235 150 236 71 236 146 236 172 237 150 237 146 237 150 238 172 238 179 238 213 239 195 239 215 239 213 240 179 240 195 240 179 241 172 241 195 241 215 242 195 242 131 242 131 243 227 243 215 243 130 244 227 244 131 244 131 245 195 245 172 245 172 246 146 246 131 246 71 247 62 247 131 247 71 248 131 248 146 248 182 249 203 249 174 249 174 250 199 250 173 250 203 251 199 251 174 251 174 252 162 252 182 252 162 253 174 253 156 253 174 254 173 254 154 254 154 255 156 255 174 255 234 256 231 256 222 256 231 257 203 257 222 257 207 258 222 258 203 258 222 259 235 259 234 259 222 260 224 260 235 260 222 261 116 261 224 261 222 262 207 262 116 262 74 263 121 263 123 263 121 264 148 264 123 264 123 265 69 265 74 265 123 266 148 266 69 266 154 267 173 267 178 267 154 268 178 268 148 268 173 269 199 269 178 269 178 270 199 270 197 270 170 271 148 271 178 271 260 272 261 272 232 272 246 273 271 273 260 273 243 274 261 274 254 274 258 275 243 275 254 275 271 276 273 276 284 276 113 277 119 277 107 277 113 278 114 278 119 278 107 279 91 279 113 279 243 280 244 280 237 280 225 281 223 281 237 281 80 282 72 282 122 282 72 283 147 283 122 283 180 284 212 284 200 284 180 285 200 285 188 285 151 286 188 286 176 286 184 287 161 287 176 287 204 288 184 288 176 288 200 289 204 289 176 289 188 290 200 290 176 290 164 291 161 291 167 291 246 292 220 292 251 292 251 293 220 293 226 293 246 294 198 294 220 294 217 295 245 295 214 295 245 296 226 296 214 296 41 297 103 297 48 297 83 298 106 298 105 298 104 299 46 299 105 299 105 300 46 300 83 300 151 301 176 301 155 301 155 302 176 302 161 302 80 303 108 303 106 303 63 304 143 304 124 304 72 305 63 305 124 305 143 306 72 306 124 306 144 307 143 307 54 307 54 308 64 308 144 308 54 309 143 309 63 309 8 310 38 310 22 310 43 311 22 311 38 311 43 312 37 312 22 312 64 313 43 313 50 313 64 314 50 314 38 314 43 315 38 315 50 315 84 316 76 316 40 316 40 317 48 317 84 317 102 318 95 318 84 318 95 319 76 319 84 319 84 320 103 320 102 320 48 321 103 321 84 321 16 322 14 322 21 322 21 323 18 323 44 323 14 324 18 324 21 324 40 325 0 325 2 325 3 326 40 326 2 326 282 327 276 327 287 327 294 328 287 328 289 328 294 329 292 329 287 329 255 330 262 330 248 330 248 331 241 331 255 331 231 332 241 332 248 332 218 333 231 333 248 333 217 334 218 334 248 334 248 335 245 335 217 335 268 336 280 336 276 336 280 337 270 337 278 337 268 338 270 338 280 338 278 339 289 339 280 339 289 340 287 340 280 340 287 341 276 341 280 341 211 342 228 342 196 342 228 343 247 343 216 343 247 344 227 344 216 344 216 345 196 345 228 345 227 346 130 346 216 346 130 347 196 347 216 347 288 348 291 348 283 348 283 349 277 349 288 349 265 350 263 350 283 350 269 351 277 351 283 351 283 352 263 352 269 352 269 353 263 353 256 353 258 354 269 354 256 354 256 355 244 355 258 355 249 356 244 356 256 356 263 357 249 357 256 357 136 358 95 358 102 358 225 359 206 359 210 359 233 360 244 360 249 360 249 361 219 361 233 361 233 362 206 362 225 362 219 363 206 363 233 363 96 364 94 364 90 364 45 365 17 365 90 365 94 366 45 366 90 366 205 367 175 367 201 367 213 368 230 368 201 368 213 369 201 369 179 369 205 370 201 370 221 370 230 371 221 371 201 371 267 372 254 372 261 372 269 373 258 373 267 373 258 374 254 374 267 374 279 375 269 375 267 375 279 376 267 376 275 376 271 377 284 377 281 377 260 378 271 378 281 378 261 379 260 379 281 379 281 380 267 380 261 380 275 381 267 381 281 381 109 382 113 382 91 382 109 383 78 383 98 383 109 384 91 384 78 384 98 385 114 385 109 385 114 386 113 386 109 386 167 387 184 387 186 387 210 388 193 388 208 388 204 389 223 389 208 389 193 390 186 390 208 390 184 391 204 391 208 391 208 392 186 392 184 392 225 393 237 393 239 393 239 394 237 394 244 394 225 395 239 395 233 395 244 396 233 396 239 396 243 397 237 397 236 397 237 398 223 398 236 398 232 399 243 399 236 399 236 400 223 400 232 400 232 401 204 401 229 401 204 402 200 402 229 402 232 403 229 403 260 403 229 404 200 404 212 404 229 405 212 405 246 405 246 406 260 406 229 406 140 407 128 407 142 407 128 408 164 408 142 408 167 409 166 409 165 409 165 410 164 410 167 410 166 411 164 411 165 411 217 412 194 412 197 412 217 413 214 413 194 413 197 414 194 414 178 414 170 415 178 415 194 415 168 416 166 416 167 416 167 417 186 417 168 417 186 418 187 418 168 418 138 419 128 419 140 419 128 420 129 420 164 420 161 421 164 421 129 421 80 422 120 422 108 422 80 423 122 423 120 423 120 424 147 424 151 424 122 425 147 425 120 425 64 426 54 426 56 426 56 427 54 427 52 427 43 428 64 428 56 428 56 429 52 429 43 429 63 430 57 430 54 430 52 431 54 431 57 431 43 432 52 432 57 432 63 433 60 433 57 433 60 434 43 434 57 434 41 435 16 435 20 435 16 436 21 436 20 436 33 437 6 437 35 437 77 438 33 438 35 438 77 439 35 439 25 439 37 440 25 440 10 440 6 441 8 441 10 441 35 442 6 442 10 442 25 443 35 443 10 443 8 444 22 444 10 444 10 445 22 445 37 445 66 446 60 446 72 446 66 447 37 447 60 447 77 448 25 448 66 448 72 449 80 449 66 449 80 450 77 450 66 450 264 451 262 451 282 451 262 452 264 452 248 452 282 453 284 453 264 453 264 454 284 454 273 454 245 455 248 455 264 455 251 456 245 456 264 456 264 457 273 457 251 457 283 458 291 458 285 458 291 459 272 459 285 459 274 460 265 460 285 460 265 461 283 461 285 461 266 462 274 462 285 462 285 463 272 463 266 463 134 464 81 464 95 464 95 465 136 465 134 465 70 466 81 466 132 466 132 467 149 467 70 467 81 468 134 468 132 468 132 469 134 469 149 469 211 470 196 470 181 470 96 471 90 471 88 471 86 472 92 472 88 472 17 473 86 473 88 473 88 474 90 474 17 474 92 475 116 475 88 475 116 476 96 476 88 476 179 477 201 477 189 477 150 478 189 478 153 478 150 479 179 479 189 479 175 480 153 480 189 480 189 481 201 481 175 481 275 482 281 482 286 482 294 483 288 483 286 483 286 484 292 484 294 484 286 485 288 485 279 485 279 486 275 486 286 486 284 487 290 487 281 487 284 488 282 488 290 488 292 489 286 489 290 489 286 490 281 490 290 490 282 491 287 491 290 491 290 492 287 492 292 492 206 493 177 493 185 493 185 494 168 494 187 494 210 495 206 495 185 495 185 496 187 496 210 496 193 497 210 497 192 497 210 498 187 498 192 498 186 499 193 499 192 499 140 500 142 500 141 500 128 501 138 501 127 501 118 502 155 502 161 502 161 503 129 503 118 503 105 504 118 504 129 504 118 505 105 505 106 505 151 506 155 506 118 506 118 507 120 507 151 507 25 508 37 508 49 508 37 509 66 509 49 509 25 510 49 510 66 510 177 511 206 511 202 511 202 512 206 512 219 512 202 513 219 513 211 513 211 514 181 514 202 514 190 515 181 515 149 515 202 516 181 516 190 516 177 517 202 517 190 517 149 518 181 518 171 518 171 519 196 519 130 519 196 520 171 520 181 520 191 521 187 521 186 521 186 522 192 522 191 522 187 523 191 523 192 523 103 524 127 524 126 524 102 525 103 525 126 525 102 526 126 526 136 526 141 527 163 527 127 527 166 528 168 528 163 528 166 529 163 529 164 529 142 530 164 530 163 530 142 531 163 531 141 531 139 532 138 532 140 532 138 533 139 533 127 533 140 534 141 534 139 534 141 535 127 535 139 535 149 536 134 536 152 536 152 537 190 537 149 537 152 538 136 538 157 538 136 539 152 539 134 539 152 540 157 540 177 540 177 541 190 541 152 541 145 542 171 542 130 542 149 543 171 543 145 543 130 544 70 544 145 544 70 545 149 545 145 545 127 546 159 546 126 546 127 547 163 547 159 547 157 548 136 548 159 548 136 549 126 549 159 549 177 550 157 550 159 550 185 551 177 551 159 551 168 552 185 552 159 552 159 553 163 553 168 553 1 554 0 554 12 554 12 555 13 555 1 555 61 556 130 556 131 556 131 557 53 557 58 557 58 558 61 558 131 558 62 559 53 559 131 559 2 560 5 560 7 560 0 561 1 561 2 561 1 562 4 562 2 562 6 563 3 563 2 563 2 564 7 564 8 564 4 565 5 565 2 565 8 566 6 566 2 566 223 567 225 567 208 567 225 568 210 568 208 568 226 569 220 569 194 569 194 570 198 570 169 570 169 571 143 571 194 571 144 572 170 572 194 572 143 573 144 573 194 573 194 574 220 574 198 574 194 575 214 575 226 575 128 576 104 576 129 576 104 577 105 577 129 577 44 578 104 578 127 578 127 579 20 579 21 579 104 580 128 580 127 580 127 581 103 581 41 581 127 582 21 582 44 582 41 583 20 583 127 583 108 584 120 584 118 584 106 585 108 585 118 585</p>
        </triangles>
      </mesh>
    </geometry>
  </library_geometries>
  <library_materials>
    <material id="mat_link_4_r_stl003" name="link_4_r_stl003">
      <instance_effect url="#effect_link_4_r_stl003"/>
    </material>
  </library_materials>
  <library_visual_scenes>
    <visual_scene id="myscene">
      <node id="node0" name="node0">
        <instance_geometry url="#geometry0">
          <bind_material>
            <technique_common>
              <instance_material symbol="ref_link_4_r_stl003" target="#mat_link_4_r_stl003"/>
            </technique_common>
          </bind_material>
        </instance_geometry>
      </node>
    </visual_scene>
  </library_visual_scenes>
  <scene>
    <instance_visual_scene url="#myscene"/>
  </scene>
</COLLADA>
