<COLLADA xmlns="http://www.collada.org/2005/11/COLLADASchema" version="1.4.1">
  <asset>
    <contributor/>
    <created>2026-02-17T13:35:53.424187</created>
    <modified>2026-02-17T13:35:53.424191</modified>
    <unit name="meter" meter="1.0"/>
    <up_axis>Z_UP</up_axis>
  </asset>
  <library_effects>
    <effect id="effect_link_6_t_stl002" name="effect_link_6_t_stl002">
      <profile_COMMON>
        <technique sid="common">
          <phong>
            <emission>
              <color>0.0 0.0 0.0 1.0</color>
            </emission>
            <ambient>
              <color>0.0 0.0 0.0 1.0</color>
            </ambient>
            <diffuse>
              <color>0.6784313917160034 0.7098039388656616 0.7411764860153198 1.0</color>
            </diffuse>
            <specular>
              <color>1 1 1 1.0</color>
            </specular>
            <shininess>
              <float>0.0</float>
            </shininess>
            <reflective>
              <color>0.0 0.0 0.0 1.0</color>
            </reflective>
            <reflectivity>
              <float>0.0</float>
            </reflectivity>
            <transparent>
              <color>0.0 0.0 0.0 1.0</color>
            </transparent>
            <transparency>
              <float>1.0</float>
            </transparency>
          </phong>
        </technique>
        <extra>
          <technique profile="GOOGLEEARTH">
            <double_sided>0</double_sided>
          </technique>
        </extra>
      </profile_COMMON>
    </effect>
  </library_effects>
  <library_geometries>
    <geometry id="geometry0" name="link_6_t_stl002">
      <mesh>
        <source id="cubeverts-array0">
          <float_array count="1191" id="cubeverts-array0-array">-0.01538699 0.001868319 -0.021 -0.01538699 0.00186832 -0.024 -0.01513881 0.001838185 -0.024 -0.01513881 0.001838188 -0.0395 -0.01449275 -0.005496374 -0.024 -0.01449275 -0.005496374 -0.021 -0.014259 -0.005407723 -0.024 -0.014259 -0.005407722 -0.0395 -0.01389792 0.001687516 -0.0365 -0.01389792 0.001687517 -0.0395 -0.01373664 0.001667933 -0.0365 -0.01373664 0.001667933 -0.0395 -0.01315339 0.001597114 -0.036 -0.01309023 -0.004964466 -0.0395 -0.01309023 -0.004964466 -0.0365 -0.01293832 -0.004906855 -0.0395 -0.01293832 -0.004906855 -0.0365 -0.01275625 0.008805004 -0.024 -0.01275625 0.008805004 -0.021 -0.0125505 0.008662989 -0.024 -0.0125505 0.008662992 -0.0395 -0.01238896 -0.004698512 -0.036 -0.01207089 0.003971927 -0.03573823 -0.01173798 -0.004395677 -0.03577426 -0.01152177 0.00795291 -0.0395 -0.01152177 0.00795291 -0.0365 -0.01142745 -0.0001731391 -0.03245755 -0.01138806 0.007860618 -0.0395 -0.01138806 0.007860618 -0.0365 -0.01108582 0.001352134 -0.023 -0.01090453 0.007526861 -0.036 -0.01085244 0.003487586 -0.03291539 -0.01076063 -0.0006508971 -0.0227 -0.01060371 -0.001943202 -0.0235 -0.01054368 -0.001950131 -0.0337533 -0.01047308 0.001271665 -0.0357 -0.01042603 -0.003777811 -0.023 -0.01029217 0.003207173 -0.0235 -0.0102784 -0.01160192 -0.024 -0.0102784 -0.01160192 -0.021 -0.01011262 -0.01141479 -0.024 -0.01011262 -0.01141479 -0.0395 -0.01008416 -0.00537469 -0.03299764 -0.01007236 0.002482617 -0.03394135 -0.00995887 0.000305502 -0.03142205 -0.009927087 2.444722e-09 -0.03393134 -0.009927087 0.00120537 -0.036 -0.009865191 -0.003741372 -0.03140651 -0.00986442 -0.003741079 -0.0357 -0.009830547 0.004424373 -0.0227 -0.009638623 -0.001170338 -0.0395 -0.009350161 -0.003546047 -0.03393134 -0.009350161 -0.003546046 -0.036 -0.009350161 0.003546051 -0.03393134 -0.009283715 -0.01047915 -0.0395 -0.009283715 -0.01047915 -0.0365 -0.009272951 -0.002778817 -0.039875 -0.009225574 -0.005577054 -0.0227 -0.009210108 0.003269642 -0.039875 -0.009185549 -0.004820947 -0.03394135 -0.00917598 -0.01035754 -0.0395 -0.00917598 -0.01035754 -0.0365 -0.009150211 0.006315938 -0.023 -0.00899135 -0.0007900733 -0.03305884 -0.008946466 0.005391432 -0.03132335 -0.008786373 -0.009917765 -0.036 -0.008762667 0.0008479453 -0.039875 -0.008682477 0.005993086 -0.0357 -0.008682474 0.007568459 -0.03261372 -0.008602162 0.002971221 -0.03335721 -0.008549251 -0.007476495 -0.03245915 -0.008504655 -0.001006023 -0.0398125 -0.008501947 -0.004460605 -0.03168926 -0.008486068 -0.006648411 -0.0235 -0.008453982 -0.000944608 -0.03252831 -0.008363014 0.0009623874 -0.03258927 -0.008229836 0.005680651 -0.0395 -0.008229836 0.005680651 -0.036 -0.008196397 0.009841858 -0.03576911 -0.008124395 0.004903936 -0.03166004 -0.008050753 0.007124778 -0.03367014 -0.007923151 -0.00441734 -0.03303878 -0.007749999 2.130789e-09 -0.03174892 -0.007622818 0.007622821 -0.0235 -0.007492816 0.001043433 -0.03975 -0.007430531 -0.006582875 -0.03393134 -0.007430531 0.00658288 -0.03975 -0.007430531 0.00658288 -0.03393134 -0.007372822 -0.008322196 -0.023 -0.007272666 -0.007266313 -0.03122932 -0.007221695 -0.001098166 -0.0325 -0.007203208 0.01372457 -0.02399999 -0.007203208 0.01372457 -0.021 -0.007087028 0.01350321 -0.02399999 -0.007087028 0.01350321 -0.0395 -0.006995943 -0.007896786 -0.0357 -0.006863526 -0.000597882 -0.0398125 -0.006820211 -0.005818348 -0.0378 -0.006773494 -0.004968532 -0.0398125 -0.006713167 0.0003135277 -0.0325 -0.006648411 0.008486072 -0.0227 -0.006631226 -0.007485105 -0.0395 -0.006631226 -0.007485105 -0.036 -0.006506124 0.01239639 -0.0395 -0.006506124 0.01239639 -0.0365 -0.006494779 0.005982004 -0.03286825 -0.006430621 0.01225253 -0.0395 -0.006430621 0.01225253 -0.0365 -0.006295809 -0.01115373 -0.03576911 -0.006157581 0.0117323 -0.036 -0.005675339 0.008752624 -0.03132335 -0.005649284 -0.004512883 -0.0378 -0.005635235 -0.007780558 -0.03984375 -0.005577054 -0.009225575 -0.0227 -0.005166949 0.009844801 -0.023 -0.005010933 0.009547541 -0.0337533 -0.004918229 -0.009328079 -0.03380031 -0.004902829 0.009341564 -0.0357 -0.004759613 -0.009993342 -0.03215521 -0.004745722 -0.00373777 -0.03990625 -0.004701867 -0.00616178 -0.0378 -0.004651191 -0.007498208 -0.03288745 -0.00464723 -0.008854558 -0.03393134 -0.00464723 0.008854564 -0.036 -0.004628922 -0.006531089 -0.0398125 -0.00447315 0.002639642 -0.04 -0.004424371 -0.00983055 -0.0235 -0.00433738 -0.0005266505 -0.0378 -0.00422587 0.001316838 -0.0395 -0.004179886 -0.008677587 -0.03152425 -0.004083422 -0.0005189989 -0.0361 -0.004020403 0.001014822 -0.0363 -0.003926356 0.01069546 -0.03292218 -0.003919044 -0.001763816 -0.0395 -0.003904898 0.008897305 -0.039875 -0.003709392 -0.0150496 -0.024 -0.003709392 -0.0150496 -0.021 -0.003703427 0.002556294 -0.0378 -0.003649563 -0.01480686 -0.024 -0.003649563 -0.01480686 -0.0395 -0.003520193 0.009281993 -0.03393134 -0.003350419 -0.01359318 -0.0395 -0.003350419 -0.01359318 -0.0365 -0.003311538 -0.01343544 -0.0395 -0.003311538 -0.01343544 -0.0365 -0.003306048 -0.0004014249 -0.031 -0.003306048 -0.0004014242 -0.0363 -0.003191829 0.01033727 -0.03181301 -0.003180165 0.008326771 -0.03298842 -0.003170932 -0.01286498 -0.036 -0.002984051 -0.003368296 -0.0363 -0.002822834 0.001948464 -0.031 -0.002822834 0.001948465 -0.0363 -0.002683813 0.01252359 -0.03576911 -0.002660792 -0.01079526 -0.023 -0.002584609 0.01048617 -0.0227 -0.002561018 0.01037063 -0.0235 -0.00252478 -0.01024343 -0.0357 -0.002399702 0.009000473 -0.03190083 -0.002393156 -0.009709416 -0.036 -0.002323615 0.009427283 -0.0395 -0.002223346 0.003677868 -0.0395 -0.002030486 -0.003868766 -0.0378 -0.001807286 -0.004022829 -0.0361 -0.001717999 0.003273377 -0.0363 -0.001702081 -0.002705542 -0.0363 -0.001608861 0.005294275 -0.04 -0.001547681 -0.002948858 -0.0363 -0.001403441 0.00403918 -0.0361 -0.001342468 -0.002973777 -0.031 -0.001305153 -0.004770307 -0.03975 -0.001290225 -0.01062596 -0.0316467 -0.001250424 0.01046449 -0.03384732 -0.001220785 -0.008602033 -0.03246655 -0.001204828 0.007603711 -0.03975 -0.001196578 -0.009854707 -0.03393134 -0.001045627 0.004242279 -0.0378 -0.001045627 0.004242279 -0.0363 -0.001022851 -0.007220437 -0.03975 -0.0009942057 0.008371467 -0.03256332 -0.0008381235 0.006954613 -0.0325 -0.0007970001 0.003233559 -0.031 -0.0007970001 0.00323356 -0.0363 -0.0007783061 -0.00687171 -0.0325 -0.0006992829 0.008676126 -0.039875 -0.0006762641 -0.01135029 -0.03296844 -0.000650898 -0.01076063 -0.0227 -0.000598289 -0.009802353 -0.039875 -0.0005881147 -0.008731997 -0.0398125 -0.0005816629 0.006641737 -0.039875 -0.0005229679 -0.009101905 -0.03321563 -0.0003912636 -0.01280195 -0.03576911 -3.796404e-18 0.0155 -0.021 -3.735172e-18 0.01525 -0.02399999 -3.429011e-18 0.014 -0.0395 -3.389218e-18 0.01383754 -0.0365 -3.245314e-18 0.01325 -0.036 -2.604574e-18 0.01063398 -0.03145352 -2.584004e-18 0.01055 -0.0357 0 -0.009709416 -0.0395 0 -0.007749998 -0.03174892 0 7.212379e-10 -0.021 0 2.03258e-09 -0.031 0 2.727591e-09 -0.0363 0 2.924292e-09 -0.0378 0 0.007750003 -0.03174892 0 0.01 -0.036 0 0.01111834 -0.023 0 0.01383754 -0.0395 0 0.014 -0.0365 0 0.01525 -0.0395 0 0.0155 -0.02399999 0.0002659485 -0.006564489 -0.039875 0.0005287566 0.006652028 -0.0325 0.0005640239 0.006675345 -0.03975 0.0006320177 -0.006742867 -0.0325 0.000650898 -0.01076063 -0.0235 0.0006595907 0.008694248 -0.03975 0.0006687499 0.009067781 -0.03318207 0.001112731 -0.007999506 -0.03252418 0.001134808 -0.007319622 -0.03975 0.001136968 0.007958744 -0.0325 0.001176229 -0.008500318 -0.039875 0.001196578 0.009854712 -0.03393134 0.001242507 0.007599135 -0.039875 0.001250424 -0.01029817 -0.03394135 0.00126239 -0.01034672 -0.03565 0.001360647 0.01133609 -0.03299764 0.001492026 -0.003868766 -0.0363 0.001547681 -0.002948859 -0.031 0.001547681 -0.002948858 -0.0363 0.001594 0.003037117 -0.031 0.001594 0.003037117 -0.0363 0.001843837 0.0096086 -0.03990625 0.001943202 0.01060371 -0.0235 0.001956104 -0.009839353 -0.03151419 0.002007609 0.003999371 -0.039625 0.002030486 -0.003868766 -0.0378 0.002235569 0.01035094 -0.0227 0.002295916 0.009314904 -0.03182219 0.002393156 -0.009709416 -0.036 0.002393156 -0.009709416 -0.03393134 0.002660792 -0.01079526 -0.023 0.00277923 -0.002934098 -0.0361 0.00289734 0.003270425 -0.0378 0.00289734 0.003270425 -0.0363 0.003038911 -0.003038908 -0.0395 0.003113912 0.001180954 -0.031 0.003113912 0.001180954 -0.0363 0.003170932 -0.01286498 -0.036 0.003207105 -0.001216293 -0.031 0.003207105 -0.001216292 -0.0363 0.003311538 -0.01343544 -0.0395 0.003311538 -0.01343544 -0.0365 0.003331017 -0.01089727 -0.03294817 0.003350419 -0.01359318 -0.0395 0.003350419 -0.01359318 -0.0365 0.003443601 0.01233632 -0.03576911 0.003649563 -0.01480686 -0.024 0.003649563 -0.01480686 -0.0395 0.003669868 0.0004456055 -0.0363 0.003709392 -0.0150496 -0.024 0.003709392 -0.0150496 -0.021 0.00372896 0.002092716 -0.0361 0.003815149 -0.00405768 -0.04 0.003868216 0.01038112 -0.03211108 0.003968691 0.003993982 -0.04 0.004016192 -0.008939624 -0.03975 0.004135931 -0.007792482 -0.03292869 0.004193871 0.006083666 -0.038775 0.004227272 0.0007746799 -0.0395 0.00433738 -0.0005266507 -0.0363 0.00433738 -0.0005266505 -0.0378 0.004406303 0.007806918 -0.03309267 0.004424371 -0.00983055 -0.0227 0.00464723 0.008854564 -0.036 0.004872744 0.004739188 -0.0382875 0.004902829 0.009341564 -0.0357 0.00504045 0.001195099 -0.04 0.005138744 0.009075569 -0.03384732 0.005166949 0.009844801 -0.023 0.005253747 0.008421325 -0.03132071 0.005562248 -0.009166991 -0.0337533 0.005577054 -0.009225575 -0.0235 0.005602916 -0.01151739 -0.03576911 0.005639228 -0.008169831 -0.03393134 0.005639228 0.008169837 -0.03393134 0.00571803 0.007342061 -0.03984375 0.006050117 -0.007280284 -0.03174111 0.00615484 -0.008421642 -0.03132335 0.006157581 0.0117323 -0.036 0.006430621 0.01225253 -0.0395 0.006430621 0.01225253 -0.0365 0.006438533 0.007267607 -0.0395 0.006440217 0.006089878 -0.0382875 0.006444841 0.004607766 -0.0398125 0.006481329 -0.006977755 -0.04 0.006506124 0.01239639 -0.0395 0.006506124 0.01239639 -0.0365 0.006631226 -0.007485105 -0.036 0.006648411 0.008486072 -0.0235 0.006719925 -0.0007110056 -0.039875 0.006865573 -0.000610473 -0.0325 0.006995943 -0.007896786 -0.0357 0.007037369 0.0008043961 -0.03975 0.007087028 0.01350321 -0.02399999 0.007087028 0.01350321 -0.0395 0.007090408 0.0009442477 -0.0325 0.007203208 0.01372457 -0.02399999 0.007203208 0.01372457 -0.021 0.007237779 0.005335824 -0.03307744 0.007372822 -0.008322196 -0.023 0.007622818 0.007622821 -0.0227 0.007764905 -0.006879104 -0.03394135 0.007990693 -0.005515575 -0.0395 0.008068469 -0.004164231 -0.03312077 0.00813845 0.007568973 -0.03213021 0.008194405 -0.001064666 -0.0398125 0.008229836 -0.005680645 -0.03975 0.008229836 0.005680651 -0.036 0.008442925 -0.007423468 -0.03223011 0.008486068 -0.006648411 -0.0227 0.008548132 0.0004107993 -0.03186454 0.008555694 0.000733214 -0.0398125 0.008621593 0.0007236046 -0.0326652 0.008663199 0.004732275 -0.03152375 0.008682477 0.005993086 -0.0357 0.008766328 -0.001022824 -0.03292011 0.008782126 0.009322946 -0.03576911 0.008786373 -0.009917765 -0.036 0.008789997 -0.004613346 -0.03393134 0.008789997 0.004613351 -0.03393134 0.008855341 0.002182648 -0.03322429 0.009150211 0.006315938 -0.023 0.009155871 0.003472368 -0.0398125 0.00917598 -0.01035754 -0.0395 0.00917598 -0.01035754 -0.0365 0.009225574 -0.005577054 -0.0235 0.009231753 -0.002262134 -0.03183198 0.009243991 0.005620981 -0.03358699 0.009283715 -0.01047915 -0.0395 0.009283715 -0.01047915 -0.0365 0.009350161 -0.003546046 -0.036 0.009373044 -0.00422339 -0.03122932 0.009658766 -0.001775467 -0.039875 0.009830547 0.004424373 -0.0235 0.00986442 -0.003741079 -0.0357 0.009927087 2.444722e-09 -0.03393134 0.009927087 0.00120537 -0.036 0.009927087 0.00120537 -0.0395 0.01008416 -0.00537469 -0.03299764 0.01011262 -0.01141479 -0.024 0.01011262 -0.01141479 -0.0395 0.01022786 -0.002541587 -0.03384732 0.01026213 0.0006162459 -0.03122932 0.0102784 -0.01160192 -0.024 0.0102784 -0.01160192 -0.021 0.01029217 0.003207172 -0.0227 0.01031353 -0.007594338 -0.03576911 0.01039582 -0.003942616 -0.023 0.01047308 0.001271665 -0.0357 0.01060371 -0.001943202 -0.0227 0.01063432 0.001972474 -0.03358699 0.01076063 -0.0006508971 -0.0235 0.01076181 0.003465248 -0.03221646 0.01080148 -0.002673998 -0.03200106 0.01090453 0.007526861 -0.036 0.01103727 0.001340168 -0.023 0.01138768 -0.0007698443 -0.03286845 0.01138806 0.007860618 -0.0395 0.01138806 0.007860618 -0.0365 0.01152177 0.00795291 -0.0395 0.01152177 0.00795291 -0.0365 0.01210877 0.0041738 -0.03576911 0.01238896 -0.004698512 -0.036 0.0125505 0.008662989 -0.024 0.0125505 0.008662992 -0.0395 0.01266145 -0.001931513 -0.03576911 0.01275625 0.008805004 -0.024 0.01275625 0.008805004 -0.021 0.01293832 -0.004906855 -0.0395 0.01293832 -0.004906855 -0.0365 0.01309023 -0.004964466 -0.0395 0.01309023 -0.004964466 -0.0365 0.01315339 0.001597114 -0.036 0.01373664 0.001667933 -0.0365 0.01373664 0.001667933 -0.0395 0.01389792 0.001687516 -0.0365 0.01389792 0.001687517 -0.0395 0.014259 -0.005407723 -0.024 0.014259 -0.005407722 -0.0395 0.01449275 -0.005496374 -0.024 0.01449275 -0.005496374 -0.021 0.01513881 0.001838185 -0.024 0.01513881 0.001838188 -0.0395 0.01538699 0.001868319 -0.021 0.01538699 0.00186832 -0.024</float_array>
          <technique_common>
            <accessor count="397" source="#cubeverts-array0-array" stride="3">
              <param type="float" name="X"/>
              <param type="float" name="Y"/>
              <param type="float" name="Z"/>
            </accessor>
          </technique_common>
        </source>
        <source id="cubenormals-array0">
          <float_array count="2406" id="cubenormals-array0-array">0 0 -1 -0 0 -1 0 0 -1 0 0 -1 0 0 -1 0 -0 -1 0 0 -1 -0.2309758 -0.9371053 -0.2616943 -0.8140646 -0.5535338 0.1757815 -0.9148938 -0.3469733 -0.2063467 -0.9170468 0.2857631 0.2781451 -0.8052725 0.5558393 -0.2063466 -0.372087 0.9018642 0.2195275 0 0.9076866 -0.4196488 0.7534845 0.6570455 -0.02350063 0.8052725 0.5558393 -0.2063468 0.9805541 0.09766098 0.170223 0.9680685 -0.1990663 -0.1523684 0.7420385 -0.6293648 0.2308219 0.533475 -0.8409743 -0.09037005 0.08082729 -0.9613548 0.2631805 0.505527 -0.03428043 -0.8621296 0.09351424 0.1629763 -0.9821883 -0.09751533 0.3776246 -0.9208097 -0.4399615 0.1026286 -0.8921329 -0.5813859 0.1811671 -0.7932016 -0.4498042 -0.1722407 -0.8763614 -0.185671 -0.1653509 -0.9685996 -0.005945339 -0.2934464 -0.9559571 0.3709325 -0.4002277 -0.8379899 0.3293617 -0.2793503 -0.9019336 0.9697732 0.09658721 -0.2240777 0.05372804 0.03284045 -0.9980155 0.0404736 0.01768231 -0.9990242 -0.03651543 -0.01595305 -0.9992058 -0.05207824 0.0239499 -0.9983558 -0.07734852 0.001727358 -0.9970026 0.009529443 0.0174958 -0.9998015 -0.03861798 0.05263168 -0.997867 -0.02642792 -0.01242715 -0.9995735 0.009468122 0.01738322 -0.9998041 0.01713825 0.0581251 -0.9981622 -0.04303362 0.05864968 -0.9973506 0.0332343 0.02925931 -0.9990193 -0.005386242 -0.01286093 -0.9999028 0.01960297 0.04680674 -0.9987116 -0.006356893 0.02556098 -0.999653 -0.1472713 -0.6317137 -0.7610841 -0.007147552 -0.05255816 -0.9985922 -0.0620042 -0.01202149 -0.9980035 0.1195811 -0.01682503 -0.9926819 0 -0 -1 -0.001945323 -0.02819416 -0.9996005 -0.007396725 -0.01333614 -0.9998837 -0.04753302 -0.001309608 -0.9988688 0.01830404 0.07851435 -0.996745 -0.01302259 0.02481247 -0.9996073 -0.02020637 0.02180221 -0.9995581 0.002502239 0.03626571 -0.999339 0.1123959 0.00649827 -0.9936423 -0.02343692 0.02209404 -0.9994811 -0.02704361 -0.004996667 -0.9996217 -0.01866448 -0.01704164 -0.9996806 0.05177569 -0.0113446 -0.9985944 0.05050439 -0.02098303 -0.9985034 0.0587429 -0.01370279 -0.9981791 -0.02390169 0.03860244 -0.9989687 0.04668925 0.01814451 -0.9987446 0.02096371 0.01914096 -0.999597 -0.03885935 0.007808896 -0.9992142 -0.03778974 0.008280133 -0.9992514 0.0357481 -0.03203013 -0.9988475 -0.758033 -0.4355476 -0.4854732 -0.9986849 -0.04271107 -0.02836082 0.5134099 -0.8530163 -0.09366694 0.7196454 -0.6454808 -0.2558612 0.1216386 0.750287 -0.6498258 0.9130786 0.367637 0.176438 -0.7691593 0.6230329 -0.1422108 0 0 -1 -0.2349539 -0.110482 0.9657072 0.1024127 -0.01167057 0.9946736 0.03675719 -0.08979701 0.9952815 0.7249759 -0.4048004 0.557267 0.8191446 0.2218162 -0.5289611 0.7834956 0.3000191 -0.544172 -0.6496774 0.3056031 -0.6960791 -0.9395215 -0.2470254 0.2372296 -0.5251766 0.6094663 -0.5939195 0.1453333 -0.7368122 -0.6602924 0.2065331 -0.2396812 -0.9486291 -0.08832601 -0.1592499 0.9832792 -0.1121486 0.2136812 0.9704447 0.2150742 0.0124347 0.9765186 -0.08686268 -0.07113977 0.993677 -0.09226756 0.08698084 -0.9919279 0.2216721 -0.1121167 -0.9686544 0.0649747 -0.2060637 -0.976379 0.6026601 -0.7791996 -0.172188 -0.3695198 0.6011693 0.7085553 -0.321169 0.5062932 0.8003235 -0.6246655 0.3616264 -0.6921123 -0.607291 0.1248789 0.7846037 -0.700161 0.007274652 -0.7139479 -0.6500279 -0.3095748 0.6939936 -0.3875468 -0.2873316 -0.8759269 -0.3162262 -0.942749 -0.1059495 -0.2849772 -0.7197552 0.6330407 0.184885 -0.9813966 -0.05175224 0.09594671 -0.1828111 0.9784551 0.4100032 -0.530107 0.7422155 0.6344104 -0.2083076 0.7444 0.5298079 -0.1526447 0.8342679 0.521579 0.06011909 -0.8510823 0.4854114 0.2793332 0.8284616 0.4303919 0.3757323 -0.8207241 0.3842017 0.6383221 -0.6670336 0.0782962 0.31766 0.9449666 -0.09639645 0.7503509 -0.6539734 0 0 -1 0 0 -1 0 0 -1 0 0 -1 0 0 -1 0 0 -1 0 0 -1 0 0 -1 0 -0 -1 0 0 -1 0 -0 -1 0 0 -1 0 -0 -1 -0 0 -1 0 0 -1 -0 0 -1 0 0 -1 -0 0 -1 0 0 -1 0 -0 -1 0 0 -1 0.2393157 0.9709418 0 0.6631228 0.7485107 0 0.6631228 0.7485107 0 0.9350162 0.3546049 0 0.9350162 0.3546049 4.799755e-08 0.9927089 -0.1205367 -2.399877e-08 0.9927089 -0.1205366 0 0.8229839 -0.5680648 0 0.8229839 -0.5680648 0 0.4647232 -0.885456 0 0.4647232 -0.885456 0 0 -1 0 0 -1 0 -0.4647232 -0.885456 0 -0.4647232 -0.885456 0 -0.8229839 -0.5680648 0 -0.8229839 -0.5680648 0 -0.9927089 -0.1205367 0 -0.9927089 -0.1205366 -2.399877e-08 -0.9350162 0.3546049 4.799754e-08 -0.9350162 0.3546049 0 -0.6631228 0.7485107 0 -0.6631228 0.7485107 0 -0.2393157 0.9709418 0 -0.2393157 0.9709418 0 0.2393157 0.9709418 0 0 -0 -1 0 0 -1 0 -0 -1 0 0 -1 0 0 -1 0 0 -1 -0 0 -1 0 0 -1 -0 0 -1 0 0 -1 0 0 -1 0 -0 -1 0 0 -1 0 -0 -1 0 0 -1 0 -0 -1 0 0 -1 -0 -0 -1 0 0 -1 -0 0 -1 0 0 -1 -0 0 -1 0 0 -1 -0 0 -1 0 -0 -1 0 0 -1 -0.2393156 -0.9709418 2.735385e-16 -0.2393156 -0.9709418 -0 -0.6631228 -0.7485107 0 -0.6631228 -0.7485107 -0 -0.9350163 -0.3546048 0 -0.9350163 -0.3546048 -4.227218e-08 -0.9927089 0.1205366 1.436908e-08 -0.9927089 0.1205366 0 -0.822984 0.5680646 0 -0.822984 0.5680646 0 -0.4647231 0.885456 0 -0.4647231 0.885456 0 0 1 -0 0 1 0 0.4647231 0.885456 -0 0.4647231 0.885456 0 0.822984 0.5680646 -0 0.822984 0.5680646 0 0.9927089 0.1205366 -0 0.9927089 0.1205366 1.436908e-08 0.9350163 -0.3546047 -4.227218e-08 0.9350163 -0.3546048 0 0.6631228 -0.7485107 0 0.6631228 -0.7485107 0 0.2393156 -0.9709418 0 0.2393156 -0.9709418 -2.735385e-16 -0 0 -1 0 0 -1 -0 0 -1 0 0 -1 0 0 -1 0 -0 -1 0 0 -1 0 -0 -1 0 0 -1 0 -0 -1 0 0 -1 -0 0 -1 0 0 -1 -0 0 -1 0 0 -1 -0 0 -1 0 0 -1 -0 0 -1 0 -0 -1 0 0 -1 0 -0 -1 0 0 -1 0 -0 -1 0 0 -1 0 0 -1 0 0 -1 0.2393157 0.9709418 1.770177e-07 0.6631228 0.7485107 1.348706e-07 0.6631228 0.7485106 1.348706e-07 0.9350162 0.3546049 6.743531e-08 0.9350162 0.3546049 5.057648e-08 0.9927089 -0.1205365 -1.685883e-08 0.9927089 -0.1205365 -8.429414e-09 0.8229839 -0.5680647 -5.057647e-08 0.8229839 -0.5680647 -1.01153e-07 0.4647233 -0.885456 -1.685883e-07 0.4647233 -0.885456 -1.685883e-07 0 -1 -1.845821e-07 -0 -1 -1.845821e-07 -0.4647233 -0.885456 -1.517295e-07 -0.4647233 -0.885456 -1.517295e-07 -0.8229839 -0.5680647 -1.01153e-07 -0.8229839 -0.5680647 -5.057648e-08 -0.9927089 -0.1205365 -1.264412e-08 -0.9927089 -0.1205365 -2.107353e-08 -0.9350162 0.3546049 5.057648e-08 -0.9350162 0.3546049 6.74353e-08 -0.6631228 0.7485106 1.517295e-07 -0.6631228 0.7485107 1.517295e-07 -0.2393157 0.9709418 1.770177e-07 -0.2393157 0.9709418 1.770177e-07 0.2393157 0.9709418 1.770177e-07 1.908711e-07 5.032862e-07 -1 3.963974e-07 3.511793e-07 -1 -0 0 -1 0 0 -1 0 0 -1 0 -0 -1 0 0 -1 0 -0 -1 -4.028957e-07 3.569363e-07 -1 -1.877926e-07 4.951688e-07 -1 0 0 -1 -0 -0 -1 0 0 -1 -0 0 -1 3.05767e-07 4.429858e-07 -1 4.689224e-07 2.461097e-07 -1 0 0 -1 -0 0 -1 0 -0 -1 0 0 -1 -4.766098e-07 2.501443e-07 -1 -3.008352e-07 4.358408e-07 -1 0 -0 -1 0 0 -1 0 0 -1 0 0 -1 0.2393157 0.9709418 0 0.6631228 0.7485107 0 0.6631227 0.7485107 0 0.9350162 0.3546048 0 0.9350162 0.3546048 0 0.9927089 -0.1205367 0 0.9927089 -0.1205367 0 0.8229839 -0.5680647 0 0.8229839 -0.5680647 0 0.4647232 -0.885456 0 0.4647232 -0.885456 0 0 -1 0 0 -1 0 -0.4647232 -0.885456 0 -0.4647232 -0.885456 0 -0.822984 -0.5680647 0 -0.8229839 -0.5680646 0 -0.9927089 -0.1205367 0 -0.9927088 -0.1205367 0 -0.9350162 0.3546048 0 -0.9350162 0.3546048 0 -0.6631227 0.7485107 0 -0.6631228 0.7485107 0 -0.2393157 0.9709418 0 -0.2393157 0.9709418 0 0.2393157 0.9709418 0 0 0 1 0 0 1 0 0 1 0 -0 1 5.889786e-08 -1.122205e-07 1 1.043029e-07 -7.199511e-08 1 3.19171e-08 -2.628609e-07 1 -1.043029e-07 -7.199511e-08 1 -5.889786e-08 -1.122205e-07 1 0 -1.267375e-07 1 -0 0 1 0 0 1 -3.19171e-08 -2.628609e-07 1 -0.9803582 0.1970057 0.009304016 0.9606084 0.2440635 -0.132908 -0.9920849 -0.09431806 0.08289482 0.2070695 0.978053 -0.02311992 0.2339181 0.972092 -0.01787073 0.9788951 -0.2036917 -0.01655545 0.9896947 -0.143124 -0.004479497 -0.1404703 -0.9898804 0.02012232 -0.04686793 -0.9989007 -0.0009108685 0.8345886 -0.1515745 -0.5296103 -0.1715934 -0.9121854 -0.37212 -0.05120865 0.5870715 -0.8079138 0.3819445 -0.05523466 -0.9225332 0.1433552 -0.6697263 0.7286398 0.5236058 0.2304096 0.8202125 -0.08002342 -0.5076107 -0.8578622 0.09316428 -0.4459676 -0.8901873 0.5301155 -0.6059721 -0.5931065 0.2884775 0.8200865 -0.4942052 -0.06474245 0.9925817 -0.1029078 0.9963664 -0.0327309 0.07863028 0.7582254 0.171263 -0.629097 0.3272815 0.8333325 -0.4454704 0.6286408 0.7184872 -0.2976355 0.9086104 0.01437621 0.4173973 0.2234962 0.5893109 0.7763776 0.2288936 0.7245964 0.6500522 0.4376803 0.3877505 0.8112247 0.5738134 0.6604823 0.4842534 0.5526677 0.2464397 0.7961317 0.7831019 0.1930175 0.5911815 0.6271635 0.05630082 0.7768502 0.7316298 -0.1803308 0.6574181 0.6761987 -0.1955849 0.7102829 0.5204352 -0.461065 0.7187255 0.4276935 -0.4212232 0.7997808 0.3056738 -0.6444848 0.7008586 0.01931088 -0.4771196 0.8786262 0.1734907 -0.7556726 0.6315536 -0.1720314 -0.5935323 0.7862089 -0.1714979 -0.6011865 0.7804891 -0.44617 -0.5466542 0.7085913 -0.4376811 -0.4259349 0.7918426 -0.6504813 -0.4111802 0.6385962 -0.5954136 -0.1710026 0.78501 -0.7288637 -0.1185828 0.6743114 -0.6178158 0.1255031 0.7762427 -0.5612259 0.09130894 0.8226106 -0.4407965 0.2786348 0.853265 -0.6171151 0.3148306 0.7211453 -0.408734 0.5921532 0.6944718 -0.3818842 0.5768476 0.7220882 -0.0831648 0.6849239 0.7238527 -0.1045075 0.7216595 0.684314 -0.7168486 -0.2074243 0.6656601 -0.3253061 -0.8980166 0.2962128 -0.174217 -0.7736962 -0.6091328 -0.6466054 -0.7014374 -0.2998115 -0.7991976 0.1292595 0.5870053 -0.5369411 0.2447137 0.8073471 -0.1275163 0.8114032 0.5704071 0.09466907 0.8144594 -0.5724454 -0.5773829 0.8116684 -0.08844934 -0.9150063 -0.08179308 -0.3950613 -0.6442401 -0.6744089 -0.3607315 0.4659565 -0.7821264 -0.4137182 0.8444641 -0.5349187 0.02724685 -0.1544118 -0.8203129 -0.5506757 -0.669035 -0.1638695 -0.7249407 0.6199343 0.6007315 -0.5047802 -0.5825391 0.8103865 -0.06262439 -0.6738138 0.2325088 -0.7013662 -0.6297047 0.1925395 -0.752596 -0.5909933 0.002404109 -0.8066729 -0.1867657 0.5051007 -0.8426101 -0.1848325 0.2017589 -0.9618369 -0.2441551 0.2376129 -0.9401746 -0.3341988 0.08474235 -0.9386852 -0.3410967 -0.2957228 -0.892301 -0.2074121 -0.00855883 -0.9782162 0.1528879 -0.3272783 -0.9324775 -0.2017514 -0.2438972 -0.9485834 0.7610643 -0.1398139 -0.6334297 0.3953706 -0.2835064 -0.8736741 0.3670687 -0.2489603 -0.8962585 0.3385912 0.07517239 -0.9379261 0.339923 0.06493568 -0.9382088 0.3226851 0.730023 -0.6024455 -0.001698216 0.2664285 -0.9638532 -0.2387277 0.9685559 -0.07006178 -0.5626212 0.8150973 0.138108 -0.6614934 0.7466712 -0.07006183 -0.8416075 0.531994 0.09316181 -0.9259258 0.3511576 -0.1391031 -0.9827296 0.1598857 0.09316219 -0.8209617 -0.5666687 -0.0700613 -0.8452836 -0.534318 -1.847446e-07 -0.9927089 -0.1205367 -4.16765e-08 -0.9827295 -0.1598857 -0.09316218 -0.277175 -0.9562922 0.0931624 -0.4602053 -0.8768475 -0.1391027 -0.6295599 -0.7713463 0.09316248 0.04026487 -0.9948364 -0.09316183 0 -1 -0 0.4285347 -0.9035254 0 0.4635814 -0.8832801 -0.07006148 0.741338 -0.6567678 0.1381084 0.8209616 -0.5666687 -0.07006111 0.9902695 -0.1202405 -0.07006171 0.9616373 -0.2370226 0.1381086 0.6614934 0.7466712 -0.07006182 0.7413381 0.6567678 0.1381082 0.9327185 0.3537337 -0.07006136 0.9616373 0.2370226 0.1381083 -0.1193816 0.9831958 0.1381083 0.2387277 0.9685558 -0.07006155 0.3512069 0.926056 0.1381081 0 0 1 -0 0 1 0 0 1 -0 0 1 0 0 1 -0 0 1 0 0 1 0 -0 1 0 0 1 0 -0 1 0 0 1 0 -0 1 0 0 1 0 0 1 0 0 1 0 0 1 -0 0 1 0 0 1 0 0 1 0 0 1 0 0 1 0 0 1 0 -0 1 0 0 1 0 -0 1 0 0 1 -0.2308684 -0.9366691 -0.2633455 -0.6397158 -0.7220897 -0.2633444 -0.135048 -0.2392527 -0.9615197 -0.9020119 -0.3420882 -0.2633441 -0.2307654 -0.1490879 -0.9615197 -0.9576664 0.1162817 -0.2633509 -0.2736168 -0.02476863 -0.9615198 -0.7939339 0.548013 -0.2633455 -0.2537861 0.1052244 -0.9615198 -0.4483191 0.8542005 -0.2633466 -0.1758165 0.2111122 -0.9615197 0 0.9647024 -0.2633423 -0.05756906 0.2686366 -0.9615198 0.4483197 0.8542017 -0.2633419 0.07386686 0.2646197 -0.9615197 0.2500699 0.1726108 -0.9527175 0.1508849 0.1207578 -0.981148 0.3116316 0.03783891 -0.9494492 0.7841103 -0.2973739 -0.5447382 0.2089812 0.0125249 -0.9778394 0.6397163 -0.7220904 -0.2633412 0.1998332 -0.1370053 -0.9702042 -0.008392875 -0.2746077 -0.9615197 0.2308689 -0.9366709 -0.2633385 0.1201854 -0.2470537 -0.9615196 -0.01795609 -0.03181123 -0.9993327 -0.006462064 -0.02621762 -0.9996354 -0.001115922 -0.03651203 -0.9993325 0.006462059 -0.0262176 -0.9996354 0.01597991 -0.03284838 -0.9993327 0.01790581 -0.02021147 -0.9996354 0.02377374 -0.02095009 -0.9994978 0.01457968 -0.005529344 -0.9998785 0.03343391 0.005633585 -0.9994251 0.03799531 0.004613455 -0.9992673 0.03191069 0.02202636 -0.999248 0.03719506 0.02919148 -0.9988815 0.01254858 0.02390931 -0.9996354 0.009821395 0.03518404 -0.9993325 0.01425106 0.03887276 -0.9991425 -0.01212965 0.056601 -0.9983232 -0.02018588 0.02684396 -0.9994358 -0.02337671 0.02806966 -0.9993325 -0.02222243 0.01533903 -0.9996354 -0.03374368 0.01399075 -0.9993325 -0.02680539 0.003254756 -0.9996354 -0.03638034 -0.003293259 -0.9993327 -0.02524754 -0.009575129 -0.9996354 -0.03068272 -0.01982282 -0.9993325 -0.01790581 -0.02021147 -0.9996354 -0.2379084 -0.9652323 -0.108287 -0.6629471 -0.7483122 -0.02301968 -0.9192461 -0.3486241 0.1828879 -0.6447977 -0.763462 0.03690208 -0.9860171 0.1197239 0.1159158 -0.9951035 0.08688301 0.04711879 -0.9181281 -0.3498683 0.1860992 -0.8225856 0.5677897 0.03110788 -0.8584515 0.4906882 -0.1492852 -0.3727888 0.8785307 0.2986843 -0.7213208 0.6876653 -0.08253846 0.4589681 0.8744901 0.1568927 0.03026517 0.9148405 -0.4026798 0.1546933 0.9875942 -0.02697714 -0.2524539 0.9671668 -0.02924806 0.8225856 0.5677898 0.03110809 0.7026882 0.6567342 -0.2737322 0.9662766 0.117327 0.2292244 0.8987625 0.4305965 -0.08253878 0.9345637 -0.3544333 0.03110861 0.9828149 -0.1107649 -0.1476683 0.648845 -0.7323941 0.2063956 0.9162864 -0.3952464 -0.06480402 -0.2087495 -0.9602701 -0.1852157 0.2377024 -0.9643966 0.115917 0.2380351 -0.9643934 0.1152591 0.6209707 -0.775128 0.1164986 -0.1098481 -0.5053133 0.8559159 -0.6590344 0.01597381 0.7519431 -0.5083556 0.2709381 0.8174149 -0.6056452 0.6237005 0.4941574 -0.1929557 0.6073995 0.7706062 -0.08909654 0.7592716 0.644646 0.1071507 0.562124 0.8200825 0.4795223 0.4770563 0.7365296 0.625128 0.2472425 0.7403285 0.7683337 -0.05464093 0.6377128 0.592963 -0.3018425 0.7465159 0.1846078 -0.6848141 0.7049465 -0.4333897 -0.8435536 0.3171605 -0.5357312 -0.8150074 0.2208053 -0.5924454 -0.6703597 0.4467955 -0.7977841 0.2099765 0.5651994 -0.6224307 0.6576133 0.424411 -0.5700613 0.8069605 0.1544182 0.3556061 0.877885 0.3207213 0.5158738 0.8103209 0.2779465 0.5211514 0.5481813 0.6541396 0.9151833 0.2000136 0.3499058 0.7928953 -0.04857823 0.6074186 0.4777608 -0.6706965 0.5673718 0.6078803 -0.7541767 0.248393 0.1096154 -0.8425127 0.5274058 0.6947522 -0.4129598 0.5888834 -0.940283 -0.1831312 0.2869333 -0.8388702 -0.5379983 0.08279259 -0.8441427 -0.3216749 0.4288918 0.1066221 -0.9233722 -0.3688029 0.8783294 0.2679363 -0.3959138 0.7461156 0.4105846 -0.5241487 -0.7451898 0.395934 -0.5365897 -0.9606627 0.2733214 -0.04921955 -0.1422623 -0.8478127 -0.5108572 0.1232619 -0.9398031 -0.3187108 -0.8006511 -0.02617514 -0.5985588 -0.4892304 0.7943596 -0.3600644 -0.2001697 0.6868753 -0.6986662 -0.1476309 0.7229708 -0.6749209 -0.09395875 0.8540326 -0.511664 0.2200785 0.8949137 -0.3881943 0.7367774 -0.1966385 -0.6469098 0.7867569 -0.3825385 -0.4844355 0.499184 -0.4858082 -0.7174997 0.4815557 -0.7731514 -0.4127238 0.390476 -0.7685674 -0.5067866 -0.4427535 -0.2650316 -0.856579 -0.42672 -0.2283612 -0.8750778 -0.8633038 -0.02326763 -0.5041478 -0.5563827 0.1022122 -0.8246157 -0.7271128 0.3883802 -0.5660987 -0.4804618 0.3859406 -0.7875317 0.4745866 0.641851 -0.6023245 0.5986582 0.4055805 -0.6907336 0.5740175 0.01014259 -0.8187802 0.5954053 -0.1030581 -0.7967883 -0.1776042 -0.4734879 -0.8627085 -0.3731712 -0.5616364 -0.7384495 -0.3304344 -0.2553804 -0.908622 0.01874525 0.09037842 -0.995731 0.1981943 0.3514478 -0.9149882 0.09386943 0.3965556 -0.9131989 0.1423867 -0.4890658 -0.8605468 -0.9336087 -0.3564414 -0.03639033 -0.5396965 0.8395836 -0.06186293 -0.1280061 0.9901464 0.05678496 0.6088395 0.7923626 0.03841789 -0.6570925 -0.7536727 0.01438685 -0.9993885 -0.03439517 -0.006289663 0.9589806 0.272595 0.07776947 0.9685198 -0.2480711 -0.02073625 0.09094119 -0.9954458 -0.02859065 0.4555319 -0.8897967 0.02743418 0.5826142 -0.1643756 -0.7959532 -0.5901877 -0.2107744 -0.7792642 0.05659049 -0.6194417 -0.7830003 -0.2187283 0.7926747 -0.569056 0.008092666 -0.9983546 0.05676745 0.3787447 -0.9252085 -0.02327408 -0.9259564 -0.3769456 0.02272905 -0.8821989 -0.4707639 0.01033007 -0.9060953 0.4217428 -0.0335309 -0.8061017 0.5917735 -0.002017992 -0.02965713 0.9995554 0.003070489 0.2160126 0.9758024 -0.03388571 0.839636 0.5431146 0.006156699 0.9933629 0.107615 -0.04060937 0.905217 -0.4245325 0.01882353 -0.2856474 -0.6353253 -0.7174729 -0.364309 -0.59461 -0.7167411 0.4526289 0.8833774 0.1215378 -0.5649371 0.2629505 -0.7821145 0.1333765 0.602507 -0.7868901 0.6470755 0.03724787 -0.7615155 0.9442052 -0.3260341 -0.0466723 0.9879376 0.1397382 0.06672657 0.2855284 0.9583174 -0.01006607 0.1514553 -0.9884378 0.007218146 -0.3628893 -0.9302297 -0.05462807 -0.930997 -0.359384 0.06393581 -0.9405732 0.3388186 -0.02288936 -0.2409851 0.968998 0.05449036 0.1238589 0.9922569 -0.009227567 0.774314 -0.05708346 -0.6302215 -0.2490968 -0.7221563 -0.6453225 0.09215566 0.5919523 -0.8006871 -0.6151209 0.2215824 -0.7566555 0.03262091 -0.630382 0.7755995 -0.2387438 -0.968621 0.06909905 -0.2548848 -0.5663314 0.7837745 -0.6615377 -0.7467217 0.06909847 -0.4888759 -0.3830096 0.7837754 -0.9327813 -0.3537572 0.0691001 -0.6108716 -0.1119465 0.7837754 -0.9903361 0.1202487 0.06909814 -0.5929247 0.1847628 0.7837749 -0.8210171 0.5667066 0.06909862 -0.4391436 0.4391434 0.7837766 -0.4636126 0.8833395 0.06910002 -0.1847633 0.5929239 0.7837753 0 0.9976098 0.06909955 0.1119469 0.6108706 0.783776 0.4636126 0.8833394 0.06910083 0.3830086 0.488874 0.7837771 0.8299079 0.5575846 0.01877007 0.5890301 0.2651011 0.7633905 0.9852691 0.1267212 0.114833 0.5911992 -0.03576111 0.8057325 0.9237831 -0.3602241 0.1298595 0.531478 -0.3212896 0.7837754 0.6615376 -0.7467216 0.06909968 0.2572042 -0.4738021 0.8422337 0.2334197 -0.9470204 0.2206074 0.4208817 0.131152 -0.8975844 0.8298305 0.5575326 0.02321226 0.3036115 0.3036113 -0.9031281 0.4616574 0.8796142 -0.11468 0.1277393 0.4099296 -0.9031281 0 0.9934024 -0.1146802 -0.07739637 0.4223379 -0.9031282 -0.4616573 0.8796139 -0.1146814 -0.2648012 0.3379935 -0.9031282 -0.8175541 0.5643164 -0.1146838 -0.3915422 0.176219 -0.9031287 -0.9861599 0.1197416 -0.114676 -0.4285858 -0.02592477 -0.9031291 -0.9288473 -0.3522652 -0.1146822 -0.3674474 -0.2221292 -0.9031284 -0.6587477 -0.7435724 -0.1146806 -0.1468546 -0.289995 -0.9456937 -0.1960275 -0.7953141 -0.5736276 -0.01098849 -0.3916821 -0.920035 0.239286 -0.9708206 0.01579711 0.207123 -0.4208323 -0.8831761 0.6587479 -0.7435725 -0.1146787 0.9679698 0.1244962 -0.2180258 0.3965768 -0.07267546 -0.9151203 0.9172772 -0.3576871 -0.175107 0.3379932 -0.2648002 -0.9031287 -0.4371654 0.8882319 -0.1411759 -0.4478438 0.824983 -0.3447302 -0.7553601 0.5917864 0.2814604 -0.8211844 0.4964231 -0.2814609 -0.9438547 0.1729679 0.2814611 -0.9578219 0.0579378 -0.2814611 -0.9161239 -0.2854757 0.2814616 -0.8750338 -0.3938209 -0.2814623 -0.6785207 -0.6785203 0.2814599 -0.5917867 -0.7553593 -0.2814619 -0.2854759 -0.916124 0.2814609 -0.1729682 -0.9438549 -0.2814606 0.172968 -0.9438549 0.2814603 0.2854762 -0.9161241 -0.2814606 0.5917867 -0.7553593 0.2814619 0.6785207 -0.6785203 -0.2814599 0.8750338 -0.393821 0.2814622 0.9161239 -0.2854757 -0.2814618 0.9578219 0.0579378 0.2814612 0.9438547 0.1729679 -0.2814609 0.8211844 0.4964229 0.2814614 0.7553601 0.5917866 -0.2814601 0.4176567 0.8247505 0.3812473 0.4065524 0.903322 0.1368384 -0.04901061 0.9471043 0.3171616 0.02775904 0.9894649 -0.1420868 0 -0 -1 0 0 -1 0 0 -1 0 0 -1 0 0 -1 -0 0 -1 0 0 -1 0 0 -1 0 0.999989 0.004701518 -0.008621242 0.9999628 1.349489e-07 -0.7221865 0.6916983 9.33474e-08 -0.7221865 0.6916983 9.33474e-08 -0.9992452 -0.03884551 -5.242354e-09 -0.9992452 -0.03884551 -4.368628e-09 -0.7737053 -0.6335457 -7.124957e-08 -0.7737052 -0.6335458 -8.549949e-08 -0.08188337 -0.9966419 -1.345008e-07 -0.08188337 -0.9966419 -1.345008e-07 0.5356668 -0.8444294 -1.139591e-07 0.5356668 -0.8444294 -1.139591e-07 0.9795054 -0.2014183 -2.718219e-08 0.9795054 -0.2014183 -2.718219e-08 0.8229839 0.5680646 7.666256e-08 0.7945716 0.6065285 -0.02791376 0 0 1 0 -0 1 0 0 1 -0 0 1 0 0 1 0 0 1 -0 0 1 0 0 1 -0.1381741 -0.5605942 -0.8164815 -0.08537376 -0.2251121 -0.9705853 -0.4541268 -0.1722275 0.8741319 -0.1782662 0.03368032 -0.9834056 -0.3589058 0.3055593 0.8819411 0.03990766 0.3569241 0.9332805 -0.07173186 0.3021862 -0.9505461 0.4231099 0.1000409 0.9005386 0.2536455 0.1647716 -0.9531601 0.6229005 -0.5741329 0.5313816 0.2298102 -0.1351169 -0.9638105 -0.2020032 -0.131224 -0.970554 -0.08389562 -0.0002233634 -0.9964746 -0.7441136 0.4375014 -0.5048637 0.08329904 0.2196415 -0.972018 0.06199208 0.118116 -0.9910629 0.617265 -0.1166216 0.7780637 0.04092541 -0.069768 -0.9967234 0.03628068 -0.1528403 -0.9875847 0 0 1 0 -0 1 0 0 1 0 0 1 0 0 1 0 0 1 0 0 1 0 0 1 -0 0 1</float_array>
          <technique_common>
            <accessor count="802" source="#cubenormals-array0-array" stride="3">
              <param type="float" name="X"/>
              <param type="float" name="Y"/>
              <param type="float" name="Z"/>
            </accessor>
          </technique_common>
        </source>
        <vertices id="cubeverts-array0-vertices">
          <input semantic="POSITION" source="#cubeverts-array0"/>
        </vertices>
        <triangles count="802" material="ref_link_6_t_stl002">
          <input offset="0" semantic="VERTEX" source="#cubeverts-array0-vertices"/>
          <input offset="1" semantic="NORMAL" source="#cubenormals-array0"/>
          <p>204 0 176 0 244 0 204 1 127 1 137 1 204 2 137 2 176 2 204 3 162 3 127 3 204 4 272 4 237 4 204 5 237 5 162 5 204 6 244 6 272 6 176 7 236 7 244 7 244 8 236 8 270 8 244 9 270 9 272 9 272 10 270 10 246 10 272 11 246 11 237 11 237 12 246 12 170 12 170 13 162 13 237 13 162 14 170 14 133 14 162 15 133 15 127 15 127 16 133 16 128 16 127 17 128 17 137 17 137 18 128 18 161 18 137 19 161 19 176 19 176 20 161 20 236 20 133 21 119 21 125 21 119 22 133 22 170 22 264 23 170 23 246 23 246 24 278 24 264 24 278 25 246 25 270 25 270 26 266 26 278 26 266 27 270 27 236 27 166 28 236 28 161 28 161 29 125 29 166 29 125 30 161 30 128 30 125 31 128 31 133 31 112 32 56 32 98 32 98 33 56 33 71 33 71 34 119 34 98 34 264 35 212 35 170 35 212 36 188 36 170 36 170 37 188 37 124 37 222 38 296 38 187 38 264 39 222 39 212 39 124 40 188 40 112 40 188 41 187 41 112 41 187 42 188 42 222 42 233 43 287 43 266 43 334 44 295 44 287 44 334 45 278 45 295 45 96 46 119 46 71 46 166 47 266 47 236 47 96 48 66 48 125 48 119 49 96 49 125 49 56 50 66 50 71 50 58 51 66 51 56 51 184 52 134 52 233 52 184 53 233 53 224 53 224 54 233 54 266 54 189 55 266 55 166 55 224 56 266 56 189 56 125 57 134 57 166 57 184 58 166 58 134 58 166 59 184 59 189 59 125 60 58 60 134 60 125 61 66 61 58 61 264 62 296 62 222 62 323 63 278 63 334 63 301 64 278 64 323 64 301 65 264 65 278 65 317 66 344 66 296 66 296 67 301 67 317 67 301 68 296 68 264 68 323 69 344 69 317 69 323 70 334 70 344 70 119 71 170 71 124 71 119 72 120 72 111 72 124 73 120 73 119 73 111 74 98 74 119 74 98 75 111 75 97 75 120 76 112 76 97 76 98 77 97 77 112 77 112 78 120 78 124 78 97 79 111 79 120 79 220 80 212 80 222 80 178 81 188 81 212 81 304 82 301 82 323 82 269 83 266 83 287 83 266 84 269 84 276 84 276 85 278 85 266 85 295 86 278 86 276 86 294 87 287 87 295 87 295 88 276 88 294 88 287 89 294 89 269 89 276 90 269 90 294 90 217 91 184 91 224 91 214 92 224 92 189 92 174 93 189 93 184 93 84 94 66 94 96 94 86 95 134 95 58 95 296 96 344 96 318 96 267 97 187 97 296 97 296 98 318 98 267 98 86 99 160 99 134 99 86 100 76 100 160 100 58 101 76 101 86 101 58 102 50 102 76 102 56 103 50 103 58 103 56 104 101 104 50 104 101 105 56 105 112 105 112 106 199 106 101 106 199 107 112 107 187 107 199 108 187 108 267 108 267 109 314 109 199 109 318 110 314 110 267 110 314 111 318 111 344 111 344 112 349 112 314 112 349 113 344 113 334 113 334 114 293 114 349 114 287 115 293 115 334 115 233 116 293 116 287 116 233 117 160 117 293 117 134 118 160 118 233 118 293 119 291 119 369 119 369 120 349 120 293 120 349 121 369 121 386 121 386 122 314 122 349 122 314 123 386 123 380 123 314 124 380 124 335 124 335 125 199 125 314 125 199 126 335 126 252 126 199 127 252 127 143 127 143 128 101 128 199 128 101 129 143 129 60 129 60 130 50 130 101 130 50 131 60 131 15 131 50 132 15 132 11 132 11 133 76 133 50 133 76 134 11 134 27 134 27 135 160 135 76 135 160 136 27 136 106 136 160 137 106 137 208 137 208 138 293 138 160 138 293 139 208 139 291 139 208 140 292 140 291 140 370 141 291 141 292 141 291 142 370 142 369 142 385 143 369 143 370 143 369 144 385 144 386 144 381 145 386 145 385 145 386 146 381 146 380 146 336 147 380 147 381 147 380 148 336 148 335 148 253 149 335 149 336 149 335 150 253 150 252 150 144 151 252 151 253 151 252 152 144 152 143 152 61 153 143 153 144 153 143 154 61 154 60 154 16 155 60 155 61 155 60 156 16 156 15 156 10 157 15 157 16 157 15 158 10 158 11 158 28 159 11 159 10 159 11 160 28 160 27 160 107 161 27 161 28 161 27 162 107 162 106 162 195 163 106 163 107 163 106 164 195 164 208 164 292 165 208 165 195 165 298 166 370 166 292 166 370 167 298 167 372 167 372 168 385 168 370 168 385 169 372 169 387 169 387 170 381 170 385 170 381 171 387 171 383 171 383 172 336 172 381 172 336 173 383 173 341 173 341 174 253 174 336 174 253 175 341 175 256 175 256 176 144 176 253 176 144 177 256 177 142 177 142 178 61 178 144 178 61 179 142 179 55 179 55 180 16 180 61 180 16 181 55 181 14 181 14 182 10 182 16 182 10 183 14 183 8 183 8 184 28 184 10 184 28 185 8 185 25 185 25 186 107 186 28 186 107 187 25 187 104 187 104 188 195 188 107 188 195 189 104 189 209 189 209 190 292 190 195 190 292 191 209 191 298 191 194 192 298 192 209 192 298 193 194 193 297 193 297 194 372 194 298 194 372 195 297 195 371 195 371 196 387 196 372 196 387 197 371 197 388 197 388 198 383 198 387 198 383 199 388 199 382 199 382 200 341 200 383 200 341 201 382 201 340 201 340 202 256 202 341 202 256 203 340 203 255 203 255 204 142 204 256 204 142 205 255 205 141 205 141 206 55 206 142 206 55 207 141 207 54 207 54 208 14 208 55 208 14 209 54 209 13 209 13 210 8 210 14 210 8 211 13 211 9 211 9 212 25 212 8 212 25 213 9 213 24 213 24 214 104 214 25 214 104 215 24 215 103 215 103 216 209 216 104 216 209 217 103 217 194 217 390 218 340 218 382 218 340 219 390 219 352 219 352 220 255 220 340 220 255 221 352 221 259 221 259 222 141 222 255 222 141 223 259 223 139 223 139 224 54 224 141 224 54 225 139 225 41 225 41 226 13 226 54 226 13 227 41 227 7 227 7 228 9 228 13 228 9 229 7 229 3 229 3 230 24 230 9 230 24 231 3 231 20 231 20 232 103 232 24 232 103 233 20 233 94 233 94 234 194 234 103 234 194 235 94 235 210 235 210 236 297 236 194 236 297 237 210 237 306 237 306 238 371 238 297 238 371 239 306 239 376 239 376 240 388 240 371 240 388 241 376 241 394 241 394 242 382 242 388 242 382 243 394 243 390 243 210 244 305 244 306 244 375 245 306 245 305 245 306 246 375 246 376 246 393 247 376 247 375 247 376 248 393 248 394 248 389 249 394 249 393 249 394 250 389 250 390 250 351 251 390 251 389 251 390 252 351 252 352 252 258 253 352 253 351 253 352 254 258 254 259 254 138 255 259 255 258 255 259 256 138 256 139 256 40 257 139 257 138 257 139 258 40 258 41 258 6 259 41 259 40 259 41 260 6 260 7 260 2 261 7 261 6 261 7 262 2 262 3 262 19 263 3 263 2 263 3 264 19 264 20 264 93 265 20 265 19 265 20 266 93 266 94 266 193 267 94 267 93 267 94 268 193 268 210 268 305 269 210 269 193 269 391 270 351 270 389 270 351 271 391 271 355 271 355 272 258 272 351 272 258 273 355 273 261 273 261 274 138 274 258 274 138 275 261 275 135 275 135 276 40 276 138 276 40 277 135 277 38 277 38 278 6 278 40 278 6 279 38 279 4 279 4 280 2 280 6 280 2 281 4 281 1 281 1 282 19 282 2 282 19 283 1 283 17 283 17 284 93 284 19 284 93 285 17 285 91 285 91 286 193 286 93 286 193 287 91 287 211 287 211 288 305 288 193 288 305 289 211 289 308 289 308 290 375 290 305 290 375 291 308 291 378 291 378 292 393 292 375 292 393 293 378 293 396 293 396 294 389 294 393 294 389 295 396 295 391 295 211 296 309 296 308 296 379 297 308 297 309 297 308 298 379 298 378 298 395 299 378 299 379 299 378 300 395 300 396 300 392 301 396 301 395 301 396 302 392 302 391 302 356 303 391 303 392 303 391 304 356 304 355 304 262 305 355 305 356 305 355 306 262 306 261 306 136 307 261 307 262 307 261 308 136 308 135 308 39 309 135 309 136 309 135 310 39 310 38 310 5 311 38 311 39 311 38 312 5 312 4 312 0 313 4 313 5 313 4 314 0 314 1 314 18 315 1 315 0 315 1 316 18 316 17 316 92 317 17 317 18 317 17 318 92 318 91 318 192 319 91 319 92 319 91 320 192 320 211 320 309 321 211 321 192 321 201 322 192 322 92 322 201 323 395 323 379 323 201 324 379 324 309 324 201 325 309 325 192 325 201 326 262 326 356 326 201 327 356 327 392 327 201 328 392 328 395 328 201 329 5 329 39 329 201 330 39 330 136 330 201 331 136 331 262 331 18 332 201 332 92 332 201 333 18 333 0 333 201 334 0 334 5 334 324 335 323 335 317 335 327 336 322 336 338 336 324 337 317 337 327 337 317 338 302 338 327 338 302 339 317 339 301 339 302 340 301 340 304 340 304 341 307 341 302 341 304 342 324 342 307 342 324 343 304 343 323 343 315 344 327 344 338 344 324 345 322 345 307 345 302 346 322 346 327 346 307 347 322 347 302 347 268 348 219 348 190 348 324 349 332 349 310 349 219 350 268 350 235 350 219 351 235 351 173 351 268 352 315 352 288 352 273 353 218 353 239 353 239 354 218 354 158 354 324 355 325 355 322 355 325 356 324 356 310 356 273 357 239 357 281 357 310 358 273 358 325 358 327 359 332 359 324 359 218 360 286 360 223 360 286 361 218 361 273 361 273 362 331 362 286 362 331 363 273 363 310 363 331 364 310 364 332 364 332 365 347 365 331 365 347 366 332 366 327 366 327 367 330 367 347 367 330 368 327 368 315 368 315 369 285 369 330 369 285 370 315 370 268 370 268 371 241 371 285 371 268 372 175 372 241 372 175 373 268 373 190 373 190 374 122 374 175 374 122 375 190 375 121 375 121 376 85 376 122 376 85 377 121 377 81 377 81 378 51 378 85 378 51 379 81 379 63 379 63 380 45 380 51 380 45 381 63 381 69 381 69 382 53 382 45 382 69 383 87 383 53 383 87 384 69 384 105 384 105 385 140 385 87 385 140 386 105 386 148 386 148 387 223 387 140 387 223 388 148 388 218 388 63 389 81 389 74 389 173 390 121 390 190 390 121 391 173 391 129 391 81 392 121 392 72 392 69 393 63 393 75 393 69 394 75 394 105 394 218 395 148 395 179 395 158 396 179 396 148 396 148 397 105 397 158 397 72 398 74 398 81 398 129 399 72 399 121 399 288 400 235 400 268 400 315 401 338 401 288 401 173 402 235 402 129 402 74 403 72 403 44 403 281 404 325 404 273 404 79 405 158 405 105 405 105 406 44 406 79 406 44 407 105 407 75 407 74 408 44 408 75 408 158 409 110 409 197 409 79 410 110 410 158 410 79 411 64 411 110 411 79 412 44 412 64 412 47 413 72 413 89 413 47 414 44 414 72 414 235 415 288 415 289 415 89 416 72 416 129 416 343 417 338 417 354 417 288 418 343 418 289 418 343 419 288 419 338 419 354 420 338 420 322 420 325 421 354 421 322 421 281 422 239 422 197 422 197 423 239 423 158 423 140 424 206 424 123 424 123 425 87 425 140 425 87 426 123 426 77 426 77 427 53 427 87 427 53 428 77 428 46 428 53 429 46 429 45 429 85 430 52 430 102 430 52 431 85 431 51 431 51 432 46 432 52 432 46 433 51 433 45 433 122 434 159 434 175 434 122 435 102 435 159 435 102 436 122 436 85 436 159 437 241 437 175 437 241 438 159 438 240 438 240 439 285 439 241 439 285 440 240 440 299 440 299 441 330 441 285 441 330 442 299 442 342 442 347 443 342 443 348 443 342 444 347 444 330 444 286 445 319 445 275 445 319 446 286 446 331 446 331 447 348 447 319 447 348 448 331 448 347 448 206 449 140 449 223 449 223 450 275 450 206 450 275 451 223 451 286 451 374 452 348 452 342 452 348 453 374 453 384 453 384 454 319 454 348 454 319 455 384 455 366 455 366 456 275 456 319 456 275 457 366 457 290 457 290 458 206 458 275 458 206 459 290 459 196 459 196 460 123 460 206 460 123 461 196 461 109 461 109 462 77 462 123 462 77 463 109 463 30 463 30 464 46 464 77 464 46 465 30 465 12 465 12 466 52 466 46 466 52 467 12 467 21 467 21 468 102 468 52 468 102 469 21 469 65 469 65 470 159 470 102 470 159 471 65 471 149 471 149 472 240 472 159 472 240 473 149 473 249 473 249 474 299 474 240 474 299 475 249 475 329 475 329 476 342 476 299 476 342 477 329 477 374 477 257 478 196 478 290 478 328 479 290 479 366 479 290 480 328 480 257 480 373 481 366 481 384 481 366 482 373 482 328 482 377 483 384 483 374 483 384 484 377 484 373 484 358 485 374 485 329 485 374 486 358 486 377 486 284 487 329 487 249 487 329 488 284 488 358 488 191 489 249 489 149 489 249 490 191 490 284 490 108 491 149 491 65 491 149 492 108 492 191 492 23 493 65 493 21 493 65 494 23 494 108 494 23 495 21 495 12 495 22 496 12 496 30 496 23 497 12 497 22 497 78 498 30 498 109 498 30 499 78 499 22 499 196 500 257 500 153 500 153 501 109 501 196 501 109 502 153 502 78 502 328 503 277 503 257 503 198 504 257 504 277 504 257 505 198 505 153 505 117 506 153 506 198 506 153 507 117 507 78 507 67 508 78 508 117 508 78 509 67 509 22 509 35 510 22 510 67 510 22 511 35 511 23 511 48 512 23 512 35 512 95 513 23 513 48 513 23 514 95 514 108 514 157 515 108 515 95 515 108 516 157 516 191 516 226 517 191 517 157 517 191 518 226 518 284 518 303 519 284 519 226 519 284 520 303 520 358 520 346 521 358 521 303 521 358 522 346 522 377 522 360 523 377 523 346 523 377 524 360 524 373 524 326 525 373 525 360 525 373 526 326 526 328 526 277 527 328 527 326 527 279 528 198 528 277 528 279 529 277 529 326 529 339 530 326 530 360 530 279 531 326 531 339 531 353 532 360 532 346 532 360 533 353 533 362 533 339 534 360 534 362 534 313 535 346 535 303 535 346 536 313 536 353 536 282 537 303 537 226 537 303 538 282 538 313 538 116 539 157 539 95 539 116 540 226 540 157 540 226 541 116 541 225 541 282 542 226 542 225 542 59 543 95 543 48 543 95 544 59 544 116 544 34 545 48 545 35 545 48 546 34 546 59 546 43 547 35 547 67 547 34 548 35 548 43 548 80 549 67 549 117 549 43 550 67 550 80 550 198 551 279 551 172 551 172 552 117 552 198 552 117 553 172 553 115 553 80 554 117 554 115 554 227 555 172 555 279 555 368 556 362 556 353 556 350 557 353 557 313 557 313 558 282 558 350 558 254 559 282 559 225 559 225 560 185 560 254 560 185 561 225 561 116 561 42 562 116 562 59 562 59 563 34 563 42 563 31 564 34 564 43 564 43 565 80 565 31 565 132 566 115 566 172 566 265 567 227 567 279 567 279 568 316 568 265 568 279 569 339 569 316 569 350 570 368 570 353 570 320 571 350 571 282 571 282 572 254 572 320 572 118 573 185 573 116 573 116 574 70 574 118 574 116 575 42 575 70 575 34 576 26 576 42 576 34 577 31 577 26 577 80 578 132 578 68 578 132 579 80 579 115 579 227 580 132 580 172 580 31 581 80 581 68 581 364 582 362 582 368 582 339 583 364 583 316 583 364 584 339 584 362 584 227 585 147 585 132 585 42 586 26 586 47 586 70 587 42 587 47 587 350 588 320 588 365 588 368 589 350 589 365 589 227 590 265 590 197 590 147 591 227 591 197 591 368 592 365 592 364 592 289 593 320 593 254 593 254 594 235 594 289 594 254 595 171 595 235 595 171 596 254 596 185 596 171 597 185 597 118 597 64 598 26 598 31 598 64 599 31 599 68 599 68 600 110 600 64 600 110 601 68 601 132 601 132 602 147 602 110 602 325 603 316 603 364 603 364 604 354 604 325 604 354 605 364 605 365 605 365 606 343 606 354 606 343 607 365 607 320 607 320 608 289 608 343 608 89 609 118 609 70 609 70 610 47 610 89 610 44 611 47 611 26 611 26 612 64 612 44 612 197 613 265 613 281 613 316 614 281 614 265 614 316 615 325 615 281 615 171 616 129 616 235 616 118 617 129 617 171 617 118 618 89 618 129 618 110 619 147 619 197 619 220 620 219 620 215 620 222 621 190 621 219 621 190 622 222 622 188 622 188 623 173 623 190 623 215 624 212 624 220 624 222 625 219 625 220 625 173 626 188 626 178 626 178 627 183 627 173 627 183 628 212 628 215 628 183 629 178 629 212 629 200 630 173 630 183 630 200 631 215 631 219 631 215 632 200 632 183 632 173 633 200 633 219 633 218 634 184 634 217 634 184 635 218 635 179 635 218 636 217 636 221 636 224 637 221 637 217 637 224 638 213 638 221 638 213 639 224 639 214 639 189 640 213 640 214 640 213 641 189 641 180 641 180 642 189 642 174 642 174 643 179 643 180 643 179 644 174 644 184 644 205 645 158 645 218 645 221 646 205 646 218 646 158 647 205 647 179 647 213 648 205 648 221 648 180 649 205 649 213 649 205 650 180 650 179 650 66 651 75 651 63 651 63 652 71 652 66 652 71 653 63 653 74 653 75 654 66 654 84 654 75 655 84 655 99 655 96 656 99 656 84 656 99 657 96 657 90 657 71 658 90 658 96 658 90 659 71 659 74 659 74 660 75 660 82 660 99 661 82 661 75 661 90 662 74 662 82 662 99 663 90 663 82 663 207 664 156 664 234 664 234 665 280 665 207 665 280 666 234 666 300 666 300 667 333 667 280 667 333 668 300 668 345 668 345 669 367 669 333 669 367 670 345 670 363 670 363 671 359 671 367 671 359 672 363 672 337 672 337 673 311 673 359 673 311 674 337 674 283 674 283 675 242 675 311 675 242 676 283 676 216 676 216 677 154 677 242 677 154 678 216 678 126 678 126 679 88 679 154 679 88 680 126 680 73 680 73 681 36 681 88 681 36 682 73 682 33 682 33 683 29 683 36 683 29 684 33 684 37 684 37 685 62 685 29 685 62 686 37 686 83 686 83 687 114 687 62 687 114 688 83 688 156 688 156 689 207 689 114 689 36 690 32 690 57 690 36 691 57 691 88 691 88 692 57 692 113 692 88 693 113 693 154 693 154 694 113 694 186 694 154 695 186 695 242 695 242 696 186 696 274 696 242 697 274 697 311 697 311 698 274 698 321 698 311 699 321 699 359 699 359 700 321 700 361 700 359 701 361 701 367 701 367 702 361 702 357 702 367 703 357 703 333 703 333 704 357 704 312 704 333 705 312 705 280 705 280 706 312 706 238 706 280 707 238 707 207 707 155 708 207 708 238 708 207 709 155 709 114 709 114 710 155 710 100 710 114 711 100 711 62 711 32 712 36 712 29 712 29 713 49 713 32 713 49 714 29 714 62 714 62 715 100 715 49 715 156 716 100 716 155 716 100 717 156 717 83 717 83 718 49 718 100 718 49 719 83 719 37 719 37 720 32 720 49 720 32 721 37 721 33 721 33 722 57 722 32 722 57 723 33 723 73 723 73 724 113 724 57 724 113 725 73 725 126 725 126 726 186 726 113 726 186 727 126 727 216 727 216 728 274 728 186 728 274 729 216 729 283 729 283 730 321 730 274 730 321 731 283 731 337 731 337 732 361 732 321 732 361 733 337 733 363 733 363 734 357 734 361 734 357 735 363 735 345 735 345 736 312 736 357 736 312 737 345 737 300 737 300 738 238 738 312 738 238 739 300 739 234 739 238 740 234 740 156 740 156 741 155 741 238 741 202 742 229 742 169 742 202 743 247 743 250 743 202 744 250 744 229 744 202 745 181 745 231 745 202 746 231 746 247 746 202 747 145 747 151 747 202 748 151 748 181 748 202 749 169 749 145 749 169 750 230 750 167 750 230 751 169 751 229 751 229 752 251 752 230 752 251 753 229 753 250 753 250 754 248 754 251 754 248 755 250 755 247 755 247 756 232 756 248 756 232 757 247 757 231 757 231 758 182 758 232 758 182 759 231 759 181 759 181 760 152 760 182 760 152 761 181 761 151 761 151 762 146 762 152 762 146 763 151 763 145 763 145 764 167 764 146 764 167 765 145 765 169 765 203 766 248 766 232 766 203 767 232 767 182 767 203 768 230 768 251 768 203 769 251 769 248 769 203 770 146 770 167 770 203 771 167 771 230 771 152 772 203 772 182 772 203 773 152 773 146 773 168 774 177 774 245 774 168 775 245 775 263 775 263 776 245 776 271 776 271 777 243 777 263 777 243 778 271 778 228 778 163 779 228 779 150 779 243 780 228 780 163 780 130 781 150 781 131 781 150 782 130 782 163 782 168 783 131 783 177 783 131 784 168 784 130 784 165 785 163 785 130 785 130 786 164 786 165 786 164 787 130 787 168 787 263 788 164 788 168 788 263 789 260 789 164 789 260 790 263 790 243 790 243 791 165 791 260 791 163 792 165 792 243 792 228 793 165 793 150 793 150 794 165 794 131 794 164 795 131 795 165 795 131 796 164 796 177 796 177 797 164 797 245 797 260 798 245 798 164 798 245 799 260 799 271 799 271 800 260 800 228 800 165 801 228 801 260 801</p>
        </triangles>
      </mesh>
    </geometry>
  </library_geometries>
  <library_materials>
    <material id="mat_link_6_t_stl002" name="link_6_t_stl002">
      <instance_effect url="#effect_link_6_t_stl002"/>
    </material>
  </library_materials>
  <library_visual_scenes>
    <visual_scene id="myscene">
      <node id="node0" name="node0">
        <instance_geometry url="#geometry0">
          <bind_material>
            <technique_common>
              <instance_material symbol="ref_link_6_t_stl002" target="#mat_link_6_t_stl002"/>
            </technique_common>
          </bind_material>
        </instance_geometry>
      </node>
    </visual_scene>
  </library_visual_scenes>
  <scene>
    <instance_visual_scene url="#myscene"/>
  </scene>
</COLLADA>
