<COLLADA xmlns="http://www.collada.org/2005/11/COLLADASchema" version="1.4.1">
  <asset>
    <contributor/>
    <created>2026-02-17T13:35:53.433839</created>
    <modified>2026-02-17T13:35:53.433842</modified>
    <unit name="meter" meter="1.0"/>
    <up_axis>Z_UP</up_axis>
  </asset>
  <library_effects>
    <effect id="effect_link_6_t_stl003" name="effect_link_6_t_stl003">
      <profile_COMMON>
        <technique sid="common">
          <phong>
            <emission>
              <color>0.0 0.0 0.0 1.0</color>
            </emission>
            <ambient>
              <color>0.0 0.0 0.0 1.0</color>
            </ambient>
            <diffuse>
              <color>0.6784313917160034 0.7098039388656616 0.7411764860153198 1.0</color>
            </diffuse>
            <specular>
              <color>1 1 1 1.0</color>
            </specular>
            <shininess>
              <float>0.0</float>
            </shininess>
            <reflective>
              <color>0.0 0.0 0.0 1.0</color>
            </reflective>
            <reflectivity>
              <float>0.0</float>
            </reflectivity>
            <transparent>
              <color>0.0 0.0 0.0 1.0</color>
            </transparent>
            <transparency>
              <float>1.0</float>
            </transparency>
          </phong>
        </technique>
        <extra>
          <technique profile="GOOGLEEARTH">
            <double_sided>0</double_sided>
          </technique>
        </extra>
      </profile_COMMON>
    </effect>
  </library_effects>
  <library_geometries>
    <geometry id="geometry0" name="link_6_t_stl003">
      <mesh>
        <source id="cubeverts-array0">
          <float_array count="162" id="cubeverts-array0-array">-0.01538699 0.001868319 -0.021 -0.01538699 0.00186832 -0.024 -0.01513881 0.001838188 -0.0395 -0.01449275 -0.005496374 -0.024 -0.01449275 -0.005496374 -0.021 -0.014259 -0.005407722 -0.0395 -0.01275625 0.008805004 -0.024 -0.01275625 0.008805004 -0.021 -0.0125505 0.008662992 -0.0395 -0.0102784 -0.01160192 -0.024 -0.0102784 -0.01160192 -0.021 -0.01011262 -0.01141479 -0.0395 -0.009272951 -0.002778817 -0.039875 -0.009210108 0.003269642 -0.039875 -0.007203208 0.01372457 -0.02399999 -0.007203208 0.01372457 -0.021 -0.007087028 0.01350321 -0.0395 -0.005635235 -0.007780558 -0.03984375 -0.00447315 0.002639642 -0.04 -0.003904898 0.008897305 -0.039875 -0.003709392 -0.0150496 -0.024 -0.003709392 -0.0150496 -0.021 -0.003649563 -0.01480686 -0.0395 -0.001608861 0.005294275 -0.04 -0.000598289 -0.009802353 -0.039875 -3.796404e-18 0.0155 -0.021 0 7.212379e-10 -0.021 0 0.01525 -0.0395 0 0.0155 -0.02399999 0.001843837 0.0096086 -0.03990625 0.003649563 -0.01480686 -0.0395 0.003709392 -0.0150496 -0.024 0.003709392 -0.0150496 -0.021 0.003968691 0.003993982 -0.04 0.00504045 0.001195099 -0.04 0.00571803 0.007342061 -0.03984375 0.006481329 -0.006977755 -0.04 0.007087028 0.01350321 -0.0395 0.007203208 0.01372457 -0.02399999 0.007203208 0.01372457 -0.021 0.009155871 0.003472368 -0.0398125 0.009658766 -0.001775467 -0.039875 0.01011262 -0.01141479 -0.0395 0.0102784 -0.01160192 -0.024 0.0102784 -0.01160192 -0.021 0.0125505 0.008662992 -0.0395 0.01275625 0.008805004 -0.024 0.01275625 0.008805004 -0.021 0.014259 -0.005407722 -0.0395 0.01449275 -0.005496374 -0.024 0.01449275 -0.005496374 -0.021 0.01513881 0.001838188 -0.0395 0.01538699 0.001868319 -0.021 0.01538699 0.00186832 -0.024</float_array>
          <technique_common>
            <accessor count="54" source="#cubeverts-array0-array" stride="3">
              <param type="float" name="X"/>
              <param type="float" name="Y"/>
              <param type="float" name="Z"/>
            </accessor>
          </technique_common>
        </source>
        <source id="cubenormals-array0">
          <float_array count="312" id="cubenormals-array0-array">0.9925871 -0.1205219 -0.01565844 0.9927089 -0.1205367 0 0.9927088 -0.1205367 -1.436909e-08 -0.9349017 0.3545614 -0.01565845 0.9925871 -0.1205217 -0.01565853 0.9349017 0.3545614 -0.01565846 1.494155e-08 -1.230547e-07 1 9.27843e-08 -1.767857e-07 1 4.552966e-07 -3.142685e-07 1 -0.02343692 0.02209404 -0.9994811 -0.04442884 0.04188317 -0.9981342 -0.02634349 0.000273708 -0.9996529 -0.0171037 0.06939243 -0.9974428 -0.04464193 0.0503903 -0.9977314 -0.6630415 0.7484189 -0.01565833 -0.01375588 0.06734592 -0.9976349 -0.05501846 -0.0379765 -0.9977629 -0.822883 -0.5679951 -0.01565854 -0.822883 -0.567995 -0.01565849 -0.9925871 -0.1205219 -0.01565844 -0.9350162 0.3546048 0 0.2392863 0.9708228 -0.01565824 0.01924207 0.07806814 -0.9967623 0.04206035 0.0474763 -0.9979864 0.9350162 0.3546048 4.227219e-08 0 -1.267375e-07 1 -0.4646663 -0.8853474 -0.01565857 -0.4646662 -0.8853474 -0.0156585 -0 -0.07472295 -0.9972043 0.822883 -0.567995 -0.01565849 0.822883 -0.5679951 -0.01565854 0.4646662 -0.8853474 -0.0156585 0.4646663 -0.8853474 -0.01565857 -0.2392863 0.9708228 -0.01565825 -0.6630415 0.7484189 -0.01565829 0.05815423 0.02205499 -0.9980639 -0.02020637 0.02180221 -0.9995581 -0.009013538 0.02893426 -0.9995407 -0.9349016 0.3545614 -0.01565846 -0.06943502 0.02633323 -0.9972389 -0.9925871 -0.1205217 -0.01565853 -0.0632836 0.0006575147 -0.9979953 -0.07050618 -0.008560986 -0.9974746 -0.04500717 -0.03897001 -0.9982262 -0.01230149 -0.01519338 -0.9998088 -0.03008544 -0.05732299 -0.9979023 -0.02908825 -0.05704341 -0.9979479 0.0743891 -0.05134709 -0.9959064 0.04120976 -0.0785186 -0.9960606 0.00912213 -0.06701794 -0.9977101 -0.01139173 -0.01297549 -0.9998509 -0.01182617 -0.01460632 -0.9998233 0.6630415 0.7484189 -0.01565833 0.6630415 0.7484189 -0.01565829 0.9349017 0.3545614 -0.01565845 0.9350162 0.3546048 0 -0.2392863 0.9708228 -0.01565825 0.2392863 0.9708228 -0.01565825 0.004268778 0.01831073 -0.9998232 0.05687497 0.01733959 -0.9982307 0.07417813 -0.009006841 -0.9972043 0.06762994 -0.0173368 -0.9975599 0.03051426 0.005379686 -0.9995199 0.0358857 0.01374148 -0.9992614 0.03767803 0.01551115 -0.9991695 -1.494155e-08 -1.230547e-07 1 -0.9350162 0.3546048 4.227219e-08 -0.9927089 -0.1205367 -1.436909e-08 -0.9927089 -0.1205367 0 0.0332343 0.02925931 -0.9990193 0.03875992 0.0263667 -0.9989006 0.04174517 0.04383045 -0.9981664 0.04420433 0.03120648 -0.998535 -9.27843e-08 -1.767857e-07 1 -4.552966e-07 -3.142685e-07 1 0 -1 0 -0 -1 -0 -0 -0.9998774 -0.01565852 0 -0.9998774 -0.01565852 0.822984 -0.5680647 0 0.8229839 -0.5680647 0 0.4647232 -0.885456 0 0.4647232 -0.885456 0 0.6631228 0.7485107 -0 0.6631227 0.7485107 -0 0.2393157 0.9709418 3.028468e-16 0.2393157 0.9709418 -0 -0.2393157 0.9709418 -3.028468e-16 -0.2393157 0.9709418 0 -0.6631227 0.7485107 0 -0.6631228 0.7485107 0 0 0 -1 0 0 -1 0 0 -1 0 0 1 -0 0 1 0 0 1 0 0 1 0 0 1 0 0 1 -0.4647232 -0.885456 0 -0.4647232 -0.885456 -0 -0.822984 -0.5680647 0 -0.8229839 -0.5680647 0</float_array>
          <technique_common>
            <accessor count="104" source="#cubenormals-array0-array" stride="3">
              <param type="float" name="X"/>
              <param type="float" name="Y"/>
              <param type="float" name="Z"/>
            </accessor>
          </technique_common>
        </source>
        <vertices id="cubeverts-array0-vertices">
          <input semantic="POSITION" source="#cubeverts-array0"/>
        </vertices>
        <triangles count="104" material="ref_link_6_t_stl003">
          <input offset="0" semantic="VERTEX" source="#cubeverts-array0-vertices"/>
          <input offset="1" semantic="NORMAL" source="#cubenormals-array0"/>
          <p>53 0 49 0 48 0 50 1 49 1 52 1 53 2 52 2 49 2 1 3 6 3 8 3 48 4 51 4 53 4 53 5 51 5 45 5 32 6 52 6 26 6 32 7 44 7 52 7 50 8 52 8 44 8 18 9 13 9 19 9 19 10 13 10 8 10 18 11 12 11 13 11 19 12 16 12 27 12 8 13 16 13 19 13 16 14 8 14 6 14 27 15 29 15 19 15 11 16 5 16 12 16 5 17 11 17 9 17 5 18 9 18 3 18 1 19 5 19 3 19 1 20 7 20 6 20 27 21 38 21 37 21 27 22 37 22 29 22 37 23 45 23 29 23 53 24 47 24 52 24 32 25 26 25 21 25 11 26 22 26 9 26 9 27 22 27 20 27 30 28 22 28 24 28 49 29 43 29 48 29 48 30 43 30 42 30 43 31 31 31 30 31 43 32 30 32 42 32 14 33 27 33 16 33 6 34 14 34 16 34 45 35 51 35 40 35 18 36 19 36 23 36 19 37 29 37 23 37 8 38 2 38 1 38 2 39 8 39 13 39 1 40 2 40 5 40 12 41 2 41 13 41 2 42 12 42 5 42 12 43 17 43 11 43 12 44 24 44 17 44 11 45 17 45 22 45 24 46 22 46 17 46 42 47 36 47 48 47 30 48 36 48 42 48 24 49 36 49 30 49 18 50 36 50 12 50 12 51 36 51 24 51 46 52 45 52 37 52 38 53 46 53 37 53 46 54 53 54 45 54 53 55 46 55 47 55 28 56 27 56 14 56 27 57 28 57 38 57 29 58 33 58 23 58 51 59 41 59 40 59 48 60 41 60 51 60 36 61 41 61 48 61 34 62 41 62 36 62 41 63 34 63 33 63 40 64 41 64 33 64 26 65 0 65 21 65 1 66 0 66 7 66 0 67 1 67 3 67 0 68 3 68 4 68 29 69 35 69 33 69 33 70 35 70 40 70 45 71 35 71 29 71 40 72 35 72 45 72 21 73 0 73 10 73 4 74 10 74 0 74 31 75 21 75 20 75 32 76 21 76 31 76 31 77 20 77 22 77 31 78 22 78 30 78 50 79 44 79 43 79 50 80 43 80 49 80 31 81 43 81 32 81 32 82 43 82 44 82 38 83 39 83 46 83 46 84 39 84 47 84 25 85 39 85 28 85 38 86 28 86 39 86 25 87 28 87 15 87 14 88 15 88 28 88 15 89 6 89 7 89 6 90 15 90 14 90 36 91 33 91 34 91 18 92 23 92 33 92 18 93 33 93 36 93 52 94 0 94 26 94 7 95 0 95 15 95 47 96 39 96 0 96 47 97 0 97 52 97 25 98 0 98 39 98 25 99 15 99 0 99 20 100 21 100 10 100 10 101 9 101 20 101 9 102 10 102 3 102 3 103 10 103 4 103</p>
        </triangles>
      </mesh>
    </geometry>
  </library_geometries>
  <library_materials>
    <material id="mat_link_6_t_stl003" name="link_6_t_stl003">
      <instance_effect url="#effect_link_6_t_stl003"/>
    </material>
  </library_materials>
  <library_visual_scenes>
    <visual_scene id="myscene">
      <node id="node0" name="node0">
        <instance_geometry url="#geometry0">
          <bind_material>
            <technique_common>
              <instance_material symbol="ref_link_6_t_stl003" target="#mat_link_6_t_stl003"/>
            </technique_common>
          </bind_material>
        </instance_geometry>
      </node>
    </visual_scene>
  </library_visual_scenes>
  <scene>
    <instance_visual_scene url="#myscene"/>
  </scene>
</COLLADA>
