<COLLADA xmlns="http://www.collada.org/2005/11/COLLADASchema" version="1.4.1">
  <asset>
    <contributor/>
    <created>2026-02-17T13:32:58.395423</created>
    <modified>2026-02-17T13:32:58.395427</modified>
    <unit name="meter" meter="1.0"/>
    <up_axis>Z_UP</up_axis>
  </asset>
  <library_effects>
    <effect id="effect_link_5_b_stl001" name="effect_link_5_b_stl001">
      <profile_COMMON>
        <technique sid="common">
          <phong>
            <emission>
              <color>0.0 0.0 0.0 1.0</color>
            </emission>
            <ambient>
              <color>0.0 0.0 0.0 1.0</color>
            </ambient>
            <diffuse>
              <color>0.6784313917160034 0.7098039388656616 0.7411764860153198 1.0</color>
            </diffuse>
            <specular>
              <color>1 1 1 1.0</color>
            </specular>
            <shininess>
              <float>0.0</float>
            </shininess>
            <reflective>
              <color>0.0 0.0 0.0 1.0</color>
            </reflective>
            <reflectivity>
              <float>0.0</float>
            </reflectivity>
            <transparent>
              <color>0.0 0.0 0.0 1.0</color>
            </transparent>
            <transparency>
              <float>1.0</float>
            </transparency>
          </phong>
        </technique>
        <extra>
          <technique profile="GOOGLEEARTH">
            <double_sided>0</double_sided>
          </technique>
        </extra>
      </profile_COMMON>
    </effect>
  </library_effects>
  <library_geometries>
    <geometry id="geometry0" name="link_5_b_stl001">
      <mesh>
        <source id="cubeverts-array0">
          <float_array count="771" id="cubeverts-array0-array">-0.035 0.02287265 0.01251781 -0.03499999 -0.02 -0.002699997 -0.03499999 -0.01999999 0.02856571 -0.03499999 0.02050001 0.02856571 -0.03499999 0.02452322 -0.001350001 -0.0348791 0.02419888 -0.006692674 -0.0347931 -0.0210932 -0.002699997 -0.0347931 -0.02109319 0.02856571 -0.03463906 0.02594876 -0.001389922 -0.0346042 -0.02 -0.009917191 -0.0345495 0.02380855 -0.01039828 -0.03449971 0.02205135 0.02721338 -0.03445367 -0.01999999 0.0312768 -0.03445367 0.02050001 0.0312768 -0.03429534 0.02556235 0.008627985 -0.03425828 0.02506192 -0.01004866 -0.03412131 -0.02212132 -0.002699997 -0.03412131 -0.02212131 0.02856571 -0.03380622 -0.02175314 -0.009829402 -0.03342157 -0.02 -0.01704782 -0.03342157 0.02281334 -0.01704783 -0.03324535 0.02207985 0.03212774 -0.0330932 -0.0227931 -0.002699997 -0.0330932 -0.0227931 0.02856571 -0.03289999 -0.01999999 0.0335647 -0.03289999 0.02050001 0.0335647 -0.03220455 -0.0221972 -0.01677676 -0.03211009 0.0279597 0.002540425 -0.03210253 0.0223005 -0.02098635 -0.0320646 0.0237476 -0.01968551 -0.03191819 -0.02 -0.02137989 -0.03185561 -0.02188469 0.03300942 -0.03176205 0.02781437 -0.006613688 -0.03162196 -0.02299999 0.02966715 -0.03119494 -0.02175314 -0.02103148 -0.03086881 0.0233817 0.03158987 -0.03073829 -0.023 -0.01391295 -0.03004476 0.02204451 -0.02450435 -0.02964654 0.02718737 -0.01552794 -0.02952634 0.02943565 -2.793968e-09 -0.02922746 0.0292159 0.007364676 -0.02904045 0.01461204 0.03695371 -0.02858419 -0.02 -0.02627834 -0.02844478 -0.01499833 0.03714939 -0.0284262 -0.008042455 0.03741792 -0.02819355 -0.02157984 -0.02591711 -0.02757461 0.02950001 -0.00486215 -0.02757461 0.02950001 0.004862144 -0.02751488 -0.02231361 0.03587939 -0.02736502 0.02203428 -0.02748818 -0.02731607 0.02943565 -0.01060305 -0.02676273 -0.02290729 -0.02459406 -0.02671279 0.022101 0.03669518 -0.02647061 0.0232768 -0.02763653 -0.02641075 -0.02 -0.02830379 -0.02640952 0.02208033 -0.02830477 -0.02618061 0.006905389 0.03896829 -0.02600076 0.02943565 0.01399161 -0.02544267 0.02681523 -0.02245391 -0.0242487 0.02950001 -0.014 -0.0242487 0.02950001 0.014 -0.02402744 0.02227558 -0.02994624 -0.02396126 -0.02 -0.02998493 -0.0235574 -0.02175315 -0.02929111 -0.023 -0.02599999 1.862645e-09 -0.02274207 -0.00698512 0.04110402 -0.02179395 0.02943565 -0.01992056 -0.02124923 -0.026 -0.008801716 -0.02051318 0.02273063 -0.03157496 -0.01986178 0.008446655 0.04255985 -0.0194355 0.02701398 -0.02750286 -0.01902996 0.02943565 0.02228122 -0.01845518 -0.02000001 -0.03217432 -0.018334 -0.02157984 -0.03165625 -0.01830763 -0.009524664 0.0432795 -0.01799804 0.0295 -0.02144924 -0.01799804 0.0295 0.02144923 -0.01666483 0.02103079 0.04384255 -0.01652743 0.02467415 -0.03206623 -0.01641775 0.02284022 0.04256508 -0.0164139 0.02347162 -0.03254136 -0.01632817 -0.02199159 0.04285782 -0.01626346 -0.026 -0.01626345 -0.01597602 -0.01606698 0.04420032 -0.01595414 -0.02281458 -0.03050129 -0.01580754 0.01485022 0.04426134 -0.01579942 -0.001779631 -0.03260856 -0.01559885 0.003560334 -0.0326277 -0.01513881 -0.0276 -0.001838182 -0.014259 -0.0276 0.005407726 -0.01389989 -0.02157984 -0.03216794 -0.01389989 -0.02000001 -0.03269999 -0.01348489 0.02772827 -0.02967868 -0.01320459 0.008950024 -0.03269999 -0.01300895 0.02943564 -0.02625566 -0.0125505 -0.0276 -0.008662984 -0.01142488 -0.02 0.04559025 -0.01142488 0.0205 0.04559025 -0.01045482 0.02479187 -0.03269999 -0.01011262 -0.0276 0.01141479 -0.00957656 0.0295 -0.0263114 -0.00957656 0.02950001 0.02631139 -0.00880172 -0.026 -0.02124922 -0.008489281 0.0205 0.04622695 -0.00839318 0.02207984 0.04570365 -0.008348778 -0.02 0.04625253 -0.008254268 -0.02157983 0.04572894 -0.008041186 0.02340729 0.04378693 -0.0079081 -0.02290728 0.04381116 -0.007088797 0.02728898 -0.03200742 -0.007087032 -0.0276 -0.0135032 -0.006199324 0.02943564 0.02863845 -0.00378409 0.02899616 0.03050453 -0.003649567 -0.0276 0.01480686 -0.001332262 0.02934185 -0.0296652 -3.619303e-09 -0.0276 -0.01524999 -3.409488e-09 -0.026 -0.02299999 -3.016086e-09 -0.023 0.04399999 -2.991769e-09 -0.02281457 0.04503834 -2.98614e-09 -0.02277164 -0.03084804 -2.900861e-09 -0.02212132 -0.03182131 -2.90086e-09 -0.02212132 0.04612131 -2.773232e-09 -0.02114806 -0.03247163 -2.758846e-09 -0.02103835 0.04681456 -2.622683e-09 -0.02 0.04699999 2.688251e-09 0.0205 0.04699999 2.824414e-09 0.02153836 0.04681456 2.966428e-09 0.02262133 0.04612131 3.057337e-09 0.02331458 0.04503834 3.421873e-09 0.02609444 -0.03269999 3.44501e-09 0.02609444 -0.03269999 3.616682e-09 0.02782025 -0.03201652 3.802386e-09 0.02899616 0.03075577 3.860018e-09 0.02943564 0.02952634 3.868457e-09 0.0295 -0.028 3.868458e-09 0.02950001 0.02799999 9.842848e-05 0.02833476 -0.0312235 0.00364956 -0.0276 0.01480686 0.003784098 0.02899616 0.03050453 0.006199331 0.02943564 0.02863845 0.006226882 0.02932576 -0.02894457 0.007009804 0.02555043 -0.03269999 0.007087023 -0.0276 -0.0135032 0.007205568 0.02682877 -0.03232564 0.007908095 -0.02290728 0.04381116 0.008041193 0.02340729 0.04378693 0.008254262 -0.02157983 0.04572894 0.008348772 -0.02 0.04625253 0.008393186 0.02207984 0.04570365 0.008489286 0.0205 0.04622695 0.008801715 -0.026 -0.02124922 0.009576566 0.0295 -0.0263114 0.009576566 0.02950001 0.02631139 0.01011262 -0.0276 0.01141479 0.01015799 0.02899616 0.02902985 0.01142488 -0.02 0.04559025 0.01142488 0.0205 0.04559025 0.01148178 0.02814895 -0.02974062 0.0125505 -0.0276 -0.008662984 0.01389989 -0.02290729 -0.03021917 0.01389989 -0.02157984 -0.03216794 0.01389989 -0.02000001 -0.03269999 0.01389989 0.0240333 -0.03269999 0.01425899 -0.0276 0.005407726 0.01513881 -0.0276 -0.001838182 0.01545305 0.02899616 0.02653576 0.01559885 0.00356033 -0.0326277 0.01579942 -0.00178071 -0.03260856 0.015822 0.02340295 0.04146808 0.01593549 -0.02246795 0.0427034 0.0160287 -0.01396251 0.04417995 0.01626345 -0.026 -0.01626345 0.01626749 0.01464815 0.04408463 0.01639959 -0.02051917 0.04394708 0.01650873 0.02209145 0.04343187 0.01655429 0.02491399 -0.03193606 0.01799805 0.0295 -0.02144924 0.01799805 0.0295 0.02144923 0.01803487 0.02315272 -0.03226787 0.01812711 -0.009609591 0.04336366 0.01827233 -0.02175315 -0.03139263 0.01845518 -0.02000001 -0.03217432 0.01902997 0.02943563 -0.02228123 0.01902997 0.02943564 0.02228122 0.02047882 -0.00781785 0.04230387 0.02124922 -0.026 -0.008801716 0.02128985 0.02599703 -0.02787911 0.02154319 -0.0229073 -0.02830613 0.02191131 0.02252837 -0.03102532 0.02214041 0.007391103 0.04138575 0.02222452 0.02899615 -0.02124882 0.02222452 0.02899615 0.02124881 0.02299999 -0.02600001 1.862645e-09 0.02369359 -0.02157985 -0.0295251 0.02372191 0.02353807 -0.02968372 0.02396126 -0.02000001 -0.02998493 0.02424871 0.0295 -0.014 0.02424871 0.0295 0.014 0.02502235 -0.006679821 0.03972394 0.02517747 -0.023 0.03364704 0.02540573 0.02214991 -0.02905896 0.02600078 0.02943563 -0.01399161 0.02641075 -0.02000001 -0.02830379 0.02676272 -0.0229073 -0.02459406 0.02731609 0.02943563 0.01060304 0.02757462 0.0295 -0.00486215 0.02757462 0.0295 0.004862144 0.02806374 0.02257887 0.03622533 0.02819354 -0.02157985 -0.02591711 0.02821573 -0.02194072 0.03628925 0.02843002 0.007999688 0.03741756 0.02846493 -0.02001056 0.03714795 0.02852385 0.02200957 -0.02634331 0.02858419 -0.02000001 -0.02627834 0.02878161 -0.008712875 0.03715271 0.02917036 0.0205 0.03685226 0.02922747 0.02921589 -0.007364681 0.02952635 0.02943563 -2.793968e-09 0.02964657 0.02718736 -0.0155279 0.02965342 0.02348081 -0.02399705 0.03014243 0.02472702 -0.02164038 0.03082887 -0.02281458 -0.01857496 0.03092644 0.02211493 -0.02319269 0.03122375 -0.02000001 -0.02269419 0.03143885 -0.02157984 -0.02114898 0.03185905 0.02771753 0.006833644 0.03191819 -0.02000001 -0.02137989 0.03199999 -0.023 0.02856571 0.03209821 0.02795798 -0.00289134 0.03273368 0.02247746 -0.01942965 0.03277212 -0.02189345 0.03219114 0.03287376 -0.02280385 -0.006201339 0.03289999 -0.02 0.0335647 0.03289999 0.0205 0.0335647 0.03293546 0.02372483 -0.01792944 0.0330932 -0.02279311 0.02856571 0.03324622 0.02207858 0.03212862 0.03342157 -0.02000001 -0.01704782 0.0334888 -0.02157984 -0.01339558 0.03351634 0.02288939 -0.01660822 0.03372409 0.02580776 -0.01008157 0.03412131 -0.02212133 -0.002699997 0.03412131 -0.02212132 0.02856571 0.03445367 -0.02 0.0312768 0.03445367 0.0205 0.0312768 0.03450022 0.02205095 0.02721017 0.0346042 -0.02000001 -0.009917191 0.03462055 0.02369551 0.01474517 0.03462548 0.02583661 -0.0002119349 0.03465859 0.02392379 -0.009404374 0.0347931 -0.02109321 -0.002699997 0.0347931 -0.0210932 0.02856571 0.03499999 -0.02000001 -0.002699997 0.03499999 -0.02 0.02856571 0.03499999 0.0205 0.02856571 0.03499999 0.02409603 0.005628667 0.03499999 0.02448531 -0.002700001</float_array>
          <technique_common>
            <accessor count="257" source="#cubeverts-array0-array" stride="3">
              <param type="float" name="X"/>
              <param type="float" name="Y"/>
              <param type="float" name="Z"/>
            </accessor>
          </technique_common>
        </source>
        <source id="cubenormals-array0">
          <float_array count="1530" id="cubenormals-array0-array">0.2027469 -0.9784854 0.03821141 -0.248093 0.5810983 0.7750965 -0.2495128 0.4160474 0.8744415 -0.4937889 0.4261662 0.757994 -0.4411834 0.5570098 0.7036316 -0.04848797 0.994018 0.09786239 -0.1604544 0.9324061 0.3238415 -1 0 2.377069e-07 0.9865238 -0.0005026988 -0.1636168 -0.200885 0.3190144 0.9262155 0.08779453 -0.1751237 0.9806242 0.1030438 -0.3184698 0.9423157 0.5005736 -0.03785361 0.864866 0.5585656 -0.01600602 0.8293059 -0.1396738 0.9895719 0.03519473 -0.5333132 0.1314002 0.8356501 -0.3966052 0.007188531 0.9179611 -0.3144452 0.02069121 0.9490502 -0.3280157 0.8181523 0.472263 -0.2137482 0.9205835 0.3268606 -0.2855951 0.9277709 0.2401593 -0.4354292 0.881471 0.1827846 0.1009418 -0.9856176 0.1355314 0.1345586 -0.9865432 0.09287911 0.1856982 -0.9811958 0.05263978 0.4556823 -0.8398753 -0.294895 -0.07518931 -0.5376114 0.8398337 0.08070272 -0.8263164 0.5573943 0.07518931 -0.5376114 0.8398337 0.9635889 0.0006116035 -0.2673874 0.1940924 -0.9807001 0.02356705 0.1277277 -0.9812743 -0.1441748 0.1175134 -0.9773741 -0.1758711 0.07213709 -0.9548442 -0.2882166 0.1353782 -0.9723362 -0.1903551 0.1290856 -0.9726328 -0.1931901 0.8052043 -0.001334835 -0.5929959 -0.2119599 2.994677e-08 0.9772784 -0.2901744 4.099731e-08 0.9569738 0.1994789 -0.3190047 0.9265226 0.4224224 -0.01842764 0.9062117 0.4918865 -0.04549049 0.8694701 0.245709 -0.416272 0.8754111 -0.947677 0.315798 0.04669017 -0.03712303 0.998823 0.03121706 -0.03684026 0.9988429 0.03091345 -0.0259889 0.9986482 0.04501325 -1.738856e-06 1 2.227214e-06 -0.0367707 0.9992341 0.01338344 -0.08821438 0.9958534 0.02222808 -1 8.310621e-09 -2.740865e-07 -1 -8.897742e-08 2.171209e-14 -0.5457581 -0.8352396 -0.0672531 -0.5345512 -0.8422818 -0.06940115 -0.9997429 0.0006872038 -0.02266416 -0.9984972 -0.002215333 -0.05475747 -0.8971888 -0.4158253 -0.1488004 -0.8539467 -0.4933956 -0.1653358 2.207076e-08 1 -6.429684e-07 -0.027675 0.004803737 -0.9996054 -0.01462328 0.9964477 -0.08293291 -0.3028112 -0.9530506 1.267278e-07 -0.1806635 -0.9818988 0.05688069 -0.2027478 -0.9784852 0.03821116 -0.1330907 -0.9868371 0.09186593 -0.05678697 -0.9566993 -0.2854852 0.05875572 -0.9535705 -0.2953829 0.01701902 -0.8313484 -0.5554911 -0.00983711 -0.8314285 -0.5555446 0.008186276 -0.9247794 -0.3804157 -0.005779619 -0.9247949 -0.3804221 0.9811358 -0.1856816 -0.05380538 0.281553 -0.9584568 -0.0456985 0.4859843 -0.8739631 -0.002797467 0.3070339 -0.9516971 -0.00164397 0.9350718 -0.3187319 -0.1550834 0.8957207 -0.4355333 -0.08941523 0.8346502 -0.5453756 -0.07697012 0.8471878 -0.481769 -0.2239902 0.680048 -0.710779 -0.1797997 0.5610295 -0.8226673 -0.09200295 0.6351237 -0.7686155 -0.07647244 0.5641004 -0.001217995 0.8257052 0.5432724 0.005790078 0.8395365 0.6055203 0.000126848 0.7958298 0.9638477 -0.1824098 0.1942275 0.2660586 -0.962503 -0.05292291 0.208577 -0.9771255 -0.04148913 0.1794314 -0.9814141 -0.06804938 0.1777868 -0.9768725 -0.1187935 0.2004391 -0.9722763 -0.120428 0.1875436 -0.97423 -0.1253128 0.2955025 -0.8602518 -0.4155057 0.7391732 0.3500788 -0.5753848 0.7951702 0.0002042973 -0.6063862 0.9447237 -0.003084374 -0.3278529 0.8959181 -0.3172732 -0.3109156 0.8379825 -0.318967 -0.44277 0.9013318 0.002581823 -0.4331218 0.8841656 0.0007118838 -0.4671731 -0.2104755 -0.0001126022 0.9775991 -0.1994789 -0.3190047 0.9265226 -0.08779453 -0.1751236 0.9806242 -0.1030438 -0.3184698 0.9423157 0.1211315 -0.8262841 0.5500743 0.2459318 -0.5623886 0.7894534 0.0744761 -0.9860877 0.1486081 0.07733241 -0.9860575 0.1473446 0.08599108 -0.985591 0.1456566 -0.4404346 0.8791662 0.1818903 -0.5542765 0.819393 0.1461941 -0.7855746 0.3134976 0.5334715 -0.4883626 0.5263358 0.6960407 -0.3365154 0.8116106 0.4775412 -0.03295872 0.9994567 0 -0.9638477 -0.1824098 0.1942275 -0.796055 -0.5201557 0.3094102 -0.7689722 -0.4140342 -0.4870908 -0.8599356 -0.4140668 -0.2984284 -0.8338001 -0.4925903 -0.2492632 -0.1940936 -0.9806999 0.02356719 -0.2085779 -0.9771253 -0.04148809 -0.3816033 -0.922168 -0.0631275 -0.2918921 -0.9554536 -0.0436725 -0.2741741 -0.9601325 -0.05453599 -0.1216636 -0.9636804 -0.2377351 -0.4699696 -0.8234385 -0.3179269 -0.2498512 -0.9629651 -0.1013541 -0.3536799 -0.8234388 -0.443688 -0.1840557 -0.9180397 -0.351179 -0.3846728 -0.9041913 -0.1856478 -0.2916644 -0.9493629 -0.1167992 -0.5202467 0.8533655 -0.0333278 -0.4616561 0.8859083 0.04516862 -0.5603596 0.8192902 0.1214936 -0.9689994 0.244313 -0.03675851 -0.5879288 0.8081471 -0.03518319 -0.6694143 0.7410985 0.05155341 -0.9687987 0.2461118 0.02929234 -0.9486796 0.3130744 0.04462526 -0.996065 0.0002706083 -0.08862526 -0.9865238 -0.00056483 -0.1636168 -0.9859171 -1.490075e-08 -0.167235 0.01203892 0.9944962 -0.104079 0.1646824 0.3145528 -0.9348456 -0.0622911 0.8214455 -0.5668747 0.35056 -0.3159977 -0.8816196 0 -0.1950948 -0.9807844 -0.03190361 0.0007662328 -0.9994906 -0.03656027 0.002837039 -0.9993274 -0.3694889 -0.004761635 -0.9292229 -0.2298986 0.002578353 -0.9732111 -0.1087148 -0.3172729 -0.9420822 -0.1970938 -0.8449559 -0.4971957 -0.3505608 -0.3159959 -0.8816199 -0.3640309 -0.4140359 -0.8342996 -0.9447277 -0.001066749 -0.3278543 -0.9482342 -2.829587e-08 -0.3175719 -0.7843274 -0.3159955 -0.5338327 -0.08070272 -0.8263164 0.5573943 -0.1002554 -0.9795384 0.1745087 -0.07772997 -0.9859127 0.148102 -0.08471152 -0.9852797 0.1484854 -0.6598168 0 0.7514265 -0.3342221 -0.9007995 0.277229 -0.2798051 -0.9163937 0.286237 -0.5204455 -0.7965007 0.3077713 -0.5135236 -0.4917434 0.7031941 -0.7018631 -0.5293557 0.4766243 -0.6964899 -0.6040801 0.3872841 -0.04732447 -0.9802527 -0.192003 -0.04018556 -0.9785557 -0.2020243 0.04732447 -0.9802527 -0.192003 0.04018554 -0.9785557 -0.2020243 -0.1357221 0.8259788 0.5471185 -0.1146225 0.9277174 0.3552494 -0.1041657 0.3184278 0.9422066 -0.006549339 0.9992885 0.03714315 -3.458523e-08 1 1.961426e-07 0.1095155 0.9242494 0.365745 0.3620134 0.908065 0.2106281 0.9876477 0.0006064757 -0.1566897 0.998706 -4.361053e-09 -0.05085668 0.9984995 -0.0005970326 -0.0547576 0.5824658 0.4733837 0.6607884 0.7856939 0.3130602 0.5335525 0.7505999 -0.4204575 0.5097206 0.6283767 -0.01794118 0.7777023 0.6553998 -0.0009539424 0.7552814 0.6612495 -0 0.750166 0.529885 -0.810947 0.2481668 0.5469965 -0.8371349 1.024495e-07 0.796055 -0.5201557 0.3094102 0.7796336 -0.5360097 0.3238286 0.3548327 -0.8235531 -0.442554 0.468929 -0.823553 -0.3191646 0.7572991 -0.4010271 -0.515437 0.7635734 -0.3173849 -0.5623367 0.536424 -0.3183737 -0.781593 0.6817619 -0.000152191 -0.7315741 0.6462864 -0.3183748 -0.6935067 0.5655347 -0.4273853 -0.7053455 0.5785221 -0.3927364 0.7148919 0.5807065 -0.5033752 0.6398386 0.460888 -0.4097247 0.7872154 0.4027053 -0.5586441 0.7250829 0.2379366 -0.9375541 0.2537292 0.1813863 -0.9584145 0.2203196 0.1553096 -0.9656058 0.2085292 0.1521847 -0.9653437 0.2120175 -0.9349928 0.3502362 0.0558826 -0.5841233 0.7987057 0.1444619 -0.8808748 0.4388061 0.1775074 -0.8277901 0.5209495 0.2082669 -0.9811358 -0.1856816 -0.05380538 -0.8353575 -0.5458378 -0.06510711 -0.9050759 -0.416308 -0.08674798 -0.1794313 -0.9814141 -0.06804933 -0.4703775 0.865441 -0.1725014 -0.03512685 0.9993011 -0.01278513 -0.4077928 0.9091088 -0.08500686 -0.06843412 0.9975536 -0.0142655 -0.5925257 0.7814481 -0.1955816 -0.6680533 0.736692 -0.1048315 -0.9404419 0.2744617 -0.2005987 -0.9281325 0.3639661 -0.07809348 -0.9605407 0.2544856 -0.1122432 1.991675e-07 1 -1.129538e-06 0.01498504 0.9962696 -0.08498456 -0.002027451 0.8390176 -0.5441005 0.05036017 0.8592467 -0.5090765 0.06946998 0.8329188 -0.5490176 0.5927089 0.5224631 -0.6129669 0.4735197 0.734223 -0.4865138 0.01077823 0.3681867 -0.9296894 0.122342 0.4137794 -0.9021192 0.1765711 0.7271104 -0.6634253 0.09537842 0.8137369 -0.5733544 0.08721863 0.8132427 -0.5753513 -0.03936823 0.3159808 -0.9479485 0 0.3682081 -0.9297435 -0.02877684 0.3680556 -0.9293584 0.1572981 -0.000608762 -0.9875509 0.1146347 -0.006966637 -0.9933833 0.3082744 -0.4140353 -0.8564705 0.1127965 -0.8855382 -0.4506652 0.2083832 -0.8229288 -0.5285496 -0.1146349 -0.006966204 -0.9933832 -0.06054552 -0.001303226 -0.9981646 -0.1539088 -0.001115449 -0.9880844 -0.100394 0.0002050692 -0.9949478 -0.4205141 0.0001720439 -0.907286 -0.1149569 0.869803 -0.4798203 -0.01079044 -0.3191466 -0.9476439 -0.1087146 -0.3172735 -0.9420821 -0.0009080359 -0.5555695 -0.8314697 -0.01577741 -0.7940159 -0.6076922 -0.07521593 -0.7546566 -0.6517945 -0.8824361 0.3270758 -0.3381242 -0.8344067 0.487839 -0.2564732 -0.6297292 0.7375211 -0.2439343 -0.7439937 0.002347171 -0.6681824 -0.7574178 0.4473667 -0.4755852 -0.8631505 0.0009363231 -0.5049459 -0.826676 -0.004977564 -0.5626563 -0.646287 -0.3183719 -0.6935073 -0.5147387 -0.4153902 -0.7499967 -0.5315739 -0.4673311 -0.7064211 -0.6817613 -0.001282372 -0.7315735 -0.5658687 -0.0001312737 -0.8244954 -0.1513467 -0.8253434 0.5439692 -0.1332582 -0.9569706 0.2577784 -0.2732465 -0.4749526 0.8365144 -0.490776 -0.3395432 0.8024022 -0.4974439 -0.1670073 0.8512685 0.0735895 -0.8399333 0.537677 -0.0735895 -0.8399333 0.537677 -0.6494794 -0.002029025 0.7603764 -0.6066164 -0.02905015 0.7944637 -0.5397642 -0.03103465 0.8412439 -0.07646783 0.5375591 0.8397518 -0.08104428 0.826294 0.557378 -0.07398972 0.8399084 0.5376611 0.07398972 0.8399084 0.5376611 -0.08928498 0.1750998 0.9804939 -0.08917256 1.169357e-08 0.9960162 -0.09068602 0.000314521 0.9958795 0.08917256 -1.169357e-08 0.9960162 0.03512684 0.9993011 0.01278513 1.252543e-07 1 -5.778546e-08 5.638828e-08 1 -0 1.840242e-08 1 1.043653e-07 0.00654934 0.9992885 0.03714315 0.09724696 0.9928656 0.0690001 0.1743805 0.9768738 0.1237293 0.04848994 0.9940177 0.09786522 0.3037247 0.912887 0.2727428 0.5664662 0.499263 0.6556314 0.1600038 0.932839 -0.3228161 0.2522323 0.8780546 -0.4066927 0.07529452 0.9840947 -0.160899 0.025993 0.9986477 -0.04502196 0.03712966 0.9988225 -0.03122262 0.1834097 0.9708624 -0.1542306 0.6128131 0.746345 -0.2596714 0.9373178 0.1953985 -0.2885389 0.9223021 0.334123 -0.1942181 0.9049187 0.3799279 -0.1917734 0.7477067 0.5102366 -0.4249629 0.7718897 0.462579 -0.4361271 0.817194 0.3843557 -0.4294934 0.9128711 0.4003298 -0.08001529 0.9043611 0.4184562 -0.0838178 0.9352809 0.3495829 0.05515047 0.8808026 0.4389566 0.1774928 0.8278511 0.5209034 0.20814 0.7657593 0.636602 0.09138174 -0.1277277 -0.9812743 -0.1441747 -0.1175134 -0.9773741 -0.1758712 -0.1308701 -0.9718598 -0.195861 -0.1875442 -0.9742298 -0.1253131 -0.1777866 -0.9768726 -0.1187934 0.3375921 0.4405046 -0.8318577 0.3454051 0.4642681 -0.8155676 0.3694886 -0.004921942 -0.9292222 0.3053743 0.0009100646 -0.952232 0.2704503 0.862282 -0.4281662 0.2767175 0.797621 -0.5359367 0.3255137 0.7471937 -0.5794328 0.4137449 0.8061644 -0.4229825 0.4367335 0.7714984 -0.4626596 0.05990852 0.2720759 -0.9604092 0.02156958 0.2779322 -0.9603585 0.04251253 -5.524425e-09 -0.9990959 0.060543 -0.001303059 -0.9981648 0.1050337 0.005204717 -0.994455 0.1343523 0.001494682 -0.9909325 0.01079044 -0.3191466 -0.9476439 0.1087147 -0.3172735 -0.942082 0.1428234 -0.4154459 -0.8983352 0.0009080359 -0.5555695 -0.8314697 0.01815406 -0.8263386 -0.5628809 0.06691513 -0.8246224 -0.5617118 -0.2728052 0.3311394 -0.9032851 -0.1944674 0.7170151 -0.6693816 -0.1038045 0.3569879 -0.9283233 -0.1029985 0.3923459 -0.9140328 -9.736462e-08 1 -8.498366e-07 -1.991674e-07 1 -1.129537e-06 -0.303003 0.7557206 -0.5805822 -0.6764603 0.414234 -0.6089432 -0.6307865 0.6097577 -0.4798998 -0.3668222 0.7119483 -0.598808 -0.3964722 0.6117181 -0.6845517 -0.3888775 0.6268429 -0.6751609 -0.6496884 1.213717e-06 -0.7602006 -0.5674165 -2.669489e-06 -0.823431 -0.6161249 0.359855 -0.7006387 -0.5443784 0.3876711 -0.7438839 -0.4956916 -0.07427951 0.8653163 -0.4961884 -0.1637123 0.8526402 -0.4236055 -0.176164 0.888552 -0.2923188 -0.0002945247 0.9563209 0.01533714 -0.9873993 0.1575033 0.0157372 -0.9843042 0.1757773 0 -0.9878121 0.155651 -0.01533719 -0.9873994 0.1575033 -0.0157372 -0.9843042 0.1757773 -0.5736784 0.001229131 0.8190797 -0.5433762 -0.00543814 0.8394716 -0.4960869 0.01068637 0.8682072 -0.5009667 0.03914222 0.864581 -0.5016449 0.03974433 0.8641602 0.1528584 0.8456825 0.5113271 0.2589423 0.8426123 0.4721794 0.452857 0.4696214 0.757876 0.3825644 -0.0111723 0.9238613 0.3120837 -0.01608462 0.9499184 0.2928973 -4.156892e-08 0.9561439 0.03295875 0.9994567 -0 0.1396738 0.9895719 -0.0351947 0.08821458 0.9958535 -0.02222812 0.06843416 0.9975536 0.0142655 1.616691e-06 1 -5.884278e-07 0.03684026 0.998843 -0.03091189 0.0367707 0.9992341 -0.01338345 0.4403823 0.8446801 -0.3042679 0.4199504 0.8661498 -0.2709722 0.5993007 0.758284 -0.2566007 0.522665 0.8332695 -0.1802313 0.4549529 0.8694184 -0.1926905 -0.00603386 0.9990939 0.04212878 0.006033861 0.9990939 0.04212878 0.03716006 0.9988228 0.03118026 0.02599197 0.998648 0.04501859 1.61669e-06 1 5.884272e-07 4.529718e-07 1 -0 0.08970202 0.9775918 0.190441 0.08605928 0.9810328 0.1736905 0.161406 0.925486 0.3426717 0.2068435 0.9178773 0.338699 0.2193257 0.9343376 0.2809083 0.2367405 0.9230471 0.3032129 0.968883 0.247249 0.01155631 0.9368377 0.3455437 0.05417378 0.921826 0.3836498 0.05522312 0.6037679 0.4303673 -0.6710055 0.4962383 0.2244794 -0.8386635 0.6568175 0.002151257 -0.7540466 0.5658683 -0.001279506 -0.8244947 0.4905919 0.002330342 -0.8713863 -0.01927952 0.9992563 -0.03339386 -0.02022894 0.9951128 -0.09664976 -0.1183638 0.8950455 -0.4299809 -0.2530593 0.8793285 -0.4034134 -0.3834118 0.8951874 -0.2272331 -0.03831618 0.997852 -0.05313522 -0.2647561 0.8916895 -0.3671432 -0.06090337 0.9974908 -0.03609504 -0.02559344 0.9994417 -0.02147622 -0.5105815 0.7844501 -0.3520578 -0.5188249 0.7504427 -0.4094588 -0.4125493 0.861268 -0.2966826 -0.410424 0.7889645 -0.4572604 -0.3493149 0.8556337 -0.3819293 -0.4414775 -0.002248034 0.8972694 -0.4576026 -0.03805267 0.8883421 -0.3910558 0.003037144 0.9203619 -0.3669223 0.0001634606 0.9302516 0.08104427 0.8262939 0.557378 0.1510773 0.8254274 0.5439168 0.2455554 0.408105 0.8792911 0.07646783 0.5375591 0.8397518 0.4663645 0.06226932 0.8823982 0.4082149 0.00416208 0.9128764 0.3714379 0.06915901 0.9258785 0.3623969 8.054453e-05 0.9320239 0.2976591 0.0006963194 0.954672 0.4590642 0.8872574 -0.04510358 0.5516559 0.8251007 -0.1220024 0.6807036 0.7297313 -0.06430157 0.7185436 0.6884956 0.09833007 0.6207396 0.7832516 0.03463122 0.5263101 0.8496146 0.03394981 0.4143098 0.9060289 0.08636528 0.4674995 0.8679128 0.1678441 0.5873631 0.7961774 0.1452791 -0.1064926 0.9282289 0.3564414 -0.03974646 0.9598996 0.2775122 -0.02234289 0.9414079 0.3365293 -0.04758926 0.9260448 0.3744013 -0.02453288 0.928901 0.3695148 0.08408789 0.9278123 0.363447 0.07352566 0.9453045 0.3177946 0.04758925 0.9260448 0.3744013 0.02453287 0.9289009 0.3695148 0.03974646 0.9598996 0.2775122 0.02234289 0.9414079 0.3365293 0.200885 0.3190144 0.9262155 0.09068602 0.0003144954 0.9958795 0.08928498 0.1750998 0.9804939 0.1041657 0.3184278 0.9422066 0.2104755 -0.0001126617 0.9775991 0.2119599 -2.994677e-08 0.9772784 0.4257982 0.008099712 0.9047819 0.4699897 0.0526703 0.881099 0.4940566 -0.001491782 0.8694284 0.5306009 0.008573588 0.8475785 -0.5469965 -0.8371349 1.024495e-07 -0.5469965 -0.8371349 1.024495e-07 -0.9802945 0 0.1975417 -0.9802945 0 0.1975417 0.9802945 -0 0.1975417 0.9802945 0 0.1975417 0.982559 -0.185951 2.268769e-08 0.982559 -0.185951 2.270317e-08 0 1 0 0 1 0 -0.8272786 0 0.561792 -0.8272786 0 0.561792 0.8272786 -0 0.561792 0.8272786 0 0.561792 0.8371337 -0.5469984 6.673872e-08 0.8371336 -0.5469984 6.673871e-08 -0.982559 -0.185951 2.268769e-08 -0.982559 -0.185951 2.268769e-08 -0.8371336 -0.5469984 6.673871e-08 -0.8371336 -0.5469984 6.674705e-08 0 -1 0 0 -1 -0 0 -1 0 0 -1 0 0 -1 0 -0 -1 0 0 -1 0 -0 -1 0 0 -1 0 0 -1 0 0 -1 0 -0 0 -1 0 0 -1 0 -0 -1 0 0 -1 0 0 0 0 0 -1 5.975049e-07 1 0 5.975049e-07 1 0 1 0 0 1 0 0 1 -0 0</float_array>
          <technique_common>
            <accessor count="510" source="#cubenormals-array0-array" stride="3">
              <param type="float" name="X"/>
              <param type="float" name="Y"/>
              <param type="float" name="Z"/>
            </accessor>
          </technique_common>
        </source>
        <vertices id="cubeverts-array0-vertices">
          <input semantic="POSITION" source="#cubeverts-array0"/>
        </vertices>
        <triangles count="510" material="ref_link_5_b_stl001">
          <input offset="0" semantic="VERTEX" source="#cubeverts-array0-vertices"/>
          <input offset="1" semantic="NORMAL" source="#cubenormals-array0"/>
          <p>192 0 235 0 163 0 104 1 79 1 77 1 97 2 104 2 77 2 25 3 77 3 52 3 77 4 79 4 52 4 71 5 111 5 101 5 79 6 111 6 71 6 0 7 2 7 3 7 239 8 246 8 237 8 104 9 97 9 103 9 124 10 123 10 147 10 147 11 123 11 146 11 198 12 184 12 211 12 211 13 214 13 198 13 57 14 39 14 40 14 41 15 77 15 25 15 77 16 69 16 85 16 97 17 77 17 85 17 79 18 35 18 52 18 79 19 71 19 35 19 57 20 35 20 71 20 57 21 40 21 35 21 227 22 199 22 153 22 153 23 163 23 227 23 163 24 235 24 227 24 224 25 221 25 203 25 121 26 123 26 106 26 144 27 146 27 121 27 146 28 123 28 121 28 239 29 237 29 229 29 192 30 163 30 164 30 142 31 171 31 158 31 142 32 150 32 171 32 150 33 159 33 187 33 203 34 171 34 187 34 187 35 171 35 150 35 222 36 223 36 213 36 96 37 103 37 97 37 97 38 85 38 96 38 147 39 146 39 155 39 184 40 179 40 173 40 184 41 173 41 211 41 155 42 146 42 173 42 0 43 3 43 14 43 57 44 71 44 76 44 60 45 57 45 76 45 76 46 71 46 101 46 101 47 60 47 76 47 57 48 60 48 47 48 57 49 47 49 39 49 0 50 4 50 1 50 0 51 1 51 2 51 16 52 18 52 22 52 26 53 22 53 18 53 4 54 5 54 1 54 9 55 1 55 5 55 9 56 19 56 18 56 26 57 18 57 19 57 59 58 176 58 134 58 93 59 80 59 98 59 134 60 114 60 100 60 64 61 23 61 22 61 23 62 89 62 33 62 64 63 89 63 23 63 33 64 89 64 99 64 102 65 84 65 116 65 159 66 150 66 116 66 120 67 159 67 119 67 119 68 84 68 120 68 159 69 116 69 119 69 119 70 116 70 84 70 246 71 252 71 250 71 192 72 221 72 231 72 235 73 231 73 241 73 235 74 192 74 231 74 238 75 237 75 246 75 246 76 250 76 238 76 250 77 241 77 238 77 224 78 237 78 238 78 238 79 221 79 224 79 238 80 231 80 221 80 241 81 231 81 238 81 198 82 214 82 210 82 198 83 210 83 215 83 210 84 214 84 215 84 253 85 243 85 251 85 185 86 221 86 192 86 192 87 164 87 185 87 158 88 185 88 164 88 158 89 171 89 185 89 203 90 221 90 185 90 185 91 171 91 203 91 203 92 187 92 193 92 219 93 222 93 212 93 222 94 213 94 212 94 226 95 229 95 237 95 237 96 224 96 226 96 224 97 223 97 226 97 222 98 229 98 226 98 226 99 223 99 222 99 103 100 96 100 105 100 106 101 105 101 96 101 105 102 123 102 124 102 106 103 123 103 105 103 169 104 146 104 144 104 146 105 169 105 173 105 144 106 137 106 169 106 137 107 153 107 169 107 153 108 199 108 169 108 21 109 35 109 40 109 40 110 14 110 21 110 21 111 13 111 25 111 25 112 52 112 21 112 52 113 35 113 21 113 39 114 47 114 46 114 7 115 12 115 2 115 17 116 12 116 7 116 30 117 45 117 34 117 30 118 34 118 19 118 26 119 19 119 34 119 88 120 89 120 64 120 64 121 67 121 88 121 22 122 26 122 36 122 64 123 22 123 36 123 64 124 36 124 67 124 51 125 84 125 102 125 51 126 34 126 45 126 67 127 36 127 51 127 45 128 63 128 51 128 63 129 84 129 51 129 26 130 34 130 51 130 26 131 51 131 36 131 39 132 32 132 27 132 40 133 39 133 27 133 14 134 40 134 27 134 8 135 5 135 4 135 27 136 32 136 8 136 14 137 27 137 8 137 8 138 4 138 0 138 0 139 14 139 8 139 9 140 5 140 10 140 9 141 10 141 19 141 20 142 19 142 10 142 114 143 134 143 140 143 162 144 175 144 178 144 114 145 131 145 109 145 195 146 193 146 181 146 91 147 161 147 122 147 93 148 91 148 87 148 80 149 93 149 87 149 62 150 68 150 72 150 80 151 72 151 68 151 72 152 91 152 73 152 84 153 63 153 73 153 62 154 72 154 73 154 62 155 73 155 63 155 30 156 19 156 28 156 20 157 28 157 19 157 30 158 42 158 45 158 108 159 121 159 106 159 48 160 33 160 108 160 99 161 113 161 108 161 33 162 99 162 108 162 24 163 41 163 25 163 33 164 31 164 23 164 33 165 48 165 31 165 17 166 23 166 31 166 48 167 24 167 31 167 31 168 24 168 12 168 31 169 12 169 17 169 110 170 102 170 115 170 102 171 116 171 115 171 115 172 150 172 142 172 150 173 115 173 116 173 107 174 79 174 104 174 111 175 79 175 107 175 104 176 103 176 126 176 101 177 111 177 135 177 60 178 101 178 135 178 145 179 168 179 154 179 236 180 204 180 191 180 239 181 249 181 246 181 256 182 252 182 249 182 246 183 249 183 252 183 236 184 215 184 233 184 236 185 233 185 244 185 243 186 232 186 230 186 214 187 211 187 232 187 215 188 214 188 232 188 232 189 233 189 215 189 230 190 235 190 242 190 235 191 241 191 242 191 242 192 251 192 243 192 243 193 230 193 242 193 203 194 193 194 208 194 224 195 203 195 208 195 208 196 223 196 224 196 213 197 223 197 208 197 202 198 193 198 195 198 212 199 213 199 202 199 213 200 208 200 202 200 202 201 208 201 193 201 209 202 232 202 211 202 230 203 232 203 209 203 211 204 173 204 209 204 173 205 169 205 209 205 235 206 230 206 209 206 235 207 209 207 227 207 199 208 227 208 209 208 209 209 169 209 199 209 11 210 14 210 3 210 11 211 21 211 14 211 3 212 13 212 11 212 13 213 21 213 11 213 1 214 9 214 6 214 18 215 16 215 6 215 9 216 18 216 6 216 88 217 67 217 95 217 32 218 50 218 38 218 50 219 46 219 59 219 50 220 32 220 39 220 39 221 46 221 50 221 32 222 38 222 15 222 8 223 32 223 15 223 20 224 10 224 15 224 5 225 8 225 15 225 5 226 15 226 10 226 151 227 134 227 176 227 134 228 151 228 140 228 136 229 131 229 114 229 114 230 140 230 136 230 140 231 131 231 136 231 219 232 212 232 194 232 194 233 220 233 219 233 143 234 130 234 131 234 162 235 143 235 175 235 157 236 175 236 143 236 143 237 140 237 157 237 131 238 140 238 143 238 98 239 109 239 129 239 131 240 130 240 129 240 109 241 131 241 129 241 178 242 181 242 167 242 167 243 181 243 161 243 180 244 181 244 193 244 159 245 180 245 187 245 193 246 187 246 180 246 91 247 72 247 86 247 86 248 87 248 91 248 72 249 80 249 86 249 80 250 87 250 86 250 68 251 62 251 61 251 114 252 109 252 92 252 91 253 122 253 90 253 91 254 90 254 73 254 122 255 120 255 90 255 120 256 84 256 90 256 84 257 73 257 90 257 28 258 20 258 29 258 20 259 15 259 29 259 29 260 15 260 38 260 49 261 42 261 37 261 28 262 29 262 37 262 30 263 28 263 37 263 30 264 37 264 42 264 45 265 42 265 54 265 62 266 63 266 54 266 63 267 45 267 54 267 42 268 49 268 54 268 61 269 62 269 54 269 106 270 81 270 108 270 48 271 108 271 81 271 106 272 96 272 81 272 24 273 48 273 81 273 43 274 24 274 81 274 144 275 121 275 118 275 121 276 108 276 118 276 41 277 24 277 44 277 43 278 44 278 24 278 43 279 65 279 44 279 104 280 126 280 127 280 127 281 107 281 104 281 128 282 107 282 127 282 127 283 145 283 128 283 103 284 125 284 126 284 124 285 125 285 105 285 103 286 105 286 125 286 124 287 147 287 125 287 206 288 197 288 204 288 176 289 59 289 152 289 59 290 60 290 152 290 60 291 135 291 152 291 152 292 135 292 139 292 204 293 197 293 183 293 204 294 183 294 191 294 152 295 139 295 183 295 236 296 191 296 207 296 207 297 215 297 236 297 157 298 140 298 182 298 190 299 157 299 182 299 140 300 151 300 182 300 182 301 151 301 176 301 176 302 201 302 182 302 201 303 190 303 182 303 220 304 240 304 234 304 239 305 229 305 234 305 249 306 239 306 234 306 240 307 249 307 234 307 219 308 220 308 234 308 222 309 219 309 234 309 229 310 222 310 234 310 256 311 249 311 248 311 249 312 240 312 248 312 254 313 247 313 245 313 244 314 254 314 245 314 236 315 244 315 245 315 247 316 248 316 245 316 110 317 95 317 82 317 82 318 102 318 110 318 82 319 51 319 102 319 67 320 51 320 82 320 67 321 82 321 95 321 178 322 175 322 188 322 175 323 194 323 188 323 195 324 181 324 188 324 181 325 178 325 188 325 157 326 190 326 186 326 186 327 175 327 157 327 175 328 186 328 194 328 186 329 190 329 220 329 220 330 194 330 186 330 162 331 141 331 143 331 130 332 143 332 141 332 161 333 162 333 166 333 166 334 167 334 161 334 162 335 178 335 166 335 178 336 167 336 166 336 160 337 122 337 161 337 161 338 181 338 160 338 181 339 180 339 160 339 120 340 122 340 160 340 159 341 120 341 160 341 159 342 160 342 180 342 80 343 68 343 78 343 92 344 109 344 78 344 98 345 80 345 78 345 78 346 109 346 98 346 59 347 134 347 75 347 134 348 100 348 75 348 92 349 78 349 70 349 49 350 37 350 53 350 53 351 37 351 29 351 78 352 53 352 70 352 68 353 61 353 53 353 68 354 53 354 78 354 49 355 55 355 54 355 61 356 54 356 55 356 49 357 53 357 55 357 55 358 53 358 61 358 83 359 65 359 43 359 43 360 81 360 83 360 83 361 81 361 96 361 83 362 96 362 85 362 117 363 137 363 144 363 144 364 118 364 117 364 113 365 137 365 117 365 113 366 117 366 108 366 118 367 108 367 117 367 41 368 44 368 56 368 65 369 56 369 44 369 56 370 65 370 69 370 69 371 77 371 56 371 77 372 41 372 56 372 168 373 145 373 174 373 207 374 168 374 174 374 215 375 207 375 174 375 170 376 173 376 179 376 155 377 173 377 170 377 170 378 156 378 155 378 205 379 206 379 217 379 216 380 201 380 217 380 217 381 201 381 205 381 217 382 206 382 204 382 176 383 205 383 196 383 201 384 176 384 196 384 205 385 201 385 196 385 220 386 190 386 218 386 190 387 201 387 218 387 240 388 220 388 218 388 216 389 240 389 218 389 218 390 201 390 216 390 133 391 135 391 111 391 135 392 133 392 139 392 197 393 177 393 183 393 152 394 183 394 177 394 197 395 206 395 177 395 176 396 152 396 177 396 139 397 154 397 165 397 165 398 183 398 139 398 168 399 165 399 154 399 168 400 207 400 165 400 191 401 183 401 165 401 165 402 207 402 191 402 256 403 248 403 255 403 255 404 247 404 254 404 255 405 248 405 247 405 194 406 212 406 200 406 194 407 200 407 188 407 212 408 202 408 200 408 200 409 202 409 195 409 195 410 188 410 200 410 94 411 75 411 100 411 94 412 100 412 114 412 114 413 92 413 94 413 92 414 70 414 94 414 38 415 50 415 66 415 75 416 94 416 66 416 70 417 66 417 94 417 66 418 50 418 59 418 59 419 75 419 66 419 58 420 29 420 38 420 58 421 53 421 29 421 38 422 66 422 58 422 70 423 53 423 58 423 70 424 58 424 66 424 69 425 65 425 74 425 65 426 83 426 74 426 74 427 85 427 69 427 74 428 83 428 85 428 145 429 127 429 148 429 145 430 148 430 174 430 156 431 174 431 148 431 148 432 127 432 126 432 215 433 174 433 172 433 172 434 179 434 184 434 174 435 156 435 172 435 172 436 170 436 179 436 156 437 170 437 172 437 216 438 217 438 228 438 240 439 216 439 228 439 240 440 228 440 248 440 225 441 245 441 248 441 248 442 228 442 225 442 225 443 228 443 217 443 225 444 217 444 204 444 204 445 236 445 225 445 236 446 245 446 225 446 111 447 107 447 112 447 112 448 133 448 111 448 132 449 133 449 112 449 107 450 128 450 112 450 128 451 132 451 112 451 145 452 154 452 138 452 154 453 139 453 138 453 128 454 145 454 138 454 138 455 132 455 128 455 139 456 133 456 138 456 138 457 133 457 132 457 156 458 148 458 149 458 149 459 125 459 147 459 126 460 125 460 149 460 149 461 148 461 126 461 147 462 155 462 149 462 155 463 156 463 149 463 184 464 189 464 172 464 215 465 172 465 189 465 184 466 198 466 189 466 198 467 215 467 189 467 23 468 17 468 16 468 16 469 22 469 23 469 2 470 12 470 13 470 3 471 2 471 13 471 253 472 254 472 244 472 253 473 244 473 243 473 252 474 253 474 251 474 252 475 251 475 250 475 46 476 47 476 60 476 60 477 59 477 46 477 24 478 13 478 12 478 25 479 13 479 24 479 243 480 244 480 232 480 244 481 233 481 232 481 250 482 251 482 242 482 241 483 250 483 242 483 6 484 7 484 2 484 2 485 1 485 6 485 16 486 17 486 6 486 17 487 7 487 6 487 95 488 163 488 153 488 89 489 88 489 95 489 95 490 137 490 113 490 158 491 164 491 95 491 142 492 158 492 95 492 153 493 137 493 95 493 95 494 99 494 89 494 164 495 163 495 95 495 113 496 99 496 95 496 110 497 115 497 95 497 95 498 115 498 142 498 162 499 161 499 141 499 91 500 93 500 141 500 141 501 161 501 91 501 141 502 93 502 98 502 141 503 129 503 130 503 98 504 129 504 141 504 206 505 205 505 177 505 205 506 176 506 177 506 254 507 253 507 255 507 253 508 252 508 255 508 252 509 256 509 255 509</p>
        </triangles>
      </mesh>
    </geometry>
  </library_geometries>
  <library_materials>
    <material id="mat_link_5_b_stl001" name="link_5_b_stl001">
      <instance_effect url="#effect_link_5_b_stl001"/>
    </material>
  </library_materials>
  <library_visual_scenes>
    <visual_scene id="myscene">
      <node id="node0" name="node0">
        <instance_geometry url="#geometry0">
          <bind_material>
            <technique_common>
              <instance_material symbol="ref_link_5_b_stl001" target="#mat_link_5_b_stl001"/>
            </technique_common>
          </bind_material>
        </instance_geometry>
      </node>
    </visual_scene>
  </library_visual_scenes>
  <scene>
    <instance_visual_scene url="#myscene"/>
  </scene>
</COLLADA>
